G04*
G04 #@! TF.GenerationSoftware,Altium Limited,Altium Designer,22.1.2 (22)*
G04*
G04 Layer_Color=8388736*
%FSLAX25Y25*%
%MOIN*%
G70*
G04*
G04 #@! TF.SameCoordinates,2374D94A-E5D5-4E5D-BBDB-F5A8C7ADDA7F*
G04*
G04*
G04 #@! TF.FilePolarity,Negative*
G04*
G01*
G75*
%ADD24R,0.05300X0.06800*%
G04:AMPARAMS|DCode=25|XSize=59.18mil|YSize=37.92mil|CornerRadius=7.74mil|HoleSize=0mil|Usage=FLASHONLY|Rotation=135.000|XOffset=0mil|YOffset=0mil|HoleType=Round|Shape=RoundedRectangle|*
%AMROUNDEDRECTD25*
21,1,0.05918,0.02244,0,0,135.0*
21,1,0.04370,0.03792,0,0,135.0*
1,1,0.01548,-0.00752,0.02339*
1,1,0.01548,0.02339,-0.00752*
1,1,0.01548,0.00752,-0.02339*
1,1,0.01548,-0.02339,0.00752*
%
%ADD25ROUNDEDRECTD25*%
%ADD26R,0.04737X0.05918*%
%ADD27R,0.08674X0.22453*%
%ADD28R,0.06312X0.09068*%
G04:AMPARAMS|DCode=29|XSize=59.18mil|YSize=37.92mil|CornerRadius=7.74mil|HoleSize=0mil|Usage=FLASHONLY|Rotation=90.000|XOffset=0mil|YOffset=0mil|HoleType=Round|Shape=RoundedRectangle|*
%AMROUNDEDRECTD29*
21,1,0.05918,0.02244,0,0,90.0*
21,1,0.04370,0.03792,0,0,90.0*
1,1,0.01548,0.01122,0.02185*
1,1,0.01548,0.01122,-0.02185*
1,1,0.01548,-0.01122,-0.02185*
1,1,0.01548,-0.01122,0.02185*
%
%ADD29ROUNDEDRECTD29*%
G04:AMPARAMS|DCode=30|XSize=82.8mil|YSize=26.9mil|CornerRadius=8.72mil|HoleSize=0mil|Usage=FLASHONLY|Rotation=90.000|XOffset=0mil|YOffset=0mil|HoleType=Round|Shape=RoundedRectangle|*
%AMROUNDEDRECTD30*
21,1,0.08280,0.00945,0,0,90.0*
21,1,0.06535,0.02690,0,0,90.0*
1,1,0.01745,0.00472,0.03268*
1,1,0.01745,0.00472,-0.03268*
1,1,0.01745,-0.00472,-0.03268*
1,1,0.01745,-0.00472,0.03268*
%
%ADD30ROUNDEDRECTD30*%
G04:AMPARAMS|DCode=31|XSize=59.18mil|YSize=37.92mil|CornerRadius=7.74mil|HoleSize=0mil|Usage=FLASHONLY|Rotation=180.000|XOffset=0mil|YOffset=0mil|HoleType=Round|Shape=RoundedRectangle|*
%AMROUNDEDRECTD31*
21,1,0.05918,0.02244,0,0,180.0*
21,1,0.04370,0.03792,0,0,180.0*
1,1,0.01548,-0.02185,0.01122*
1,1,0.01548,0.02185,0.01122*
1,1,0.01548,0.02185,-0.01122*
1,1,0.01548,-0.02185,-0.01122*
%
%ADD31ROUNDEDRECTD31*%
%ADD32C,0.18800*%
%ADD33O,0.09461X0.18123*%
%ADD34O,0.07887X0.14973*%
%ADD35O,0.06737X0.12674*%
%ADD36C,0.04737*%
%ADD37P,0.06699X4X90.0*%
%ADD38R,0.05721X0.05721*%
%ADD39C,0.05721*%
%ADD40C,0.06706*%
%ADD41R,0.06706X0.06706*%
%ADD42R,0.06422X0.06422*%
%ADD43C,0.06422*%
%ADD44C,0.13698*%
%ADD45R,0.06422X0.06422*%
%ADD46R,0.05595X0.05595*%
%ADD47C,0.05595*%
%ADD48R,0.08123X0.08123*%
%ADD49C,0.08123*%
%ADD50C,0.05800*%
D24*
X367000Y61000D02*
D03*
X375000D02*
D03*
X385500Y185500D02*
D03*
X377500D02*
D03*
X385500Y196000D02*
D03*
X377500D02*
D03*
X234500Y114056D02*
D03*
X226500D02*
D03*
X234500Y104000D02*
D03*
X226500D02*
D03*
X234500Y93944D02*
D03*
X226500D02*
D03*
D25*
X407978Y92978D02*
D03*
X402995Y87995D02*
D03*
D26*
X322953Y130500D02*
D03*
X317047D02*
D03*
Y109000D02*
D03*
X322953D02*
D03*
D27*
X300500Y138201D02*
D03*
Y100799D02*
D03*
D28*
X130358Y111827D02*
D03*
Y76000D02*
D03*
X112642D02*
D03*
Y111827D02*
D03*
X219500Y61461D02*
D03*
Y25634D02*
D03*
X201783D02*
D03*
Y61461D02*
D03*
X159858Y87913D02*
D03*
Y52087D02*
D03*
X142142D02*
D03*
Y87913D02*
D03*
X257500Y62461D02*
D03*
Y26634D02*
D03*
X239783D02*
D03*
Y62461D02*
D03*
X98858Y87913D02*
D03*
Y52087D02*
D03*
X81142D02*
D03*
Y87913D02*
D03*
X130358Y52413D02*
D03*
Y16587D02*
D03*
X112642D02*
D03*
Y52413D02*
D03*
D29*
X401004Y239000D02*
D03*
X393957D02*
D03*
X407500D02*
D03*
X414547D02*
D03*
D30*
X271425Y191701D02*
D03*
X273984D02*
D03*
X276543D02*
D03*
X279102D02*
D03*
X281661D02*
D03*
X284220D02*
D03*
X286780D02*
D03*
X289339D02*
D03*
X291898D02*
D03*
X294457D02*
D03*
X297016D02*
D03*
X299575D02*
D03*
Y219299D02*
D03*
X297016D02*
D03*
X294457D02*
D03*
X291898D02*
D03*
X289339D02*
D03*
X286780D02*
D03*
X284220D02*
D03*
X281661D02*
D03*
X279102D02*
D03*
X276543D02*
D03*
X273984D02*
D03*
X271425D02*
D03*
D31*
X391000Y128504D02*
D03*
Y121457D02*
D03*
X382000Y137004D02*
D03*
Y129957D02*
D03*
X374000Y145004D02*
D03*
Y137957D02*
D03*
D32*
X45000Y230000D02*
D03*
Y30000D02*
D03*
X450000Y280000D02*
D03*
X324000Y30000D02*
D03*
D33*
X404067Y264214D02*
D03*
D34*
X379657D02*
D03*
D35*
X383594Y250434D02*
D03*
D36*
X409264Y52000D02*
D03*
X412800Y55536D02*
D03*
X422964Y73964D02*
D03*
X426500Y77500D02*
D03*
X430036Y81036D02*
D03*
D37*
X419429Y70429D02*
D03*
D38*
X334000Y206500D02*
D03*
D39*
Y196500D02*
D03*
Y186500D02*
D03*
Y176500D02*
D03*
Y166500D02*
D03*
Y156500D02*
D03*
Y146500D02*
D03*
Y136500D02*
D03*
Y126500D02*
D03*
Y116500D02*
D03*
Y106500D02*
D03*
Y96500D02*
D03*
Y86500D02*
D03*
Y76500D02*
D03*
X365000D02*
D03*
Y86500D02*
D03*
Y96500D02*
D03*
Y106500D02*
D03*
Y116500D02*
D03*
Y126500D02*
D03*
Y136500D02*
D03*
Y146500D02*
D03*
Y156500D02*
D03*
Y166500D02*
D03*
Y176500D02*
D03*
Y186500D02*
D03*
Y196500D02*
D03*
Y206500D02*
D03*
D40*
X37500Y144500D02*
D03*
X47500D02*
D03*
X57500D02*
D03*
X67500D02*
D03*
X77500D02*
D03*
X87500D02*
D03*
X97500D02*
D03*
X107500D02*
D03*
X117500D02*
D03*
X127500D02*
D03*
X137500D02*
D03*
X147500D02*
D03*
X157500D02*
D03*
X167500D02*
D03*
X177500D02*
D03*
X187500D02*
D03*
X197500D02*
D03*
D41*
X207500D02*
D03*
D42*
X157780Y248831D02*
D03*
X68517D02*
D03*
X341280Y247831D02*
D03*
X247280Y248831D02*
D03*
D43*
X147937D02*
D03*
X140063D02*
D03*
X130220D02*
D03*
X58674D02*
D03*
X50800D02*
D03*
X40958D02*
D03*
X448831Y228063D02*
D03*
Y235937D02*
D03*
Y245780D02*
D03*
Y138563D02*
D03*
Y146437D02*
D03*
Y156280D02*
D03*
X331437Y247831D02*
D03*
X323563D02*
D03*
X313720D02*
D03*
X237437Y248831D02*
D03*
X229563D02*
D03*
X219720D02*
D03*
D44*
X169866Y259500D02*
D03*
X118134D02*
D03*
X80603D02*
D03*
X28871D02*
D03*
X459500Y206134D02*
D03*
Y257866D02*
D03*
Y116634D02*
D03*
Y168366D02*
D03*
X353366Y258500D02*
D03*
X301634D02*
D03*
X259366Y259500D02*
D03*
X207634D02*
D03*
D45*
X448831Y218220D02*
D03*
Y128720D02*
D03*
D46*
X251000Y145500D02*
D03*
D47*
Y155500D02*
D03*
Y165500D02*
D03*
D48*
X409000Y215500D02*
D03*
D49*
X399000D02*
D03*
X389000D02*
D03*
D50*
X218600Y174200D02*
D03*
Y193000D02*
D03*
X284220Y212100D02*
D03*
X310700Y222900D02*
D03*
X264000Y188900D02*
D03*
X152700Y207400D02*
D03*
X291300Y118600D02*
D03*
X295300Y152500D02*
D03*
X308900Y141400D02*
D03*
X221600Y100000D02*
D03*
X267700Y63900D02*
D03*
X350688Y90500D02*
D03*
X308700Y197200D02*
D03*
X387100Y61700D02*
D03*
X182300Y118500D02*
D03*
X57500Y100600D02*
D03*
X214400D02*
D03*
X222100Y88800D02*
D03*
X276500Y124100D02*
D03*
X281400Y119500D02*
D03*
X272000Y164100D02*
D03*
X315400Y139000D02*
D03*
X113000Y214700D02*
D03*
X278961Y199900D02*
D03*
X385500Y175900D02*
D03*
X319400Y192300D02*
D03*
M02*
