G04*
G04 #@! TF.GenerationSoftware,Altium Limited,Altium Designer,22.1.2 (22)*
G04*
G04 Layer_Color=8388736*
%FSLAX25Y25*%
%MOIN*%
G70*
G04*
G04 #@! TF.SameCoordinates,6339715F-6F4B-4C81-9F29-0EB7974063C6*
G04*
G04*
G04 #@! TF.FilePolarity,Positive*
G04*
G01*
G75*
%ADD76C,0.00197*%
D76*
X295654Y163594D02*
X302346D01*
X295654Y175406D02*
X302346D01*
X295654Y163594D02*
Y175406D01*
X302346Y163594D02*
Y175406D01*
X299000Y167532D02*
Y171469D01*
X297031Y169500D02*
X300969D01*
X411154Y187406D02*
X417846D01*
X411154Y175594D02*
X417846D01*
Y187406D01*
X411154Y175594D02*
Y187406D01*
X414500Y179531D02*
Y183469D01*
X412532Y181500D02*
X416469D01*
X398654Y187406D02*
X405346D01*
X398654Y175594D02*
X405346D01*
Y187406D01*
X398654Y175594D02*
Y187406D01*
X402000Y179531D02*
Y183469D01*
X400032Y181500D02*
X403969D01*
X386654Y187406D02*
X393346D01*
X386654Y175594D02*
X393346D01*
Y187406D01*
X386654Y175594D02*
Y187406D01*
X390000Y179531D02*
Y183469D01*
X388032Y181500D02*
X391969D01*
X452654Y292906D02*
X459346D01*
X452654Y281094D02*
X459346D01*
Y292906D01*
X452654Y281094D02*
Y292906D01*
X456000Y285031D02*
Y288969D01*
X454032Y287000D02*
X457969D01*
X560654Y293406D02*
X567346D01*
X560654Y281594D02*
X567346D01*
Y293406D01*
X560654Y281594D02*
Y293406D01*
X564000Y285531D02*
Y289469D01*
X562032Y287500D02*
X565969D01*
X505654Y270594D02*
X512346D01*
X505654Y282406D02*
X512346D01*
X505654Y270594D02*
Y282406D01*
X512346Y270594D02*
Y282406D01*
X509000Y274532D02*
Y278469D01*
X507031Y276500D02*
X510969D01*
X505654Y297906D02*
X512346D01*
X505654Y286094D02*
X512346D01*
Y297906D01*
X505654Y286094D02*
Y297906D01*
X509000Y290031D02*
Y293969D01*
X507032Y292000D02*
X510969D01*
X537594Y329654D02*
Y336346D01*
X549406Y329654D02*
Y336346D01*
X537594D02*
X549406D01*
X537594Y329654D02*
X549406D01*
X541532Y333000D02*
X545469D01*
X543500Y331032D02*
Y334969D01*
X449094Y330154D02*
Y336846D01*
X460906Y330154D02*
Y336846D01*
X449094D02*
X460906D01*
X449094Y330154D02*
X460906D01*
X453032Y333500D02*
X456969D01*
X455000Y331532D02*
Y335469D01*
X359094Y328654D02*
Y335346D01*
X370906Y328654D02*
Y335346D01*
X359094D02*
X370906D01*
X359094Y328654D02*
X370906D01*
X363032Y332000D02*
X366969D01*
X365000Y330032D02*
Y333969D01*
X232594Y295654D02*
Y302346D01*
X244406Y295654D02*
Y302346D01*
X232594D02*
X244406D01*
X232594Y295654D02*
X244406D01*
X236532Y299000D02*
X240469D01*
X238500Y297032D02*
Y300969D01*
X54094Y294154D02*
Y300846D01*
X65906Y294154D02*
Y300846D01*
X54094D02*
X65906D01*
X54094Y294154D02*
X65906D01*
X58032Y297500D02*
X61969D01*
X60000Y295532D02*
Y299469D01*
X144094Y296154D02*
Y302846D01*
X155906Y296154D02*
Y302846D01*
X144094D02*
X155906D01*
X144094Y296154D02*
X155906D01*
X148032Y299500D02*
X151969D01*
X150000Y297532D02*
Y301469D01*
X491654Y58594D02*
X498346D01*
X491654Y70406D02*
X498346D01*
X491654Y58594D02*
Y70406D01*
X498346Y58594D02*
Y70406D01*
X495000Y62532D02*
Y66469D01*
X493031Y64500D02*
X496969D01*
X233654Y42906D02*
X240346D01*
X233654Y31094D02*
X240346D01*
Y42906D01*
X233654Y31094D02*
Y42906D01*
X237000Y35031D02*
Y38969D01*
X235032Y37000D02*
X238969D01*
M02*
