G04*
G04 #@! TF.GenerationSoftware,Altium Limited,Altium Designer,22.1.2 (22)*
G04*
G04 Layer_Color=16711935*
%FSLAX25Y25*%
%MOIN*%
G70*
G04*
G04 #@! TF.SameCoordinates,2374D94A-E5D5-4E5D-BBDB-F5A8C7ADDA7F*
G04*
G04*
G04 #@! TF.FilePolarity,Positive*
G04*
G01*
G75*
%ADD10C,0.00787*%
%ADD12C,0.00500*%
%ADD15C,0.01000*%
%ADD72C,0.00394*%
%ADD73C,0.00600*%
%ADD74C,0.00200*%
D10*
X405839Y285277D02*
G03*
X405839Y285277I-394J0D01*
G01*
X112839Y69307D02*
G03*
X112839Y69307I-394J0D01*
G01*
X201980Y18941D02*
G03*
X201980Y18941I-394J0D01*
G01*
X142339Y45394D02*
G03*
X142339Y45394I-394J0D01*
G01*
X239980Y19941D02*
G03*
X239980Y19941I-394J0D01*
G01*
X329815Y206500D02*
G03*
X329815Y206500I-394J0D01*
G01*
X81339Y45394D02*
G03*
X81339Y45394I-394J0D01*
G01*
X270933Y185421D02*
G03*
X270933Y185421I-394J0D01*
G01*
X112839Y9894D02*
G03*
X112839Y9894I-394J0D01*
G01*
X158567Y242177D02*
G03*
X158567Y242177I-394J0D01*
G01*
X69304D02*
G03*
X69304Y242177I-394J0D01*
G01*
X442571Y217827D02*
G03*
X442571Y217827I-394J0D01*
G01*
Y128327D02*
G03*
X442571Y128327I-394J0D01*
G01*
X251394Y140500D02*
G03*
X251394Y140500I-394J0D01*
G01*
X342067Y241177D02*
G03*
X342067Y241177I-394J0D01*
G01*
X248067Y242177D02*
G03*
X248067Y242177I-394J0D01*
G01*
X409394Y225500D02*
G03*
X409394Y225500I-394J0D01*
G01*
D12*
X397374Y264214D02*
G03*
X397374Y264214I-3937J0D01*
G01*
X406232D02*
G03*
X406232Y264214I-12795J0D01*
G01*
X398358D02*
G03*
X398358Y264214I-4921J0D01*
G01*
X307980Y140760D02*
G03*
X306209Y142532I-1772J0D01*
G01*
X293020Y98240D02*
G03*
X294791Y96469I1772J0D01*
G01*
X306209D02*
G03*
X307980Y98240I0J1772D01*
G01*
X294791Y142532D02*
G03*
X293020Y140760I0J-1772D01*
G01*
X411154Y246497D02*
Y281930D01*
X367846Y246497D02*
X411154D01*
X367846D02*
Y281930D01*
X411154D01*
X307980Y98240D02*
Y140760D01*
X294791Y96469D02*
X306209D01*
X293020Y98240D02*
Y140760D01*
X294791Y142532D02*
X306209D01*
X133311Y82102D02*
Y105724D01*
X109689Y82102D02*
X133311D01*
X109689D02*
Y105724D01*
X133311D01*
X222453Y31736D02*
Y55358D01*
X198831Y31736D02*
X222453D01*
X198831D02*
Y55358D01*
X222453D01*
X162811Y58189D02*
Y81811D01*
X139189Y58189D02*
X162811D01*
X139189D02*
Y81811D01*
X162811D01*
X260453Y32736D02*
Y56358D01*
X236831Y32736D02*
X260453D01*
X236831D02*
Y56358D01*
X260453D01*
X335250Y209748D02*
X363750D01*
X335250Y73252D02*
X363750D01*
X335250D02*
Y209748D01*
X363750Y73252D02*
Y209748D01*
X101811Y58189D02*
Y81811D01*
X78189Y58189D02*
X101811D01*
X78189D02*
Y81811D01*
X101811D01*
X268768Y194476D02*
Y216524D01*
X302232D01*
Y194476D02*
Y216524D01*
X268768Y194476D02*
X302232D01*
X133311Y22689D02*
Y46311D01*
X109689Y22689D02*
X133311D01*
X109689D02*
Y46311D01*
X133311D01*
X241472Y136740D02*
Y174260D01*
X260488D01*
Y136740D02*
Y174260D01*
X241472Y136740D02*
X260488D01*
X419748Y204240D02*
Y222744D01*
X378252D02*
X419748D01*
X378252Y204240D02*
Y222744D01*
Y204240D02*
X419748D01*
D15*
X114669Y298870D02*
Y295671D01*
X113070D01*
X112537Y296204D01*
Y297271D01*
X113070Y297804D01*
X114669D01*
X109338Y296204D02*
X109871Y295671D01*
X110937D01*
X111470Y296204D01*
Y298337D01*
X110937Y298870D01*
X109871D01*
X109338Y298337D01*
X108271Y295671D02*
Y298870D01*
X106672D01*
X106139Y298337D01*
Y297804D01*
X106672Y297271D01*
X108271D01*
X106672D01*
X106139Y296737D01*
Y296204D01*
X106672Y295671D01*
X108271D01*
X99741D02*
X101873D01*
Y298870D01*
X99741D01*
X101873Y297271D02*
X100807D01*
X98674Y295671D02*
Y298870D01*
X97075D01*
X96542Y298337D01*
Y296204D01*
X97075Y295671D01*
X98674D01*
X93343Y296204D02*
X93876Y295671D01*
X94942D01*
X95476Y296204D01*
Y298337D01*
X94942Y298870D01*
X93876D01*
X93343Y298337D01*
Y297271D01*
X94409D01*
X90144Y295671D02*
X92277D01*
Y298870D01*
X90144D01*
X92277Y297271D02*
X91210D01*
X25407Y298870D02*
Y295671D01*
X23807D01*
X23274Y296204D01*
Y297271D01*
X23807Y297804D01*
X25407D01*
X20075Y296204D02*
X20608Y295671D01*
X21675D01*
X22208Y296204D01*
Y298337D01*
X21675Y298870D01*
X20608D01*
X20075Y298337D01*
X19009Y295671D02*
Y298870D01*
X17409D01*
X16876Y298337D01*
Y297804D01*
X17409Y297271D01*
X19009D01*
X17409D01*
X16876Y296737D01*
Y296204D01*
X17409Y295671D01*
X19009D01*
X10478D02*
X12611D01*
Y298870D01*
X10478D01*
X12611Y297271D02*
X11544D01*
X9412Y295671D02*
Y298870D01*
X7812D01*
X7279Y298337D01*
Y296204D01*
X7812Y295671D01*
X9412D01*
X4080Y296204D02*
X4613Y295671D01*
X5680D01*
X6213Y296204D01*
Y298337D01*
X5680Y298870D01*
X4613D01*
X4080Y298337D01*
Y297271D01*
X5147D01*
X881Y295671D02*
X3014D01*
Y298870D01*
X881D01*
X3014Y297271D02*
X1947D01*
X498870Y261331D02*
X495671D01*
Y262930D01*
X496204Y263463D01*
X497271D01*
X497804Y262930D01*
Y261331D01*
X496204Y266662D02*
X495671Y266129D01*
Y265063D01*
X496204Y264530D01*
X498337D01*
X498870Y265063D01*
Y266129D01*
X498337Y266662D01*
X495671Y267729D02*
X498870D01*
Y269328D01*
X498337Y269861D01*
X497804D01*
X497271Y269328D01*
Y267729D01*
Y269328D01*
X496737Y269861D01*
X496204D01*
X495671Y269328D01*
Y267729D01*
Y276259D02*
Y274127D01*
X498870D01*
Y276259D01*
X497271Y274127D02*
Y275193D01*
X495671Y277326D02*
X498870D01*
Y278925D01*
X498337Y279458D01*
X496204D01*
X495671Y278925D01*
Y277326D01*
X496204Y282657D02*
X495671Y282124D01*
Y281058D01*
X496204Y280524D01*
X498337D01*
X498870Y281058D01*
Y282124D01*
X498337Y282657D01*
X497271D01*
Y281591D01*
X495671Y285856D02*
Y283723D01*
X498870D01*
Y285856D01*
X497271Y283723D02*
Y284790D01*
X498870Y171831D02*
X495671D01*
Y173430D01*
X496204Y173963D01*
X497271D01*
X497804Y173430D01*
Y171831D01*
X496204Y177162D02*
X495671Y176629D01*
Y175563D01*
X496204Y175030D01*
X498337D01*
X498870Y175563D01*
Y176629D01*
X498337Y177162D01*
X495671Y178229D02*
X498870D01*
Y179828D01*
X498337Y180361D01*
X497804D01*
X497271Y179828D01*
Y178229D01*
Y179828D01*
X496737Y180361D01*
X496204D01*
X495671Y179828D01*
Y178229D01*
Y186759D02*
Y184627D01*
X498870D01*
Y186759D01*
X497271Y184627D02*
Y185693D01*
X495671Y187826D02*
X498870D01*
Y189425D01*
X498337Y189958D01*
X496204D01*
X495671Y189425D01*
Y187826D01*
X496204Y193157D02*
X495671Y192624D01*
Y191558D01*
X496204Y191024D01*
X498337D01*
X498870Y191558D01*
Y192624D01*
X498337Y193157D01*
X497271D01*
Y192091D01*
X495671Y196356D02*
Y194223D01*
X498870D01*
Y196356D01*
X497271Y194223D02*
Y195290D01*
X298169Y297870D02*
Y294671D01*
X296570D01*
X296037Y295204D01*
Y296271D01*
X296570Y296804D01*
X298169D01*
X292838Y295204D02*
X293371Y294671D01*
X294437D01*
X294970Y295204D01*
Y297337D01*
X294437Y297870D01*
X293371D01*
X292838Y297337D01*
X291771Y294671D02*
Y297870D01*
X290172D01*
X289639Y297337D01*
Y296804D01*
X290172Y296271D01*
X291771D01*
X290172D01*
X289639Y295737D01*
Y295204D01*
X290172Y294671D01*
X291771D01*
X283241D02*
X285373D01*
Y297870D01*
X283241D01*
X285373Y296271D02*
X284307D01*
X282174Y294671D02*
Y297870D01*
X280575D01*
X280042Y297337D01*
Y295204D01*
X280575Y294671D01*
X282174D01*
X276843Y295204D02*
X277376Y294671D01*
X278442D01*
X278976Y295204D01*
Y297337D01*
X278442Y297870D01*
X277376D01*
X276843Y297337D01*
Y296271D01*
X277909D01*
X273644Y294671D02*
X275777D01*
Y297870D01*
X273644D01*
X275777Y296271D02*
X274710D01*
X204169Y298870D02*
Y295671D01*
X202570D01*
X202037Y296204D01*
Y297271D01*
X202570Y297804D01*
X204169D01*
X198838Y296204D02*
X199371Y295671D01*
X200437D01*
X200970Y296204D01*
Y298337D01*
X200437Y298870D01*
X199371D01*
X198838Y298337D01*
X197771Y295671D02*
Y298870D01*
X196172D01*
X195639Y298337D01*
Y297804D01*
X196172Y297271D01*
X197771D01*
X196172D01*
X195639Y296737D01*
Y296204D01*
X196172Y295671D01*
X197771D01*
X189241D02*
X191373D01*
Y298870D01*
X189241D01*
X191373Y297271D02*
X190307D01*
X188174Y295671D02*
Y298870D01*
X186575D01*
X186042Y298337D01*
Y296204D01*
X186575Y295671D01*
X188174D01*
X182843Y296204D02*
X183376Y295671D01*
X184442D01*
X184976Y296204D01*
Y298337D01*
X184442Y298870D01*
X183376D01*
X182843Y298337D01*
Y297271D01*
X183909D01*
X179644Y295671D02*
X181776D01*
Y298870D01*
X179644D01*
X181776Y297271D02*
X180710D01*
D72*
X366669Y58146D02*
Y63854D01*
X375331Y58146D02*
Y63854D01*
X366669D02*
X375331D01*
X366669Y58146D02*
X375331D01*
X324134Y127843D02*
Y133157D01*
X315866Y127843D02*
Y133157D01*
Y127843D02*
X324134D01*
X315866Y133157D02*
X324134D01*
X315866Y106343D02*
Y111657D01*
X324134Y106343D02*
Y111657D01*
X315866D02*
X324134D01*
X315866Y106343D02*
X324134D01*
X377169Y182646D02*
X385831D01*
X377169Y188354D02*
X385831D01*
Y182646D02*
Y188354D01*
X377169Y182646D02*
Y188354D01*
Y193146D02*
X385831D01*
X377169Y198854D02*
X385831D01*
Y193146D02*
Y198854D01*
X377169Y193146D02*
Y198854D01*
X226169Y111202D02*
X234831D01*
X226169Y116910D02*
X234831D01*
Y111202D02*
Y116910D01*
X226169Y111202D02*
Y116910D01*
Y101146D02*
X234831D01*
X226169Y106854D02*
X234831D01*
Y101146D02*
Y106854D01*
X226169Y101146D02*
Y106854D01*
Y91090D02*
X234831D01*
X226169Y96798D02*
X234831D01*
Y91090D02*
Y96798D01*
X226169Y91090D02*
Y96798D01*
X171165Y244224D02*
Y299972D01*
X116835Y244224D02*
Y299972D01*
Y244224D02*
X171165D01*
X116835Y299972D02*
X171165D01*
X91520D02*
X116835D01*
X81903Y244224D02*
Y299972D01*
X27572Y244224D02*
Y299972D01*
Y244224D02*
X81903D01*
X27572Y299972D02*
X81903D01*
X2257D02*
X27572D01*
X444224Y204835D02*
X499972D01*
X444224Y259165D02*
X499972D01*
X444224Y204835D02*
Y259165D01*
X499972Y204835D02*
Y259165D01*
Y284480D01*
X444224Y115335D02*
X499972D01*
X444224Y169665D02*
X499972D01*
X444224Y115335D02*
Y169665D01*
X499972Y115335D02*
Y169665D01*
Y194980D01*
X354665Y243224D02*
Y298972D01*
X300335Y243224D02*
Y298972D01*
Y243224D02*
X354665D01*
X300335Y298972D02*
X354665D01*
X275020D02*
X300335D01*
X260665Y244224D02*
Y299972D01*
X206335Y244224D02*
Y299972D01*
Y244224D02*
X260665D01*
X206335Y299972D02*
X260665D01*
X181020D02*
X206335D01*
D73*
X298000Y120500D02*
X303000D01*
X298000Y118500D02*
Y120500D01*
Y118500D02*
X303000D01*
Y120500D01*
X300500Y122000D02*
X303000D01*
X298000D02*
X300500D01*
Y117000D02*
X303000D01*
X298000D02*
X300500D01*
D74*
Y122000D02*
Y124000D01*
Y115000D02*
Y117000D01*
M02*
