G04*
G04 #@! TF.GenerationSoftware,Altium Limited,Altium Designer,22.1.2 (22)*
G04*
G04 Layer_Physical_Order=1*
G04 Layer_Color=255*
%FSLAX25Y25*%
%MOIN*%
G70*
G04*
G04 #@! TF.SameCoordinates,6339715F-6F4B-4C81-9F29-0EB7974063C6*
G04*
G04*
G04 #@! TF.FilePolarity,Positive*
G04*
G01*
G75*
%ADD17C,0.01000*%
%ADD18R,0.06000X0.04500*%
%ADD19R,0.04500X0.06000*%
%ADD20R,0.05118X0.04528*%
G04:AMPARAMS|DCode=21|XSize=51.18mil|YSize=29.92mil|CornerRadius=3.74mil|HoleSize=0mil|Usage=FLASHONLY|Rotation=180.000|XOffset=0mil|YOffset=0mil|HoleType=Round|Shape=RoundedRectangle|*
%AMROUNDEDRECTD21*
21,1,0.05118,0.02244,0,0,180.0*
21,1,0.04370,0.02992,0,0,180.0*
1,1,0.00748,-0.02185,0.01122*
1,1,0.00748,0.02185,0.01122*
1,1,0.00748,0.02185,-0.01122*
1,1,0.00748,-0.02185,-0.01122*
%
%ADD21ROUNDEDRECTD21*%
%ADD22R,0.21654X0.07874*%
G04:AMPARAMS|DCode=23|XSize=51.18mil|YSize=29.92mil|CornerRadius=3.74mil|HoleSize=0mil|Usage=FLASHONLY|Rotation=90.000|XOffset=0mil|YOffset=0mil|HoleType=Round|Shape=RoundedRectangle|*
%AMROUNDEDRECTD23*
21,1,0.05118,0.02244,0,0,90.0*
21,1,0.04370,0.02992,0,0,90.0*
1,1,0.00748,0.01122,0.02185*
1,1,0.00748,0.01122,-0.02185*
1,1,0.00748,-0.01122,-0.02185*
1,1,0.00748,-0.01122,0.02185*
%
%ADD23ROUNDEDRECTD23*%
%ADD24R,0.06299X0.11811*%
%ADD25R,0.26378X0.26378*%
%ADD26R,0.22835X0.24410*%
%ADD27R,0.06299X0.11811*%
%ADD28R,0.03937X0.05118*%
%ADD29R,0.05512X0.08268*%
%ADD30R,0.08268X0.05512*%
%ADD60C,0.05906*%
%ADD61R,0.05906X0.05906*%
%ADD62C,0.12898*%
%ADD63C,0.05622*%
%ADD64R,0.05622X0.05622*%
%ADD65R,0.05906X0.05906*%
%ADD66P,0.08352X4X90.0*%
%ADD67C,0.05900*%
%ADD68R,0.05900X0.05900*%
%ADD69R,0.04449X0.04449*%
%ADD70C,0.04449*%
%ADD71P,0.08352X4X180.0*%
%ADD72O,0.07874X0.15748*%
%ADD73O,0.18504X0.09252*%
%ADD74C,0.05000*%
%ADD75C,0.15000*%
G36*
X599414Y399000D02*
X600000Y398414D01*
Y397000D01*
Y134841D01*
X577915Y112756D01*
Y92915D01*
X522585Y37585D01*
X502744D01*
X465159Y0D01*
X0D01*
Y363414D01*
X586Y364000D01*
X275000D01*
X310000Y399000D01*
Y399146D01*
X310354Y399499D01*
X599414Y399000D01*
D02*
G37*
%LPC*%
G36*
X391600Y365949D02*
X390133D01*
X388693Y365663D01*
X387338Y365101D01*
X386118Y364286D01*
X385080Y363248D01*
X384265Y362028D01*
X383704Y360673D01*
X383417Y359234D01*
Y357766D01*
X383704Y356327D01*
X384265Y354972D01*
X385080Y353752D01*
X386118Y352714D01*
X387338Y351899D01*
X388693Y351337D01*
X390133Y351051D01*
X391600D01*
X393039Y351337D01*
X394394Y351899D01*
X395615Y352714D01*
X396652Y353752D01*
X397467Y354972D01*
X398029Y356327D01*
X398315Y357766D01*
Y359234D01*
X398029Y360673D01*
X397467Y362028D01*
X396652Y363248D01*
X395615Y364286D01*
X394394Y365101D01*
X393039Y365663D01*
X391600Y365949D01*
D02*
G37*
G36*
X339867D02*
X338400D01*
X336961Y365663D01*
X335606Y365101D01*
X334385Y364286D01*
X333348Y363248D01*
X332533Y362028D01*
X331971Y360673D01*
X331685Y359234D01*
Y357766D01*
X331971Y356327D01*
X332533Y354972D01*
X333348Y353752D01*
X334385Y352714D01*
X335606Y351899D01*
X336961Y351337D01*
X338400Y351051D01*
X339867D01*
X340634Y351204D01*
X340880Y350743D01*
X303497Y313360D01*
X256116D01*
Y315642D01*
X248494D01*
Y308020D01*
X250871D01*
Y304033D01*
X247366Y300529D01*
X244527D01*
Y301185D01*
X244420Y301721D01*
X244117Y302176D01*
X243662Y302479D01*
X243126Y302586D01*
X240882D01*
X240529Y302875D01*
Y307735D01*
X241056Y308262D01*
X241961Y308020D01*
X242964D01*
X243933Y308279D01*
X244802Y308781D01*
X245512Y309491D01*
X246014Y310360D01*
X246273Y311329D01*
Y312333D01*
X246014Y313302D01*
X245512Y314171D01*
X244802Y314880D01*
X243933Y315382D01*
X242964Y315642D01*
X241961D01*
X240991Y315382D01*
X240122Y314880D01*
X239413Y314171D01*
X238911Y313302D01*
X238784Y312828D01*
X238266D01*
X238140Y313302D01*
X237638Y314171D01*
X236928Y314880D01*
X236059Y315382D01*
X235090Y315642D01*
X234086D01*
X233117Y315382D01*
X232248Y314880D01*
X231539Y314171D01*
X231037Y313302D01*
X230777Y312333D01*
Y311329D01*
X231037Y310360D01*
X231539Y309491D01*
X232248Y308781D01*
X233117Y308279D01*
X234086Y308020D01*
X235090D01*
X236059Y308279D01*
X236928Y308781D01*
X237071Y308924D01*
X237532Y308678D01*
X237471Y308368D01*
Y302463D01*
X237324Y302358D01*
X236971Y302242D01*
X236615Y302479D01*
X236079Y302586D01*
X235457D01*
Y299000D01*
X234457D01*
Y302586D01*
X233835D01*
X233298Y302479D01*
X232844Y302176D01*
X232540Y301721D01*
X232434Y301185D01*
Y300529D01*
X230379D01*
X226275Y304633D01*
Y308313D01*
X227086Y308781D01*
X227795Y309491D01*
X228297Y310360D01*
X228557Y311329D01*
Y311331D01*
X224746D01*
X220935D01*
Y311329D01*
X221195Y310360D01*
X221696Y309491D01*
X222406Y308781D01*
X223216Y308313D01*
Y304000D01*
X223333Y303415D01*
X223664Y302919D01*
X228664Y297919D01*
X229160Y297587D01*
X229746Y297471D01*
X232434D01*
Y296815D01*
X232540Y296279D01*
X232844Y295824D01*
X233298Y295521D01*
X233427Y295495D01*
Y237590D01*
X220522Y224685D01*
X219520Y224953D01*
X219500D01*
Y221500D01*
X222953D01*
Y221520D01*
X222685Y222522D01*
X236038Y235875D01*
X236370Y236371D01*
X236486Y236957D01*
Y295495D01*
X236615Y295521D01*
X236971Y295758D01*
X237324Y295642D01*
X237471Y295537D01*
Y283400D01*
X237587Y282815D01*
X237919Y282319D01*
X259671Y260566D01*
Y228158D01*
X259051Y227801D01*
X258399Y227149D01*
X257939Y226351D01*
X257700Y225461D01*
Y224539D01*
X257939Y223649D01*
X258399Y222851D01*
X259051Y222199D01*
X259849Y221739D01*
X260739Y221500D01*
X261661D01*
X262551Y221739D01*
X263349Y222199D01*
X264001Y222851D01*
X264018Y222881D01*
X264518Y222747D01*
Y141559D01*
X263079D01*
Y134441D01*
X264518D01*
Y128937D01*
X244173D01*
Y119063D01*
X267827D01*
Y128937D01*
X267577D01*
Y134441D01*
X271453D01*
Y138000D01*
X271953D01*
Y138500D01*
X274921D01*
Y141559D01*
X273482D01*
Y161272D01*
X276961Y164751D01*
X277423Y164560D01*
Y139294D01*
X277540Y138709D01*
X277871Y138213D01*
X277971Y138114D01*
Y74192D01*
X277471Y74119D01*
X276602Y75418D01*
X275418Y76602D01*
X274026Y77533D01*
X272479Y78173D01*
X270837Y78500D01*
X269163D01*
X267521Y78173D01*
X265974Y77533D01*
X264582Y76602D01*
X263398Y75418D01*
X262467Y74026D01*
X261827Y72479D01*
X261500Y70837D01*
Y69163D01*
X261827Y67521D01*
X262467Y65974D01*
X263398Y64582D01*
X264582Y63398D01*
X265974Y62467D01*
X267521Y61827D01*
X269163Y61500D01*
X270837D01*
X272479Y61827D01*
X274026Y62467D01*
X275418Y63398D01*
X276602Y64582D01*
X277471Y65881D01*
X277971Y65808D01*
Y54934D01*
X276877Y53840D01*
X276877Y53840D01*
X258063Y35025D01*
X240505D01*
X240479Y35154D01*
X240176Y35609D01*
X239721Y35912D01*
X239185Y36019D01*
X237500D01*
Y33496D01*
Y30973D01*
X239185D01*
X239721Y31080D01*
X240176Y31383D01*
X240479Y31838D01*
X240505Y31967D01*
X258696D01*
X259281Y32083D01*
X259777Y32415D01*
X275967Y48604D01*
X276429Y48413D01*
Y26184D01*
X276545Y25598D01*
X276877Y25102D01*
X277919Y24060D01*
X278415Y23729D01*
X278953Y23622D01*
Y21386D01*
X283587D01*
Y25142D01*
Y28898D01*
X279488D01*
Y39102D01*
X289220D01*
Y41329D01*
X314779D01*
Y39102D01*
X325047D01*
Y46614D01*
X319529D01*
Y81822D01*
X320425Y82339D01*
X321161Y83075D01*
X321681Y83975D01*
X321950Y84980D01*
Y86020D01*
X321681Y87025D01*
X321161Y87925D01*
X320616Y88471D01*
X320823Y88971D01*
X353000D01*
X353585Y89087D01*
X354081Y89419D01*
X371509Y106846D01*
X371971Y106654D01*
Y93000D01*
X372087Y92415D01*
X372419Y91919D01*
X374919Y89419D01*
X375367Y89119D01*
X375432Y88977D01*
X375488Y88707D01*
X375478Y88565D01*
X374839Y87925D01*
X374319Y87025D01*
X374050Y86020D01*
Y84980D01*
X374319Y83975D01*
X374839Y83075D01*
X375575Y82339D01*
X376471Y81822D01*
Y46614D01*
X368779D01*
Y44388D01*
X343220D01*
Y46614D01*
X332953D01*
Y39102D01*
X343220D01*
Y41329D01*
X368779D01*
Y39102D01*
X379047D01*
Y41754D01*
X379081Y41777D01*
X379413Y42273D01*
X379529Y42858D01*
Y81822D01*
X380425Y82339D01*
X381161Y83075D01*
X381681Y83975D01*
X381950Y84980D01*
Y86020D01*
X381681Y87025D01*
X381161Y87925D01*
X380615Y88471D01*
X380823Y88971D01*
X383582D01*
X458481Y14071D01*
X456768Y12358D01*
X462358Y6768D01*
X467948Y12358D01*
X462358Y17948D01*
X460644Y16234D01*
X385297Y91581D01*
X384801Y91913D01*
X384216Y92029D01*
X380823D01*
X380615Y92529D01*
X381161Y93075D01*
X381678Y93971D01*
X404000D01*
X404585Y94087D01*
X405081Y94419D01*
X409081Y98419D01*
X409413Y98915D01*
X409529Y99500D01*
Y116750D01*
X412000D01*
Y123250D01*
X404000D01*
Y116750D01*
X406471D01*
Y100134D01*
X403367Y97029D01*
X381678D01*
X381161Y97925D01*
X380425Y98661D01*
X379525Y99181D01*
X378520Y99450D01*
X377480D01*
X376475Y99181D01*
X375575Y98661D01*
X375491Y98577D01*
X375029Y98769D01*
Y102231D01*
X375491Y102422D01*
X375575Y102339D01*
X376475Y101819D01*
X377480Y101550D01*
X378520D01*
X379525Y101819D01*
X380425Y102339D01*
X381161Y103075D01*
X381678Y103971D01*
X382000D01*
X382585Y104087D01*
X383081Y104419D01*
X385581Y106919D01*
X385913Y107415D01*
X386029Y108000D01*
Y115366D01*
X389134Y118471D01*
X393000D01*
Y116750D01*
X399971D01*
Y108159D01*
X399351Y107801D01*
X398699Y107149D01*
X398238Y106351D01*
X398000Y105461D01*
Y104539D01*
X398238Y103649D01*
X398699Y102851D01*
X399351Y102199D01*
X400149Y101739D01*
X401039Y101500D01*
X401961D01*
X402851Y101739D01*
X403649Y102199D01*
X404301Y102851D01*
X404762Y103649D01*
X405000Y104539D01*
Y105461D01*
X404762Y106351D01*
X404301Y107149D01*
X403649Y107801D01*
X403029Y108159D01*
Y123000D01*
X402913Y123585D01*
X402581Y124081D01*
X401581Y125081D01*
X401085Y125413D01*
X401000Y125430D01*
Y126471D01*
X404000D01*
Y124750D01*
X412000D01*
Y126471D01*
X432367D01*
X435471Y123366D01*
Y67957D01*
X435587Y67371D01*
X435919Y66875D01*
X442918Y59875D01*
X443415Y59544D01*
X444000Y59427D01*
X491495D01*
X491521Y59298D01*
X491824Y58844D01*
X492279Y58540D01*
X492815Y58434D01*
X497185D01*
X497721Y58540D01*
X498176Y58844D01*
X498479Y59298D01*
X498505Y59427D01*
X529099D01*
X529684Y59544D01*
X530180Y59875D01*
X530357Y60053D01*
X532071Y58339D01*
X537661Y63929D01*
X532071Y69519D01*
X526481Y63929D01*
X527462Y62948D01*
X527271Y62486D01*
X498505D01*
X498479Y62615D01*
X498176Y63069D01*
X497721Y63373D01*
X497185Y63480D01*
X492815D01*
X492279Y63373D01*
X491824Y63069D01*
X491521Y62615D01*
X491495Y62486D01*
X444633D01*
X438529Y68590D01*
Y124000D01*
X438413Y124585D01*
X438081Y125081D01*
X434081Y129081D01*
X433585Y129413D01*
X433000Y129529D01*
X412000D01*
Y131250D01*
X404000D01*
Y129529D01*
X401399D01*
X401192Y130029D01*
X403081Y131919D01*
X403413Y132415D01*
X403529Y133000D01*
Y175473D01*
X404185D01*
X404451Y175526D01*
X404771Y175080D01*
X404638Y174851D01*
X404400Y173961D01*
Y173039D01*
X404638Y172149D01*
X405099Y171351D01*
X405751Y170699D01*
X406371Y170342D01*
Y161400D01*
X406487Y160815D01*
X406819Y160319D01*
X479971Y87167D01*
Y81500D01*
X478250D01*
Y73500D01*
X484171D01*
Y70304D01*
X484287Y69719D01*
X484619Y69223D01*
X486919Y66923D01*
X487415Y66591D01*
X488000Y66475D01*
X491495D01*
X491521Y66346D01*
X491824Y65891D01*
X492279Y65588D01*
X492815Y65481D01*
X494500D01*
Y68004D01*
Y70527D01*
X492815D01*
X492279Y70420D01*
X491824Y70117D01*
X491521Y69662D01*
X491495Y69533D01*
X488633D01*
X487229Y70938D01*
Y73500D01*
X492750D01*
Y78587D01*
X497776Y83613D01*
X507177D01*
X507695Y82715D01*
X508431Y81979D01*
X509332Y81459D01*
X510337Y81189D01*
X511378D01*
X512384Y81459D01*
X513285Y81979D01*
X514021Y82715D01*
X514541Y83617D01*
X514811Y84622D01*
Y85663D01*
X514541Y86668D01*
X514021Y87569D01*
X513285Y88305D01*
X512384Y88826D01*
X511378Y89095D01*
X510337D01*
X509332Y88826D01*
X508431Y88305D01*
X507695Y87569D01*
X507177Y86672D01*
X497142D01*
X496557Y86555D01*
X496061Y86224D01*
X491337Y81500D01*
X487229D01*
Y117266D01*
X497723Y127760D01*
X498055Y128256D01*
X498171Y128842D01*
Y155677D01*
X498671Y155944D01*
X498757Y155887D01*
X499342Y155771D01*
X525100D01*
X525685Y155887D01*
X526181Y156219D01*
X557302Y187339D01*
X557633Y187835D01*
X557750Y188420D01*
Y203723D01*
X560846D01*
X562315Y203916D01*
X563684Y204483D01*
X564859Y205385D01*
X565761Y206560D01*
X566302Y207868D01*
X568000D01*
X568084Y207885D01*
X568471Y207568D01*
Y199147D01*
X567510Y198749D01*
X566479Y197958D01*
X565688Y196927D01*
X565190Y195726D01*
X565020Y194437D01*
Y191000D01*
X570000D01*
X574980D01*
Y194437D01*
X574810Y195726D01*
X574312Y196927D01*
X573521Y197958D01*
X572490Y198749D01*
X571529Y199147D01*
Y211398D01*
Y222867D01*
X583710Y235047D01*
X585000D01*
Y238500D01*
X581547D01*
Y237210D01*
X568919Y224581D01*
X568587Y224085D01*
X568471Y223500D01*
Y212031D01*
X567367Y210927D01*
X566302D01*
X565761Y212235D01*
X564859Y213410D01*
X563684Y214312D01*
X562315Y214879D01*
X560846Y215072D01*
X556720D01*
Y209398D01*
X555720D01*
Y215072D01*
X551594D01*
X551261Y215028D01*
X551040Y215477D01*
X566581Y231018D01*
X569047D01*
X569632Y231134D01*
X570129Y231466D01*
X573978Y235315D01*
X574980Y235047D01*
X576020D01*
X577026Y235317D01*
X577927Y235837D01*
X578663Y236573D01*
X579183Y237474D01*
X579453Y238480D01*
Y239520D01*
X579183Y240526D01*
X578663Y241427D01*
X577927Y242163D01*
X577026Y242683D01*
X576020Y242953D01*
X574980D01*
X573974Y242683D01*
X573073Y242163D01*
X572337Y241427D01*
X572133Y241074D01*
X571633Y241208D01*
Y300770D01*
X580081Y309219D01*
X580413Y309715D01*
X580529Y310300D01*
Y337100D01*
X580413Y337685D01*
X580081Y338181D01*
X568086Y350177D01*
X568322Y350618D01*
X568658Y350551D01*
X570125D01*
X571564Y350837D01*
X572920Y351399D01*
X574140Y352214D01*
X575177Y353252D01*
X575992Y354472D01*
X576554Y355827D01*
X576840Y357266D01*
Y358734D01*
X576554Y360173D01*
X575992Y361528D01*
X575177Y362748D01*
X574140Y363786D01*
X572920Y364601D01*
X571564Y365163D01*
X570125Y365449D01*
X568658D01*
X567219Y365163D01*
X565863Y364601D01*
X564643Y363786D01*
X563605Y362748D01*
X562790Y361528D01*
X562229Y360173D01*
X561943Y358734D01*
Y357266D01*
X562074Y356605D01*
X561649Y356180D01*
X561400Y356229D01*
X528600D01*
X528015Y356113D01*
X527519Y355781D01*
X523363Y351626D01*
X523032Y351130D01*
X522915Y350545D01*
Y308996D01*
X520295D01*
Y303620D01*
X519947D01*
X519362Y303504D01*
X518866Y303172D01*
X512974Y297280D01*
X512861Y297262D01*
X512381Y297349D01*
X512176Y297656D01*
X511721Y297960D01*
X511185Y298066D01*
X506815D01*
X506279Y297960D01*
X505824Y297656D01*
X505521Y297202D01*
X505495Y297073D01*
X501890D01*
X498329Y300634D01*
Y327300D01*
X498213Y327885D01*
X497881Y328381D01*
X473481Y352781D01*
X472985Y353113D01*
X472400Y353229D01*
X463200D01*
X462615Y353113D01*
X462119Y352781D01*
X461787Y352285D01*
X461671Y351700D01*
Y349861D01*
X461171Y349749D01*
X460540Y350380D01*
X459671Y350882D01*
X458701Y351142D01*
X457698D01*
X456794Y350900D01*
X452312Y355381D01*
X451816Y355713D01*
X451230Y355829D01*
X436069D01*
X435779Y356079D01*
X435650Y356282D01*
X435845Y357266D01*
Y358734D01*
X435559Y360173D01*
X434998Y361528D01*
X434183Y362748D01*
X433145Y363786D01*
X431925Y364601D01*
X430569Y365163D01*
X429130Y365449D01*
X427663D01*
X426224Y365163D01*
X424868Y364601D01*
X423648Y363786D01*
X422611Y362748D01*
X421796Y361528D01*
X421234Y360173D01*
X420948Y358734D01*
Y357266D01*
X421234Y355827D01*
X421796Y354472D01*
X422611Y353252D01*
X423648Y352214D01*
X424868Y351399D01*
X426224Y350837D01*
X427663Y350551D01*
X429130D01*
X429404Y350606D01*
X429640Y350165D01*
X386819Y307343D01*
X386487Y306847D01*
X386371Y306262D01*
Y266034D01*
X379519Y259182D01*
X378520Y259450D01*
X377480D01*
X376475Y259181D01*
X375575Y258661D01*
X374839Y257925D01*
X374319Y257025D01*
X374050Y256020D01*
Y254980D01*
X374319Y253975D01*
X374839Y253075D01*
X375575Y252339D01*
X376475Y251819D01*
X377480Y251550D01*
X378520D01*
X379525Y251819D01*
X380425Y252339D01*
X381161Y253075D01*
X381681Y253975D01*
X381950Y254980D01*
Y256020D01*
X381682Y257019D01*
X388981Y264319D01*
X389313Y264815D01*
X389429Y265400D01*
Y305628D01*
X391075Y307274D01*
X391536Y307028D01*
X391471Y306700D01*
Y261134D01*
X379519Y249182D01*
X378520Y249450D01*
X377480D01*
X376475Y249181D01*
X375575Y248661D01*
X374839Y247925D01*
X374319Y247025D01*
X374050Y246020D01*
Y244980D01*
X374319Y243975D01*
X374839Y243075D01*
X375575Y242339D01*
X376475Y241819D01*
X377480Y241550D01*
X378520D01*
X379525Y241819D01*
X380425Y242339D01*
X381161Y243075D01*
X381681Y243975D01*
X381950Y244980D01*
Y246020D01*
X381682Y247019D01*
X394081Y259419D01*
X394413Y259915D01*
X394529Y260500D01*
Y306066D01*
X436172Y347709D01*
X436672Y347502D01*
Y346829D01*
X436932Y345860D01*
X437434Y344991D01*
X438143Y344281D01*
X439012Y343779D01*
X439982Y343520D01*
X439983D01*
Y347331D01*
X440983D01*
Y343520D01*
X440985D01*
X441954Y343779D01*
X442823Y344281D01*
X443533Y344991D01*
X443564Y345044D01*
X444200Y345147D01*
X444371Y344996D01*
Y339057D01*
X444487Y338471D01*
X444819Y337975D01*
X448794Y334000D01*
X450957D01*
Y337086D01*
X450335D01*
X450083Y337036D01*
X447429Y339690D01*
Y344184D01*
X447891Y344375D01*
X447986Y344281D01*
X448855Y343779D01*
X449824Y343520D01*
X450827D01*
X451797Y343779D01*
X452666Y344281D01*
X453375Y344991D01*
X453877Y345860D01*
X454004Y346333D01*
X454521D01*
X454648Y345860D01*
X455150Y344991D01*
X455860Y344281D01*
X456729Y343779D01*
X457698Y343520D01*
X458701D01*
X459671Y343779D01*
X459763Y343833D01*
X460070Y343432D01*
X453719Y337081D01*
X453682Y337026D01*
X453191Y336928D01*
X453115Y336979D01*
X452579Y337086D01*
X451957D01*
Y333500D01*
Y329914D01*
X452579D01*
X452771Y329952D01*
X453271Y329569D01*
Y323833D01*
X420919Y291481D01*
X420587Y290985D01*
X420471Y290400D01*
Y287193D01*
X418441D01*
Y282675D01*
X417979Y282484D01*
X415452Y285011D01*
X414956Y285342D01*
X414559Y285421D01*
Y287193D01*
X407441D01*
Y284558D01*
X406504Y284306D01*
X406428Y284269D01*
X406345Y284255D01*
X406163Y284138D01*
X405969Y284042D01*
X405913Y283979D01*
X405842Y283934D01*
X405718Y283756D01*
X405575Y283594D01*
X405548Y283514D01*
X405500Y283445D01*
X405453Y283233D01*
X405384Y283028D01*
X405389Y282944D01*
X405371Y282862D01*
X404500Y242577D01*
X404000Y242583D01*
Y247250D01*
X401529D01*
Y250750D01*
X404000D01*
Y257250D01*
X396000D01*
Y250750D01*
X398471D01*
Y247250D01*
X396000D01*
Y240750D01*
X403960D01*
X404458Y240649D01*
X404432Y239415D01*
X404000Y239250D01*
Y239250D01*
X396000D01*
Y232750D01*
X398471D01*
Y231500D01*
X398587Y230915D01*
X398919Y230419D01*
X398971Y230366D01*
Y229750D01*
X396500D01*
Y224150D01*
X396315Y224113D01*
X395819Y223781D01*
X393119Y221081D01*
X392787Y220585D01*
X392671Y220000D01*
Y212333D01*
X379519Y199182D01*
X378520Y199450D01*
X377480D01*
X376475Y199181D01*
X375575Y198661D01*
X374839Y197925D01*
X374319Y197025D01*
X374050Y196020D01*
Y194980D01*
X374319Y193975D01*
X374839Y193075D01*
X375575Y192339D01*
X376475Y191819D01*
X377480Y191550D01*
X378520D01*
X379519Y191818D01*
X382921Y188417D01*
Y180000D01*
X382938Y179912D01*
X382621Y179525D01*
X380496D01*
X379911Y179409D01*
X379549Y179167D01*
X379525Y179181D01*
X378520Y179450D01*
X377480D01*
X376475Y179181D01*
X375575Y178661D01*
X374839Y177925D01*
X374319Y177025D01*
X374050Y176020D01*
Y174980D01*
X374319Y173975D01*
X374839Y173075D01*
X375575Y172339D01*
X376475Y171819D01*
X377480Y171550D01*
X378520D01*
X379525Y171819D01*
X380425Y172339D01*
X381161Y173075D01*
X381681Y173975D01*
X381950Y174980D01*
Y176020D01*
X381937Y176070D01*
X382241Y176467D01*
X386495D01*
X386521Y176338D01*
X386824Y175883D01*
X387279Y175580D01*
X387815Y175473D01*
X392185D01*
X392721Y175580D01*
X393176Y175883D01*
X393479Y176338D01*
X393505Y176467D01*
X398495D01*
X398521Y176338D01*
X398824Y175883D01*
X399279Y175580D01*
X399815Y175473D01*
X400471D01*
Y133633D01*
X398087Y131250D01*
X394029D01*
Y141000D01*
X393913Y141585D01*
X393581Y142081D01*
X381682Y153981D01*
X381950Y154980D01*
Y156020D01*
X381681Y157025D01*
X381161Y157925D01*
X380425Y158661D01*
X379525Y159181D01*
X378520Y159450D01*
X377480D01*
X376475Y159181D01*
X375575Y158661D01*
X374839Y157925D01*
X374319Y157025D01*
X374050Y156020D01*
Y154980D01*
X374319Y153975D01*
X374839Y153075D01*
X375575Y152339D01*
X376475Y151819D01*
X377480Y151550D01*
X378520D01*
X379519Y151818D01*
X390971Y140366D01*
Y125000D01*
X391087Y124415D01*
X391419Y123919D01*
X392419Y122919D01*
X392915Y122587D01*
X393000Y122570D01*
Y121529D01*
X388500D01*
X387915Y121413D01*
X387419Y121081D01*
X384491Y118154D01*
X384029Y118346D01*
Y121000D01*
X383913Y121585D01*
X383581Y122081D01*
X381682Y123981D01*
X381950Y124980D01*
Y126020D01*
X381681Y127025D01*
X381161Y127925D01*
X380425Y128661D01*
X379525Y129181D01*
X378520Y129450D01*
X377480D01*
X376475Y129181D01*
X375575Y128661D01*
X374839Y127925D01*
X374319Y127025D01*
X374050Y126020D01*
Y124980D01*
X374319Y123975D01*
X374839Y123075D01*
X375575Y122339D01*
X376475Y121819D01*
X377480Y121550D01*
X378520D01*
X379519Y121818D01*
X380971Y120367D01*
Y118769D01*
X380509Y118578D01*
X380425Y118661D01*
X379525Y119181D01*
X378520Y119450D01*
X377480D01*
X376475Y119181D01*
X375575Y118661D01*
X374839Y117925D01*
X374319Y117025D01*
X374050Y116020D01*
Y114980D01*
X374318Y113981D01*
X353668Y93331D01*
X353301Y93651D01*
X353762Y94449D01*
X354000Y95339D01*
Y96261D01*
X353762Y97151D01*
X353301Y97949D01*
X352649Y98601D01*
X352029Y98958D01*
Y107367D01*
X376481Y131818D01*
X377480Y131550D01*
X378520D01*
X379525Y131819D01*
X380425Y132339D01*
X381161Y133075D01*
X381681Y133975D01*
X381950Y134980D01*
Y136020D01*
X381681Y137025D01*
X381161Y137925D01*
X380425Y138661D01*
X379525Y139181D01*
X378520Y139450D01*
X377480D01*
X376475Y139181D01*
X375575Y138661D01*
X374839Y137925D01*
X374319Y137025D01*
X374050Y136020D01*
Y134980D01*
X374318Y133981D01*
X349419Y109081D01*
X349087Y108585D01*
X348971Y108000D01*
Y98958D01*
X348351Y98601D01*
X347699Y97949D01*
X347238Y97151D01*
X347000Y96261D01*
Y95339D01*
X347238Y94449D01*
X347699Y93651D01*
X348351Y92999D01*
X349149Y92538D01*
X349183Y92529D01*
X349117Y92029D01*
X320823D01*
X320616Y92529D01*
X321161Y93075D01*
X321681Y93975D01*
X321950Y94980D01*
Y96020D01*
X321682Y97019D01*
X328781Y104119D01*
X329113Y104615D01*
X329229Y105200D01*
Y207841D01*
X329849Y208199D01*
X330501Y208851D01*
X330961Y209649D01*
X331200Y210539D01*
Y211461D01*
X330961Y212351D01*
X330501Y213149D01*
X329849Y213801D01*
X329051Y214262D01*
X328161Y214500D01*
X327239D01*
X326349Y214262D01*
X325551Y213801D01*
X324899Y213149D01*
X324529Y212508D01*
X324029Y212642D01*
Y218000D01*
X323913Y218585D01*
X323581Y219081D01*
X321081Y221581D01*
X320633Y221881D01*
X320573Y222013D01*
X320522Y222435D01*
X321161Y223075D01*
X321681Y223975D01*
X321950Y224980D01*
Y226020D01*
X321681Y227025D01*
X321161Y227925D01*
X320425Y228661D01*
X319525Y229181D01*
X318520Y229450D01*
X317480D01*
X316475Y229181D01*
X315575Y228661D01*
X314839Y227925D01*
X314319Y227025D01*
X314050Y226020D01*
Y225899D01*
X313550Y225632D01*
X313529Y225646D01*
Y230300D01*
X313413Y230885D01*
X313081Y231381D01*
X301548Y242915D01*
X301052Y243246D01*
X300467Y243363D01*
X279433D01*
X278848Y243246D01*
X278352Y242915D01*
X264966Y229529D01*
X264634Y229032D01*
X264518Y228447D01*
Y227253D01*
X264018Y227119D01*
X264001Y227149D01*
X263349Y227801D01*
X262729Y228158D01*
Y261200D01*
X262613Y261785D01*
X262281Y262281D01*
X240529Y284033D01*
Y295125D01*
X240882Y295414D01*
X243126D01*
X243662Y295521D01*
X244117Y295824D01*
X244420Y296279D01*
X244527Y296815D01*
Y297471D01*
X248000D01*
X248585Y297587D01*
X249081Y297919D01*
X253481Y302319D01*
X253813Y302815D01*
X253929Y303400D01*
Y308020D01*
X256116D01*
Y310301D01*
X304131D01*
X304716Y310418D01*
X305212Y310749D01*
X347076Y352613D01*
X355396D01*
X355588Y352151D01*
X354519Y351081D01*
X354338Y350810D01*
X353739Y350702D01*
X353560Y350880D01*
X352691Y351382D01*
X351722Y351642D01*
X351720D01*
Y347831D01*
Y344020D01*
X351722D01*
X351897Y344067D01*
X352155Y343618D01*
X349419Y340881D01*
X349087Y340385D01*
X348971Y339800D01*
Y335440D01*
X348471Y335204D01*
X347851Y335561D01*
X346961Y335800D01*
X346039D01*
X345149Y335561D01*
X344351Y335101D01*
X343699Y334449D01*
X343238Y333651D01*
X343000Y332761D01*
Y331839D01*
X343185Y331148D01*
X312419Y300381D01*
X312087Y299885D01*
X311971Y299300D01*
Y250000D01*
X312087Y249415D01*
X312419Y248919D01*
X314318Y247019D01*
X314050Y246020D01*
Y244980D01*
X314319Y243975D01*
X314839Y243075D01*
X315575Y242339D01*
X316475Y241819D01*
X317480Y241550D01*
X318520D01*
X319525Y241819D01*
X320425Y242339D01*
X321161Y243075D01*
X321681Y243975D01*
X321950Y244980D01*
Y246020D01*
X321681Y247025D01*
X321161Y247925D01*
X320425Y248661D01*
X319525Y249181D01*
X318520Y249450D01*
X317480D01*
X316481Y249182D01*
X315029Y250634D01*
Y252231D01*
X315491Y252422D01*
X315575Y252339D01*
X316475Y251819D01*
X317480Y251550D01*
X318520D01*
X319525Y251819D01*
X320425Y252339D01*
X321161Y253075D01*
X321681Y253975D01*
X321950Y254980D01*
Y256020D01*
X321682Y257019D01*
X357781Y293119D01*
X358113Y293615D01*
X358229Y294200D01*
Y335268D01*
X358729Y335372D01*
X359176Y334925D01*
X359040Y334721D01*
X358934Y334185D01*
Y332500D01*
X361457D01*
X363980D01*
Y334185D01*
X363873Y334721D01*
X363737Y334925D01*
X364257Y335446D01*
X364718Y336244D01*
X364946Y337095D01*
X361457D01*
Y337595D01*
X360957D01*
Y341084D01*
X360106Y340856D01*
X359308Y340395D01*
X358729Y339817D01*
X358229Y339921D01*
Y341464D01*
X358613Y341848D01*
X358945Y342344D01*
X359061Y342930D01*
Y343666D01*
X359657Y344262D01*
X360561Y344020D01*
X361565D01*
X362534Y344280D01*
X363403Y344781D01*
X364113Y345491D01*
X364614Y346360D01*
X364741Y346833D01*
X365259D01*
X365386Y346360D01*
X365887Y345491D01*
X366597Y344781D01*
X367466Y344280D01*
X368435Y344020D01*
X369439D01*
X370408Y344280D01*
X371277Y344781D01*
X371571Y345075D01*
X372071Y344868D01*
Y337730D01*
X369877Y335536D01*
X369626Y335586D01*
X367382D01*
X366846Y335479D01*
X366391Y335176D01*
X366088Y334721D01*
X365981Y334185D01*
Y329815D01*
X366088Y329279D01*
X366391Y328824D01*
X366846Y328521D01*
X367382Y328414D01*
X369626D01*
X370162Y328521D01*
X370617Y328824D01*
X370920Y329279D01*
X371027Y329815D01*
Y332360D01*
X374681Y336015D01*
X375013Y336511D01*
X375129Y337096D01*
Y344020D01*
X382591D01*
Y351642D01*
X377132D01*
X373550Y355223D01*
X373054Y355555D01*
X372468Y355671D01*
X346566D01*
X346188Y356066D01*
X346296Y356327D01*
X346583Y357766D01*
Y359234D01*
X346296Y360673D01*
X345735Y362028D01*
X344920Y363248D01*
X343882Y364286D01*
X342662Y365101D01*
X341306Y365663D01*
X339867Y365949D01*
D02*
G37*
G36*
X518393Y365449D02*
X516926D01*
X515486Y365163D01*
X514131Y364601D01*
X512911Y363786D01*
X511873Y362748D01*
X511058Y361528D01*
X510497Y360173D01*
X510210Y358734D01*
Y357266D01*
X510497Y355827D01*
X511058Y354472D01*
X511873Y353252D01*
X512911Y352214D01*
X514131Y351399D01*
X515486Y350837D01*
X516926Y350551D01*
X518393D01*
X519832Y350837D01*
X521187Y351399D01*
X522407Y352214D01*
X523445Y353252D01*
X524260Y354472D01*
X524822Y355827D01*
X525108Y357266D01*
Y358734D01*
X524822Y360173D01*
X524260Y361528D01*
X523445Y362748D01*
X522407Y363786D01*
X521187Y364601D01*
X519832Y365163D01*
X518393Y365449D01*
D02*
G37*
G36*
X480862D02*
X479395D01*
X477956Y365163D01*
X476601Y364601D01*
X475381Y363786D01*
X474343Y362748D01*
X473528Y361528D01*
X472966Y360173D01*
X472680Y358734D01*
Y357266D01*
X472966Y355827D01*
X473528Y354472D01*
X474343Y353252D01*
X475381Y352214D01*
X476601Y351399D01*
X477956Y350837D01*
X479395Y350551D01*
X480862D01*
X482302Y350837D01*
X483657Y351399D01*
X484877Y352214D01*
X485915Y353252D01*
X486730Y354472D01*
X487291Y355827D01*
X487578Y357266D01*
Y358734D01*
X487291Y360173D01*
X486730Y361528D01*
X485915Y362748D01*
X484877Y363786D01*
X483657Y364601D01*
X482302Y365163D01*
X480862Y365449D01*
D02*
G37*
G36*
X350720Y351642D02*
X350719D01*
X349749Y351382D01*
X348880Y350880D01*
X348171Y350171D01*
X347669Y349302D01*
X347409Y348333D01*
Y348331D01*
X350720D01*
Y351642D01*
D02*
G37*
G36*
Y347331D02*
X347409D01*
Y347329D01*
X347669Y346360D01*
X348171Y345491D01*
X348880Y344781D01*
X349749Y344280D01*
X350719Y344020D01*
X350720D01*
Y347331D01*
D02*
G37*
G36*
X361957Y341084D02*
Y338095D01*
X364946D01*
X364718Y338946D01*
X364257Y339744D01*
X363606Y340395D01*
X362807Y340856D01*
X361957Y341084D01*
D02*
G37*
G36*
X450957Y333000D02*
X448934D01*
Y331315D01*
X449040Y330779D01*
X449344Y330324D01*
X449798Y330021D01*
X450335Y329914D01*
X450957D01*
Y333000D01*
D02*
G37*
G36*
X265125Y329949D02*
X263658D01*
X262219Y329663D01*
X260863Y329101D01*
X259643Y328286D01*
X258606Y327248D01*
X257790Y326028D01*
X257229Y324673D01*
X256943Y323234D01*
Y321766D01*
X257229Y320327D01*
X257790Y318972D01*
X258606Y317752D01*
X259643Y316714D01*
X260863Y315899D01*
X262219Y315337D01*
X263658Y315051D01*
X265125D01*
X266564Y315337D01*
X267920Y315899D01*
X269140Y316714D01*
X270177Y317752D01*
X270992Y318972D01*
X271554Y320327D01*
X271840Y321766D01*
Y323234D01*
X271554Y324673D01*
X270992Y326028D01*
X270177Y327248D01*
X269140Y328286D01*
X267920Y329101D01*
X266564Y329663D01*
X265125Y329949D01*
D02*
G37*
G36*
X213393D02*
X211926D01*
X210487Y329663D01*
X209131Y329101D01*
X207911Y328286D01*
X206873Y327248D01*
X206058Y326028D01*
X205497Y324673D01*
X205210Y323234D01*
Y321766D01*
X205497Y320327D01*
X206058Y318972D01*
X206873Y317752D01*
X207911Y316714D01*
X209131Y315899D01*
X210487Y315337D01*
X211926Y315051D01*
X213393D01*
X214832Y315337D01*
X216188Y315899D01*
X217407Y316714D01*
X218445Y317752D01*
X219260Y318972D01*
X219822Y320327D01*
X220108Y321766D01*
Y323234D01*
X219822Y324673D01*
X219260Y326028D01*
X218445Y327248D01*
X217407Y328286D01*
X216188Y329101D01*
X214832Y329663D01*
X213393Y329949D01*
D02*
G37*
G36*
X175862D02*
X174395D01*
X172956Y329663D01*
X171600Y329101D01*
X170380Y328286D01*
X169343Y327248D01*
X168528Y326028D01*
X167966Y324673D01*
X167680Y323234D01*
Y321766D01*
X167966Y320327D01*
X168528Y318972D01*
X169343Y317752D01*
X170380Y316714D01*
X171600Y315899D01*
X172956Y315337D01*
X174395Y315051D01*
X175862D01*
X177302Y315337D01*
X178657Y315899D01*
X179877Y316714D01*
X180915Y317752D01*
X181730Y318972D01*
X182291Y320327D01*
X182578Y321766D01*
Y323234D01*
X182291Y324673D01*
X181730Y326028D01*
X180915Y327248D01*
X179877Y328286D01*
X178657Y329101D01*
X177302Y329663D01*
X175862Y329949D01*
D02*
G37*
G36*
X124130D02*
X122663D01*
X121224Y329663D01*
X119868Y329101D01*
X118648Y328286D01*
X117611Y327248D01*
X116796Y326028D01*
X116234Y324673D01*
X115948Y323234D01*
Y321766D01*
X116234Y320327D01*
X116796Y318972D01*
X117611Y317752D01*
X118648Y316714D01*
X119868Y315899D01*
X121224Y315337D01*
X122663Y315051D01*
X124130D01*
X125569Y315337D01*
X126925Y315899D01*
X128145Y316714D01*
X129183Y317752D01*
X129998Y318972D01*
X130559Y320327D01*
X130845Y321766D01*
Y323234D01*
X130559Y324673D01*
X129998Y326028D01*
X129183Y327248D01*
X128145Y328286D01*
X126925Y329101D01*
X125569Y329663D01*
X124130Y329949D01*
D02*
G37*
G36*
X86600D02*
X85133D01*
X83693Y329663D01*
X82338Y329101D01*
X81118Y328286D01*
X80080Y327248D01*
X79265Y326028D01*
X78704Y324673D01*
X78417Y323234D01*
Y321766D01*
X78704Y320327D01*
X79265Y318972D01*
X80080Y317752D01*
X81118Y316714D01*
X82338Y315899D01*
X83693Y315337D01*
X85133Y315051D01*
X86600D01*
X88039Y315337D01*
X89394Y315899D01*
X90614Y316714D01*
X91652Y317752D01*
X92467Y318972D01*
X93029Y320327D01*
X93315Y321766D01*
Y323234D01*
X93029Y324673D01*
X92467Y326028D01*
X91652Y327248D01*
X90614Y328286D01*
X89394Y329101D01*
X88039Y329663D01*
X86600Y329949D01*
D02*
G37*
G36*
X34867D02*
X33400D01*
X31961Y329663D01*
X30606Y329101D01*
X29386Y328286D01*
X28348Y327248D01*
X27533Y326028D01*
X26971Y324673D01*
X26685Y323234D01*
Y321766D01*
X26971Y320327D01*
X27533Y318972D01*
X28348Y317752D01*
X29386Y316714D01*
X30606Y315899D01*
X31961Y315337D01*
X33400Y315051D01*
X34867D01*
X36307Y315337D01*
X37662Y315899D01*
X38882Y316714D01*
X39920Y317752D01*
X40735Y318972D01*
X41296Y320327D01*
X41583Y321766D01*
Y323234D01*
X41296Y324673D01*
X40735Y326028D01*
X39920Y327248D01*
X38882Y328286D01*
X37662Y329101D01*
X36307Y329663D01*
X34867Y329949D01*
D02*
G37*
G36*
X153701Y315642D02*
X152698D01*
X151729Y315382D01*
X150860Y314880D01*
X150150Y314171D01*
X149648Y313302D01*
X149521Y312828D01*
X149004D01*
X148877Y313302D01*
X148375Y314171D01*
X147666Y314880D01*
X146797Y315382D01*
X145827Y315642D01*
X144824D01*
X143855Y315382D01*
X142986Y314880D01*
X142276Y314171D01*
X141774Y313302D01*
X141515Y312333D01*
Y311329D01*
X141774Y310360D01*
X142276Y309491D01*
X142986Y308781D01*
X143855Y308279D01*
X144824Y308020D01*
X145827D01*
X146797Y308279D01*
X147666Y308781D01*
X148375Y309491D01*
X148877Y310360D01*
X149004Y310833D01*
X149521D01*
X149648Y310360D01*
X150150Y309491D01*
X150860Y308781D01*
X151729Y308279D01*
X152698Y308020D01*
X153701D01*
X154671Y308279D01*
X155540Y308781D01*
X156249Y309491D01*
X156751Y310360D01*
X157011Y311329D01*
Y312333D01*
X156751Y313302D01*
X156249Y314171D01*
X155540Y314880D01*
X154671Y315382D01*
X153701Y315642D01*
D02*
G37*
G36*
X64439D02*
X63435D01*
X62466Y315382D01*
X61597Y314880D01*
X60887Y314171D01*
X60386Y313302D01*
X60259Y312828D01*
X59741D01*
X59614Y313302D01*
X59113Y314171D01*
X58403Y314880D01*
X57534Y315382D01*
X56565Y315642D01*
X55561D01*
X54592Y315382D01*
X53723Y314880D01*
X53013Y314171D01*
X52512Y313302D01*
X52252Y312333D01*
Y311329D01*
X52512Y310360D01*
X53013Y309491D01*
X53723Y308781D01*
X54592Y308279D01*
X55561Y308020D01*
X56565D01*
X57534Y308279D01*
X58403Y308781D01*
X59113Y309491D01*
X59614Y310360D01*
X59741Y310833D01*
X60259D01*
X60386Y310360D01*
X60887Y309491D01*
X61597Y308781D01*
X62466Y308279D01*
X63435Y308020D01*
X64439D01*
X65408Y308279D01*
X66277Y308781D01*
X66987Y309491D01*
X67488Y310360D01*
X67748Y311329D01*
Y312333D01*
X67488Y313302D01*
X66987Y314171D01*
X66277Y314880D01*
X65408Y315382D01*
X64439Y315642D01*
D02*
G37*
G36*
X225248D02*
X225246D01*
Y312331D01*
X228557D01*
Y312333D01*
X228297Y313302D01*
X227795Y314171D01*
X227086Y314880D01*
X226217Y315382D01*
X225248Y315642D01*
D02*
G37*
G36*
X135985D02*
X135983D01*
Y312331D01*
X139294D01*
Y312333D01*
X139034Y313302D01*
X138533Y314171D01*
X137823Y314880D01*
X136954Y315382D01*
X135985Y315642D01*
D02*
G37*
G36*
X46722D02*
X46720D01*
Y312331D01*
X50031D01*
Y312333D01*
X49772Y313302D01*
X49270Y314171D01*
X48560Y314880D01*
X47691Y315382D01*
X46722Y315642D01*
D02*
G37*
G36*
X224246D02*
X224244D01*
X223275Y315382D01*
X222406Y314880D01*
X221696Y314171D01*
X221195Y313302D01*
X220935Y312333D01*
Y312331D01*
X224246D01*
Y315642D01*
D02*
G37*
G36*
X134983D02*
X134982D01*
X134012Y315382D01*
X133143Y314880D01*
X132434Y314171D01*
X131932Y313302D01*
X131672Y312333D01*
Y312331D01*
X134983D01*
Y315642D01*
D02*
G37*
G36*
X45720D02*
X45719D01*
X44749Y315382D01*
X43880Y314880D01*
X43171Y314171D01*
X42669Y313302D01*
X42409Y312333D01*
Y312331D01*
X45720D01*
Y315642D01*
D02*
G37*
G36*
X166853D02*
X159231D01*
Y308020D01*
X159231D01*
X159416Y307575D01*
X154877Y303036D01*
X154626Y303086D01*
X152382D01*
X151846Y302979D01*
X151391Y302676D01*
X151088Y302221D01*
X150981Y301685D01*
Y297315D01*
X151088Y296779D01*
X151391Y296324D01*
X151846Y296021D01*
X152382Y295914D01*
X154626D01*
X155162Y296021D01*
X155617Y296324D01*
X155920Y296779D01*
X156027Y297315D01*
Y299860D01*
X163581Y307415D01*
X163913Y307911D01*
X163935Y308020D01*
X166853D01*
Y315642D01*
D02*
G37*
G36*
X77591D02*
X69969D01*
Y308020D01*
X71208D01*
X71399Y307558D01*
X64877Y301036D01*
X64626Y301086D01*
X62382D01*
X61846Y300979D01*
X61391Y300676D01*
X61088Y300221D01*
X60981Y299685D01*
Y295315D01*
X61088Y294779D01*
X61391Y294324D01*
X61846Y294021D01*
X62382Y293914D01*
X64626D01*
X65162Y294021D01*
X65617Y294324D01*
X65920Y294779D01*
X66027Y295315D01*
Y297860D01*
X74861Y306694D01*
X75193Y307190D01*
X75309Y307776D01*
Y308020D01*
X77591D01*
Y315642D01*
D02*
G37*
G36*
X147579Y303086D02*
X146957D01*
Y300000D01*
X148980D01*
Y301685D01*
X148873Y302221D01*
X148569Y302676D01*
X148115Y302979D01*
X147579Y303086D01*
D02*
G37*
G36*
X57579Y301086D02*
X56957D01*
Y298000D01*
X58980D01*
Y299685D01*
X58873Y300221D01*
X58569Y300676D01*
X58115Y300979D01*
X57579Y301086D01*
D02*
G37*
G36*
X50031Y311331D02*
X46220D01*
X42409D01*
Y311329D01*
X42669Y310360D01*
X43171Y309491D01*
X43880Y308781D01*
X44691Y308313D01*
Y307736D01*
X44807Y307151D01*
X45139Y306655D01*
X53794Y298000D01*
X55957D01*
Y301086D01*
X55335D01*
X55084Y301036D01*
X48076Y308044D01*
X48141Y308539D01*
X48560Y308781D01*
X49270Y309491D01*
X49772Y310360D01*
X50031Y311329D01*
Y311331D01*
D02*
G37*
G36*
X148980Y299000D02*
X146957D01*
Y295914D01*
X147579D01*
X148115Y296021D01*
X148569Y296324D01*
X148873Y296779D01*
X148980Y297315D01*
Y299000D01*
D02*
G37*
G36*
X139294Y311331D02*
X135483D01*
X131672D01*
Y311329D01*
X131932Y310360D01*
X132434Y309491D01*
X133143Y308781D01*
X133954Y308313D01*
Y304000D01*
X134070Y303415D01*
X134402Y302919D01*
X138902Y298419D01*
X139398Y298087D01*
X139983Y297971D01*
X143934D01*
Y297315D01*
X144040Y296779D01*
X144344Y296324D01*
X144798Y296021D01*
X145335Y295914D01*
X145957D01*
Y299500D01*
Y303086D01*
X145335D01*
X144798Y302979D01*
X144344Y302676D01*
X144040Y302221D01*
X143934Y301685D01*
Y301029D01*
X140617D01*
X137013Y304633D01*
Y308313D01*
X137823Y308781D01*
X138533Y309491D01*
X139034Y310360D01*
X139294Y311329D01*
Y311331D01*
D02*
G37*
G36*
X58980Y297000D02*
X56957D01*
Y293914D01*
X57579D01*
X58115Y294021D01*
X58569Y294324D01*
X58873Y294779D01*
X58980Y295315D01*
Y297000D01*
D02*
G37*
G36*
X55957D02*
X53934D01*
Y295315D01*
X54040Y294779D01*
X54344Y294324D01*
X54798Y294021D01*
X55335Y293914D01*
X55957D01*
Y297000D01*
D02*
G37*
G36*
X20837Y298000D02*
X19163D01*
X17521Y297673D01*
X15974Y297033D01*
X14582Y296102D01*
X13398Y294918D01*
X12467Y293526D01*
X11827Y291979D01*
X11500Y290337D01*
Y288663D01*
X11827Y287021D01*
X12467Y285474D01*
X13398Y284082D01*
X14582Y282898D01*
X15974Y281967D01*
X17521Y281327D01*
X19163Y281000D01*
X20837D01*
X22479Y281327D01*
X24026Y281967D01*
X25418Y282898D01*
X26602Y284082D01*
X27533Y285474D01*
X28173Y287021D01*
X28500Y288663D01*
Y290337D01*
X28173Y291979D01*
X27533Y293526D01*
X26602Y294918D01*
X25418Y296102D01*
X24026Y297033D01*
X22479Y297673D01*
X20837Y298000D01*
D02*
G37*
G36*
X400461Y293200D02*
X399539D01*
X398649Y292962D01*
X397851Y292501D01*
X397199Y291849D01*
X396739Y291051D01*
X396500Y290161D01*
Y289239D01*
X396739Y288349D01*
X397117Y287693D01*
X396907Y287193D01*
X396441D01*
Y280665D01*
X403559D01*
Y287193D01*
X403093D01*
X402883Y287693D01*
X403262Y288349D01*
X403500Y289239D01*
Y290161D01*
X403262Y291051D01*
X402801Y291849D01*
X402149Y292501D01*
X401351Y292962D01*
X400461Y293200D01*
D02*
G37*
G36*
X378520Y279450D02*
X377480D01*
X376475Y279181D01*
X375575Y278661D01*
X374839Y277925D01*
X374319Y277025D01*
X374050Y276020D01*
Y274980D01*
X374319Y273975D01*
X374839Y273075D01*
X375575Y272339D01*
X376475Y271819D01*
X377480Y271550D01*
X378520D01*
X379525Y271819D01*
X380425Y272339D01*
X381161Y273075D01*
X381681Y273975D01*
X381950Y274980D01*
Y276020D01*
X381681Y277025D01*
X381161Y277925D01*
X380425Y278661D01*
X379525Y279181D01*
X378520Y279450D01*
D02*
G37*
G36*
Y269450D02*
X377480D01*
X376475Y269181D01*
X375575Y268661D01*
X374839Y267925D01*
X374319Y267025D01*
X374050Y266020D01*
Y264980D01*
X374319Y263975D01*
X374839Y263075D01*
X375575Y262339D01*
X376475Y261819D01*
X377480Y261550D01*
X378520D01*
X379525Y261819D01*
X380425Y262339D01*
X381161Y263075D01*
X381681Y263975D01*
X381950Y264980D01*
Y266020D01*
X381681Y267025D01*
X381161Y267925D01*
X380425Y268661D01*
X379525Y269181D01*
X378520Y269450D01*
D02*
G37*
G36*
X290837Y278500D02*
X289163D01*
X287521Y278173D01*
X285974Y277533D01*
X284582Y276602D01*
X283398Y275418D01*
X282467Y274026D01*
X281827Y272479D01*
X281500Y270837D01*
Y269163D01*
X281827Y267521D01*
X282467Y265974D01*
X283398Y264582D01*
X284582Y263398D01*
X285974Y262467D01*
X287521Y261827D01*
X289163Y261500D01*
X290837D01*
X292479Y261827D01*
X294026Y262467D01*
X295418Y263398D01*
X296602Y264582D01*
X297533Y265974D01*
X298173Y267521D01*
X298500Y269163D01*
Y270837D01*
X298173Y272479D01*
X297533Y274026D01*
X296602Y275418D01*
X295418Y276602D01*
X294026Y277533D01*
X292479Y278173D01*
X290837Y278500D01*
D02*
G37*
G36*
X403559Y278335D02*
X396441D01*
Y271807D01*
X398471D01*
Y265250D01*
X396000D01*
Y258750D01*
X404000D01*
Y265250D01*
X401529D01*
Y271807D01*
X403559D01*
Y278335D01*
D02*
G37*
G36*
X589453Y242953D02*
X586000D01*
Y239500D01*
X589453D01*
Y242953D01*
D02*
G37*
G36*
X585000D02*
X581547D01*
Y239500D01*
X585000D01*
Y242953D01*
D02*
G37*
G36*
X589453Y238500D02*
X586000D01*
Y235047D01*
X589453D01*
Y238500D01*
D02*
G37*
G36*
X252795Y239224D02*
X251945D01*
X251125Y239005D01*
X250390Y238580D01*
X249790Y237980D01*
X249365Y237245D01*
X249146Y236424D01*
Y235576D01*
X249365Y234755D01*
X249790Y234020D01*
X250390Y233420D01*
X251125Y232995D01*
X251945Y232776D01*
X252795D01*
X253615Y232995D01*
X254350Y233420D01*
X254950Y234020D01*
X255375Y234755D01*
X255594Y235576D01*
Y236424D01*
X255375Y237245D01*
X254950Y237980D01*
X254350Y238580D01*
X253615Y239005D01*
X252795Y239224D01*
D02*
G37*
G36*
X378520Y239450D02*
X377480D01*
X376475Y239181D01*
X375575Y238661D01*
X374839Y237925D01*
X374319Y237025D01*
X374050Y236020D01*
Y234980D01*
X374319Y233975D01*
X374839Y233075D01*
X375575Y232339D01*
X376475Y231819D01*
X377480Y231550D01*
X378520D01*
X379525Y231819D01*
X380425Y232339D01*
X381161Y233075D01*
X381681Y233975D01*
X381950Y234980D01*
Y236020D01*
X381681Y237025D01*
X381161Y237925D01*
X380425Y238661D01*
X379525Y239181D01*
X378520Y239450D01*
D02*
G37*
G36*
X318520D02*
X317480D01*
X316475Y239181D01*
X315575Y238661D01*
X314839Y237925D01*
X314319Y237025D01*
X314050Y236020D01*
Y234980D01*
X314319Y233975D01*
X314839Y233075D01*
X315575Y232339D01*
X316475Y231819D01*
X317480Y231550D01*
X318520D01*
X319525Y231819D01*
X320425Y232339D01*
X321161Y233075D01*
X321681Y233975D01*
X321950Y234980D01*
Y236020D01*
X321681Y237025D01*
X321161Y237925D01*
X320425Y238661D01*
X319525Y239181D01*
X318520Y239450D01*
D02*
G37*
G36*
X378520Y229450D02*
X377480D01*
X376475Y229181D01*
X375575Y228661D01*
X374839Y227925D01*
X374319Y227025D01*
X374050Y226020D01*
Y224980D01*
X374319Y223975D01*
X374839Y223075D01*
X375575Y222339D01*
X376475Y221819D01*
X377480Y221550D01*
X378520D01*
X379525Y221819D01*
X380425Y222339D01*
X381161Y223075D01*
X381681Y223975D01*
X381950Y224980D01*
Y226020D01*
X381681Y227025D01*
X381161Y227925D01*
X380425Y228661D01*
X379525Y229181D01*
X378520Y229450D01*
D02*
G37*
G36*
X218500Y224953D02*
X218480D01*
X217474Y224683D01*
X216573Y224163D01*
X215837Y223427D01*
X215317Y222526D01*
X215047Y221520D01*
Y221500D01*
X218500D01*
Y224953D01*
D02*
G37*
G36*
X252795Y229224D02*
X251945D01*
X251125Y229005D01*
X250390Y228580D01*
X249790Y227980D01*
X249365Y227245D01*
X249146Y226425D01*
Y225575D01*
X249280Y225073D01*
X243910Y219703D01*
X243795Y219769D01*
X243500Y220000D01*
Y220861D01*
X243262Y221751D01*
X242801Y222549D01*
X242149Y223201D01*
X241351Y223661D01*
X240461Y223900D01*
X239539D01*
X238649Y223661D01*
X237851Y223201D01*
X237199Y222549D01*
X236738Y221751D01*
X236500Y220861D01*
Y219939D01*
X236685Y219248D01*
X225466Y208029D01*
X222273D01*
X222081Y208491D01*
X222163Y208573D01*
X222683Y209474D01*
X222953Y210480D01*
Y211520D01*
X222683Y212526D01*
X222163Y213427D01*
X221427Y214163D01*
X220526Y214683D01*
X219520Y214953D01*
X218480D01*
X217474Y214683D01*
X216573Y214163D01*
X215837Y213427D01*
X215317Y212526D01*
X215047Y211520D01*
Y210480D01*
X215317Y209474D01*
X215837Y208573D01*
X216104Y208306D01*
X216040Y207663D01*
X215919Y207581D01*
X213419Y205081D01*
X213087Y204585D01*
X212971Y204000D01*
Y105500D01*
X213087Y104915D01*
X213419Y104419D01*
X215316Y102522D01*
X215047Y101520D01*
Y100480D01*
X215317Y99474D01*
X215837Y98573D01*
X216573Y97837D01*
X217474Y97317D01*
X218480Y97047D01*
X219520D01*
X220526Y97317D01*
X221427Y97837D01*
X222163Y98573D01*
X222683Y99474D01*
X222953Y100480D01*
Y101520D01*
X222683Y102526D01*
X222163Y103427D01*
X221427Y104163D01*
X220526Y104683D01*
X219520Y104953D01*
X218480D01*
X217478Y104684D01*
X216029Y106133D01*
Y107727D01*
X216491Y107919D01*
X216573Y107837D01*
X217474Y107317D01*
X218480Y107047D01*
X219520D01*
X220526Y107317D01*
X221427Y107837D01*
X222163Y108573D01*
X222683Y109474D01*
X222953Y110480D01*
Y111520D01*
X222683Y112526D01*
X222163Y113427D01*
X221427Y114163D01*
X220526Y114683D01*
X219520Y114953D01*
X218480D01*
X217474Y114683D01*
X216573Y114163D01*
X216491Y114081D01*
X216029Y114273D01*
Y117727D01*
X216491Y117919D01*
X216573Y117837D01*
X217474Y117317D01*
X218480Y117047D01*
X219520D01*
X220526Y117317D01*
X221427Y117837D01*
X222163Y118573D01*
X222683Y119474D01*
X222953Y120480D01*
Y121520D01*
X222683Y122526D01*
X222163Y123427D01*
X221427Y124163D01*
X220526Y124683D01*
X219520Y124953D01*
X218480D01*
X217474Y124683D01*
X216573Y124163D01*
X216491Y124081D01*
X216029Y124273D01*
Y127727D01*
X216491Y127919D01*
X216573Y127837D01*
X217474Y127317D01*
X218480Y127047D01*
X219520D01*
X220526Y127317D01*
X221427Y127837D01*
X222163Y128573D01*
X222683Y129474D01*
X222953Y130480D01*
Y131520D01*
X222683Y132526D01*
X222163Y133427D01*
X221427Y134163D01*
X220526Y134683D01*
X219520Y134953D01*
X218480D01*
X217474Y134683D01*
X216573Y134163D01*
X216491Y134081D01*
X216029Y134273D01*
Y137727D01*
X216491Y137919D01*
X216573Y137837D01*
X217474Y137317D01*
X218480Y137047D01*
X219520D01*
X220526Y137317D01*
X221427Y137837D01*
X222163Y138573D01*
X222683Y139474D01*
X222953Y140480D01*
Y141520D01*
X222683Y142526D01*
X222163Y143427D01*
X221427Y144163D01*
X220526Y144683D01*
X219520Y144953D01*
X218480D01*
X217474Y144683D01*
X216573Y144163D01*
X216491Y144081D01*
X216029Y144273D01*
Y147727D01*
X216491Y147919D01*
X216573Y147837D01*
X217474Y147317D01*
X218480Y147047D01*
X219520D01*
X220526Y147317D01*
X221427Y147837D01*
X222163Y148573D01*
X222683Y149474D01*
X222953Y150480D01*
Y151520D01*
X222683Y152526D01*
X222163Y153427D01*
X221427Y154163D01*
X220526Y154683D01*
X219520Y154953D01*
X218480D01*
X217474Y154683D01*
X216573Y154163D01*
X216491Y154081D01*
X216029Y154273D01*
Y157727D01*
X216491Y157919D01*
X216573Y157837D01*
X217474Y157317D01*
X218480Y157047D01*
X219520D01*
X220526Y157317D01*
X221427Y157837D01*
X222163Y158573D01*
X222683Y159474D01*
X222953Y160480D01*
Y161520D01*
X222683Y162526D01*
X222163Y163427D01*
X221427Y164163D01*
X220526Y164683D01*
X219520Y164953D01*
X218480D01*
X217474Y164683D01*
X216573Y164163D01*
X216491Y164081D01*
X216029Y164273D01*
Y167727D01*
X216491Y167919D01*
X216573Y167837D01*
X217474Y167317D01*
X218480Y167047D01*
X219520D01*
X220526Y167317D01*
X221427Y167837D01*
X222163Y168573D01*
X222683Y169474D01*
X222953Y170480D01*
Y171520D01*
X222685Y172522D01*
X224581Y174419D01*
X224913Y174915D01*
X225029Y175500D01*
Y196496D01*
X251443Y222910D01*
X251945Y222776D01*
X252795D01*
X253615Y222995D01*
X254350Y223420D01*
X254950Y224020D01*
X255375Y224755D01*
X255594Y225575D01*
Y226425D01*
X255375Y227245D01*
X254950Y227980D01*
X254350Y228580D01*
X253615Y229005D01*
X252795Y229224D01*
D02*
G37*
G36*
X222953Y220500D02*
X219500D01*
Y217047D01*
X219520D01*
X220526Y217317D01*
X221427Y217837D01*
X222163Y218573D01*
X222683Y219474D01*
X222953Y220480D01*
Y220500D01*
D02*
G37*
G36*
X218500D02*
X215047D01*
Y220480D01*
X215317Y219474D01*
X215837Y218573D01*
X216573Y217837D01*
X217474Y217317D01*
X218480Y217047D01*
X218500D01*
Y220500D01*
D02*
G37*
G36*
X252795Y219224D02*
X251945D01*
X251125Y219005D01*
X250390Y218580D01*
X249790Y217980D01*
X249365Y217245D01*
X249146Y216424D01*
Y215576D01*
X249365Y214755D01*
X249790Y214020D01*
X250390Y213420D01*
X251125Y212995D01*
X251945Y212776D01*
X252795D01*
X253615Y212995D01*
X254350Y213420D01*
X254950Y214020D01*
X255375Y214755D01*
X255594Y215576D01*
Y216424D01*
X255375Y217245D01*
X254950Y217980D01*
X254350Y218580D01*
X253615Y219005D01*
X252795Y219224D01*
D02*
G37*
G36*
X378520Y219450D02*
X377480D01*
X376475Y219181D01*
X375575Y218661D01*
X374839Y217925D01*
X374319Y217025D01*
X374050Y216020D01*
Y214980D01*
X374319Y213975D01*
X374839Y213075D01*
X375575Y212339D01*
X376475Y211819D01*
X377480Y211550D01*
X378520D01*
X379525Y211819D01*
X380425Y212339D01*
X381161Y213075D01*
X381681Y213975D01*
X381950Y214980D01*
Y216020D01*
X381681Y217025D01*
X381161Y217925D01*
X380425Y218661D01*
X379525Y219181D01*
X378520Y219450D01*
D02*
G37*
G36*
X252795Y209224D02*
X251945D01*
X251125Y209005D01*
X250390Y208580D01*
X249790Y207980D01*
X249365Y207245D01*
X249146Y206424D01*
Y205575D01*
X249365Y204755D01*
X249790Y204020D01*
X250390Y203420D01*
X251125Y202995D01*
X251945Y202776D01*
X252795D01*
X253615Y202995D01*
X254350Y203420D01*
X254950Y204020D01*
X255375Y204755D01*
X255594Y205575D01*
Y206424D01*
X255375Y207245D01*
X254950Y207980D01*
X254350Y208580D01*
X253615Y209005D01*
X252795Y209224D01*
D02*
G37*
G36*
X378520Y209450D02*
X377480D01*
X376475Y209181D01*
X375575Y208661D01*
X374839Y207925D01*
X374319Y207025D01*
X374050Y206020D01*
Y204980D01*
X374319Y203975D01*
X374839Y203075D01*
X375575Y202339D01*
X376475Y201819D01*
X377480Y201550D01*
X378520D01*
X379525Y201819D01*
X380425Y202339D01*
X381161Y203075D01*
X381681Y203975D01*
X381950Y204980D01*
Y206020D01*
X381681Y207025D01*
X381161Y207925D01*
X380425Y208661D01*
X379525Y209181D01*
X378520Y209450D01*
D02*
G37*
G36*
X252795Y199224D02*
X251945D01*
X251125Y199005D01*
X250390Y198580D01*
X249790Y197980D01*
X249365Y197245D01*
X249146Y196424D01*
Y195575D01*
X249365Y194755D01*
X249790Y194020D01*
X250390Y193420D01*
X251125Y192995D01*
X251945Y192776D01*
X252795D01*
X253615Y192995D01*
X254350Y193420D01*
X254950Y194020D01*
X255375Y194755D01*
X255594Y195575D01*
Y196424D01*
X255375Y197245D01*
X254950Y197980D01*
X254350Y198580D01*
X253615Y199005D01*
X252795Y199224D01*
D02*
G37*
G36*
X378520Y189450D02*
X378500D01*
Y186000D01*
X381950D01*
Y186020D01*
X381681Y187025D01*
X381161Y187925D01*
X380425Y188661D01*
X379525Y189181D01*
X378520Y189450D01*
D02*
G37*
G36*
X363980Y331500D02*
X361457D01*
X358934D01*
Y329815D01*
X359040Y329279D01*
X359344Y328824D01*
X359798Y328521D01*
X359927Y328495D01*
Y202043D01*
X360044Y201458D01*
X360375Y200962D01*
X374318Y187019D01*
X374050Y186020D01*
Y186000D01*
X377500D01*
Y189450D01*
X377480D01*
X376481Y189182D01*
X362986Y202677D01*
Y328495D01*
X363115Y328521D01*
X363569Y328824D01*
X363873Y329279D01*
X363980Y329815D01*
Y331500D01*
D02*
G37*
G36*
X252795Y189224D02*
X251945D01*
X251125Y189005D01*
X250390Y188580D01*
X249790Y187980D01*
X249365Y187245D01*
X249146Y186425D01*
Y185575D01*
X249365Y184755D01*
X249790Y184020D01*
X250390Y183420D01*
X251125Y182995D01*
X251945Y182776D01*
X252795D01*
X253615Y182995D01*
X254350Y183420D01*
X254950Y184020D01*
X255375Y184755D01*
X255594Y185575D01*
Y186425D01*
X255375Y187245D01*
X254950Y187980D01*
X254350Y188580D01*
X253615Y189005D01*
X252795Y189224D01*
D02*
G37*
G36*
X574980Y190000D02*
X570500D01*
Y181649D01*
X571289Y181753D01*
X572490Y182250D01*
X573521Y183042D01*
X574312Y184073D01*
X574810Y185274D01*
X574980Y186563D01*
Y190000D01*
D02*
G37*
G36*
X569500D02*
X565020D01*
Y186563D01*
X565190Y185274D01*
X565688Y184073D01*
X566479Y183042D01*
X567510Y182250D01*
X568711Y181753D01*
X569500Y181649D01*
Y190000D01*
D02*
G37*
G36*
X381950Y185000D02*
X378500D01*
Y181550D01*
X378520D01*
X379525Y181819D01*
X380425Y182339D01*
X381161Y183075D01*
X381681Y183975D01*
X381950Y184980D01*
Y185000D01*
D02*
G37*
G36*
X377500D02*
X374050D01*
Y184980D01*
X374319Y183975D01*
X374839Y183075D01*
X375575Y182339D01*
X376475Y181819D01*
X377480Y181550D01*
X377500D01*
Y185000D01*
D02*
G37*
G36*
X252795Y179224D02*
X251945D01*
X251125Y179005D01*
X250390Y178580D01*
X249790Y177980D01*
X249365Y177245D01*
X249146Y176425D01*
Y175575D01*
X249365Y174755D01*
X249790Y174020D01*
X250390Y173420D01*
X251125Y172995D01*
X251945Y172776D01*
X252795D01*
X253615Y172995D01*
X254350Y173420D01*
X254950Y174020D01*
X255375Y174755D01*
X255594Y175575D01*
Y176425D01*
X255375Y177245D01*
X254950Y177980D01*
X254350Y178580D01*
X253615Y179005D01*
X252795Y179224D01*
D02*
G37*
G36*
Y169224D02*
X251945D01*
X251125Y169005D01*
X250390Y168580D01*
X249790Y167980D01*
X249365Y167245D01*
X249146Y166425D01*
Y165576D01*
X249365Y164755D01*
X249790Y164020D01*
X250390Y163420D01*
X251125Y162995D01*
X251945Y162776D01*
X252795D01*
X253615Y162995D01*
X254350Y163420D01*
X254950Y164020D01*
X255375Y164755D01*
X255594Y165576D01*
Y166425D01*
X255375Y167245D01*
X254950Y167980D01*
X254350Y168580D01*
X253615Y169005D01*
X252795Y169224D01*
D02*
G37*
G36*
X378520Y169450D02*
X377480D01*
X376475Y169181D01*
X375575Y168661D01*
X374839Y167925D01*
X374319Y167025D01*
X374050Y166020D01*
Y164980D01*
X374319Y163975D01*
X374839Y163075D01*
X375575Y162339D01*
X376475Y161819D01*
X377480Y161550D01*
X378520D01*
X379525Y161819D01*
X380425Y162339D01*
X381161Y163075D01*
X381681Y163975D01*
X381950Y164980D01*
Y166020D01*
X381681Y167025D01*
X381161Y167925D01*
X380425Y168661D01*
X379525Y169181D01*
X378520Y169450D01*
D02*
G37*
G36*
Y149450D02*
X377480D01*
X376475Y149181D01*
X375575Y148661D01*
X374839Y147925D01*
X374319Y147025D01*
X374050Y146020D01*
Y144980D01*
X374319Y143975D01*
X374839Y143075D01*
X375575Y142339D01*
X376475Y141819D01*
X377480Y141550D01*
X378520D01*
X379525Y141819D01*
X380425Y142339D01*
X381161Y143075D01*
X381681Y143975D01*
X381950Y144980D01*
Y146020D01*
X381681Y147025D01*
X381161Y147925D01*
X380425Y148661D01*
X379525Y149181D01*
X378520Y149450D01*
D02*
G37*
G36*
X274921Y137500D02*
X272453D01*
Y134441D01*
X274921D01*
Y137500D01*
D02*
G37*
G36*
X542337Y146000D02*
X540663D01*
X539021Y145673D01*
X537474Y145033D01*
X536082Y144102D01*
X534898Y142918D01*
X533967Y141526D01*
X533327Y139979D01*
X533000Y138337D01*
Y136663D01*
X533327Y135021D01*
X533967Y133474D01*
X534898Y132082D01*
X536082Y130898D01*
X537474Y129967D01*
X539021Y129327D01*
X540663Y129000D01*
X542337D01*
X543979Y129327D01*
X545526Y129967D01*
X546918Y130898D01*
X548102Y132082D01*
X549033Y133474D01*
X549673Y135021D01*
X550000Y136663D01*
Y138337D01*
X549673Y139979D01*
X549033Y141526D01*
X548102Y142918D01*
X546918Y144102D01*
X545526Y145033D01*
X543979Y145673D01*
X542337Y146000D01*
D02*
G37*
G36*
X219520Y94953D02*
X218480D01*
X217474Y94683D01*
X216573Y94163D01*
X215837Y93427D01*
X215317Y92526D01*
X215047Y91520D01*
Y90480D01*
X215317Y89474D01*
X215837Y88573D01*
X216573Y87837D01*
X217474Y87317D01*
X218480Y87047D01*
X219520D01*
X220526Y87317D01*
X221427Y87837D01*
X222163Y88573D01*
X222683Y89474D01*
X222953Y90480D01*
Y91520D01*
X222683Y92526D01*
X222163Y93427D01*
X221427Y94163D01*
X220526Y94683D01*
X219520Y94953D01*
D02*
G37*
G36*
X555919Y92524D02*
X554878D01*
X553873Y92254D01*
X552972Y91734D01*
X552236Y90998D01*
X551715Y90097D01*
X551446Y89091D01*
Y88051D01*
X551715Y87045D01*
X552236Y86144D01*
X552972Y85408D01*
X553873Y84888D01*
X554878Y84618D01*
X555919D01*
X556924Y84888D01*
X557826Y85408D01*
X558562Y86144D01*
X559082Y87045D01*
X559352Y88051D01*
Y89091D01*
X559082Y90097D01*
X558562Y90998D01*
X557826Y91734D01*
X556924Y92254D01*
X555919Y92524D01*
D02*
G37*
G36*
X518449Y82024D02*
X517409D01*
X516403Y81754D01*
X515502Y81234D01*
X515487Y81220D01*
X517929Y78778D01*
X520370Y81220D01*
X520356Y81234D01*
X519455Y81754D01*
X518449Y82024D01*
D02*
G37*
G36*
X219520Y84953D02*
X218480D01*
X217474Y84683D01*
X216573Y84163D01*
X215837Y83427D01*
X215317Y82526D01*
X215047Y81520D01*
Y80480D01*
X215317Y79474D01*
X215837Y78573D01*
X216573Y77837D01*
X217474Y77317D01*
X218480Y77047D01*
X219520D01*
X220526Y77317D01*
X221427Y77837D01*
X222163Y78573D01*
X222683Y79474D01*
X222953Y80480D01*
Y81520D01*
X222683Y82526D01*
X222163Y83427D01*
X221427Y84163D01*
X220526Y84683D01*
X219520Y84953D01*
D02*
G37*
G36*
X548328Y87090D02*
X542738Y81500D01*
X548328Y75910D01*
X553918Y81500D01*
X548328Y87090D01*
D02*
G37*
G36*
X521078Y80512D02*
X518636Y78071D01*
X521078Y75630D01*
X521092Y75644D01*
X521612Y76545D01*
X521882Y77551D01*
Y78591D01*
X521612Y79597D01*
X521092Y80498D01*
X521078Y80512D01*
D02*
G37*
G36*
X514780D02*
X514766Y80498D01*
X514246Y79597D01*
X513976Y78591D01*
Y77551D01*
X514246Y76545D01*
X514766Y75644D01*
X514780Y75630D01*
X517222Y78071D01*
X514780Y80512D01*
D02*
G37*
G36*
X517929Y77364D02*
X515487Y74922D01*
X515502Y74908D01*
X516403Y74388D01*
X517409Y74118D01*
X518449D01*
X519455Y74388D01*
X520356Y74908D01*
X520370Y74922D01*
X517929Y77364D01*
D02*
G37*
G36*
X525520Y74953D02*
X524480D01*
X523474Y74683D01*
X522573Y74163D01*
X522558Y74149D01*
X525000Y71707D01*
X527442Y74149D01*
X527427Y74163D01*
X526526Y74683D01*
X525520Y74953D01*
D02*
G37*
G36*
X521851Y73441D02*
X521837Y73427D01*
X521317Y72526D01*
X521047Y71520D01*
Y70480D01*
X521195Y69930D01*
X520890Y69533D01*
X498505D01*
X498479Y69662D01*
X498176Y70117D01*
X497721Y70420D01*
X497185Y70527D01*
X495500D01*
Y68004D01*
Y65481D01*
X497185D01*
X497721Y65588D01*
X498176Y65891D01*
X498479Y66346D01*
X498505Y66475D01*
X522004D01*
X522589Y66591D01*
X523085Y66923D01*
X523478Y67316D01*
X524480Y67047D01*
X525520D01*
X526526Y67317D01*
X527427Y67837D01*
X527442Y67851D01*
X524647Y70647D01*
X521851Y73441D01*
D02*
G37*
G36*
X528149D02*
X525707Y71000D01*
X528149Y68559D01*
X528163Y68573D01*
X528683Y69474D01*
X528953Y70480D01*
Y71520D01*
X528683Y72526D01*
X528163Y73427D01*
X528149Y73441D01*
D02*
G37*
G36*
X219520Y74953D02*
X218480D01*
X217474Y74683D01*
X216573Y74163D01*
X215837Y73427D01*
X215317Y72526D01*
X215047Y71520D01*
Y70480D01*
X215317Y69474D01*
X215837Y68573D01*
X216573Y67837D01*
X217474Y67317D01*
X218480Y67047D01*
X219520D01*
X220526Y67317D01*
X221427Y67837D01*
X222163Y68573D01*
X222683Y69474D01*
X222953Y70480D01*
Y71520D01*
X222683Y72526D01*
X222163Y73427D01*
X221427Y74163D01*
X220526Y74683D01*
X219520Y74953D01*
D02*
G37*
G36*
Y64953D02*
X218480D01*
X217474Y64683D01*
X216573Y64163D01*
X215837Y63427D01*
X215317Y62526D01*
X215047Y61520D01*
Y60480D01*
X215317Y59474D01*
X215837Y58573D01*
X216573Y57837D01*
X217474Y57317D01*
X218480Y57047D01*
X219520D01*
X220526Y57317D01*
X221427Y57837D01*
X222163Y58573D01*
X222683Y59474D01*
X222953Y60480D01*
Y61520D01*
X222683Y62526D01*
X222163Y63427D01*
X221427Y64163D01*
X220526Y64683D01*
X219520Y64953D01*
D02*
G37*
G36*
Y54953D02*
X218480D01*
X217474Y54683D01*
X216573Y54163D01*
X215837Y53427D01*
X215317Y52526D01*
X215047Y51520D01*
Y50480D01*
X215317Y49474D01*
X215837Y48573D01*
X216573Y47837D01*
X217474Y47317D01*
X218480Y47047D01*
X219520D01*
X220526Y47317D01*
X221427Y47837D01*
X222163Y48573D01*
X222683Y49474D01*
X222953Y50480D01*
Y51520D01*
X222683Y52526D01*
X222163Y53427D01*
X221427Y54163D01*
X220526Y54683D01*
X219520Y54953D01*
D02*
G37*
G36*
Y44953D02*
X218480D01*
X217474Y44683D01*
X216573Y44163D01*
X215837Y43427D01*
X215317Y42526D01*
X215047Y41520D01*
Y40480D01*
X215317Y39474D01*
X215837Y38573D01*
X216573Y37837D01*
X217474Y37317D01*
X218480Y37047D01*
X219520D01*
X220526Y37317D01*
X221427Y37837D01*
X222163Y38573D01*
X222681Y39471D01*
X227066D01*
X227075Y39462D01*
X227571Y39130D01*
X228157Y39014D01*
X233495D01*
X233521Y38885D01*
X233824Y38431D01*
X234279Y38127D01*
X234815Y38020D01*
X239185D01*
X239721Y38127D01*
X240176Y38431D01*
X240479Y38885D01*
X240586Y39421D01*
Y41665D01*
X240479Y42202D01*
X240176Y42656D01*
X239721Y42960D01*
X239185Y43066D01*
X234815D01*
X234279Y42960D01*
X233824Y42656D01*
X233521Y42202D01*
X233495Y42073D01*
X228790D01*
X228781Y42081D01*
X228285Y42413D01*
X227700Y42529D01*
X222681D01*
X222163Y43427D01*
X221427Y44163D01*
X220526Y44683D01*
X219520Y44953D01*
D02*
G37*
G36*
X491163Y44595D02*
X490122D01*
X489116Y44326D01*
X488215Y43805D01*
X487479Y43069D01*
X486959Y42168D01*
X486689Y41163D01*
Y40122D01*
X486959Y39116D01*
X487479Y38215D01*
X488215Y37479D01*
X489116Y36959D01*
X490122Y36689D01*
X491163D01*
X492168Y36959D01*
X493069Y37479D01*
X493805Y38215D01*
X494326Y39116D01*
X494595Y40122D01*
Y41163D01*
X494326Y42168D01*
X493805Y43069D01*
X493069Y43805D01*
X492168Y44326D01*
X491163Y44595D01*
D02*
G37*
G36*
X236500Y36019D02*
X234815D01*
X234279Y35912D01*
X233824Y35609D01*
X233521Y35154D01*
X233495Y35025D01*
X229196D01*
X228611Y34909D01*
X228115Y34577D01*
X226066Y32529D01*
X222953D01*
Y34953D01*
X219500D01*
Y31000D01*
Y27047D01*
X222953D01*
Y29471D01*
X226700D01*
X227285Y29587D01*
X227781Y29919D01*
X229830Y31967D01*
X233495D01*
X233521Y31838D01*
X233824Y31383D01*
X234279Y31080D01*
X234815Y30973D01*
X236500D01*
Y33496D01*
Y36019D01*
D02*
G37*
G36*
X218500Y34953D02*
X215047D01*
Y31500D01*
X218500D01*
Y34953D01*
D02*
G37*
G36*
X484091Y37524D02*
X483051D01*
X482045Y37254D01*
X481144Y36734D01*
X480408Y35998D01*
X479888Y35097D01*
X479618Y34091D01*
Y33051D01*
X479888Y32045D01*
X480408Y31144D01*
X481144Y30408D01*
X482045Y29888D01*
X483051Y29618D01*
X484091D01*
X485097Y29888D01*
X485998Y30408D01*
X486734Y31144D01*
X487254Y32045D01*
X487524Y33051D01*
Y34091D01*
X487254Y35097D01*
X486734Y35998D01*
X485998Y36734D01*
X485097Y37254D01*
X484091Y37524D01*
D02*
G37*
G36*
X218500Y30500D02*
X215047D01*
Y27047D01*
X218500D01*
Y30500D01*
D02*
G37*
G36*
X373413Y28898D02*
X368779D01*
Y26671D01*
X343220D01*
Y28898D01*
X338587D01*
Y25142D01*
Y21386D01*
X343220D01*
Y23612D01*
X368779D01*
Y21386D01*
X373413D01*
Y25142D01*
Y28898D01*
D02*
G37*
G36*
X337587D02*
X332953D01*
Y26671D01*
X325047D01*
Y28898D01*
X320413D01*
Y25142D01*
Y21386D01*
X325047D01*
Y23612D01*
X332953D01*
Y21386D01*
X337587D01*
Y25142D01*
Y28898D01*
D02*
G37*
G36*
X319413D02*
X314779D01*
Y26671D01*
X289220D01*
Y28898D01*
X284587D01*
Y25142D01*
Y21386D01*
X289220D01*
Y23612D01*
X314779D01*
Y21386D01*
X319413D01*
Y25142D01*
Y28898D01*
D02*
G37*
G36*
X379047D02*
X374413D01*
Y25642D01*
X379047D01*
Y28898D01*
D02*
G37*
G36*
X477020Y30453D02*
X475980D01*
X474974Y30183D01*
X474073Y29663D01*
X473337Y28927D01*
X472817Y28026D01*
X472547Y27020D01*
Y25980D01*
X472817Y24974D01*
X473337Y24073D01*
X474073Y23337D01*
X474974Y22817D01*
X475980Y22547D01*
X477020D01*
X478026Y22817D01*
X478927Y23337D01*
X479663Y24073D01*
X480183Y24974D01*
X480453Y25980D01*
Y27020D01*
X480183Y28026D01*
X479663Y28927D01*
X478927Y29663D01*
X478026Y30183D01*
X477020Y30453D01*
D02*
G37*
G36*
X379047Y24642D02*
X374413D01*
Y21386D01*
X379047D01*
Y24642D01*
D02*
G37*
G36*
X469949Y23382D02*
X468909D01*
X467903Y23112D01*
X467002Y22592D01*
X466266Y21856D01*
X465746Y20955D01*
X465476Y19949D01*
Y18909D01*
X465746Y17903D01*
X466266Y17002D01*
X467002Y16266D01*
X467903Y15746D01*
X468909Y15476D01*
X469949D01*
X470955Y15746D01*
X471856Y16266D01*
X472592Y17002D01*
X473112Y17903D01*
X473382Y18909D01*
Y19949D01*
X473112Y20955D01*
X472592Y21856D01*
X471856Y22592D01*
X470955Y23112D01*
X469949Y23382D01*
D02*
G37*
G36*
X20837Y28500D02*
X19163D01*
X17521Y28173D01*
X15974Y27533D01*
X14582Y26602D01*
X13398Y25418D01*
X12467Y24026D01*
X11827Y22479D01*
X11500Y20837D01*
Y19163D01*
X11827Y17521D01*
X12467Y15974D01*
X13398Y14582D01*
X14582Y13398D01*
X15974Y12467D01*
X17521Y11827D01*
X19163Y11500D01*
X20837D01*
X22479Y11827D01*
X24026Y12467D01*
X25418Y13398D01*
X26602Y14582D01*
X27533Y15974D01*
X28173Y17521D01*
X28500Y19163D01*
Y20837D01*
X28173Y22479D01*
X27533Y24026D01*
X26602Y25418D01*
X25418Y26602D01*
X24026Y27533D01*
X22479Y28173D01*
X20837Y28500D01*
D02*
G37*
%LPD*%
G36*
X452060Y351307D02*
X451797Y350882D01*
X450827Y351142D01*
X449824D01*
X448920Y350900D01*
X447511Y352309D01*
X447702Y352771D01*
X450597D01*
X452060Y351307D01*
D02*
G37*
G36*
X374648Y349800D02*
X374483Y349257D01*
X374415Y349244D01*
X373919Y348912D01*
X373195Y348189D01*
X372724Y348424D01*
X372488Y349302D01*
X371987Y350171D01*
X371277Y350880D01*
X370408Y351382D01*
X369439Y351642D01*
X368435D01*
X367531Y351400D01*
X366780Y352151D01*
X366971Y352613D01*
X371835D01*
X374648Y349800D01*
D02*
G37*
G36*
X446757Y348737D02*
X446604Y348166D01*
X446046Y348017D01*
X445651Y348412D01*
X445154Y348744D01*
X444569Y348860D01*
X444001D01*
X443533Y349671D01*
X443395Y349809D01*
X443586Y350271D01*
X445223D01*
X446757Y348737D01*
D02*
G37*
G36*
X466513Y338176D02*
X463367Y335029D01*
X461027D01*
Y335685D01*
X460920Y336221D01*
X460617Y336676D01*
X460162Y336979D01*
X459626Y337086D01*
X458702D01*
X458511Y337548D01*
X464281Y343319D01*
X464416Y343520D01*
X466513D01*
Y338176D01*
D02*
G37*
G36*
X348971Y329159D02*
Y298634D01*
X322412Y272075D01*
X321950Y272266D01*
Y279450D01*
X315029D01*
Y298667D01*
X345348Y328985D01*
X346039Y328800D01*
X346961D01*
X347851Y329039D01*
X348471Y329396D01*
X348971Y329159D01*
D02*
G37*
G36*
X577471Y336467D02*
Y324980D01*
X576992Y324835D01*
X576602Y325418D01*
X575418Y326602D01*
X574026Y327533D01*
X572479Y328173D01*
X570837Y328500D01*
X569163D01*
X567521Y328173D01*
X565974Y327533D01*
X564582Y326602D01*
X563398Y325418D01*
X562467Y324026D01*
X561827Y322479D01*
X561500Y320837D01*
Y319163D01*
X561827Y317521D01*
X562467Y315974D01*
X563398Y314582D01*
X564582Y313398D01*
X565974Y312467D01*
X567521Y311827D01*
X569163Y311500D01*
X570837D01*
X572479Y311827D01*
X574026Y312467D01*
X575418Y313398D01*
X576602Y314582D01*
X576992Y315165D01*
X577471Y315020D01*
Y310933D01*
X569023Y302485D01*
X568691Y301989D01*
X568575Y301404D01*
Y300446D01*
X568113Y300254D01*
X548533Y319833D01*
Y329495D01*
X548662Y329521D01*
X549117Y329824D01*
X549420Y330279D01*
X549527Y330815D01*
Y333360D01*
X553281Y337115D01*
X553613Y337611D01*
X553729Y338196D01*
Y343520D01*
X561116D01*
Y351142D01*
X553494D01*
Y348853D01*
X552946Y348744D01*
X552449Y348412D01*
X551720Y347682D01*
X551250Y347920D01*
X551014Y348802D01*
X550512Y349671D01*
X549802Y350380D01*
X548933Y350882D01*
X547964Y351142D01*
X546961D01*
X545991Y350882D01*
X545122Y350380D01*
X544413Y349671D01*
X543911Y348802D01*
X543784Y348328D01*
X543266D01*
X543140Y348802D01*
X542638Y349671D01*
X541928Y350380D01*
X541059Y350882D01*
X540090Y351142D01*
X539086D01*
X538117Y350882D01*
X537248Y350380D01*
X536539Y349671D01*
X536037Y348802D01*
X535777Y347832D01*
Y346829D01*
X536037Y345860D01*
X536539Y344991D01*
X537248Y344281D01*
X538117Y343779D01*
X539086Y343520D01*
X540090D01*
X541059Y343779D01*
X541928Y344281D01*
X542638Y344991D01*
X543140Y345860D01*
X543266Y346334D01*
X543784D01*
X543911Y345860D01*
X544413Y344991D01*
X545122Y344281D01*
X545991Y343779D01*
X546961Y343520D01*
X547964D01*
X548933Y343779D01*
X549802Y344281D01*
X550171Y344649D01*
X550671Y344442D01*
Y338829D01*
X548377Y336536D01*
X548126Y336586D01*
X545882D01*
X545346Y336479D01*
X544891Y336176D01*
X544588Y335721D01*
X544481Y335185D01*
Y330815D01*
X544588Y330279D01*
X544891Y329824D01*
X545346Y329521D01*
X545475Y329495D01*
Y319200D01*
X545591Y318615D01*
X545923Y318119D01*
X566571Y297470D01*
Y293883D01*
X566185Y293566D01*
X561815D01*
X561279Y293460D01*
X560824Y293156D01*
X560521Y292702D01*
X560495Y292573D01*
X555233D01*
X547925Y299881D01*
X547429Y300213D01*
X546843Y300329D01*
X546705D01*
Y308996D01*
X538406D01*
Y295185D01*
X546705D01*
Y296122D01*
X547167Y296314D01*
X553519Y289962D01*
X554015Y289630D01*
X554600Y289514D01*
X560495D01*
X560521Y289385D01*
X560824Y288931D01*
X561279Y288627D01*
X561815Y288520D01*
X566185D01*
X566571Y288204D01*
Y286835D01*
X566185Y286519D01*
X564500D01*
Y283996D01*
Y281473D01*
X566185D01*
X566571Y281157D01*
Y243216D01*
X566174Y242912D01*
X566020Y242953D01*
X564980D01*
X563974Y242683D01*
X563073Y242163D01*
X562337Y241427D01*
X561817Y240526D01*
X561547Y239520D01*
Y238480D01*
X561817Y237474D01*
X562337Y236573D01*
X562371Y236539D01*
X562180Y236077D01*
X560586D01*
X559185Y237478D01*
X559453Y238480D01*
Y239520D01*
X559183Y240526D01*
X558663Y241427D01*
X557927Y242163D01*
X557026Y242683D01*
X556020Y242953D01*
X554980D01*
X553974Y242683D01*
X553073Y242163D01*
X552337Y241427D01*
X551817Y240526D01*
X551547Y239520D01*
Y238480D01*
X551817Y237474D01*
X552337Y236573D01*
X553073Y235837D01*
X553974Y235317D01*
X554980Y235047D01*
X556020D01*
X557022Y235315D01*
X557799Y234539D01*
X557607Y234077D01*
X514864D01*
X510529Y238411D01*
Y270434D01*
X511185D01*
X511721Y270540D01*
X512176Y270844D01*
X512479Y271298D01*
X512586Y271835D01*
Y274079D01*
X512479Y274615D01*
X512176Y275069D01*
X511721Y275373D01*
X511185Y275480D01*
X506815D01*
X506279Y275373D01*
X505824Y275069D01*
X505521Y274615D01*
X505495Y274486D01*
X494220D01*
X494146Y274547D01*
Y275638D01*
X485846D01*
Y261827D01*
X494146D01*
Y270719D01*
X494854Y271427D01*
X505495D01*
X505521Y271298D01*
X505824Y270844D01*
X506279Y270540D01*
X506815Y270434D01*
X507471D01*
Y237778D01*
X507587Y237193D01*
X507919Y236697D01*
X513149Y231466D01*
X513646Y231134D01*
X514231Y231018D01*
X561602D01*
X561793Y230556D01*
X544319Y213081D01*
X543987Y212585D01*
X543871Y212000D01*
Y206200D01*
X543987Y205615D01*
X544319Y205119D01*
X544849Y204589D01*
Y199147D01*
X543888Y198749D01*
X542857Y197958D01*
X542065Y196927D01*
X541568Y195726D01*
X541398Y194437D01*
Y186563D01*
X541568Y185274D01*
X542065Y184073D01*
X542857Y183042D01*
X543888Y182250D01*
X545089Y181753D01*
X546378Y181583D01*
X546577Y181610D01*
X546798Y181161D01*
X524467Y158829D01*
X499975D01*
X498352Y160453D01*
X498559Y160953D01*
X500398D01*
Y165587D01*
X496642D01*
X492886D01*
Y160953D01*
X495112D01*
Y160000D01*
Y129475D01*
X487976Y122339D01*
X487514Y122530D01*
Y131220D01*
X485288D01*
Y156780D01*
X487514D01*
Y167047D01*
X480963D01*
X480772Y167509D01*
X484340Y171077D01*
X484671Y171573D01*
X484788Y172158D01*
Y189953D01*
X487014D01*
Y200220D01*
X484788D01*
Y225780D01*
X487014D01*
Y236047D01*
X479502D01*
Y225780D01*
X481729D01*
Y200220D01*
X479502D01*
Y189953D01*
X481729D01*
Y172792D01*
X471819Y162881D01*
X471487Y162385D01*
X471371Y161800D01*
Y130158D01*
X470751Y129801D01*
X470298Y129348D01*
X469798Y129555D01*
Y131220D01*
X467571D01*
Y156780D01*
X469798D01*
Y161413D01*
X466042D01*
X462286D01*
Y160320D01*
X458595Y156629D01*
X447762D01*
X439898Y164494D01*
Y165587D01*
X436642D01*
Y160953D01*
X439113D01*
X446047Y154019D01*
X446543Y153687D01*
X447128Y153571D01*
X459228D01*
X459814Y153687D01*
X460310Y154019D01*
X463071Y156780D01*
X464512D01*
Y131220D01*
X462286D01*
Y126587D01*
X466042D01*
Y125587D01*
X462286D01*
Y120953D01*
X464512D01*
Y116400D01*
X464629Y115815D01*
X464960Y115319D01*
X469361Y110919D01*
X469857Y110587D01*
X470442Y110471D01*
X479800D01*
X480385Y110587D01*
X480881Y110919D01*
X483709Y113746D01*
X484171Y113554D01*
Y81500D01*
X483029D01*
Y87800D01*
X482913Y88385D01*
X482581Y88881D01*
X409429Y162033D01*
Y170342D01*
X410049Y170699D01*
X410701Y171351D01*
X411162Y172149D01*
X411400Y173039D01*
Y173961D01*
X411162Y174851D01*
X410701Y175649D01*
X410548Y175801D01*
X410743Y176314D01*
X410824Y176321D01*
X411052Y176291D01*
X411324Y175883D01*
X411779Y175580D01*
X412315Y175473D01*
X416685D01*
X417221Y175580D01*
X417676Y175883D01*
X417979Y176338D01*
X418086Y176874D01*
Y179118D01*
X417979Y179654D01*
X417676Y180109D01*
X417221Y180412D01*
X416685Y180519D01*
X412315D01*
X411779Y180412D01*
X411324Y180109D01*
X411021Y179654D01*
X410995Y179525D01*
X405505D01*
X405479Y179654D01*
X405176Y180109D01*
X404721Y180412D01*
X404185Y180519D01*
X399815D01*
X399279Y180412D01*
X398824Y180109D01*
X398521Y179654D01*
X398495Y179525D01*
X393505D01*
X393479Y179654D01*
X393176Y180109D01*
X392721Y180412D01*
X392185Y180519D01*
X387815D01*
X387279Y180412D01*
X386824Y180109D01*
X386533Y180080D01*
X385979Y180633D01*
Y183544D01*
X386479Y183593D01*
X386521Y183385D01*
X386824Y182931D01*
X387279Y182627D01*
X387815Y182520D01*
X389500D01*
Y185043D01*
Y187566D01*
X387815D01*
X387279Y187460D01*
X386824Y187156D01*
X386521Y186702D01*
X386479Y186494D01*
X385979Y186543D01*
Y189050D01*
X385863Y189635D01*
X385531Y190131D01*
X381682Y193981D01*
X381950Y194980D01*
Y196020D01*
X381682Y197019D01*
X395281Y210619D01*
X395613Y211115D01*
X395729Y211700D01*
Y219331D01*
X396041Y219584D01*
X396500Y219385D01*
Y215250D01*
X398971D01*
Y212500D01*
X397250D01*
Y204500D01*
X403750D01*
Y212500D01*
X402029D01*
Y215250D01*
X404500D01*
Y221171D01*
X405600D01*
X405877Y221226D01*
X406155Y221275D01*
X406169Y221284D01*
X406185Y221287D01*
X406420Y221444D01*
X406471Y221476D01*
X406950Y221247D01*
X406971Y221220D01*
Y212500D01*
X405250D01*
Y209000D01*
X408500D01*
X411750D01*
Y212500D01*
X410029D01*
Y231867D01*
X410913Y232750D01*
X411500D01*
Y235500D01*
X408000D01*
Y234528D01*
X407884Y234452D01*
X407390Y234724D01*
X407519Y240704D01*
X408000Y240750D01*
X408020Y240750D01*
X416000D01*
Y247250D01*
X413529D01*
Y248066D01*
X413581Y248119D01*
X413913Y248615D01*
X414029Y249200D01*
Y250750D01*
X416500D01*
Y257250D01*
X408500D01*
Y250750D01*
X410971D01*
Y249833D01*
X410919Y249781D01*
X410587Y249285D01*
X410471Y248700D01*
Y247250D01*
X408161D01*
X407668Y247613D01*
X408000Y262952D01*
X408500Y262947D01*
Y258750D01*
X416500D01*
Y265250D01*
X414029D01*
Y267700D01*
X413913Y268285D01*
X413581Y268781D01*
X412529Y269833D01*
Y271807D01*
X414559D01*
Y278335D01*
X408690D01*
X408340Y278692D01*
X408383Y280665D01*
X414559D01*
Y280925D01*
X415021Y281116D01*
X417519Y278619D01*
X418015Y278287D01*
X418441Y278202D01*
Y271807D01*
X420471D01*
Y247000D01*
X420587Y246415D01*
X420919Y245919D01*
X421000Y245837D01*
Y240750D01*
X429000D01*
Y247250D01*
X423913D01*
X423529Y247634D01*
Y271807D01*
X425559D01*
Y278171D01*
X433557D01*
X434142Y278287D01*
X434638Y278619D01*
X445034Y289014D01*
X452495D01*
X452521Y288885D01*
X452824Y288431D01*
X453279Y288127D01*
X453815Y288020D01*
X458185D01*
X458721Y288127D01*
X459176Y288431D01*
X459479Y288885D01*
X459586Y289421D01*
Y291665D01*
X459479Y292202D01*
X459176Y292656D01*
X458786Y292916D01*
X458592Y293429D01*
X460634Y295471D01*
X468583D01*
Y285324D01*
X468196Y285006D01*
X468100Y285025D01*
X459505D01*
X459479Y285154D01*
X459176Y285609D01*
X458721Y285912D01*
X458185Y286019D01*
X456500D01*
Y283496D01*
Y280973D01*
X458185D01*
X458721Y281080D01*
X459176Y281383D01*
X459479Y281838D01*
X459505Y281967D01*
X467466D01*
X470475Y278959D01*
Y275638D01*
X467854D01*
Y269232D01*
X476154D01*
Y275638D01*
X473533D01*
Y278475D01*
X505495D01*
X505521Y278346D01*
X505824Y277891D01*
X506279Y277588D01*
X506815Y277481D01*
X508500D01*
Y280004D01*
X509500D01*
Y277481D01*
X511185D01*
X511721Y277588D01*
X512176Y277891D01*
X512479Y278346D01*
X512505Y278475D01*
X518567D01*
X519311Y277730D01*
Y276409D01*
X533500D01*
Y275909D01*
X534000D01*
Y261720D01*
X547689D01*
Y274380D01*
X554813D01*
X555399Y274496D01*
X555895Y274828D01*
X562540Y281473D01*
X563500D01*
Y283496D01*
X560237D01*
X554180Y277439D01*
X547689D01*
Y290098D01*
X535029D01*
Y311666D01*
X541038Y317675D01*
X541370Y318171D01*
X541486Y318757D01*
Y329495D01*
X541615Y329521D01*
X542069Y329824D01*
X542373Y330279D01*
X542480Y330815D01*
Y332500D01*
X539957D01*
X537434D01*
Y330815D01*
X537540Y330279D01*
X537844Y329824D01*
X538298Y329521D01*
X538427Y329495D01*
Y319390D01*
X532419Y313381D01*
X532087Y312885D01*
X531971Y312300D01*
Y290098D01*
X519311D01*
Y281625D01*
X519200Y281533D01*
X512505D01*
X512479Y281662D01*
X512176Y282117D01*
X511721Y282420D01*
X511185Y282527D01*
X510529D01*
Y285973D01*
X511185D01*
X511721Y286080D01*
X512176Y286383D01*
X512479Y286838D01*
X512586Y287374D01*
Y287996D01*
X505414D01*
Y287374D01*
X505521Y286838D01*
X505824Y286383D01*
X506279Y286080D01*
X506815Y285973D01*
X507471D01*
Y282527D01*
X506815D01*
X506279Y282420D01*
X505824Y282117D01*
X505521Y281662D01*
X505495Y281533D01*
X472226D01*
X470426Y283333D01*
X470617Y283795D01*
X493417D01*
Y310205D01*
X468583D01*
Y298529D01*
X464634D01*
X460033Y303130D01*
Y329995D01*
X460162Y330021D01*
X460617Y330324D01*
X460920Y330779D01*
X461027Y331315D01*
Y331971D01*
X464000D01*
X464585Y332087D01*
X465081Y332419D01*
X469124Y336461D01*
X469455Y336957D01*
X469572Y337542D01*
Y343520D01*
X471853D01*
Y349431D01*
X472315Y349622D01*
X495271Y326666D01*
Y300000D01*
X495387Y299415D01*
X495719Y298919D01*
X500175Y294462D01*
X500671Y294130D01*
X501257Y294014D01*
X505495D01*
X505521Y293885D01*
X505824Y293431D01*
X506279Y293127D01*
X506815Y293020D01*
X511185D01*
X511721Y293127D01*
X512176Y293431D01*
X512479Y293885D01*
X512505Y294014D01*
X513400D01*
X513985Y294130D01*
X514481Y294462D01*
X519833Y299814D01*
X520295Y299622D01*
Y295185D01*
X528594D01*
Y308996D01*
X525974D01*
Y345241D01*
X526474Y345375D01*
X526696Y344991D01*
X527406Y344281D01*
X528275Y343779D01*
X529244Y343520D01*
X529246D01*
Y347331D01*
Y351142D01*
X529244D01*
X528275Y350882D01*
X527406Y350380D01*
X526696Y349671D01*
X526474Y349286D01*
X525974Y349420D01*
Y349911D01*
X529234Y353171D01*
X560767D01*
X577471Y336467D01*
D02*
G37*
G36*
X456975Y329542D02*
Y302496D01*
X457091Y301911D01*
X457423Y301415D01*
X459831Y299006D01*
X459667Y298463D01*
X459415Y298413D01*
X458919Y298081D01*
X454919Y294081D01*
X454587Y293585D01*
X454484Y293066D01*
X453815D01*
X453279Y292960D01*
X452824Y292656D01*
X452521Y292202D01*
X452495Y292073D01*
X444400D01*
X443815Y291956D01*
X443319Y291625D01*
X432923Y281229D01*
X425559D01*
Y287193D01*
X423529D01*
Y289767D01*
X455881Y322119D01*
X456213Y322615D01*
X456329Y323200D01*
Y329346D01*
X456829Y329629D01*
X456975Y329542D01*
D02*
G37*
G36*
X321425Y271088D02*
X319519Y269182D01*
X318520Y269450D01*
X317480D01*
X316475Y269181D01*
X315575Y268661D01*
X315491Y268578D01*
X315029Y268769D01*
Y271550D01*
X321234D01*
X321425Y271088D01*
D02*
G37*
G36*
X409471Y269200D02*
X409587Y268615D01*
X409919Y268119D01*
X410971Y267067D01*
Y265250D01*
X408550D01*
X408052Y265376D01*
X408191Y271807D01*
X409471D01*
Y269200D01*
D02*
G37*
G36*
X355171Y341601D02*
Y294833D01*
X319519Y259182D01*
X318520Y259450D01*
X317480D01*
X316475Y259181D01*
X315575Y258661D01*
X315491Y258577D01*
X315029Y258769D01*
Y262231D01*
X315491Y262422D01*
X315575Y262339D01*
X316475Y261819D01*
X317480Y261550D01*
X318520D01*
X319525Y261819D01*
X320425Y262339D01*
X321161Y263075D01*
X321681Y263975D01*
X321950Y264980D01*
Y266020D01*
X321682Y267019D01*
X351581Y296919D01*
X351913Y297415D01*
X352029Y298000D01*
Y339166D01*
X354671Y341808D01*
X355171Y341601D01*
D02*
G37*
G36*
X300071Y233366D02*
Y222376D01*
X299609Y222184D01*
X286720Y235073D01*
X286834Y235500D01*
X284130D01*
Y232796D01*
X284557Y232910D01*
X297471Y219997D01*
Y175527D01*
X296815D01*
X296279Y175420D01*
X295824Y175117D01*
X295521Y174662D01*
X295495Y174533D01*
X287900D01*
X287315Y174417D01*
X286819Y174085D01*
X286434Y174408D01*
X286635Y174755D01*
X286854Y175575D01*
Y176425D01*
X286635Y177245D01*
X286210Y177980D01*
X285610Y178580D01*
X284875Y179005D01*
X284054Y179224D01*
X283206D01*
X282385Y179005D01*
X281650Y178580D01*
X281050Y177980D01*
X280625Y177245D01*
X280406Y176425D01*
Y175575D01*
X280625Y174755D01*
X281050Y174020D01*
X281650Y173420D01*
X282385Y172995D01*
X283206Y172776D01*
X284054D01*
X284875Y172995D01*
X285222Y173196D01*
X285529Y172796D01*
X284215Y171482D01*
X280000D01*
X279415Y171366D01*
X278919Y171034D01*
X277871Y169987D01*
X277871Y169987D01*
X270871Y162987D01*
X270540Y162491D01*
X270423Y161906D01*
Y141559D01*
X267577D01*
Y227814D01*
X277960Y238197D01*
X278420Y237950D01*
X278371Y237700D01*
Y189730D01*
X278487Y189145D01*
X278819Y188649D01*
X280540Y186927D01*
X280406Y186425D01*
Y185575D01*
X280625Y184755D01*
X281050Y184020D01*
X281650Y183420D01*
X282385Y182995D01*
X283206Y182776D01*
X284054D01*
X284875Y182995D01*
X285610Y183420D01*
X286210Y184020D01*
X286635Y184755D01*
X286854Y185575D01*
Y186425D01*
X286635Y187245D01*
X286210Y187980D01*
X285610Y188580D01*
X284875Y189005D01*
X284054Y189224D01*
X283206D01*
X282703Y189090D01*
X281429Y190364D01*
Y192970D01*
X281929Y193259D01*
X282385Y192995D01*
X283206Y192776D01*
X284054D01*
X284875Y192995D01*
X285610Y193420D01*
X286210Y194020D01*
X286635Y194755D01*
X286854Y195575D01*
Y196424D01*
X286635Y197245D01*
X286210Y197980D01*
X285610Y198580D01*
X284875Y199005D01*
X284054Y199224D01*
X283206D01*
X282385Y199005D01*
X281929Y198741D01*
X281429Y199030D01*
Y202970D01*
X281929Y203259D01*
X282385Y202995D01*
X283206Y202776D01*
X284054D01*
X284875Y202995D01*
X285610Y203420D01*
X286210Y204020D01*
X286635Y204755D01*
X286854Y205575D01*
Y206424D01*
X286635Y207245D01*
X286210Y207980D01*
X285610Y208580D01*
X284875Y209005D01*
X284054Y209224D01*
X283206D01*
X282385Y209005D01*
X281929Y208741D01*
X281429Y209030D01*
Y212970D01*
X281929Y213259D01*
X282385Y212995D01*
X283206Y212776D01*
X284054D01*
X284875Y212995D01*
X285610Y213420D01*
X286210Y214020D01*
X286635Y214755D01*
X286854Y215576D01*
Y216424D01*
X286635Y217245D01*
X286210Y217980D01*
X285610Y218580D01*
X284875Y219005D01*
X284054Y219224D01*
X283206D01*
X282385Y219005D01*
X281929Y218741D01*
X281429Y219030D01*
Y222970D01*
X281929Y223259D01*
X282385Y222995D01*
X283206Y222776D01*
X284054D01*
X284875Y222995D01*
X285610Y223420D01*
X286210Y224020D01*
X286635Y224755D01*
X286854Y225575D01*
Y226425D01*
X286635Y227245D01*
X286210Y227980D01*
X285610Y228580D01*
X284875Y229005D01*
X284054Y229224D01*
X283206D01*
X282385Y229005D01*
X281929Y228741D01*
X281429Y229030D01*
Y232970D01*
X281929Y233259D01*
X282385Y232995D01*
X283130Y232796D01*
Y236000D01*
X283630D01*
Y236500D01*
X286834D01*
X286635Y237245D01*
X286331Y237771D01*
X286590Y238271D01*
X295166D01*
X300071Y233366D01*
D02*
G37*
G36*
X404279Y232366D02*
X404223Y229750D01*
X402029D01*
Y231000D01*
X401913Y231585D01*
X401581Y232081D01*
X401529Y232134D01*
Y232750D01*
X403787D01*
X404279Y232366D01*
D02*
G37*
G36*
X310471Y229666D02*
Y224500D01*
X310587Y223915D01*
X310919Y223419D01*
X314919Y219419D01*
X315368Y219119D01*
X315432Y218977D01*
X315488Y218707D01*
X315478Y218565D01*
X314839Y217925D01*
X314319Y217025D01*
X314050Y216020D01*
Y214980D01*
X314319Y213975D01*
X314839Y213075D01*
X315575Y212339D01*
X316475Y211819D01*
X317480Y211550D01*
X318520D01*
X319525Y211819D01*
X320425Y212339D01*
X320509Y212422D01*
X320971Y212231D01*
Y208769D01*
X320509Y208577D01*
X320425Y208661D01*
X319525Y209181D01*
X318520Y209450D01*
X317480D01*
X316475Y209181D01*
X315575Y208661D01*
X314839Y207925D01*
X314319Y207025D01*
X314050Y206020D01*
Y204980D01*
X314319Y203975D01*
X314839Y203075D01*
X315575Y202339D01*
X316475Y201819D01*
X317480Y201550D01*
X318520D01*
X319525Y201819D01*
X320425Y202339D01*
X320509Y202422D01*
X320971Y202231D01*
Y198769D01*
X320509Y198577D01*
X320425Y198661D01*
X319525Y199181D01*
X318520Y199450D01*
X317480D01*
X316475Y199181D01*
X315575Y198661D01*
X314839Y197925D01*
X314319Y197025D01*
X314050Y196020D01*
Y194980D01*
X314319Y193975D01*
X314839Y193075D01*
X315575Y192339D01*
X316475Y191819D01*
X317480Y191550D01*
X318520D01*
X319525Y191819D01*
X320425Y192339D01*
X320509Y192422D01*
X320971Y192231D01*
Y188769D01*
X320509Y188577D01*
X320425Y188661D01*
X319525Y189181D01*
X318520Y189450D01*
X317480D01*
X316475Y189181D01*
X315575Y188661D01*
X314839Y187925D01*
X314319Y187025D01*
X314050Y186020D01*
Y184980D01*
X314319Y183975D01*
X314839Y183075D01*
X315385Y182529D01*
X315177Y182029D01*
X313833D01*
X303129Y192734D01*
Y234000D01*
X303013Y234585D01*
X302681Y235081D01*
X297921Y239842D01*
X298112Y240304D01*
X299833D01*
X310471Y229666D01*
D02*
G37*
G36*
X548757Y204483D02*
X550126Y203916D01*
X551594Y203723D01*
X554691D01*
Y189054D01*
X551780Y186143D01*
X551331Y186364D01*
X551358Y186563D01*
Y194437D01*
X551188Y195726D01*
X550691Y196927D01*
X549899Y197958D01*
X548868Y198749D01*
X547907Y199147D01*
Y204570D01*
X548356Y204791D01*
X548757Y204483D01*
D02*
G37*
G36*
X324899Y208851D02*
X325551Y208199D01*
X326171Y207841D01*
Y181025D01*
X325671Y180873D01*
X325531Y181081D01*
X324029Y182583D01*
Y209358D01*
X324529Y209492D01*
X324899Y208851D01*
D02*
G37*
G36*
X312119Y179419D02*
X312615Y179087D01*
X313200Y178971D01*
X315177D01*
X315385Y178471D01*
X314839Y177925D01*
X314319Y177025D01*
X314050Y176020D01*
Y176000D01*
X318000D01*
Y175000D01*
X314050D01*
Y174980D01*
X314063Y174930D01*
X313759Y174533D01*
X302505D01*
X302479Y174662D01*
X302176Y175117D01*
X301721Y175420D01*
X301185Y175527D01*
X300529D01*
Y190354D01*
X300991Y190546D01*
X312119Y179419D01*
D02*
G37*
G36*
X299500Y170481D02*
X301185D01*
X301721Y170588D01*
X302176Y170891D01*
X302479Y171346D01*
X302505Y171475D01*
X313658D01*
X313850Y171013D01*
X312419Y169581D01*
X312087Y169085D01*
X311971Y168500D01*
Y163000D01*
X312087Y162415D01*
X312419Y161919D01*
X314919Y159419D01*
X315368Y159119D01*
X315432Y158977D01*
X315488Y158707D01*
X315478Y158565D01*
X314839Y157925D01*
X314319Y157025D01*
X314050Y156020D01*
Y154980D01*
X314318Y153981D01*
X303867Y143529D01*
X299953D01*
X299822Y143503D01*
X299688Y143506D01*
X299532Y143446D01*
X299367Y143413D01*
X299256Y143339D01*
X299132Y143290D01*
X299011Y143175D01*
X298871Y143081D01*
X298797Y142970D01*
X298700Y142878D01*
X298633Y142725D01*
X298540Y142585D01*
X298514Y142454D01*
X298460Y142332D01*
X298177Y141059D01*
X293547D01*
Y137500D01*
X293047D01*
Y137000D01*
X290079D01*
Y135777D01*
X284633D01*
X281029Y139381D01*
Y162776D01*
X286854D01*
Y164471D01*
X291025D01*
X291243Y164427D01*
X295495D01*
X295521Y164298D01*
X295824Y163844D01*
X296279Y163540D01*
X296815Y163434D01*
X301185D01*
X301721Y163540D01*
X302176Y163844D01*
X302479Y164298D01*
X302586Y164835D01*
Y167079D01*
X302479Y167615D01*
X302176Y168069D01*
X301721Y168373D01*
X301185Y168480D01*
X296815D01*
X296279Y168373D01*
X295824Y168069D01*
X295521Y167615D01*
X295495Y167486D01*
X291418D01*
X291200Y167529D01*
X286854D01*
Y169224D01*
X286854D01*
X286687Y169628D01*
X288533Y171475D01*
X295495D01*
X295521Y171346D01*
X295824Y170891D01*
X296279Y170588D01*
X296815Y170481D01*
X298500D01*
Y173004D01*
X299500D01*
Y170481D01*
D02*
G37*
G36*
X320971Y152231D02*
Y148769D01*
X320509Y148577D01*
X320425Y148661D01*
X319525Y149181D01*
X318520Y149450D01*
X317480D01*
X316475Y149181D01*
X315575Y148661D01*
X314839Y147925D01*
X314319Y147025D01*
X314050Y146020D01*
Y144980D01*
X314319Y143975D01*
X314839Y143075D01*
X315575Y142339D01*
X316475Y141819D01*
X317480Y141550D01*
X318520D01*
X319525Y141819D01*
X320425Y142339D01*
X320509Y142422D01*
X320971Y142231D01*
Y138769D01*
X320509Y138577D01*
X320425Y138661D01*
X319525Y139181D01*
X318520Y139450D01*
X317480D01*
X316475Y139181D01*
X315575Y138661D01*
X314839Y137925D01*
X314319Y137025D01*
X314050Y136020D01*
Y134980D01*
X314319Y133975D01*
X314839Y133075D01*
X315575Y132339D01*
X316475Y131819D01*
X317480Y131550D01*
X318520D01*
X319525Y131819D01*
X320425Y132339D01*
X320509Y132422D01*
X320971Y132231D01*
Y128769D01*
X320509Y128577D01*
X320425Y128661D01*
X319525Y129181D01*
X318520Y129450D01*
X317480D01*
X316475Y129181D01*
X315575Y128661D01*
X314839Y127925D01*
X314319Y127025D01*
X314050Y126020D01*
Y124980D01*
X314319Y123975D01*
X314839Y123075D01*
X315575Y122339D01*
X316475Y121819D01*
X317480Y121550D01*
X318520D01*
X319525Y121819D01*
X320425Y122339D01*
X320509Y122423D01*
X320971Y122231D01*
Y118769D01*
X320509Y118578D01*
X320425Y118661D01*
X319525Y119181D01*
X318520Y119450D01*
X317480D01*
X316475Y119181D01*
X315575Y118661D01*
X314839Y117925D01*
X314319Y117025D01*
X314050Y116020D01*
Y114980D01*
X314319Y113975D01*
X314839Y113075D01*
X315478Y112435D01*
X315488Y112293D01*
X315432Y112023D01*
X315368Y111881D01*
X314919Y111581D01*
X312419Y109081D01*
X312087Y108585D01*
X311971Y108000D01*
Y93000D01*
X312087Y92415D01*
X312419Y91919D01*
X314919Y89419D01*
X315368Y89119D01*
X315432Y88977D01*
X315488Y88707D01*
X315478Y88565D01*
X314839Y87925D01*
X314319Y87025D01*
X314050Y86020D01*
Y84980D01*
X314319Y83975D01*
X314839Y83075D01*
X315575Y82339D01*
X316471Y81822D01*
Y46614D01*
X314779D01*
Y44388D01*
X289220D01*
Y46614D01*
X279488D01*
Y52125D01*
X280581Y53219D01*
X280913Y53715D01*
X281029Y54300D01*
Y134402D01*
X281491Y134593D01*
X282919Y133166D01*
X283415Y132834D01*
X284000Y132718D01*
X293047D01*
X293633Y132834D01*
X294129Y133166D01*
X294460Y133662D01*
X294516Y133941D01*
X297423D01*
Y130185D01*
X296176Y128937D01*
X281575D01*
Y119063D01*
X305228D01*
Y128937D01*
X300870D01*
X300460Y129437D01*
X300482Y129551D01*
Y133941D01*
X301921D01*
Y140471D01*
X304500D01*
X305085Y140587D01*
X305581Y140919D01*
X316481Y151818D01*
X317480Y151550D01*
X318520D01*
X319525Y151819D01*
X320425Y152339D01*
X320509Y152422D01*
X320971Y152231D01*
D02*
G37*
G36*
X480002Y166086D02*
Y156780D01*
X482229D01*
Y131220D01*
X480002D01*
Y123155D01*
X479502Y122948D01*
X479049Y123401D01*
X478251Y123862D01*
X477361Y124100D01*
X476439D01*
X475549Y123862D01*
X474751Y123401D01*
X474099Y122749D01*
X473638Y121951D01*
X473400Y121061D01*
Y120139D01*
X473638Y119249D01*
X474099Y118451D01*
X474751Y117799D01*
X475549Y117339D01*
X476439Y117100D01*
X477361D01*
X478251Y117339D01*
X479049Y117799D01*
X479701Y118451D01*
X480058Y119071D01*
X483758D01*
X484061Y119131D01*
X484307Y118670D01*
X479167Y113529D01*
X471075D01*
X467571Y117034D01*
Y120953D01*
X469798D01*
Y124445D01*
X470298Y124653D01*
X470751Y124199D01*
X471549Y123739D01*
X472439Y123500D01*
X473361D01*
X474251Y123739D01*
X475049Y124199D01*
X475701Y124851D01*
X476161Y125649D01*
X476400Y126539D01*
Y127461D01*
X476161Y128351D01*
X475701Y129149D01*
X475049Y129801D01*
X474429Y130158D01*
Y161167D01*
X479540Y166278D01*
X480002Y166086D01*
D02*
G37*
G36*
X486128Y120491D02*
X485688Y120051D01*
X485227Y120297D01*
X485288Y120600D01*
Y120953D01*
X485937D01*
X486128Y120491D01*
D02*
G37*
G36*
X382971Y109654D02*
Y108633D01*
X381854Y107517D01*
X381359Y107583D01*
X381161Y107925D01*
X380989Y108097D01*
X381158Y108635D01*
X381581Y108919D01*
X382509Y109846D01*
X382971Y109654D01*
D02*
G37*
G36*
X326171Y168553D02*
Y105833D01*
X319519Y99182D01*
X318520Y99450D01*
X317480D01*
X316475Y99181D01*
X315575Y98661D01*
X315491Y98577D01*
X315029Y98769D01*
Y102231D01*
X315491Y102422D01*
X315575Y102339D01*
X316475Y101819D01*
X317480Y101550D01*
X318520D01*
X319525Y101819D01*
X320425Y102339D01*
X321161Y103075D01*
X321681Y103975D01*
X321950Y104980D01*
Y106020D01*
X321681Y107025D01*
X321161Y107925D01*
X320522Y108565D01*
X320573Y108987D01*
X320633Y109119D01*
X321081Y109419D01*
X323581Y111919D01*
X323913Y112415D01*
X324029Y113000D01*
Y158000D01*
X323913Y158585D01*
X323581Y159081D01*
X321081Y161581D01*
X320633Y161881D01*
X320573Y162013D01*
X320522Y162435D01*
X321161Y163075D01*
X321681Y163975D01*
X321950Y164980D01*
Y166020D01*
X321901Y166202D01*
X322206Y166599D01*
X323000D01*
X323585Y166715D01*
X324081Y167047D01*
X325531Y168497D01*
X325671Y168705D01*
X326171Y168553D01*
D02*
G37*
G36*
X352969Y92632D02*
X352366Y92029D01*
X351883D01*
X351817Y92529D01*
X351851Y92538D01*
X352649Y92999D01*
X352969Y92632D01*
D02*
G37*
%LPC*%
G36*
X541079Y336586D02*
X540457D01*
Y333500D01*
X542480D01*
Y335185D01*
X542373Y335721D01*
X542069Y336176D01*
X541615Y336479D01*
X541079Y336586D01*
D02*
G37*
G36*
X530247Y351142D02*
X530246D01*
Y347331D01*
Y343520D01*
X530247D01*
X531217Y343779D01*
X531638Y344022D01*
X532071Y343772D01*
Y339357D01*
X532187Y338771D01*
X532519Y338275D01*
X537294Y333500D01*
X539457D01*
Y336586D01*
X538835D01*
X538584Y336536D01*
X535129Y339990D01*
Y347331D01*
X535013Y347916D01*
X534681Y348412D01*
X534185Y348744D01*
X533600Y348860D01*
X533263D01*
X532795Y349671D01*
X532086Y350380D01*
X531217Y350882D01*
X530247Y351142D01*
D02*
G37*
G36*
X511185Y291019D02*
X509500D01*
Y288996D01*
X512586D01*
Y289618D01*
X512479Y290154D01*
X512176Y290609D01*
X511721Y290912D01*
X511185Y291019D01*
D02*
G37*
G36*
X508500D02*
X506815D01*
X506279Y290912D01*
X505824Y290609D01*
X505521Y290154D01*
X505414Y289618D01*
Y288996D01*
X508500D01*
Y291019D01*
D02*
G37*
G36*
X563500Y286519D02*
X561815D01*
X561279Y286412D01*
X560824Y286109D01*
X560521Y285654D01*
X560414Y285118D01*
Y284496D01*
X563500D01*
Y286519D01*
D02*
G37*
G36*
X455500Y286019D02*
X453815D01*
X453279Y285912D01*
X452824Y285609D01*
X452521Y285154D01*
X452414Y284618D01*
Y283996D01*
X455500D01*
Y286019D01*
D02*
G37*
G36*
Y282996D02*
X452414D01*
Y282374D01*
X452521Y281838D01*
X452824Y281383D01*
X453279Y281080D01*
X453815Y280973D01*
X455500D01*
Y282996D01*
D02*
G37*
G36*
X533000Y275409D02*
X519311D01*
Y261720D01*
X533000D01*
Y275409D01*
D02*
G37*
G36*
X424500Y239250D02*
X421000D01*
Y237529D01*
X416000D01*
Y239250D01*
X412500D01*
Y236000D01*
Y232750D01*
X416000D01*
Y234471D01*
X421000D01*
Y232750D01*
X424500D01*
Y236000D01*
Y239250D01*
D02*
G37*
G36*
X429000D02*
X425500D01*
Y236500D01*
X429000D01*
Y239250D01*
D02*
G37*
G36*
X411500D02*
X408000D01*
Y236500D01*
X411500D01*
Y239250D01*
D02*
G37*
G36*
X429000Y235500D02*
X425500D01*
Y232750D01*
X429000D01*
Y235500D01*
D02*
G37*
G36*
X476154Y268232D02*
X467854D01*
Y261827D01*
X470475D01*
Y253596D01*
X464460Y247581D01*
X464129Y247085D01*
X464012Y246500D01*
Y236047D01*
X461786D01*
Y231413D01*
X465542D01*
X469298D01*
Y236047D01*
X467071D01*
Y245866D01*
X473085Y251881D01*
X473417Y252377D01*
X473533Y252962D01*
Y261827D01*
X476154D01*
Y268232D01*
D02*
G37*
G36*
X500398Y207047D02*
X497142D01*
Y202413D01*
X500398D01*
Y207047D01*
D02*
G37*
G36*
X439898D02*
X436642D01*
Y202413D01*
X439898D01*
Y207047D01*
D02*
G37*
G36*
X496142D02*
X492886D01*
Y202413D01*
X496142D01*
Y207047D01*
D02*
G37*
G36*
X469298Y230413D02*
X465542D01*
X461786D01*
Y225780D01*
X464012D01*
Y200220D01*
X461786D01*
Y195587D01*
X465542D01*
X469298D01*
Y200220D01*
X467071D01*
Y225780D01*
X469298D01*
Y230413D01*
D02*
G37*
G36*
X401500Y187566D02*
X399815D01*
X399279Y187460D01*
X398824Y187156D01*
X398521Y186702D01*
X398495Y186573D01*
X393505D01*
X393479Y186702D01*
X393176Y187156D01*
X392721Y187460D01*
X392185Y187566D01*
X390500D01*
Y185043D01*
Y182520D01*
X392185D01*
X392721Y182627D01*
X393176Y182931D01*
X393479Y183385D01*
X393505Y183514D01*
X398495D01*
X398521Y183385D01*
X398824Y182931D01*
X399279Y182627D01*
X399815Y182520D01*
X401500D01*
Y185043D01*
Y187566D01*
D02*
G37*
G36*
X416685D02*
X415000D01*
Y185543D01*
X418086D01*
Y186165D01*
X417979Y186702D01*
X417676Y187156D01*
X417221Y187460D01*
X416685Y187566D01*
D02*
G37*
G36*
X418086Y184543D02*
X415000D01*
Y182520D01*
X416685D01*
X417221Y182627D01*
X417676Y182931D01*
X417979Y183385D01*
X418086Y183921D01*
Y184543D01*
D02*
G37*
G36*
X500398Y201413D02*
X496642D01*
X492886D01*
Y196780D01*
X495112D01*
Y171221D01*
X492886D01*
Y166587D01*
X496642D01*
X500398D01*
Y171221D01*
X498171D01*
Y196780D01*
X500398D01*
Y201413D01*
D02*
G37*
G36*
X411750Y208000D02*
X408500D01*
X405250D01*
Y204500D01*
X406971D01*
Y191043D01*
X407087Y190458D01*
X407419Y189962D01*
X410346Y187035D01*
X410154Y186573D01*
X405505D01*
X405479Y186702D01*
X405176Y187156D01*
X404721Y187460D01*
X404185Y187566D01*
X402500D01*
Y185043D01*
Y182520D01*
X404185D01*
X404721Y182627D01*
X405176Y182931D01*
X405479Y183385D01*
X405505Y183514D01*
X410995D01*
X411021Y183385D01*
X411324Y182931D01*
X411779Y182627D01*
X412315Y182520D01*
X414000D01*
Y185043D01*
Y187706D01*
X410029Y191677D01*
Y204101D01*
X410529Y204308D01*
X414005Y200832D01*
X414501Y200500D01*
X415087Y200384D01*
X432386D01*
Y196780D01*
X434612D01*
Y171221D01*
X432386D01*
Y166587D01*
X436142D01*
X439898D01*
Y171221D01*
X437671D01*
Y196780D01*
X439898D01*
Y201413D01*
X436142D01*
Y201913D01*
X435642D01*
Y207047D01*
X432386D01*
Y203443D01*
X415720D01*
X411750Y207413D01*
Y208000D01*
D02*
G37*
G36*
X469298Y194587D02*
X465542D01*
X461786D01*
Y189953D01*
X464012D01*
Y178700D01*
X464129Y178115D01*
X464460Y177619D01*
X464512Y177567D01*
Y167047D01*
X462286D01*
Y162413D01*
X466042D01*
X469798D01*
Y167047D01*
X467571D01*
Y178200D01*
X467455Y178785D01*
X467123Y179281D01*
X467071Y179333D01*
Y189953D01*
X469298D01*
Y194587D01*
D02*
G37*
G36*
X502461Y214500D02*
X501539D01*
X500649Y214262D01*
X499851Y213801D01*
X499199Y213149D01*
X498738Y212351D01*
X498500Y211461D01*
Y210539D01*
X498738Y209649D01*
X499199Y208851D01*
X499851Y208199D01*
X500649Y207738D01*
X501539Y207500D01*
X502461D01*
X503152Y207685D01*
X510005Y200832D01*
X510501Y200500D01*
X510602Y200480D01*
Y196780D01*
X512829D01*
Y171221D01*
X510602D01*
Y160953D01*
X518114D01*
Y171221D01*
X515888D01*
Y196780D01*
X518114D01*
Y207047D01*
X510602D01*
Y205214D01*
X510140Y205023D01*
X505315Y209848D01*
X505500Y210539D01*
Y211461D01*
X505262Y212351D01*
X504801Y213149D01*
X504149Y213801D01*
X503351Y214262D01*
X502461Y214500D01*
D02*
G37*
G36*
X435642Y165587D02*
X432386D01*
Y160953D01*
X435642D01*
Y165587D01*
D02*
G37*
G36*
X457614Y207047D02*
X450102D01*
Y196780D01*
X452329D01*
Y171221D01*
X450102D01*
Y160953D01*
X450102Y160953D01*
X450261Y160453D01*
X450171Y160000D01*
X450287Y159415D01*
X450619Y158919D01*
X451115Y158587D01*
X451700Y158471D01*
X453500D01*
X454085Y158587D01*
X454581Y158919D01*
X454940Y159277D01*
X455271Y159773D01*
X455388Y160358D01*
Y160953D01*
X457614D01*
Y171221D01*
X455388D01*
Y196780D01*
X457614D01*
Y207047D01*
D02*
G37*
G36*
X292547Y141059D02*
X290079D01*
Y138000D01*
X292547D01*
Y141059D01*
D02*
G37*
%LPD*%
G36*
X239539Y216900D02*
X240400D01*
X240631Y216605D01*
X240697Y216490D01*
X222686Y198479D01*
X222286Y198786D01*
X222683Y199474D01*
X222953Y200480D01*
Y201520D01*
X222683Y202526D01*
X222163Y203427D01*
X221427Y204163D01*
X220894Y204471D01*
X221028Y204971D01*
X226100D01*
X226685Y205087D01*
X227181Y205419D01*
X238848Y217085D01*
X239539Y216900D01*
D02*
G37*
G36*
X222237Y197940D02*
X222087Y197715D01*
X221971Y197130D01*
Y194273D01*
X221509Y194081D01*
X221427Y194163D01*
X220526Y194683D01*
X219520Y194953D01*
X218480D01*
X217474Y194683D01*
X216573Y194163D01*
X216491Y194081D01*
X216029Y194273D01*
Y197727D01*
X216491Y197919D01*
X216573Y197837D01*
X217474Y197317D01*
X218480Y197047D01*
X219520D01*
X220526Y197317D01*
X221427Y197837D01*
X221849Y198259D01*
X222237Y197940D01*
D02*
G37*
G36*
X216573Y187837D02*
X217474Y187317D01*
X218480Y187047D01*
X219520D01*
X220526Y187317D01*
X221427Y187837D01*
X221509Y187919D01*
X221971Y187727D01*
Y184273D01*
X221509Y184081D01*
X221427Y184163D01*
X220526Y184683D01*
X219520Y184953D01*
X218480D01*
X217474Y184683D01*
X216573Y184163D01*
X216491Y184081D01*
X216029Y184273D01*
Y187727D01*
X216491Y187919D01*
X216573Y187837D01*
D02*
G37*
G36*
Y177837D02*
X217474Y177317D01*
X218480Y177047D01*
X219520D01*
X220526Y177317D01*
X221427Y177837D01*
X221509Y177919D01*
X221971Y177727D01*
Y176134D01*
X220522Y174685D01*
X219520Y174953D01*
X218480D01*
X217474Y174683D01*
X216573Y174163D01*
X216491Y174081D01*
X216029Y174273D01*
Y177727D01*
X216491Y177919D01*
X216573Y177837D01*
D02*
G37*
D17*
X460000Y297000D02*
X464000D01*
X252400Y303400D02*
Y311831D01*
X304131D01*
X252305D02*
X252400D01*
X162500Y308496D02*
Y311831D01*
X386454Y177996D02*
X390000D01*
X380496D02*
X386454D01*
X542555Y298800D02*
X546843D01*
X565947Y232547D02*
X569047D01*
X514231D02*
X565947D01*
X471592Y280004D02*
X472004Y279592D01*
X496642Y128842D02*
Y160000D01*
X485700Y117900D02*
X496642Y128842D01*
X479800Y112000D02*
X485700Y117900D01*
X279500Y138747D02*
Y169453D01*
Y54300D02*
Y138747D01*
X278953Y168906D02*
X279500Y169453D01*
X271953Y161906D02*
X278953Y168906D01*
X279500Y169453D02*
X280000Y169953D01*
X278953Y139294D02*
X279500Y138747D01*
X284000Y134247D01*
X277958Y52758D02*
X279500Y54300D01*
X258696Y33496D02*
X277958Y52758D01*
X266047Y124000D02*
Y138000D01*
X378000Y42858D02*
Y85500D01*
X318000Y42858D02*
Y85500D01*
X546378Y190500D02*
Y205222D01*
X545400Y206200D02*
X546378Y205222D01*
X545400Y206200D02*
Y212000D01*
X565947Y232547D01*
X569047D02*
X575500Y239000D01*
X280000Y169953D02*
X284849D01*
X237000Y33496D02*
X258696D01*
X284000Y134247D02*
X293047D01*
X278953Y139294D02*
Y168906D01*
X408500Y208500D02*
Y232500D01*
X412000Y236000D01*
X570000Y190500D02*
Y211398D01*
Y223500D01*
X556220Y209398D02*
X568000D01*
X570000Y211398D01*
Y223500D02*
X585500Y239000D01*
X453858Y160358D02*
Y166087D01*
X453500Y160000D02*
X453858Y160358D01*
X451700Y160000D02*
X453500D01*
X466042Y116400D02*
Y126087D01*
Y116400D02*
X470442Y112000D01*
X479800D01*
X488000Y68004D02*
X495000D01*
X485700Y70304D02*
X488000Y68004D01*
X485700Y70304D02*
Y117900D01*
X472004Y268732D02*
Y279592D01*
X456000Y283496D02*
X468100D01*
X471592Y280004D02*
X509000D01*
X468100Y283496D02*
X471592Y280004D01*
X533500Y275909D02*
X554813D01*
X562900Y283996D01*
X564000D01*
X46220Y307736D02*
Y311831D01*
Y307736D02*
X56457Y297500D01*
X361457Y332000D02*
Y337595D01*
X299000Y173004D02*
Y220630D01*
X283630Y236000D02*
X299000Y220630D01*
X271953Y138000D02*
Y161906D01*
X279000Y25142D02*
X284087D01*
X277958Y26184D02*
X279000Y25142D01*
X277958Y26184D02*
Y52758D01*
X509000Y237778D02*
Y272957D01*
Y237778D02*
X514231Y232547D01*
X73780Y307776D02*
Y311831D01*
X63504Y297500D02*
X73780Y307776D01*
X456000Y290543D02*
Y293000D01*
X460000Y297000D01*
X458504Y302496D02*
Y333500D01*
Y302496D02*
X464000Y297000D01*
X481000D01*
X378000Y195500D02*
X384450Y189050D01*
Y180000D02*
Y189050D01*
Y180000D02*
X386454Y177996D01*
X228157Y40543D02*
X237000D01*
X227700Y41000D02*
X228157Y40543D01*
X219000Y41000D02*
X227700D01*
X283630Y166000D02*
X291200D01*
X291243Y165957D01*
X299000D01*
X555500Y239000D02*
X559953Y234547D01*
X567344D01*
X570104Y237307D01*
Y301404D01*
X579000Y310300D01*
Y337100D01*
X561400Y354700D02*
X579000Y337100D01*
X528600Y354700D02*
X561400D01*
X524445Y350545D02*
X528600Y354700D01*
X524445Y302091D02*
Y350545D01*
X519947Y302091D02*
X524445D01*
X513400Y295543D02*
X519947Y302091D01*
X509000Y295543D02*
X513400D01*
X501257D02*
X509000D01*
X496800Y300000D02*
X501257Y295543D01*
X496800Y300000D02*
Y327300D01*
X472400Y351700D02*
X496800Y327300D01*
X463200Y351700D02*
X472400D01*
X463200Y344400D02*
Y351700D01*
X454800Y336000D02*
X463200Y344400D01*
X454800Y323200D02*
Y336000D01*
X422000Y290400D02*
X454800Y323200D01*
X422000Y283929D02*
Y290400D01*
X378000Y175500D02*
X380496Y177996D01*
X390000D02*
X402000D01*
X414500D01*
X378000Y195500D02*
X394200Y211700D01*
Y220000D01*
X396900Y222700D01*
X405600D01*
X406900Y282829D01*
X411000Y283929D01*
X402000Y133000D02*
Y177996D01*
X397000Y128000D02*
X402000Y133000D01*
X397000Y128000D02*
X408000D01*
X411000Y283929D02*
X414371D01*
X418600Y279700D01*
X433557D01*
X444400Y290543D01*
X456000D01*
X408000Y128000D02*
X433000D01*
X437000Y124000D01*
Y67957D02*
Y124000D01*
Y67957D02*
X444000Y60957D01*
X495000D01*
X529099D01*
X532071Y63929D01*
X458504Y333500D02*
X464000D01*
X468042Y337542D01*
Y347331D01*
X372468Y354142D02*
X378780Y347831D01*
X346442Y354142D02*
X372468D01*
X304131Y311831D02*
X346442Y354142D01*
X375000Y347831D02*
X378780D01*
X373600Y346431D02*
X375000Y347831D01*
X373600Y337096D02*
Y346431D01*
X368504Y332000D02*
X373600Y337096D01*
X553531Y347331D02*
X557305D01*
X552200Y346000D02*
X553531Y347331D01*
X552200Y338196D02*
Y346000D01*
X547004Y333000D02*
X552200Y338196D01*
X248000Y299000D02*
X252400Y303400D01*
X242004Y299000D02*
X248000D01*
X547004Y319200D02*
Y333000D01*
Y319200D02*
X568100Y298104D01*
Y241600D02*
Y298104D01*
X565500Y239000D02*
X568100Y241600D01*
X162500Y311831D02*
X163042D01*
X153504Y299500D02*
X162500Y308496D01*
X542555Y298800D02*
Y302091D01*
X546843Y298800D02*
X554600Y291043D01*
X564000D01*
X494220Y272957D02*
X509000D01*
X489996Y268732D02*
X494220Y272957D01*
X400000Y283929D02*
Y289700D01*
X378000Y255500D02*
X387900Y265400D01*
Y306262D01*
X435938Y354300D01*
X451230D01*
X458200Y347331D01*
X378000Y245500D02*
X393000Y260500D01*
Y306700D01*
X438100Y351800D01*
X445856D01*
X450326Y347331D01*
X239000Y308368D02*
X242462Y311831D01*
X239000Y283400D02*
Y308368D01*
Y283400D02*
X261200Y261200D01*
Y225000D02*
Y261200D01*
X313500Y250000D02*
X318000Y245500D01*
X313500Y250000D02*
Y299300D01*
X346500Y332300D01*
X318000Y265500D02*
X350500Y298000D01*
Y339800D01*
X355600Y344900D01*
Y350000D01*
X357742Y352142D01*
X364626D01*
X368937Y347831D01*
X318000Y255500D02*
X356700Y294200D01*
Y342098D01*
X357532Y342930D01*
Y344299D01*
X361063Y347831D01*
X476900Y120600D02*
X483758D01*
Y126087D01*
Y161913D01*
X219000Y31000D02*
X226700D01*
X229196Y33496D01*
X237000D01*
X284087Y25142D02*
X319913D01*
X338087D01*
X373913D01*
X293047Y134247D02*
Y137500D01*
X284849Y169953D02*
X287900Y173004D01*
X299000D01*
X315504D01*
X318000Y175500D01*
X361457Y202043D02*
X378000Y185500D01*
X361457Y202043D02*
Y332000D01*
X219000Y221000D02*
X234957Y236957D01*
Y299000D01*
X229746D02*
X234957D01*
X224746Y304000D02*
X229746Y299000D01*
X224746Y304000D02*
Y311831D01*
X440483Y347331D02*
X444569D01*
X445900Y346000D01*
Y339057D02*
Y346000D01*
Y339057D02*
X451457Y333500D01*
X135483Y304000D02*
Y311831D01*
Y304000D02*
X139983Y299500D01*
X146457D01*
X529746Y347331D02*
X533600D01*
Y339357D02*
Y347331D01*
Y339357D02*
X539957Y333000D01*
Y318757D02*
Y333000D01*
X533500Y312300D02*
X539957Y318757D01*
X533500Y275909D02*
Y312300D01*
X523295Y275909D02*
X533500D01*
X519200Y280004D02*
X523295Y275909D01*
X509000Y280004D02*
X519200D01*
X509000D02*
Y288496D01*
X472004Y252962D02*
Y268732D01*
X465542Y246500D02*
X472004Y252962D01*
X465542Y230913D02*
Y246500D01*
Y195087D02*
Y230913D01*
Y178700D02*
Y195087D01*
Y178700D02*
X466042Y178200D01*
Y161913D02*
Y178200D01*
Y126087D02*
Y161913D01*
X459228Y155100D02*
X466042Y161913D01*
X447128Y155100D02*
X459228D01*
X436142Y166087D02*
X447128Y155100D01*
X436142Y166087D02*
Y201913D01*
X415087D02*
X436142D01*
X408500Y208500D02*
X415087Y201913D01*
X556220Y188420D02*
Y209398D01*
X525100Y157300D02*
X556220Y188420D01*
X499342Y157300D02*
X525100D01*
X496642Y160000D02*
X499342Y157300D01*
X496642Y160000D02*
Y166087D01*
X408500Y191043D02*
Y208500D01*
Y191043D02*
X414500Y185043D01*
X496642Y166087D02*
Y201913D01*
X402000Y185043D02*
X414500D01*
X495000Y68004D02*
X522004D01*
X525000Y71000D01*
X390000Y185043D02*
X402000D01*
X412000Y236000D02*
X425000D01*
X407900Y161400D02*
Y173500D01*
Y161400D02*
X481500Y87800D01*
Y77500D02*
Y87800D01*
X453858Y166087D02*
Y201913D01*
X489500Y77500D02*
X497142Y85142D01*
X510858D01*
X293402Y124000D02*
X298953Y129551D01*
Y137500D01*
X299953Y142000D01*
X304500D01*
X318000Y155500D01*
X256000Y124000D02*
X266047D01*
Y138000D02*
Y228447D01*
X279433Y241833D01*
X300467D01*
X312000Y230300D01*
Y224500D02*
Y230300D01*
Y224500D02*
X316000Y220500D01*
X320000D01*
X322500Y218000D01*
Y181950D02*
Y218000D01*
Y181950D02*
X324450Y180000D01*
Y169578D02*
Y180000D01*
X323000Y168128D02*
X324450Y169578D01*
X320628Y168128D02*
X323000D01*
X318000Y165500D02*
X320628Y168128D01*
X318000Y95500D02*
X327700Y105200D01*
Y211000D01*
X502000D02*
X511087Y201913D01*
X514358D01*
Y166087D02*
Y201913D01*
X338087Y42858D02*
X373913D01*
X378000D01*
Y95500D02*
X404000D01*
X408000Y99500D01*
Y120000D01*
X378000Y105500D02*
X382000D01*
X384500Y108000D01*
Y116000D01*
X388500Y120000D01*
X397000D01*
X284087Y42858D02*
X318000D01*
X319913D01*
X472900Y127000D02*
Y161800D01*
X483258Y172158D01*
Y195087D01*
Y230913D01*
X353000Y90500D02*
X378000Y115500D01*
X316000Y90500D02*
X353000D01*
X313500Y93000D02*
X316000Y90500D01*
X313500Y93000D02*
Y108000D01*
X316000Y110500D01*
X320000D01*
X322500Y113000D01*
Y158000D01*
X320000Y160500D02*
X322500Y158000D01*
X316000Y160500D02*
X320000D01*
X313500Y163000D02*
X316000Y160500D01*
X313500Y163000D02*
Y168500D01*
X316000Y171000D01*
X322350D01*
X322450Y171100D01*
Y178850D01*
X320800Y180500D02*
X322450Y178850D01*
X313200Y180500D02*
X320800D01*
X301600Y192100D02*
X313200Y180500D01*
X301600Y192100D02*
Y234000D01*
X295800Y239800D02*
X301600Y234000D01*
X282000Y239800D02*
X295800D01*
X279900Y237700D02*
X282000Y239800D01*
X279900Y189730D02*
Y237700D01*
Y189730D02*
X283630Y186000D01*
X214500Y105500D02*
X219000Y101000D01*
X214500Y105500D02*
Y204000D01*
X217000Y206500D01*
X226100D01*
X240000Y220400D01*
X219000Y171000D02*
X223500Y175500D01*
Y197130D01*
X252370Y226000D01*
X384216Y90500D02*
X462358Y12358D01*
X376000Y90500D02*
X384216D01*
X373500Y93000D02*
X376000Y90500D01*
X373500Y93000D02*
Y108000D01*
X375500Y110000D01*
X380500D01*
X382500Y112000D01*
Y121000D01*
X378000Y125500D02*
X382500Y121000D01*
X350500Y108000D02*
X378000Y135500D01*
X350500Y95800D02*
Y108000D01*
X378000Y155500D02*
X392500Y141000D01*
Y125000D02*
Y141000D01*
Y125000D02*
X393500Y124000D01*
X400500D01*
X401500Y123000D01*
Y105000D02*
Y123000D01*
X400000Y244000D02*
Y254000D01*
X400500Y226500D02*
Y231000D01*
X400000Y231500D02*
X400500Y231000D01*
X400000Y231500D02*
Y236000D01*
X400500Y208500D02*
Y218500D01*
X422000Y247000D02*
Y275071D01*
Y247000D02*
X425000Y244000D01*
X400000Y262000D02*
Y275071D01*
X412000Y244000D02*
Y248700D01*
X412500Y249200D01*
Y254000D01*
Y262000D02*
Y267700D01*
X411000Y269200D02*
X412500Y267700D01*
X411000Y269200D02*
Y275071D01*
D18*
X425000Y244000D02*
D03*
Y236000D02*
D03*
X412000Y244000D02*
D03*
Y236000D02*
D03*
X412500Y262000D02*
D03*
Y254000D02*
D03*
X400500Y226500D02*
D03*
Y218500D02*
D03*
X400000Y244000D02*
D03*
Y236000D02*
D03*
Y262000D02*
D03*
Y254000D02*
D03*
X408000Y120000D02*
D03*
Y128000D02*
D03*
X397000Y120000D02*
D03*
Y128000D02*
D03*
D19*
X400500Y208500D02*
D03*
X408500D02*
D03*
X489500Y77500D02*
D03*
X481500D02*
D03*
D20*
X400000Y275071D02*
D03*
Y283929D02*
D03*
X422000Y275071D02*
D03*
Y283929D02*
D03*
X411000Y275071D02*
D03*
Y283929D02*
D03*
D21*
X299000Y173004D02*
D03*
Y165957D02*
D03*
X414500Y177996D02*
D03*
Y185043D02*
D03*
X402000Y177996D02*
D03*
Y185043D02*
D03*
X390000Y177996D02*
D03*
Y185043D02*
D03*
X456000Y283496D02*
D03*
Y290543D02*
D03*
X564000Y283996D02*
D03*
Y291043D02*
D03*
X509000Y280004D02*
D03*
Y272957D02*
D03*
Y288496D02*
D03*
Y295543D02*
D03*
X495000Y68004D02*
D03*
Y60957D02*
D03*
X237000Y33496D02*
D03*
Y40543D02*
D03*
D22*
X293402Y124000D02*
D03*
X256000D02*
D03*
D23*
X547004Y333000D02*
D03*
X539957D02*
D03*
X458504Y333500D02*
D03*
X451457D02*
D03*
X368504Y332000D02*
D03*
X361457D02*
D03*
X242004Y299000D02*
D03*
X234957D02*
D03*
X63504Y297500D02*
D03*
X56457D02*
D03*
X153504Y299500D02*
D03*
X146457D02*
D03*
D24*
X542555Y302091D02*
D03*
X524445D02*
D03*
D25*
X533500Y275909D02*
D03*
D26*
X481000Y297000D02*
D03*
D27*
X472004Y268732D02*
D03*
X489996D02*
D03*
D28*
X293047Y137500D02*
D03*
X298953D02*
D03*
X271953Y138000D02*
D03*
X266047D02*
D03*
D29*
X483258Y230913D02*
D03*
Y195087D02*
D03*
X465542D02*
D03*
Y230913D02*
D03*
X453858Y201913D02*
D03*
Y166087D02*
D03*
X436142D02*
D03*
Y201913D02*
D03*
X514358D02*
D03*
Y166087D02*
D03*
X496642D02*
D03*
Y201913D02*
D03*
X483758Y161913D02*
D03*
Y126087D02*
D03*
X466042D02*
D03*
Y161913D02*
D03*
D30*
X338087Y42858D02*
D03*
X373913D02*
D03*
Y25142D02*
D03*
X338087D02*
D03*
X284087Y42858D02*
D03*
X319913D02*
D03*
Y25142D02*
D03*
X284087D02*
D03*
D60*
X219000Y221000D02*
D03*
Y211000D02*
D03*
Y201000D02*
D03*
Y191000D02*
D03*
Y181000D02*
D03*
Y171000D02*
D03*
Y161000D02*
D03*
Y151000D02*
D03*
Y141000D02*
D03*
Y131000D02*
D03*
Y121000D02*
D03*
Y111000D02*
D03*
Y101000D02*
D03*
Y91000D02*
D03*
Y81000D02*
D03*
Y71000D02*
D03*
Y61000D02*
D03*
Y51000D02*
D03*
Y41000D02*
D03*
X555500Y239000D02*
D03*
X565500D02*
D03*
X575500D02*
D03*
X490642Y40642D02*
D03*
X483571Y33571D02*
D03*
X476500Y26500D02*
D03*
X469429Y19429D02*
D03*
X555399Y88571D02*
D03*
X510858Y85142D02*
D03*
X517929Y78071D02*
D03*
X525000Y71000D02*
D03*
D61*
X219000Y31000D02*
D03*
D62*
X123397Y322500D02*
D03*
X175129D02*
D03*
X212659D02*
D03*
X264391D02*
D03*
X85866D02*
D03*
X34134D02*
D03*
X569391Y358000D02*
D03*
X517659D02*
D03*
X480129D02*
D03*
X428397D02*
D03*
X390866Y358500D02*
D03*
X339134D02*
D03*
D63*
X135483Y311831D02*
D03*
X145326D02*
D03*
X153200D02*
D03*
X224746D02*
D03*
X234588D02*
D03*
X242462D02*
D03*
X63937D02*
D03*
X56063D02*
D03*
X46220D02*
D03*
X547462Y347331D02*
D03*
X539588D02*
D03*
X529746D02*
D03*
X458200D02*
D03*
X450326D02*
D03*
X440483D02*
D03*
X368937Y347831D02*
D03*
X361063D02*
D03*
X351220D02*
D03*
D64*
X163042Y311831D02*
D03*
X252305D02*
D03*
X73780D02*
D03*
X557305Y347331D02*
D03*
X468042D02*
D03*
X378780Y347831D02*
D03*
D65*
X585500Y239000D02*
D03*
D66*
X462358Y12358D02*
D03*
X548328Y81500D02*
D03*
D67*
X378000Y275500D02*
D03*
Y265500D02*
D03*
Y255500D02*
D03*
Y245500D02*
D03*
Y235500D02*
D03*
Y225500D02*
D03*
Y215500D02*
D03*
Y205500D02*
D03*
Y195500D02*
D03*
Y185500D02*
D03*
Y175500D02*
D03*
Y165500D02*
D03*
Y155500D02*
D03*
Y145500D02*
D03*
Y135500D02*
D03*
Y125500D02*
D03*
Y115500D02*
D03*
Y105500D02*
D03*
Y95500D02*
D03*
Y85500D02*
D03*
X318000D02*
D03*
Y95500D02*
D03*
Y105500D02*
D03*
Y115500D02*
D03*
Y125500D02*
D03*
Y135500D02*
D03*
Y145500D02*
D03*
Y155500D02*
D03*
Y165500D02*
D03*
Y175500D02*
D03*
Y185500D02*
D03*
Y195500D02*
D03*
Y205500D02*
D03*
Y215500D02*
D03*
Y225500D02*
D03*
Y235500D02*
D03*
Y245500D02*
D03*
Y255500D02*
D03*
Y265500D02*
D03*
D68*
Y275500D02*
D03*
D69*
X283630Y166000D02*
D03*
D70*
Y176000D02*
D03*
Y186000D02*
D03*
Y196000D02*
D03*
Y206000D02*
D03*
Y216000D02*
D03*
Y226000D02*
D03*
Y236000D02*
D03*
X252370D02*
D03*
Y226000D02*
D03*
Y216000D02*
D03*
Y206000D02*
D03*
Y196000D02*
D03*
Y186000D02*
D03*
Y176000D02*
D03*
Y166000D02*
D03*
D71*
X532071Y63929D02*
D03*
D72*
X546378Y190500D02*
D03*
X570000D02*
D03*
D73*
X556220Y209398D02*
D03*
D74*
X361457Y337595D02*
D03*
X400000Y289700D02*
D03*
X261200Y225000D02*
D03*
X346500Y332300D02*
D03*
X476900Y120600D02*
D03*
X407900Y173500D02*
D03*
X327700Y211000D02*
D03*
X502000D02*
D03*
X472900Y127000D02*
D03*
X240000Y220400D02*
D03*
X350500Y95800D02*
D03*
X401500Y105000D02*
D03*
D75*
X541500Y137500D02*
D03*
X270000Y70000D02*
D03*
X290000Y270000D02*
D03*
X20000Y20000D02*
D03*
Y289500D02*
D03*
X570000Y320000D02*
D03*
M02*
