G04*
G04 #@! TF.GenerationSoftware,Altium Limited,Altium Designer,22.1.2 (22)*
G04*
G04 Layer_Color=65535*
%FSLAX25Y25*%
%MOIN*%
G70*
G04*
G04 #@! TF.SameCoordinates,2374D94A-E5D5-4E5D-BBDB-F5A8C7ADDA7F*
G04*
G04*
G04 #@! TF.FilePolarity,Positive*
G04*
G01*
G75*
%ADD10C,0.00787*%
%ADD11C,0.01575*%
%ADD12C,0.00500*%
%ADD13C,0.00400*%
%ADD14C,0.00591*%
%ADD15C,0.01000*%
D10*
X405839Y285277D02*
G03*
X405839Y285277I-394J0D01*
G01*
X112839Y69307D02*
G03*
X112839Y69307I-394J0D01*
G01*
X201980Y18941D02*
G03*
X201980Y18941I-394J0D01*
G01*
X142339Y45394D02*
G03*
X142339Y45394I-394J0D01*
G01*
X239980Y19941D02*
G03*
X239980Y19941I-394J0D01*
G01*
X329815Y206500D02*
G03*
X329815Y206500I-394J0D01*
G01*
X81339Y45394D02*
G03*
X81339Y45394I-394J0D01*
G01*
X270933Y185421D02*
G03*
X270933Y185421I-394J0D01*
G01*
X112839Y9894D02*
G03*
X112839Y9894I-394J0D01*
G01*
X158567Y242177D02*
G03*
X158567Y242177I-394J0D01*
G01*
X69304D02*
G03*
X69304Y242177I-394J0D01*
G01*
X442571Y217827D02*
G03*
X442571Y217827I-394J0D01*
G01*
Y128327D02*
G03*
X442571Y128327I-394J0D01*
G01*
X251394Y134831D02*
G03*
X251394Y134831I-394J0D01*
G01*
X342067Y241177D02*
G03*
X342067Y241177I-394J0D01*
G01*
X248067Y242177D02*
G03*
X248067Y242177I-394J0D01*
G01*
X409394Y225500D02*
G03*
X409394Y225500I-394J0D01*
G01*
X409264Y46989D02*
X417811Y55536D01*
X404253Y52000D02*
X409264Y46989D01*
X404253Y52000D02*
X412800Y60547D01*
X417811Y55536D01*
X419429Y65418D02*
X435047Y81036D01*
X414418Y70429D02*
X419429Y65418D01*
X414418Y70429D02*
X430036Y86047D01*
X435047Y81036D01*
X32500Y149500D02*
X205000D01*
X212500D01*
X35833Y154500D02*
Y167833D01*
X37500Y169500D01*
X39167Y167833D01*
Y154500D02*
Y167833D01*
X45833Y154500D02*
Y167833D01*
X47500Y169500D01*
X49167Y167833D01*
Y154500D02*
Y167833D01*
X55833Y154500D02*
Y167833D01*
X57500Y169500D01*
X59167Y167833D01*
Y154500D02*
Y167833D01*
X65833Y154500D02*
Y167833D01*
X67500Y169500D01*
X69167Y167833D01*
Y154500D02*
Y167833D01*
X75833Y154500D02*
Y167833D01*
X77500Y169500D01*
X79167Y167833D01*
Y154500D02*
Y167833D01*
X85833Y154500D02*
Y167833D01*
X87500Y169500D01*
X89167Y167833D01*
Y154500D02*
Y167833D01*
X95833Y154500D02*
Y167833D01*
X97500Y169500D01*
X99167Y167833D01*
Y154500D02*
Y167833D01*
X105833Y154500D02*
Y167833D01*
X107500Y169500D01*
X109167Y167833D01*
Y154500D02*
Y167833D01*
X115833Y154500D02*
Y167833D01*
X117500Y169500D01*
X119167Y167833D01*
Y154500D02*
Y167833D01*
X125833Y154500D02*
Y167833D01*
X127500Y169500D01*
X129167Y167833D01*
Y154500D02*
Y167833D01*
X135833Y154500D02*
Y167833D01*
X137500Y169500D01*
X139167Y167833D01*
Y154500D02*
Y167833D01*
X145833Y154500D02*
Y167833D01*
X147500Y169500D01*
X149167Y167833D01*
Y154500D02*
Y167833D01*
X155833Y154500D02*
Y167833D01*
X157500Y169500D01*
X159167Y167833D01*
Y154500D02*
Y167833D01*
X165833Y154500D02*
Y167833D01*
X167500Y169500D01*
X169167Y167833D01*
Y154500D02*
Y167833D01*
X175833Y154500D02*
Y167833D01*
X177500Y169500D01*
X179167Y167833D01*
Y154500D02*
Y167833D01*
X185833Y154500D02*
Y167833D01*
X187500Y169500D01*
X189167Y167833D01*
Y154500D02*
Y167833D01*
X195833Y154500D02*
Y167833D01*
X197500Y169500D01*
X199167Y167833D01*
Y154500D02*
Y167833D01*
X205833Y154500D02*
Y167833D01*
X207500Y169500D01*
X209167Y167833D01*
Y154500D02*
Y167833D01*
X32500Y149500D02*
Y154500D01*
X212500D01*
Y149500D02*
Y154500D01*
X116835Y244224D02*
X171165D01*
X116835Y299972D02*
X171165D01*
Y244224D02*
Y250760D01*
Y268831D02*
Y299972D01*
X116835Y244224D02*
Y250760D01*
Y268831D02*
Y299972D01*
X27572Y244224D02*
X81903D01*
X27572Y299972D02*
X81903D01*
Y244224D02*
Y250760D01*
Y268831D02*
Y299972D01*
X27572Y244224D02*
Y250760D01*
Y268831D02*
Y299972D01*
X444224Y204835D02*
Y259165D01*
X499972Y204835D02*
Y259165D01*
X444224Y204835D02*
X450760D01*
X468831D02*
X499972D01*
X444224Y259165D02*
X450760D01*
X468831D02*
X499972D01*
X444224Y115335D02*
Y169665D01*
X499972Y115335D02*
Y169665D01*
X444224Y115335D02*
X450760D01*
X468831D02*
X499972D01*
X444224Y169665D02*
X450760D01*
X468831D02*
X499972D01*
X300335Y243224D02*
X354665D01*
X300335Y298972D02*
X354665D01*
Y243224D02*
Y249760D01*
Y267831D02*
Y298972D01*
X300335Y243224D02*
Y249760D01*
Y267831D02*
Y298972D01*
X206335Y244224D02*
X260665D01*
X206335Y299972D02*
X260665D01*
Y244224D02*
Y250760D01*
Y268831D02*
Y299972D01*
X206335Y244224D02*
Y250760D01*
Y268831D02*
Y299972D01*
D11*
X300894Y153161D02*
G03*
X300894Y153161I-197J0D01*
G01*
D12*
X307980Y140760D02*
G03*
X306209Y142532I-1772J0D01*
G01*
X293020Y98240D02*
G03*
X294791Y96469I1772J0D01*
G01*
X306209D02*
G03*
X307980Y98240I0J1772D01*
G01*
X294791Y142532D02*
G03*
X293020Y140760I0J-1772D01*
G01*
X411154Y246497D02*
Y281930D01*
X387925Y246497D02*
X411154D01*
X367846D02*
X379264D01*
X367846D02*
Y281930D01*
X411154D01*
X307980Y98240D02*
Y140760D01*
X305224Y96469D02*
X306209D01*
X294791D02*
X295776D01*
X293020Y98240D02*
Y140760D01*
X294791Y142532D02*
X295776D01*
X305224D02*
X306209D01*
X109689Y82102D02*
Y105724D01*
Y82102D02*
X133311D01*
Y105724D01*
X109689D02*
X133311D01*
X198831Y31736D02*
Y55358D01*
Y31736D02*
X222453D01*
Y55358D01*
X198831D02*
X222453D01*
X139189Y58189D02*
Y81811D01*
Y58189D02*
X162811D01*
Y81811D01*
X139189D02*
X162811D01*
X236831Y32736D02*
Y56358D01*
Y32736D02*
X260453D01*
Y56358D01*
X236831D02*
X260453D01*
X335250Y210220D02*
X363750D01*
X335250Y72780D02*
X363750D01*
X78189Y58189D02*
Y81811D01*
Y58189D02*
X101811D01*
Y81811D01*
X78189D02*
X101811D01*
X268768Y194476D02*
Y216524D01*
X302232Y194476D02*
Y216524D01*
X109689Y22689D02*
Y46311D01*
Y22689D02*
X133311D01*
Y46311D01*
X109689D02*
X133311D01*
X241472Y136740D02*
Y174260D01*
X260488D01*
X241472Y136740D02*
X260488D01*
Y174260D01*
X419748Y204240D02*
Y222744D01*
X378252D02*
X419748D01*
X378252Y204240D02*
Y222744D01*
Y204240D02*
X419748D01*
D13*
X378000Y57300D02*
Y64700D01*
X364000Y57300D02*
X378000D01*
X364000D02*
Y64700D01*
X378000D01*
X374500Y189200D02*
X388500D01*
X374500Y181800D02*
Y189200D01*
Y181800D02*
X388500D01*
Y189200D01*
X374500Y199700D02*
X388500D01*
X374500Y192300D02*
Y199700D01*
Y192300D02*
X388500D01*
Y199700D01*
X223500Y117756D02*
X237500D01*
X223500Y110356D02*
Y117756D01*
Y110356D02*
X237500D01*
Y117756D01*
X223500Y107700D02*
X237500D01*
X223500Y100300D02*
Y107700D01*
Y100300D02*
X237500D01*
Y107700D01*
X223500Y97644D02*
X237500D01*
X223500Y90244D02*
Y97644D01*
Y90244D02*
X237500D01*
Y97644D01*
D14*
X403134Y91196D02*
X404804Y92866D01*
X406196Y88134D02*
X407866Y89804D01*
X396319Y241165D02*
X398681D01*
X396319Y236835D02*
X398681D01*
X409823D02*
X412185D01*
X409823Y241165D02*
X412185D01*
X388835Y123819D02*
Y126181D01*
X393165Y123819D02*
Y126181D01*
X379835Y132319D02*
Y134681D01*
X384165Y132319D02*
Y134681D01*
X371835Y140319D02*
Y142681D01*
X376165Y140319D02*
Y142681D01*
D15*
X374499Y207505D02*
Y209504D01*
X373500Y210504D01*
X371500D01*
X370501Y209504D01*
Y207505D01*
X371500Y206505D01*
X373500D01*
X374499Y207505D01*
X370501Y212503D02*
X373500D01*
X374499Y213503D01*
Y216502D01*
X370501D01*
X369501Y219501D02*
X370501D01*
Y218501D01*
Y220501D01*
Y219501D01*
X373500D01*
X374499Y220501D01*
Y223500D02*
X368501D01*
Y226499D01*
X369501Y227499D01*
X371500D01*
X372500Y226499D01*
Y223500D01*
Y225499D02*
X374499Y227499D01*
Y232497D02*
Y230498D01*
X373500Y229498D01*
X371500D01*
X370501Y230498D01*
Y232497D01*
X371500Y233497D01*
X372500D01*
Y229498D01*
X376499Y237495D02*
Y238495D01*
X375499Y239495D01*
X370501D01*
Y236496D01*
X371500Y235496D01*
X373500D01*
X374499Y236496D01*
Y239495D01*
X475786Y284499D02*
X475500Y284213D01*
X475786Y283927D01*
X476071Y284213D01*
X475786Y284499D01*
Y281071D02*
X475500Y280785D01*
X475786Y280500D01*
X476071Y280785D01*
X475786Y281071D01*
X479099Y286498D02*
X478242Y286213D01*
X477671Y285356D01*
X477385Y283927D01*
Y283070D01*
X477671Y281642D01*
X478242Y280785D01*
X479099Y280500D01*
X479670D01*
X480527Y280785D01*
X481099Y281642D01*
X481385Y283070D01*
Y283927D01*
X481099Y285356D01*
X480527Y286213D01*
X479670Y286498D01*
X479099D01*
X482727Y287641D02*
X483298Y287070D01*
X483870Y286213D01*
X484441Y285070D01*
X484727Y283642D01*
Y282499D01*
X484441Y281071D01*
X483870Y279928D01*
X483298Y279071D01*
X482727Y278500D01*
X483298Y287070D02*
X483870Y285927D01*
X484155Y285070D01*
X484441Y283642D01*
Y282499D01*
X484155Y281071D01*
X483870Y280214D01*
X483298Y279071D01*
X370504Y72999D02*
Y67001D01*
X374502D01*
X380500Y72999D02*
X376502D01*
Y67001D01*
X380500D01*
X376502Y70000D02*
X378501D01*
X382500Y72999D02*
Y67001D01*
X385499D01*
X386498Y68001D01*
Y71999D01*
X385499Y72999D01*
X382500D01*
X388498Y67001D02*
X391497D01*
X392496Y68001D01*
X391497Y69000D01*
X389497D01*
X388498Y70000D01*
X389497Y71000D01*
X392496D01*
X12500Y14999D02*
Y12000D01*
Y13499D01*
X13000Y13999D01*
X13999D01*
X14499Y13499D01*
Y12000D01*
X15999Y14499D02*
Y13999D01*
X15499D01*
X16499D01*
X15999D01*
Y12500D01*
X16499Y12000D01*
X18498Y14499D02*
Y13999D01*
X17998D01*
X18998D01*
X18498D01*
Y12500D01*
X18998Y12000D01*
X20497Y11000D02*
Y13999D01*
X21997D01*
X22497Y13499D01*
Y12500D01*
X21997Y12000D01*
X20497D01*
X23496D02*
X24996D01*
X25496Y12500D01*
X24996Y12999D01*
X23996D01*
X23496Y13499D01*
X23996Y13999D01*
X25496D01*
X26496D02*
X26995D01*
Y13499D01*
X26496D01*
Y13999D01*
Y12500D02*
X26995D01*
Y12000D01*
X26496D01*
Y12500D01*
X28995Y12000D02*
X30994Y13999D01*
X31994Y12000D02*
X33993Y13999D01*
X35992Y11000D02*
X36492D01*
X36992Y11500D01*
Y13999D01*
X35493D01*
X34993Y13499D01*
Y12500D01*
X35493Y12000D01*
X36992D01*
X37992D02*
X38991D01*
X38492D01*
Y13999D01*
X37992D01*
X40991Y14499D02*
Y13999D01*
X40491D01*
X41491D01*
X40991D01*
Y12500D01*
X41491Y12000D01*
X42990Y14999D02*
Y12000D01*
Y13499D01*
X43490Y13999D01*
X44490D01*
X44989Y13499D01*
Y12000D01*
X45989Y13999D02*
Y12500D01*
X46489Y12000D01*
X47989D01*
Y13999D01*
X48988Y14999D02*
Y12000D01*
X50488D01*
X50987Y12500D01*
Y12999D01*
Y13499D01*
X50488Y13999D01*
X48988D01*
X51987Y12000D02*
Y12500D01*
X52487D01*
Y12000D01*
X51987D01*
X56486Y13999D02*
X54986D01*
X54486Y13499D01*
Y12500D01*
X54986Y12000D01*
X56486D01*
X57985D02*
X58985D01*
X59485Y12500D01*
Y13499D01*
X58985Y13999D01*
X57985D01*
X57485Y13499D01*
Y12500D01*
X57985Y12000D01*
X60484D02*
Y13999D01*
X60984D01*
X61484Y13499D01*
Y12000D01*
Y13499D01*
X61984Y13999D01*
X62484Y13499D01*
Y12000D01*
X63484D02*
X65483Y13999D01*
X66483Y12000D02*
X67482D01*
X66982D01*
Y14999D01*
X66483D01*
X69482Y12000D02*
X70481D01*
X70981Y12500D01*
Y13499D01*
X70481Y13999D01*
X69482D01*
X68982Y13499D01*
Y12500D01*
X69482Y12000D01*
X72481D02*
X73480D01*
X73980Y12500D01*
Y13499D01*
X73480Y13999D01*
X72481D01*
X71981Y13499D01*
Y12500D01*
X72481Y12000D01*
X74980D02*
X76479D01*
X76979Y12500D01*
X76479Y12999D01*
X75480D01*
X74980Y13499D01*
X75480Y13999D01*
X76979D01*
X79478Y12000D02*
X78479D01*
X77979Y12500D01*
Y13499D01*
X78479Y13999D01*
X79478D01*
X79978Y13499D01*
Y12999D01*
X77979D01*
X80978Y13499D02*
X82977D01*
X83977Y12000D02*
X84977D01*
X84477D01*
Y14999D01*
X83977D01*
X87976Y12000D02*
X86976D01*
X86476Y12500D01*
Y13499D01*
X86976Y13999D01*
X87976D01*
X88475Y13499D01*
Y12999D01*
X86476D01*
X89475Y12000D02*
X90475D01*
X89975D01*
Y13999D01*
X89475D01*
X92474Y12000D02*
Y14499D01*
Y13499D01*
X91974D01*
X92974D01*
X92474D01*
Y14499D01*
X92974Y14999D01*
X14000Y66500D02*
Y70499D01*
X15999Y72498D01*
X17999Y70499D01*
Y66500D01*
Y69499D01*
X14000D01*
X19998Y66500D02*
Y67500D01*
X20998D01*
Y66500D01*
X19998D01*
X24996D02*
X26996D01*
X25996D01*
Y72498D01*
X24996Y71498D01*
X29995Y66500D02*
Y67500D01*
X30994D01*
Y66500D01*
X29995D01*
X13500Y78499D02*
Y75500D01*
Y76999D01*
X15499D01*
Y78499D01*
Y75500D01*
X16999D02*
X17999D01*
X18498Y76000D01*
Y76999D01*
X17999Y77499D01*
X16999D01*
X16499Y76999D01*
Y76000D01*
X16999Y75500D01*
X19498D02*
Y77499D01*
X19998D01*
X20498Y76999D01*
Y75500D01*
Y76999D01*
X20998Y77499D01*
X21497Y76999D01*
Y75500D01*
X23997D02*
X22997D01*
X22497Y76000D01*
Y76999D01*
X22997Y77499D01*
X23997D01*
X24496Y76999D01*
Y76500D01*
X22497D01*
X25996Y75500D02*
X26996D01*
X27496Y76000D01*
Y76999D01*
X26996Y77499D01*
X25996D01*
X25496Y76999D01*
Y76000D01*
X25996Y75500D01*
X28495D02*
X29995D01*
X30494Y76000D01*
X29995Y76500D01*
X28995D01*
X28495Y76999D01*
X28995Y77499D01*
X30494D01*
X31994Y77999D02*
Y77499D01*
X31494D01*
X32494D01*
X31994D01*
Y76000D01*
X32494Y75500D01*
X34493Y77499D02*
X35493D01*
X35993Y76999D01*
Y75500D01*
X34493D01*
X33993Y76000D01*
X34493Y76500D01*
X35993D01*
X36992Y75500D02*
X38492D01*
X38992Y76000D01*
X38492Y76500D01*
X37492D01*
X36992Y76999D01*
X37492Y77499D01*
X38992D01*
X39991Y75500D02*
X40991D01*
X40491D01*
Y77499D01*
X39991D01*
X42491Y75500D02*
X43990D01*
X44490Y76000D01*
X43990Y76500D01*
X42990D01*
X42491Y76999D01*
X42990Y77499D01*
X44490D01*
X48489Y78499D02*
Y75500D01*
X49988D01*
X50488Y76000D01*
Y77999D01*
X49988Y78499D01*
X48489D01*
X52987Y75500D02*
X51987D01*
X51488Y76000D01*
Y76999D01*
X51987Y77499D01*
X52987D01*
X53487Y76999D01*
Y76500D01*
X51488D01*
X54487Y77499D02*
X55486Y75500D01*
X56486Y77499D01*
X57486Y75500D02*
X58486D01*
X57986D01*
Y77499D01*
X57486D01*
X61984D02*
X60485D01*
X59985Y76999D01*
Y76000D01*
X60485Y75500D01*
X61984D01*
X64483D02*
X63484D01*
X62984Y76000D01*
Y76999D01*
X63484Y77499D01*
X64483D01*
X64983Y76999D01*
Y76500D01*
X62984D01*
X13500Y88498D02*
Y82500D01*
X17499D01*
X20498D02*
X22497D01*
X23497Y83500D01*
Y85499D01*
X22497Y86499D01*
X20498D01*
X19498Y85499D01*
Y83500D01*
X20498Y82500D01*
X26496D02*
X28495D01*
X29495Y83500D01*
Y85499D01*
X28495Y86499D01*
X26496D01*
X25496Y85499D01*
Y83500D01*
X26496Y82500D01*
X31494D02*
X34493D01*
X35493Y83500D01*
X34493Y84499D01*
X32494D01*
X31494Y85499D01*
X32494Y86499D01*
X35493D01*
X40491Y82500D02*
X38492D01*
X37492Y83500D01*
Y85499D01*
X38492Y86499D01*
X40491D01*
X41491Y85499D01*
Y84499D01*
X37492D01*
X43490Y82500D02*
X45490D01*
X44490D01*
Y88498D01*
X43490D01*
X51488Y82500D02*
X49488D01*
X48489Y83500D01*
Y85499D01*
X49488Y86499D01*
X51488D01*
X52487Y85499D01*
Y84499D01*
X48489D01*
X54487Y82500D02*
X56486D01*
X55486D01*
Y86499D01*
X54487D01*
X60485Y82500D02*
Y87498D01*
Y85499D01*
X59485D01*
X61484D01*
X60485D01*
Y87498D01*
X61484Y88498D01*
X399800Y106198D02*
Y100200D01*
X403799D01*
X409797Y106198D02*
X405798D01*
Y100200D01*
X409797D01*
X405798Y103199D02*
X407797D01*
X411796Y106198D02*
Y100200D01*
X414795D01*
X415795Y101200D01*
Y105198D01*
X414795Y106198D01*
X411796D01*
X421793Y104199D02*
X418794D01*
X417794Y103199D01*
Y101200D01*
X418794Y100200D01*
X421793D01*
X414900Y97598D02*
Y91600D01*
X418899D01*
X424897Y97598D02*
X420898D01*
Y91600D01*
X424897D01*
X420898Y94599D02*
X422897D01*
X426896Y97598D02*
Y91600D01*
X429895D01*
X430895Y92600D01*
Y96598D01*
X429895Y97598D01*
X426896D01*
X432894Y89601D02*
Y95599D01*
X435893D01*
X436893Y94599D01*
Y92600D01*
X435893Y91600D01*
X432894D01*
X438892D02*
X440892D01*
X439892D01*
Y95599D01*
X438892D01*
X443891Y91600D02*
Y95599D01*
X446890D01*
X447889Y94599D01*
Y91600D01*
X449889D02*
X452888D01*
X453887Y92600D01*
X452888Y93599D01*
X450888D01*
X449889Y94599D01*
X450888Y95599D01*
X453887D01*
X364508Y288001D02*
Y293999D01*
X367507D01*
X368507Y292999D01*
Y291000D01*
X367507Y290000D01*
X364508D01*
X371506Y288001D02*
X373505D01*
X374505Y289001D01*
Y291000D01*
X373505Y292000D01*
X371506D01*
X370507Y291000D01*
Y289001D01*
X371506Y288001D01*
X376504Y292000D02*
Y289001D01*
X377504Y288001D01*
X378504Y289001D01*
X379504Y288001D01*
X380503Y289001D01*
Y292000D01*
X385502Y288001D02*
X383502D01*
X382503Y289001D01*
Y291000D01*
X383502Y292000D01*
X385502D01*
X386501Y291000D01*
Y290000D01*
X382503D01*
X388501Y292000D02*
Y288001D01*
Y290000D01*
X389500Y291000D01*
X390500Y292000D01*
X391500D01*
X398497Y292999D02*
X397498Y293999D01*
X395498D01*
X394499Y292999D01*
Y289001D01*
X395498Y288001D01*
X397498D01*
X398497Y289001D01*
X401497Y288001D02*
X403496D01*
X404495Y289001D01*
Y291000D01*
X403496Y292000D01*
X401497D01*
X400497Y291000D01*
Y289001D01*
X401497Y288001D01*
X406495D02*
Y292000D01*
X409494D01*
X410494Y291000D01*
Y288001D01*
X412493D02*
Y292000D01*
X415492D01*
X416492Y291000D01*
Y288001D01*
X109600Y125999D02*
Y123000D01*
X110600Y122000D01*
X113599D01*
Y125999D01*
X115598Y120001D02*
Y125999D01*
X118597D01*
X119597Y124999D01*
Y123000D01*
X118597Y122000D01*
X115598D01*
X198700Y69700D02*
X201699D01*
X202699Y70700D01*
X201699Y71699D01*
X199700D01*
X198700Y72699D01*
X199700Y73699D01*
X202699D01*
X207697Y69700D02*
X205698D01*
X204698Y70700D01*
Y72699D01*
X205698Y73699D01*
X207697D01*
X208697Y72699D01*
Y71699D01*
X204698D01*
X210696Y69700D02*
X212696D01*
X211696D01*
Y75698D01*
X210696D01*
X218693Y69700D02*
X216694D01*
X215694Y70700D01*
Y72699D01*
X216694Y73699D01*
X218693D01*
X219693Y72699D01*
Y71699D01*
X215694D01*
X225691Y73699D02*
X222692D01*
X221693Y72699D01*
Y70700D01*
X222692Y69700D01*
X225691D01*
X228690Y74698D02*
Y73699D01*
X227691D01*
X229690D01*
X228690D01*
Y70700D01*
X229690Y69700D01*
X390504Y182001D02*
Y187999D01*
X393503D01*
X394502Y186999D01*
Y185000D01*
X393503Y184000D01*
X390504D01*
X392503D02*
X394502Y182001D01*
X396502D02*
X399501D01*
X400500Y183001D01*
X399501Y184000D01*
X397501D01*
X396502Y185000D01*
X397501Y186000D01*
X400500D01*
X406498Y187999D02*
Y182001D01*
X403499D01*
X402500Y183001D01*
Y185000D01*
X403499Y186000D01*
X406498D01*
X409497D02*
X411497D01*
X412497Y185000D01*
Y182001D01*
X409497D01*
X408498Y183001D01*
X409497Y184000D01*
X412497D01*
X390503Y192501D02*
Y198499D01*
X393502D01*
X394502Y197499D01*
Y195500D01*
X393502Y194500D01*
X390503D01*
X392503D02*
X394502Y192501D01*
X396501D02*
X399500D01*
X400500Y193501D01*
X399500Y194500D01*
X397501D01*
X396501Y195500D01*
X397501Y196500D01*
X400500D01*
X406498D02*
X403499D01*
X402499Y195500D01*
Y193501D01*
X403499Y192501D01*
X406498D01*
X408497D02*
X410497D01*
X409497D01*
Y198499D01*
X408497D01*
X199504Y111001D02*
Y116999D01*
X202503D01*
X203502Y115999D01*
Y114000D01*
X202503Y113000D01*
X199504D01*
X201503D02*
X203502Y111001D01*
X205502Y115000D02*
Y111001D01*
Y113000D01*
X206501Y114000D01*
X207501Y115000D01*
X208501D01*
X214499Y111001D02*
X212499D01*
X211500Y112001D01*
Y114000D01*
X212499Y115000D01*
X214499D01*
X215498Y114000D01*
Y113000D01*
X211500D01*
X221497Y116999D02*
Y111001D01*
X218497D01*
X217498Y112001D01*
Y114000D01*
X218497Y115000D01*
X221497D01*
X139100Y102099D02*
Y98100D01*
Y100099D01*
X140100Y101099D01*
X141099Y102099D01*
X142099D01*
X145098Y98100D02*
X147097D01*
X146098D01*
Y102099D01*
X145098D01*
X152096Y96101D02*
X153095D01*
X154095Y97100D01*
Y102099D01*
X151096D01*
X150096Y101099D01*
Y99100D01*
X151096Y98100D01*
X154095D01*
X156095Y104098D02*
Y98100D01*
Y101099D01*
X157094Y102099D01*
X159093D01*
X160093Y101099D01*
Y98100D01*
X163092Y103098D02*
Y102099D01*
X162093D01*
X164092D01*
X163092D01*
Y99100D01*
X164092Y98100D01*
X199504Y102001D02*
Y107999D01*
X202503D01*
X203502Y106999D01*
Y105000D01*
X202503Y104000D01*
X199504D01*
X201503D02*
X203502Y102001D01*
X207501Y100001D02*
X208501D01*
X209500Y101001D01*
Y105999D01*
X206501D01*
X205502Y105000D01*
Y103000D01*
X206501Y102001D01*
X209500D01*
X211500Y105999D02*
Y102001D01*
Y104000D01*
X212499Y105000D01*
X213499Y105999D01*
X214499D01*
X217498Y102001D02*
Y105999D01*
X220497D01*
X221497Y105000D01*
Y102001D01*
X236700Y74699D02*
Y70700D01*
Y72699D01*
X237700Y73699D01*
X238699Y74699D01*
X239699D01*
X245697Y70700D02*
X243698D01*
X242698Y71700D01*
Y73699D01*
X243698Y74699D01*
X245697D01*
X246697Y73699D01*
Y72699D01*
X242698D01*
X248696Y70700D02*
X251695D01*
X252695Y71700D01*
X251695Y72699D01*
X249696D01*
X248696Y73699D01*
X249696Y74699D01*
X252695D01*
X257693Y70700D02*
X255694D01*
X254694Y71700D01*
Y73699D01*
X255694Y74699D01*
X257693D01*
X258693Y73699D01*
Y72699D01*
X254694D01*
X261692Y75698D02*
Y74699D01*
X260692D01*
X262692D01*
X261692D01*
Y71700D01*
X262692Y70700D01*
X200503Y91001D02*
Y96999D01*
X203502D01*
X204502Y95999D01*
Y94000D01*
X203502Y93000D01*
X200503D01*
X202503D02*
X204502Y91001D01*
X206502Y96999D02*
Y91001D01*
X209501D01*
X210500Y92001D01*
Y93000D01*
Y94000D01*
X209501Y95000D01*
X206502D01*
X212499Y91001D02*
X214499D01*
X213499D01*
Y96999D01*
X212499D01*
X217498Y95000D02*
Y92001D01*
X218498Y91001D01*
X221497D01*
Y95000D01*
X386003Y40001D02*
Y45999D01*
X389002D01*
X390001Y44999D01*
Y43000D01*
X389002Y42000D01*
X386003D01*
X395999Y44999D02*
X395000Y45999D01*
X393000D01*
X392001Y44999D01*
Y41001D01*
X393000Y40001D01*
X395000D01*
X395999Y41001D01*
Y43000D01*
X394000D01*
X397999Y40001D02*
Y45999D01*
X399998Y44000D01*
X401997Y45999D01*
Y40001D01*
X329600Y213800D02*
Y217799D01*
X330600D01*
X331599Y216799D01*
Y213800D01*
Y216799D01*
X332599Y217799D01*
X333599Y216799D01*
Y213800D01*
X335598D02*
X337597D01*
X336598D01*
Y217799D01*
X335598D01*
X344595D02*
X341596D01*
X340596Y216799D01*
Y214800D01*
X341596Y213800D01*
X344595D01*
X346595Y217799D02*
Y213800D01*
Y215799D01*
X347594Y216799D01*
X348594Y217799D01*
X349593D01*
X353592Y213800D02*
X355592D01*
X356591Y214800D01*
Y216799D01*
X355592Y217799D01*
X353592D01*
X352593Y216799D01*
Y214800D01*
X353592Y213800D01*
X78100Y96100D02*
X80099D01*
X79100D01*
Y102098D01*
X78100D01*
X86097Y96100D02*
X84098D01*
X83098Y97100D01*
Y99099D01*
X84098Y100099D01*
X86097D01*
X87097Y99099D01*
Y98099D01*
X83098D01*
X90096Y96100D02*
Y101098D01*
Y99099D01*
X89096D01*
X91096D01*
X90096D01*
Y101098D01*
X91096Y102098D01*
X95095Y101098D02*
Y100099D01*
X94095D01*
X96094D01*
X95095D01*
Y97100D01*
X96094Y96100D01*
X33100Y178898D02*
Y172900D01*
X37099D01*
X43097Y177898D02*
X42097Y178898D01*
X40098D01*
X39098Y177898D01*
Y173900D01*
X40098Y172900D01*
X42097D01*
X43097Y173900D01*
X45096Y178898D02*
Y172900D01*
X48095D01*
X49095Y173900D01*
Y177898D01*
X48095Y178898D01*
X45096D01*
X57092D02*
Y172900D01*
Y175899D01*
X58092Y176899D01*
X60091D01*
X61091Y175899D01*
Y172900D01*
X66089D02*
X64090D01*
X63090Y173900D01*
Y175899D01*
X64090Y176899D01*
X66089D01*
X67089Y175899D01*
Y174899D01*
X63090D01*
X70088Y176899D02*
X72087D01*
X73087Y175899D01*
Y172900D01*
X70088D01*
X69088Y173900D01*
X70088Y174899D01*
X73087D01*
X79085Y178898D02*
Y172900D01*
X76086D01*
X75086Y173900D01*
Y175899D01*
X76086Y176899D01*
X79085D01*
X84083Y172900D02*
X82084D01*
X81085Y173900D01*
Y175899D01*
X82084Y176899D01*
X84083D01*
X85083Y175899D01*
Y174899D01*
X81085D01*
X87082Y176899D02*
Y172900D01*
Y174899D01*
X88082Y175899D01*
X89082Y176899D01*
X90082D01*
X427499Y206504D02*
Y208504D01*
Y207504D01*
X423501D01*
Y206504D01*
X427499Y211503D02*
X423501D01*
Y214502D01*
X424500Y215501D01*
X427499D01*
Y217501D02*
X421501D01*
Y220500D01*
X422501Y221499D01*
X424500D01*
X425500Y220500D01*
Y217501D01*
Y219500D02*
X427499Y221499D01*
Y226498D02*
Y224499D01*
X426500Y223499D01*
X424500D01*
X423501Y224499D01*
Y226498D01*
X424500Y227498D01*
X425500D01*
Y223499D01*
X429499Y231496D02*
Y232496D01*
X428499Y233496D01*
X423501D01*
Y230497D01*
X424500Y229497D01*
X426500D01*
X427499Y230497D01*
Y233496D01*
X272699Y233098D02*
X271699Y234098D01*
X269700D01*
X268700Y233098D01*
Y229100D01*
X269700Y228100D01*
X271699D01*
X272699Y229100D01*
Y231099D01*
X270699D01*
X274698Y228100D02*
Y234098D01*
X277697D01*
X278697Y233098D01*
Y231099D01*
X277697Y230099D01*
X274698D01*
X280696Y234098D02*
X282696D01*
X281696D01*
Y228100D01*
X280696D01*
X282696D01*
X288693Y234098D02*
X286694D01*
X285695Y233098D01*
Y229100D01*
X286694Y228100D01*
X288693D01*
X289693Y229100D01*
Y233098D01*
X288693Y234098D01*
X291693Y227100D02*
X295691D01*
X301689Y234098D02*
X297691D01*
Y228100D01*
X301689D01*
X297691Y231099D02*
X299690D01*
X303689Y234098D02*
X307687Y228100D01*
Y234098D02*
X303689Y228100D01*
X309687Y234098D02*
X313685D01*
X311686D01*
Y228100D01*
X319684Y234098D02*
X315685D01*
Y228100D01*
X319684D01*
X315685Y231099D02*
X317684D01*
X321683Y228100D02*
Y234098D01*
X325682Y228100D01*
Y234098D01*
X113599Y66598D02*
Y60600D01*
X110600D01*
X109600Y61600D01*
Y63599D01*
X110600Y64599D01*
X113599D01*
X116598Y60600D02*
X118597D01*
X119597Y61600D01*
Y63599D01*
X118597Y64599D01*
X116598D01*
X115598Y63599D01*
Y61600D01*
X116598Y60600D01*
X121596Y64599D02*
Y61600D01*
X122596Y60600D01*
X123595Y61600D01*
X124595Y60600D01*
X125595Y61600D01*
Y64599D01*
X127594Y60600D02*
Y64599D01*
X130593D01*
X131593Y63599D01*
Y60600D01*
X118005Y298499D02*
Y292501D01*
X121004D01*
X122003Y293501D01*
Y297499D01*
X121004Y298499D01*
X118005D01*
X128001Y297499D02*
X127002Y298499D01*
X125002D01*
X124003Y297499D01*
Y293501D01*
X125002Y292501D01*
X127002D01*
X128001Y293501D01*
X133000Y298499D02*
X131000D01*
X130001Y297499D01*
Y293501D01*
X131000Y292501D01*
X133000D01*
X133999Y293501D01*
Y297499D01*
X133000Y298499D01*
X135999Y292501D02*
Y298499D01*
X139997Y292501D01*
Y298499D01*
X145995Y292501D02*
X141997D01*
X145995Y296500D01*
Y297499D01*
X144996Y298499D01*
X142997D01*
X141997Y297499D01*
X29004Y298499D02*
Y292501D01*
X32003D01*
X33003Y293501D01*
Y297499D01*
X32003Y298499D01*
X29004D01*
X39001Y297499D02*
X38001Y298499D01*
X36002D01*
X35002Y297499D01*
Y293501D01*
X36002Y292501D01*
X38001D01*
X39001Y293501D01*
X43999Y298499D02*
X42000D01*
X41000Y297499D01*
Y293501D01*
X42000Y292501D01*
X43999D01*
X44999Y293501D01*
Y297499D01*
X43999Y298499D01*
X46998Y292501D02*
Y298499D01*
X50997Y292501D01*
Y298499D01*
X52996Y292501D02*
X54996D01*
X53996D01*
Y298499D01*
X52996Y297499D01*
X492501Y206006D02*
X498499D01*
Y209004D01*
X497499Y210004D01*
X493501D01*
X492501Y209004D01*
Y206006D01*
X498499Y212004D02*
X494500D01*
X492501Y214003D01*
X494500Y216002D01*
X498499D01*
X495500D01*
Y212004D01*
X493501Y222000D02*
X492501Y221001D01*
Y219001D01*
X493501Y218002D01*
X497499D01*
X498499Y219001D01*
Y221001D01*
X497499Y222000D01*
X492501Y226999D02*
Y224999D01*
X493501Y224000D01*
X497499D01*
X498499Y224999D01*
Y226999D01*
X497499Y227998D01*
X493501D01*
X492501Y226999D01*
X498499Y229998D02*
X492501D01*
X498499Y233997D01*
X492501D01*
X498499Y239995D02*
Y235996D01*
X494500Y239995D01*
X493501D01*
X492501Y238995D01*
Y236996D01*
X493501Y235996D01*
X492501Y116505D02*
X498499D01*
Y119504D01*
X497499Y120504D01*
X493501D01*
X492501Y119504D01*
Y116505D01*
X498499Y122503D02*
X494500D01*
X492501Y124503D01*
X494500Y126502D01*
X498499D01*
X495500D01*
Y122503D01*
X493501Y132500D02*
X492501Y131500D01*
Y129501D01*
X493501Y128501D01*
X497499D01*
X498499Y129501D01*
Y131500D01*
X497499Y132500D01*
X492501Y137498D02*
Y135499D01*
X493501Y134499D01*
X497499D01*
X498499Y135499D01*
Y137498D01*
X497499Y138498D01*
X493501D01*
X492501Y137498D01*
X498499Y140497D02*
X492501D01*
X498499Y144496D01*
X492501D01*
X498499Y146495D02*
Y148495D01*
Y147495D01*
X492501D01*
X493501Y146495D01*
X245399Y182299D02*
X242400D01*
X241400Y181299D01*
Y179300D01*
X242400Y178300D01*
X245399D01*
X248398D02*
X250397D01*
X251397Y179300D01*
Y181299D01*
X250397Y182299D01*
X248398D01*
X247398Y181299D01*
Y179300D01*
X248398Y178300D01*
X253396D02*
Y182299D01*
X256395D01*
X257395Y181299D01*
Y178300D01*
X260394Y183298D02*
Y182299D01*
X259394D01*
X261393D01*
X260394D01*
Y179300D01*
X261393Y178300D01*
X264393Y182299D02*
Y178300D01*
Y180299D01*
X265392Y181299D01*
X266392Y182299D01*
X267392D01*
X271390D02*
X273390D01*
X274389Y181299D01*
Y178300D01*
X271390D01*
X270391Y179300D01*
X271390Y180299D01*
X274389D01*
X276389Y178300D02*
X279388D01*
X280387Y179300D01*
X279388Y180299D01*
X277388D01*
X276389Y181299D01*
X277388Y182299D01*
X280387D01*
X283386Y183298D02*
Y182299D01*
X282387D01*
X284386D01*
X283386D01*
Y179300D01*
X284386Y178300D01*
X317501Y74504D02*
X316501Y73504D01*
Y71505D01*
X317501Y70505D01*
X321499D01*
X322499Y71505D01*
Y73504D01*
X321499Y74504D01*
X322499Y76503D02*
Y78503D01*
Y77503D01*
X316501D01*
Y76503D01*
X322499Y82502D02*
Y84501D01*
X321499Y85501D01*
X319500D01*
X318500Y84501D01*
Y82502D01*
X319500Y81502D01*
X321499D01*
X322499Y82502D01*
X318500Y88499D02*
Y90499D01*
X319500Y91499D01*
X322499D01*
Y88499D01*
X321499Y87500D01*
X320500Y88499D01*
Y91499D01*
X316501Y97497D02*
X322499D01*
Y94498D01*
X321499Y93498D01*
X319500D01*
X318500Y94498D01*
Y97497D01*
X319500Y99496D02*
Y103495D01*
X321001Y141504D02*
X320001Y140504D01*
Y138505D01*
X321001Y137505D01*
X324999D01*
X325999Y138505D01*
Y140504D01*
X324999Y141504D01*
X325999Y143503D02*
Y145503D01*
Y144503D01*
X320001D01*
Y143503D01*
X325999Y149502D02*
Y151501D01*
X324999Y152500D01*
X323000D01*
X322000Y151501D01*
Y149502D01*
X323000Y148502D01*
X324999D01*
X325999Y149502D01*
X322000Y155499D02*
Y157499D01*
X323000Y158499D01*
X325999D01*
Y155499D01*
X324999Y154500D01*
X324000Y155499D01*
Y158499D01*
X320001Y164497D02*
X325999D01*
Y161498D01*
X324999Y160498D01*
X323000D01*
X322000Y161498D01*
Y164497D01*
X323000Y166496D02*
Y170495D01*
X321001Y168495D02*
X324999D01*
X392004Y136999D02*
X391004Y137999D01*
X389005D01*
X388005Y136999D01*
Y133001D01*
X389005Y132001D01*
X391004D01*
X392004Y133001D01*
X394003Y137999D02*
Y132001D01*
X397002D01*
X398002Y133001D01*
Y134000D01*
Y135000D01*
X397002Y136000D01*
X394003D01*
X400001D02*
Y133001D01*
X401001Y132001D01*
X404000D01*
Y136000D01*
X406000Y132001D02*
X407999D01*
X406999D01*
Y137999D01*
X406000D01*
X410998Y132001D02*
Y137999D01*
Y134000D02*
X413997Y136000D01*
X410998Y134000D02*
X413997Y132001D01*
X416996Y136999D02*
X417996Y137999D01*
X419995D01*
X420995Y136999D01*
Y136000D01*
X419995Y135000D01*
X418995D01*
X419995D01*
X420995Y134000D01*
Y133001D01*
X419995Y132001D01*
X417996D01*
X416996Y133001D01*
X383504Y145999D02*
X382504Y146999D01*
X380505D01*
X379505Y145999D01*
Y142001D01*
X380505Y141001D01*
X382504D01*
X383504Y142001D01*
X385503Y146999D02*
Y141001D01*
X388502D01*
X389502Y142001D01*
Y143000D01*
Y144000D01*
X388502Y145000D01*
X385503D01*
X391501D02*
Y142001D01*
X392501Y141001D01*
X395500D01*
Y145000D01*
X397499Y141001D02*
X399499D01*
X398499D01*
Y146999D01*
X397499D01*
X402498Y141001D02*
Y146999D01*
Y143000D02*
X405497Y145000D01*
X402498Y143000D02*
X405497Y141001D01*
X412495D02*
X408496D01*
X412495Y145000D01*
Y145999D01*
X411495Y146999D01*
X409496D01*
X408496Y145999D01*
X376004Y153999D02*
X375004Y154999D01*
X373005D01*
X372005Y153999D01*
Y150001D01*
X373005Y149001D01*
X375004D01*
X376004Y150001D01*
X378003Y154999D02*
Y149001D01*
X381002D01*
X382002Y150001D01*
Y151000D01*
Y152000D01*
X381002Y153000D01*
X378003D01*
X384001D02*
Y150001D01*
X385001Y149001D01*
X388000D01*
Y153000D01*
X389999Y149001D02*
X391999D01*
X390999D01*
Y154999D01*
X389999D01*
X394998Y149001D02*
Y154999D01*
Y151000D02*
X397997Y153000D01*
X394998Y151000D02*
X397997Y149001D01*
X400996D02*
X402995D01*
X401995D01*
Y154999D01*
X400996Y153999D01*
X301504Y291501D02*
Y295500D01*
X303504Y297499D01*
X305503Y295500D01*
Y291501D01*
Y294500D01*
X301504D01*
X311501Y296499D02*
X310502Y297499D01*
X308502D01*
X307503Y296499D01*
Y292501D01*
X308502Y291501D01*
X310502D01*
X311501Y292501D01*
X316500Y297499D02*
X314500D01*
X313501Y296499D01*
Y292501D01*
X314500Y291501D01*
X316500D01*
X317499Y292501D01*
Y296499D01*
X316500Y297499D01*
X319499Y291501D02*
Y297499D01*
X323497Y291501D01*
Y297499D01*
X329496Y291501D02*
X325497D01*
X329496Y295500D01*
Y296499D01*
X328496Y297499D01*
X326497D01*
X325497Y296499D01*
X207504Y292501D02*
Y296500D01*
X209504Y298499D01*
X211503Y296500D01*
Y292501D01*
Y295500D01*
X207504D01*
X217501Y297499D02*
X216501Y298499D01*
X214502D01*
X213502Y297499D01*
Y293501D01*
X214502Y292501D01*
X216501D01*
X217501Y293501D01*
X222499Y298499D02*
X220500D01*
X219500Y297499D01*
Y293501D01*
X220500Y292501D01*
X222499D01*
X223499Y293501D01*
Y297499D01*
X222499Y298499D01*
X225498Y292501D02*
Y298499D01*
X229497Y292501D01*
Y298499D01*
X231497Y292501D02*
X233496D01*
X232496D01*
Y298499D01*
X231497Y297499D01*
X288499Y89012D02*
Y91011D01*
Y90011D01*
X282501D01*
X283501Y89012D01*
X282501Y98009D02*
X283501Y96009D01*
X285500Y94010D01*
X287500D01*
X288499Y95010D01*
Y97009D01*
X287500Y98009D01*
X286500D01*
X285500Y97009D01*
Y94010D01*
X288499Y100008D02*
X282501D01*
X284501Y102007D01*
X282501Y104007D01*
X288499D01*
X282501Y106006D02*
X288499D01*
X285500D01*
Y110005D01*
X282501D01*
X288499D01*
X284501Y112004D02*
Y116003D01*
X288499Y112004D01*
Y116003D01*
X283501Y127999D02*
X282501Y126999D01*
Y125000D01*
X283501Y124000D01*
X287500D01*
X288499Y125000D01*
Y126999D01*
X287500Y127999D01*
X284501Y129998D02*
X288499D01*
X286500D01*
X285500Y130998D01*
X284501Y131998D01*
Y132997D01*
Y135996D02*
X287500D01*
X288499Y136996D01*
Y139995D01*
X289499D01*
X290499Y138996D01*
Y137996D01*
X288499Y139995D02*
X284501D01*
X288499Y141995D02*
Y144993D01*
X287500Y145993D01*
X286500Y144993D01*
Y142994D01*
X285500Y141995D01*
X284501Y142994D01*
Y145993D01*
X283501Y148992D02*
X284501D01*
Y147993D01*
Y149992D01*
Y148992D01*
X287500D01*
X288499Y149992D01*
X284501Y153991D02*
Y155990D01*
X285500Y156990D01*
X288499D01*
Y153991D01*
X287500Y152991D01*
X286500Y153991D01*
Y156990D01*
X288499Y158989D02*
Y160988D01*
Y159989D01*
X282501D01*
Y158989D01*
X419500Y200499D02*
X415502D01*
Y197500D01*
X417501Y198500D01*
X418501D01*
X419500Y197500D01*
Y195501D01*
X418501Y194501D01*
X416501D01*
X415502Y195501D01*
X421500Y200499D02*
Y196500D01*
X423499Y194501D01*
X425498Y196500D01*
Y200499D01*
M02*
