G04*
G04 #@! TF.GenerationSoftware,Altium Limited,Altium Designer,22.1.2 (22)*
G04*
G04 Layer_Color=255*
%FSLAX25Y25*%
%MOIN*%
G70*
G04*
G04 #@! TF.SameCoordinates,2374D94A-E5D5-4E5D-BBDB-F5A8C7ADDA7F*
G04*
G04*
G04 #@! TF.FilePolarity,Positive*
G04*
G01*
G75*
%ADD51C,0.18000*%
%ADD52O,0.08661X0.17323*%
%ADD53O,0.07087X0.14173*%
%ADD54O,0.05937X0.11874*%
%ADD55C,0.03937*%
%ADD56P,0.05568X4X90.0*%
%ADD57R,0.04921X0.04921*%
%ADD58C,0.04921*%
%ADD59C,0.05906*%
%ADD60R,0.05906X0.05906*%
%ADD61R,0.05622X0.05622*%
%ADD62C,0.05622*%
%ADD63C,0.12898*%
%ADD64R,0.05622X0.05622*%
%ADD65R,0.04795X0.04795*%
%ADD66C,0.04795*%
%ADD67R,0.07323X0.07323*%
%ADD68C,0.07323*%
D51*
X45000Y230000D02*
D03*
Y30000D02*
D03*
X450000Y280000D02*
D03*
X324000Y30000D02*
D03*
D52*
X404067Y264214D02*
D03*
D53*
X379657D02*
D03*
D54*
X383594Y250434D02*
D03*
D55*
X409264Y52000D02*
D03*
X412800Y55536D02*
D03*
X422964Y73964D02*
D03*
X426500Y77500D02*
D03*
X430036Y81036D02*
D03*
D56*
X419429Y70429D02*
D03*
D57*
X334000Y206500D02*
D03*
D58*
Y196500D02*
D03*
Y186500D02*
D03*
Y176500D02*
D03*
Y166500D02*
D03*
Y156500D02*
D03*
Y146500D02*
D03*
Y136500D02*
D03*
Y126500D02*
D03*
Y116500D02*
D03*
Y106500D02*
D03*
Y96500D02*
D03*
Y86500D02*
D03*
Y76500D02*
D03*
X365000D02*
D03*
Y86500D02*
D03*
Y96500D02*
D03*
Y106500D02*
D03*
Y116500D02*
D03*
Y126500D02*
D03*
Y136500D02*
D03*
Y146500D02*
D03*
Y156500D02*
D03*
Y166500D02*
D03*
Y176500D02*
D03*
Y186500D02*
D03*
Y196500D02*
D03*
Y206500D02*
D03*
D59*
X37500Y144500D02*
D03*
X47500D02*
D03*
X57500D02*
D03*
X67500D02*
D03*
X77500D02*
D03*
X87500D02*
D03*
X97500D02*
D03*
X107500D02*
D03*
X117500D02*
D03*
X127500D02*
D03*
X137500D02*
D03*
X147500D02*
D03*
X157500D02*
D03*
X167500D02*
D03*
X177500D02*
D03*
X187500D02*
D03*
X197500D02*
D03*
D60*
X207500D02*
D03*
D61*
X157780Y248831D02*
D03*
X68517D02*
D03*
X341280Y247831D02*
D03*
X247280Y248831D02*
D03*
D62*
X147937D02*
D03*
X140063D02*
D03*
X130220D02*
D03*
X58674D02*
D03*
X50800D02*
D03*
X40958D02*
D03*
X448831Y228063D02*
D03*
Y235937D02*
D03*
Y245780D02*
D03*
Y138563D02*
D03*
Y146437D02*
D03*
Y156280D02*
D03*
X331437Y247831D02*
D03*
X323563D02*
D03*
X313720D02*
D03*
X237437Y248831D02*
D03*
X229563D02*
D03*
X219720D02*
D03*
D63*
X169866Y259500D02*
D03*
X118134D02*
D03*
X80603D02*
D03*
X28871D02*
D03*
X459500Y206134D02*
D03*
Y257866D02*
D03*
Y116634D02*
D03*
Y168366D02*
D03*
X353366Y258500D02*
D03*
X301634D02*
D03*
X259366Y259500D02*
D03*
X207634D02*
D03*
D64*
X448831Y218220D02*
D03*
Y128720D02*
D03*
D65*
X251000Y145500D02*
D03*
D66*
Y155500D02*
D03*
Y165500D02*
D03*
D67*
X409000Y215500D02*
D03*
D68*
X399000D02*
D03*
X389000D02*
D03*
M02*
