G04*
G04 #@! TF.GenerationSoftware,Altium Limited,Altium Designer,22.1.2 (22)*
G04*
G04 Layer_Color=32768*
%FSLAX25Y25*%
%MOIN*%
G70*
G04*
G04 #@! TF.SameCoordinates,2374D94A-E5D5-4E5D-BBDB-F5A8C7ADDA7F*
G04*
G04*
G04 #@! TF.FilePolarity,Positive*
G04*
G01*
G75*
G36*
X405005Y90744D02*
X405051D01*
X405088Y90741D01*
X405130Y90733D01*
X405177Y90719D01*
X405228Y90699D01*
X405281Y90668D01*
X405173Y90520D01*
X405171Y90522D01*
X405168D01*
X405158Y90529D01*
X405139Y90539D01*
X405114Y90548D01*
X405088Y90559D01*
X405056Y90566D01*
X405023Y90571D01*
X404989D01*
X404979Y90570D01*
X404962Y90565D01*
X404942Y90560D01*
X404917Y90551D01*
X404892Y90539D01*
X404866Y90522D01*
X404841Y90500D01*
X404832Y90491D01*
X404826Y90482D01*
X404811Y90463D01*
X404794Y90434D01*
X404777Y90401D01*
X404761Y90361D01*
X404754Y90317D01*
X404752Y90294D01*
Y90269D01*
X404754Y90267D01*
X404752Y90263D01*
X404754Y90255D01*
X404757Y90246D01*
X404760Y90233D01*
X404763Y90218D01*
X404769Y90203D01*
X404775Y90184D01*
X404784Y90162D01*
X404797Y90141D01*
X404809Y90116D01*
X404824Y90092D01*
X404843Y90067D01*
X404865Y90039D01*
X404888Y90010D01*
X404915Y89982D01*
X404917Y89981D01*
X404922Y89976D01*
X404931Y89967D01*
X404942Y89959D01*
X404955Y89945D01*
X404971Y89933D01*
X405010Y89903D01*
X405053Y89873D01*
X405102Y89845D01*
X405150Y89825D01*
X405176Y89817D01*
X405201Y89814D01*
X405222D01*
X405247Y89817D01*
X405276Y89822D01*
X405313Y89831D01*
X405350Y89846D01*
X405389Y89870D01*
X405407Y89885D01*
X405426Y89900D01*
X405429Y89903D01*
X405437Y89914D01*
X405450Y89931D01*
X405464Y89951D01*
X405480Y89976D01*
X405492Y90007D01*
X405503Y90039D01*
X405507Y90075D01*
X405509Y90079D01*
X405506Y90092D01*
X405504Y90112D01*
X405498Y90139D01*
X405489Y90170D01*
X405477Y90207D01*
X405455Y90247D01*
X405427Y90287D01*
X405574Y90400D01*
X405575Y90398D01*
X405578Y90392D01*
X405583Y90385D01*
X405591Y90374D01*
X405600Y90358D01*
X405609Y90343D01*
X405629Y90301D01*
X405648Y90255D01*
X405663Y90200D01*
X405672Y90141D01*
X405674Y90112D01*
Y90081D01*
Y90078D01*
X405672Y90073D01*
X405671Y90065D01*
X405669Y90055D01*
X405668Y90041D01*
X405663Y90024D01*
X405657Y90005D01*
X405652Y89985D01*
X405635Y89941D01*
X405609Y89893D01*
X405578Y89843D01*
X405557Y89819D01*
X405535Y89794D01*
X405520Y89779D01*
X405507Y89769D01*
X405492Y89757D01*
X405474Y89745D01*
X405453Y89731D01*
X405432Y89715D01*
X405378Y89686D01*
X405349Y89675D01*
X405318Y89663D01*
X405284Y89654D01*
X405250Y89648D01*
X405215Y89643D01*
X405168D01*
X405158Y89645D01*
X405144Y89646D01*
X405127Y89651D01*
X405103Y89655D01*
X405080Y89663D01*
X405054Y89671D01*
X405025Y89682D01*
X404994Y89697D01*
X404962Y89711D01*
X404928Y89732D01*
X404894Y89754D01*
X404857Y89782D01*
X404821Y89811D01*
X404784Y89845D01*
X404783Y89846D01*
X404778Y89851D01*
X404772Y89857D01*
X404763Y89867D01*
X404754Y89879D01*
X404741Y89891D01*
X404729Y89907D01*
X404715Y89924D01*
X404686Y89962D01*
X404657Y90007D01*
X404629Y90053D01*
X404606Y90104D01*
X404604Y90105D01*
X404602Y90110D01*
X404601Y90118D01*
X404598Y90127D01*
X404590Y90153D01*
X404584Y90187D01*
X404579Y90229D01*
X404578Y90273D01*
X404581Y90323D01*
X404592Y90371D01*
X404593Y90372D01*
X404595Y90377D01*
X404596Y90385D01*
X404599Y90394D01*
X404604Y90404D01*
X404609Y90418D01*
X404623Y90451D01*
X404641Y90485D01*
X404666Y90525D01*
X404694Y90565D01*
X404729Y90603D01*
X404741Y90616D01*
X404752Y90623D01*
X404761Y90633D01*
X404775Y90644D01*
X404809Y90668D01*
X404849Y90693D01*
X404895Y90714D01*
X404945Y90733D01*
X404999Y90744D01*
X405000Y90745D01*
X405005Y90744D01*
D02*
G37*
G36*
X403983Y90126D02*
X404029Y90119D01*
X404081Y90110D01*
X404137Y90095D01*
X404194Y90072D01*
X404196Y90070D01*
X404200Y90069D01*
X404209Y90065D01*
X404220Y90058D01*
X404236Y90052D01*
X404251Y90042D01*
X404268Y90031D01*
X404290Y90019D01*
X404311Y90007D01*
X404334Y89990D01*
X404385Y89954D01*
X404438Y89911D01*
X404492Y89860D01*
X404493Y89859D01*
X404496Y89856D01*
X404504Y89848D01*
X404512Y89840D01*
X404521Y89828D01*
X404533Y89816D01*
X404561Y89785D01*
X404590Y89746D01*
X404621Y89706D01*
X404650Y89662D01*
X404678Y89615D01*
X404680Y89614D01*
X404681Y89609D01*
X404684Y89603D01*
X404689Y89595D01*
X404700Y89572D01*
X404712Y89541D01*
X404727Y89507D01*
X404740Y89470D01*
X404750Y89429D01*
X404760Y89389D01*
X404761Y89384D01*
X404763Y89370D01*
X404764Y89350D01*
X404766Y89324D01*
X404768Y89295D01*
X404766Y89262D01*
Y89228D01*
X404760Y89194D01*
X404758Y89190D01*
X404757Y89179D01*
X404752Y89162D01*
X404744Y89139D01*
X404735Y89111D01*
X404721Y89082D01*
X404706Y89048D01*
X404686Y89013D01*
X404683Y89009D01*
X404680Y89003D01*
X404676Y88997D01*
X404663Y88980D01*
X404644Y88955D01*
X404623Y88928D01*
X404596Y88895D01*
X404565Y88862D01*
X404532Y88824D01*
X404148Y88441D01*
X403081Y89507D01*
X403491Y89917D01*
X403520Y89944D01*
X403553Y89973D01*
X403587Y90001D01*
X403622Y90027D01*
X403653Y90048D01*
X403654Y90050D01*
X403659Y90052D01*
X403664Y90056D01*
X403673Y90059D01*
X403695Y90072D01*
X403724Y90085D01*
X403759Y90099D01*
X403799Y90112D01*
X403841Y90122D01*
X403886Y90127D01*
X403901D01*
X403912Y90129D01*
X403943D01*
X403983Y90126D01*
D02*
G37*
G36*
X402987Y89161D02*
X402357Y88530D01*
X402682Y88205D01*
X403272Y88795D01*
X403399Y88669D01*
X402808Y88078D01*
X403170Y87716D01*
X403826Y88371D01*
X403952Y88245D01*
X403155Y87448D01*
X402088Y88515D01*
X402861Y89287D01*
X402987Y89161D01*
D02*
G37*
G36*
X402333Y86879D02*
X402859Y87405D01*
X402985Y87278D01*
X402318Y86611D01*
X401251Y87678D01*
X401393Y87819D01*
X402333Y86879D01*
D02*
G37*
G36*
X394625Y238500D02*
X394460D01*
Y238659D01*
X394458Y238657D01*
X394453Y238650D01*
X394447Y238642D01*
X394436Y238631D01*
X394423Y238618D01*
X394408Y238600D01*
X394390Y238585D01*
X394368Y238568D01*
X394344Y238550D01*
X394318Y238535D01*
X394290Y238520D01*
X394259Y238504D01*
X394224Y238493D01*
X394190Y238485D01*
X394150Y238478D01*
X394111Y238476D01*
X394096D01*
X394076Y238478D01*
X394052Y238480D01*
X394024Y238485D01*
X393993Y238491D01*
X393963Y238500D01*
X393930Y238513D01*
X393926Y238515D01*
X393917Y238520D01*
X393902Y238528D01*
X393884Y238539D01*
X393863Y238552D01*
X393843Y238568D01*
X393823Y238585D01*
X393806Y238605D01*
X393804Y238607D01*
X393799Y238615D01*
X393793Y238626D01*
X393784Y238644D01*
X393773Y238664D01*
X393764Y238687D01*
X393756Y238714D01*
X393749Y238742D01*
Y238744D01*
X393747Y238753D01*
X393745Y238766D01*
Y238783D01*
X393743Y238810D01*
X393740Y238838D01*
X393738Y238875D01*
Y238916D01*
Y239594D01*
X393923D01*
Y238986D01*
Y238984D01*
Y238980D01*
Y238973D01*
Y238962D01*
Y238938D01*
X393926Y238908D01*
Y238875D01*
X393928Y238842D01*
X393930Y238814D01*
X393934Y238790D01*
Y238788D01*
X393939Y238779D01*
X393943Y238766D01*
X393950Y238749D01*
X393961Y238731D01*
X393974Y238712D01*
X393989Y238694D01*
X394009Y238677D01*
X394011Y238674D01*
X394020Y238670D01*
X394030Y238664D01*
X394048Y238657D01*
X394067Y238648D01*
X394091Y238642D01*
X394118Y238637D01*
X394148Y238635D01*
X394163D01*
X394179Y238637D01*
X394198Y238639D01*
X394222Y238646D01*
X394248Y238653D01*
X394277Y238664D01*
X394305Y238677D01*
X394309Y238679D01*
X394318Y238685D01*
X394331Y238694D01*
X394346Y238707D01*
X394364Y238724D01*
X394381Y238744D01*
X394397Y238766D01*
X394410Y238792D01*
X394412Y238796D01*
X394414Y238805D01*
X394418Y238823D01*
X394425Y238847D01*
X394431Y238877D01*
X394436Y238914D01*
X394438Y238958D01*
X394440Y239008D01*
Y239594D01*
X394625D01*
Y238500D01*
D02*
G37*
G36*
X396245Y240006D02*
X396265D01*
X396311Y240004D01*
X396359Y239998D01*
X396411Y239991D01*
X396459Y239980D01*
X396483Y239974D01*
X396502Y239967D01*
X396505D01*
X396507Y239965D01*
X396520Y239958D01*
X396539Y239950D01*
X396564Y239934D01*
X396590Y239915D01*
X396618Y239889D01*
X396644Y239858D01*
X396670Y239823D01*
Y239821D01*
X396673Y239819D01*
X396681Y239806D01*
X396690Y239784D01*
X396703Y239756D01*
X396714Y239723D01*
X396725Y239684D01*
X396731Y239642D01*
X396734Y239597D01*
Y239594D01*
Y239590D01*
Y239581D01*
X396731Y239570D01*
Y239555D01*
X396729Y239540D01*
X396721Y239503D01*
X396707Y239459D01*
X396690Y239413D01*
X396664Y239368D01*
X396646Y239346D01*
X396629Y239324D01*
X396627Y239322D01*
X396625Y239320D01*
X396618Y239313D01*
X396609Y239307D01*
X396598Y239298D01*
X396585Y239289D01*
X396568Y239278D01*
X396550Y239265D01*
X396529Y239254D01*
X396505Y239243D01*
X396479Y239230D01*
X396450Y239219D01*
X396417Y239211D01*
X396385Y239200D01*
X396348Y239193D01*
X396308Y239187D01*
X396313Y239184D01*
X396322Y239180D01*
X396335Y239171D01*
X396352Y239163D01*
X396391Y239139D01*
X396411Y239124D01*
X396428Y239110D01*
X396433Y239106D01*
X396444Y239095D01*
X396461Y239078D01*
X396483Y239056D01*
X396507Y239025D01*
X396535Y238993D01*
X396564Y238953D01*
X396594Y238910D01*
X396853Y238500D01*
X396605D01*
X396407Y238814D01*
Y238816D01*
X396402Y238821D01*
X396398Y238827D01*
X396391Y238836D01*
X396376Y238860D01*
X396356Y238890D01*
X396332Y238923D01*
X396308Y238958D01*
X396285Y238990D01*
X396263Y239021D01*
X396260Y239023D01*
X396254Y239032D01*
X396243Y239045D01*
X396228Y239060D01*
X396195Y239093D01*
X396178Y239108D01*
X396160Y239121D01*
X396158Y239124D01*
X396154Y239126D01*
X396145Y239130D01*
X396132Y239137D01*
X396119Y239143D01*
X396104Y239150D01*
X396069Y239160D01*
X396066D01*
X396062Y239163D01*
X396053D01*
X396042Y239165D01*
X396027Y239167D01*
X396010D01*
X395986Y239169D01*
X395729D01*
Y238500D01*
X395528D01*
Y240009D01*
X396228D01*
X396245Y240006D01*
D02*
G37*
G36*
X395131Y239594D02*
X395319D01*
Y239451D01*
X395131D01*
Y238807D01*
Y238803D01*
Y238794D01*
Y238781D01*
X395133Y238766D01*
X395136Y238731D01*
X395138Y238716D01*
X395140Y238705D01*
X395142Y238701D01*
X395149Y238692D01*
X395157Y238681D01*
X395173Y238670D01*
X395177Y238668D01*
X395188Y238664D01*
X395208Y238659D01*
X395236Y238657D01*
X395258D01*
X395269Y238659D01*
X395284D01*
X395301Y238661D01*
X395319Y238664D01*
X395343Y238500D01*
X395338D01*
X395330Y238498D01*
X395314Y238496D01*
X395295Y238493D01*
X395273Y238489D01*
X395249Y238487D01*
X395201Y238485D01*
X395184D01*
X395166Y238487D01*
X395144Y238489D01*
X395118Y238491D01*
X395092Y238498D01*
X395068Y238504D01*
X395044Y238515D01*
X395042Y238517D01*
X395035Y238522D01*
X395027Y238528D01*
X395013Y238539D01*
X395003Y238550D01*
X394990Y238565D01*
X394976Y238581D01*
X394968Y238600D01*
Y238602D01*
X394963Y238611D01*
X394961Y238626D01*
X394957Y238648D01*
X394953Y238677D01*
X394950Y238694D01*
Y238714D01*
X394948Y238738D01*
X394946Y238762D01*
Y238788D01*
Y238818D01*
Y239451D01*
X394809D01*
Y239594D01*
X394946D01*
Y239865D01*
X395131Y239976D01*
Y239594D01*
D02*
G37*
G36*
X397508Y239616D02*
X397525Y239614D01*
X397547Y239610D01*
X397571Y239605D01*
X397599Y239599D01*
X397625Y239592D01*
X397656Y239581D01*
X397684Y239570D01*
X397715Y239555D01*
X397745Y239538D01*
X397776Y239518D01*
X397804Y239494D01*
X397830Y239468D01*
X397832Y239466D01*
X397837Y239461D01*
X397843Y239453D01*
X397852Y239440D01*
X397863Y239424D01*
X397874Y239407D01*
X397887Y239385D01*
X397900Y239359D01*
X397913Y239331D01*
X397926Y239300D01*
X397937Y239265D01*
X397948Y239228D01*
X397956Y239187D01*
X397963Y239143D01*
X397967Y239097D01*
X397970Y239047D01*
Y239045D01*
Y239036D01*
Y239021D01*
X397967Y238999D01*
X397150D01*
Y238997D01*
Y238990D01*
X397152Y238982D01*
Y238969D01*
X397154Y238953D01*
X397159Y238936D01*
X397165Y238897D01*
X397178Y238853D01*
X397196Y238805D01*
X397220Y238762D01*
X397250Y238722D01*
X397252D01*
X397255Y238718D01*
X397268Y238707D01*
X397287Y238692D01*
X397313Y238677D01*
X397348Y238659D01*
X397388Y238644D01*
X397431Y238633D01*
X397455Y238631D01*
X397481Y238629D01*
X397499D01*
X397518Y238631D01*
X397542Y238635D01*
X397568Y238642D01*
X397599Y238650D01*
X397627Y238664D01*
X397656Y238681D01*
X397658Y238683D01*
X397669Y238692D01*
X397682Y238705D01*
X397697Y238722D01*
X397715Y238746D01*
X397734Y238777D01*
X397754Y238812D01*
X397771Y238853D01*
X397963Y238829D01*
Y238827D01*
X397961Y238823D01*
X397959Y238814D01*
X397954Y238801D01*
X397948Y238788D01*
X397941Y238770D01*
X397924Y238733D01*
X397902Y238692D01*
X397871Y238648D01*
X397837Y238607D01*
X397793Y238568D01*
X397791D01*
X397786Y238563D01*
X397780Y238559D01*
X397771Y238552D01*
X397758Y238546D01*
X397745Y238539D01*
X397728Y238530D01*
X397708Y238522D01*
X397686Y238513D01*
X397664Y238504D01*
X397610Y238491D01*
X397549Y238480D01*
X397481Y238476D01*
X397457D01*
X397442Y238478D01*
X397422Y238480D01*
X397398Y238485D01*
X397372Y238489D01*
X397344Y238493D01*
X397283Y238511D01*
X397250Y238524D01*
X397220Y238537D01*
X397187Y238555D01*
X397157Y238574D01*
X397128Y238596D01*
X397100Y238622D01*
X397098Y238624D01*
X397093Y238629D01*
X397087Y238637D01*
X397078Y238650D01*
X397067Y238666D01*
X397056Y238683D01*
X397043Y238705D01*
X397030Y238729D01*
X397017Y238757D01*
X397004Y238788D01*
X396993Y238823D01*
X396982Y238860D01*
X396973Y238899D01*
X396967Y238943D01*
X396962Y238988D01*
X396960Y239036D01*
Y239038D01*
Y239049D01*
Y239062D01*
X396962Y239082D01*
X396965Y239106D01*
X396967Y239132D01*
X396971Y239163D01*
X396978Y239193D01*
X396995Y239263D01*
X397006Y239298D01*
X397019Y239335D01*
X397037Y239370D01*
X397056Y239403D01*
X397078Y239435D01*
X397102Y239466D01*
X397104Y239468D01*
X397109Y239472D01*
X397117Y239479D01*
X397128Y239490D01*
X397141Y239501D01*
X397159Y239514D01*
X397178Y239529D01*
X397202Y239542D01*
X397226Y239557D01*
X397255Y239570D01*
X397285Y239583D01*
X397318Y239594D01*
X397353Y239605D01*
X397390Y239612D01*
X397429Y239616D01*
X397470Y239618D01*
X397492D01*
X397508Y239616D01*
D02*
G37*
G36*
X393049D02*
X393069Y239614D01*
X393091Y239610D01*
X393115Y239605D01*
X393143Y239601D01*
X393202Y239581D01*
X393232Y239570D01*
X393263Y239555D01*
X393293Y239540D01*
X393324Y239518D01*
X393352Y239496D01*
X393381Y239470D01*
X393383Y239468D01*
X393387Y239464D01*
X393394Y239455D01*
X393403Y239444D01*
X393413Y239429D01*
X393426Y239409D01*
X393440Y239387D01*
X393453Y239363D01*
X393466Y239337D01*
X393479Y239304D01*
X393492Y239272D01*
X393503Y239235D01*
X393512Y239195D01*
X393518Y239154D01*
X393522Y239110D01*
X393525Y239062D01*
Y239060D01*
Y239054D01*
Y239043D01*
Y239028D01*
X393522Y239010D01*
X393520Y238988D01*
Y238966D01*
X393516Y238943D01*
X393509Y238888D01*
X393496Y238833D01*
X393481Y238779D01*
X393459Y238729D01*
Y238727D01*
X393457Y238724D01*
X393453Y238718D01*
X393448Y238709D01*
X393433Y238687D01*
X393413Y238661D01*
X393387Y238631D01*
X393355Y238600D01*
X393318Y238570D01*
X393274Y238541D01*
X393272D01*
X393269Y238539D01*
X393263Y238535D01*
X393252Y238530D01*
X393241Y238526D01*
X393228Y238522D01*
X393195Y238509D01*
X393158Y238498D01*
X393113Y238487D01*
X393065Y238478D01*
X393012Y238476D01*
X392990D01*
X392973Y238478D01*
X392953Y238480D01*
X392932Y238485D01*
X392905Y238489D01*
X392879Y238493D01*
X392821Y238511D01*
X392788Y238524D01*
X392757Y238537D01*
X392727Y238555D01*
X392696Y238574D01*
X392668Y238596D01*
X392639Y238622D01*
X392637Y238624D01*
X392633Y238629D01*
X392626Y238637D01*
X392618Y238650D01*
X392607Y238666D01*
X392596Y238683D01*
X392583Y238705D01*
X392570Y238731D01*
X392557Y238759D01*
X392544Y238792D01*
X392533Y238827D01*
X392522Y238864D01*
X392513Y238906D01*
X392507Y238949D01*
X392502Y238997D01*
X392500Y239047D01*
Y239052D01*
Y239060D01*
X392502Y239075D01*
Y239097D01*
X392504Y239121D01*
X392509Y239152D01*
X392513Y239182D01*
X392522Y239217D01*
X392530Y239252D01*
X392541Y239289D01*
X392554Y239328D01*
X392572Y239366D01*
X392589Y239400D01*
X392613Y239435D01*
X392637Y239468D01*
X392668Y239496D01*
X392670Y239498D01*
X392674Y239501D01*
X392683Y239507D01*
X392694Y239516D01*
X392707Y239525D01*
X392724Y239535D01*
X392742Y239546D01*
X392764Y239557D01*
X392788Y239568D01*
X392814Y239579D01*
X392873Y239599D01*
X392940Y239614D01*
X392975Y239616D01*
X393012Y239618D01*
X393034D01*
X393049Y239616D01*
D02*
G37*
G36*
X398630D02*
X398645Y239614D01*
X398665Y239610D01*
X398687Y239605D01*
X398711Y239599D01*
X398735Y239590D01*
X398761Y239579D01*
X398787Y239566D01*
X398815Y239551D01*
X398842Y239533D01*
X398868Y239511D01*
X398894Y239488D01*
X398918Y239459D01*
Y239594D01*
X399088D01*
Y238648D01*
Y238646D01*
Y238637D01*
Y238624D01*
Y238607D01*
X399086Y238587D01*
Y238563D01*
X399084Y238537D01*
X399081Y238509D01*
X399075Y238450D01*
X399066Y238389D01*
X399060Y238361D01*
X399053Y238334D01*
X399044Y238310D01*
X399036Y238288D01*
Y238286D01*
X399033Y238284D01*
X399025Y238271D01*
X399014Y238251D01*
X398996Y238228D01*
X398972Y238201D01*
X398944Y238173D01*
X398909Y238145D01*
X398870Y238121D01*
X398868D01*
X398866Y238119D01*
X398859Y238114D01*
X398850Y238112D01*
X398839Y238105D01*
X398826Y238101D01*
X398794Y238090D01*
X398754Y238077D01*
X398707Y238068D01*
X398652Y238060D01*
X398593Y238057D01*
X398573D01*
X398560Y238060D01*
X398543D01*
X398526Y238062D01*
X398504Y238064D01*
X398480Y238068D01*
X398430Y238079D01*
X398377Y238094D01*
X398325Y238116D01*
X398277Y238147D01*
X398275Y238149D01*
X398273Y238151D01*
X398257Y238164D01*
X398240Y238184D01*
X398218Y238212D01*
X398196Y238249D01*
X398177Y238295D01*
X398170Y238321D01*
X398166Y238350D01*
X398162Y238378D01*
Y238411D01*
X398342Y238387D01*
Y238382D01*
X398345Y238374D01*
X398349Y238358D01*
X398353Y238339D01*
X398362Y238319D01*
X398373Y238299D01*
X398386Y238280D01*
X398403Y238265D01*
X398408Y238262D01*
X398416Y238256D01*
X398432Y238247D01*
X398454Y238238D01*
X398480Y238228D01*
X398512Y238219D01*
X398552Y238212D01*
X398593Y238210D01*
X398615D01*
X398637Y238212D01*
X398667Y238217D01*
X398698Y238223D01*
X398730Y238232D01*
X398763Y238245D01*
X398792Y238262D01*
X398794Y238265D01*
X398802Y238271D01*
X398815Y238284D01*
X398831Y238299D01*
X398846Y238321D01*
X398861Y238345D01*
X398877Y238374D01*
X398887Y238406D01*
Y238408D01*
X398890Y238417D01*
X398892Y238435D01*
X398894Y238456D01*
X398896Y238472D01*
Y238489D01*
X398898Y238509D01*
Y238530D01*
Y238555D01*
X398901Y238583D01*
Y238611D01*
Y238644D01*
X398898Y238642D01*
X398894Y238637D01*
X398887Y238631D01*
X398879Y238622D01*
X398868Y238611D01*
X398852Y238598D01*
X398835Y238585D01*
X398818Y238572D01*
X398772Y238546D01*
X398722Y238522D01*
X398693Y238513D01*
X398663Y238507D01*
X398630Y238502D01*
X398598Y238500D01*
X398587D01*
X398576Y238502D01*
X398560D01*
X398541Y238504D01*
X398519Y238509D01*
X398495Y238513D01*
X398469Y238520D01*
X398441Y238528D01*
X398412Y238539D01*
X398384Y238552D01*
X398353Y238568D01*
X398325Y238587D01*
X398297Y238609D01*
X398271Y238633D01*
X398247Y238661D01*
X398244Y238664D01*
X398242Y238668D01*
X398236Y238679D01*
X398227Y238690D01*
X398218Y238707D01*
X398207Y238724D01*
X398196Y238746D01*
X398185Y238773D01*
X398175Y238799D01*
X398164Y238829D01*
X398153Y238860D01*
X398144Y238895D01*
X398129Y238969D01*
X398127Y239010D01*
X398124Y239052D01*
Y239054D01*
Y239058D01*
Y239067D01*
Y239078D01*
X398127Y239093D01*
Y239108D01*
X398131Y239147D01*
X398137Y239191D01*
X398148Y239239D01*
X398162Y239289D01*
X398181Y239339D01*
Y239341D01*
X398183Y239346D01*
X398188Y239352D01*
X398192Y239361D01*
X398205Y239385D01*
X398222Y239416D01*
X398247Y239448D01*
X398275Y239481D01*
X398307Y239516D01*
X398345Y239544D01*
X398347D01*
X398349Y239546D01*
X398356Y239551D01*
X398364Y239555D01*
X398386Y239568D01*
X398416Y239581D01*
X398454Y239594D01*
X398497Y239607D01*
X398545Y239616D01*
X398598Y239618D01*
X398617D01*
X398630Y239616D01*
D02*
G37*
G36*
X411304Y239940D02*
X411321D01*
X411339Y239938D01*
X411361Y239936D01*
X411384Y239932D01*
X411435Y239921D01*
X411487Y239906D01*
X411539Y239884D01*
X411587Y239853D01*
X411589Y239851D01*
X411592Y239849D01*
X411607Y239836D01*
X411624Y239816D01*
X411646Y239788D01*
X411668Y239751D01*
X411688Y239705D01*
X411694Y239679D01*
X411698Y239650D01*
X411703Y239622D01*
Y239589D01*
X411522Y239613D01*
Y239618D01*
X411520Y239626D01*
X411515Y239642D01*
X411511Y239661D01*
X411502Y239681D01*
X411491Y239701D01*
X411478Y239720D01*
X411461Y239735D01*
X411456Y239738D01*
X411448Y239744D01*
X411433Y239753D01*
X411411Y239762D01*
X411384Y239773D01*
X411352Y239781D01*
X411313Y239788D01*
X411271Y239790D01*
X411249D01*
X411228Y239788D01*
X411197Y239783D01*
X411166Y239777D01*
X411134Y239768D01*
X411101Y239755D01*
X411073Y239738D01*
X411071Y239735D01*
X411062Y239729D01*
X411049Y239716D01*
X411033Y239701D01*
X411018Y239679D01*
X411003Y239655D01*
X410988Y239626D01*
X410977Y239594D01*
Y239592D01*
X410975Y239583D01*
X410972Y239565D01*
X410970Y239544D01*
X410968Y239528D01*
Y239511D01*
X410966Y239491D01*
Y239470D01*
Y239445D01*
X410964Y239417D01*
Y239389D01*
Y239356D01*
X410966Y239358D01*
X410970Y239363D01*
X410977Y239369D01*
X410986Y239378D01*
X410996Y239389D01*
X411012Y239402D01*
X411029Y239415D01*
X411047Y239428D01*
X411092Y239454D01*
X411142Y239478D01*
X411171Y239487D01*
X411201Y239493D01*
X411234Y239498D01*
X411267Y239500D01*
X411278D01*
X411289Y239498D01*
X411304D01*
X411323Y239496D01*
X411345Y239491D01*
X411369Y239487D01*
X411395Y239480D01*
X411424Y239472D01*
X411452Y239461D01*
X411480Y239448D01*
X411511Y239432D01*
X411539Y239413D01*
X411568Y239391D01*
X411594Y239367D01*
X411618Y239339D01*
X411620Y239336D01*
X411622Y239332D01*
X411629Y239321D01*
X411637Y239310D01*
X411646Y239293D01*
X411657Y239276D01*
X411668Y239254D01*
X411679Y239228D01*
X411690Y239201D01*
X411701Y239171D01*
X411712Y239140D01*
X411720Y239105D01*
X411735Y239031D01*
X411738Y238990D01*
X411740Y238948D01*
Y238946D01*
Y238942D01*
Y238933D01*
Y238922D01*
X411738Y238907D01*
Y238892D01*
X411733Y238853D01*
X411727Y238809D01*
X411716Y238761D01*
X411703Y238711D01*
X411683Y238661D01*
Y238658D01*
X411681Y238654D01*
X411677Y238648D01*
X411672Y238639D01*
X411659Y238615D01*
X411642Y238584D01*
X411618Y238552D01*
X411589Y238519D01*
X411557Y238484D01*
X411520Y238456D01*
X411517D01*
X411515Y238454D01*
X411509Y238449D01*
X411500Y238445D01*
X411478Y238432D01*
X411448Y238419D01*
X411411Y238406D01*
X411367Y238393D01*
X411319Y238384D01*
X411267Y238382D01*
X411247D01*
X411234Y238384D01*
X411219Y238386D01*
X411199Y238390D01*
X411177Y238395D01*
X411153Y238401D01*
X411130Y238410D01*
X411103Y238421D01*
X411077Y238434D01*
X411049Y238449D01*
X411023Y238467D01*
X410996Y238489D01*
X410970Y238512D01*
X410946Y238541D01*
Y238406D01*
X410776D01*
Y239352D01*
Y239354D01*
Y239363D01*
Y239376D01*
Y239393D01*
X410779Y239413D01*
Y239437D01*
X410781Y239463D01*
X410783Y239491D01*
X410789Y239550D01*
X410798Y239611D01*
X410805Y239639D01*
X410811Y239666D01*
X410820Y239690D01*
X410829Y239711D01*
Y239714D01*
X410831Y239716D01*
X410840Y239729D01*
X410850Y239749D01*
X410868Y239773D01*
X410892Y239799D01*
X410920Y239827D01*
X410955Y239855D01*
X410994Y239879D01*
X410996D01*
X410999Y239881D01*
X411005Y239886D01*
X411014Y239888D01*
X411025Y239895D01*
X411038Y239899D01*
X411071Y239910D01*
X411110Y239923D01*
X411158Y239932D01*
X411212Y239940D01*
X411271Y239943D01*
X411291D01*
X411304Y239940D01*
D02*
G37*
G36*
X414336Y237991D02*
X413636D01*
X413619Y237994D01*
X413599D01*
X413554Y237996D01*
X413506Y238002D01*
X413453Y238009D01*
X413405Y238020D01*
X413381Y238026D01*
X413362Y238033D01*
X413360D01*
X413357Y238035D01*
X413344Y238042D01*
X413325Y238050D01*
X413301Y238066D01*
X413275Y238085D01*
X413246Y238111D01*
X413220Y238142D01*
X413194Y238177D01*
Y238179D01*
X413192Y238181D01*
X413183Y238194D01*
X413174Y238216D01*
X413161Y238244D01*
X413150Y238277D01*
X413139Y238316D01*
X413133Y238358D01*
X413131Y238404D01*
Y238406D01*
Y238410D01*
Y238419D01*
X413133Y238430D01*
Y238445D01*
X413135Y238460D01*
X413144Y238497D01*
X413157Y238541D01*
X413174Y238587D01*
X413201Y238632D01*
X413218Y238654D01*
X413235Y238676D01*
X413237Y238678D01*
X413240Y238680D01*
X413246Y238687D01*
X413255Y238693D01*
X413266Y238702D01*
X413279Y238711D01*
X413296Y238722D01*
X413314Y238735D01*
X413336Y238746D01*
X413360Y238757D01*
X413386Y238770D01*
X413414Y238781D01*
X413447Y238789D01*
X413480Y238800D01*
X413517Y238807D01*
X413556Y238813D01*
X413551Y238815D01*
X413543Y238820D01*
X413530Y238829D01*
X413512Y238837D01*
X413473Y238861D01*
X413453Y238877D01*
X413436Y238890D01*
X413432Y238894D01*
X413421Y238905D01*
X413403Y238922D01*
X413381Y238944D01*
X413357Y238975D01*
X413329Y239007D01*
X413301Y239047D01*
X413270Y239090D01*
X413011Y239500D01*
X413259D01*
X413458Y239186D01*
Y239184D01*
X413462Y239179D01*
X413466Y239173D01*
X413473Y239164D01*
X413488Y239140D01*
X413508Y239110D01*
X413532Y239077D01*
X413556Y239042D01*
X413580Y239009D01*
X413602Y238979D01*
X413604Y238977D01*
X413610Y238968D01*
X413621Y238955D01*
X413636Y238940D01*
X413669Y238907D01*
X413687Y238892D01*
X413704Y238879D01*
X413706Y238877D01*
X413711Y238874D01*
X413719Y238870D01*
X413732Y238863D01*
X413745Y238857D01*
X413761Y238850D01*
X413796Y238840D01*
X413798D01*
X413802Y238837D01*
X413811D01*
X413822Y238835D01*
X413837Y238833D01*
X413855D01*
X413878Y238831D01*
X414136D01*
Y239500D01*
X414336D01*
Y237991D01*
D02*
G37*
G36*
X415535Y238406D02*
X415370D01*
Y238563D01*
X415367Y238560D01*
X415363Y238554D01*
X415356Y238545D01*
X415348Y238534D01*
X415335Y238521D01*
X415319Y238506D01*
X415302Y238489D01*
X415280Y238471D01*
X415258Y238456D01*
X415232Y238438D01*
X415204Y238423D01*
X415173Y238410D01*
X415138Y238399D01*
X415104Y238390D01*
X415064Y238384D01*
X415023Y238382D01*
X415005D01*
X414988Y238384D01*
X414964Y238386D01*
X414936Y238390D01*
X414905Y238397D01*
X414873Y238406D01*
X414842Y238419D01*
X414838Y238421D01*
X414829Y238425D01*
X414814Y238432D01*
X414796Y238443D01*
X414774Y238456D01*
X414755Y238473D01*
X414735Y238491D01*
X414718Y238512D01*
X414716Y238515D01*
X414711Y238523D01*
X414705Y238534D01*
X414694Y238549D01*
X414685Y238571D01*
X414676Y238593D01*
X414665Y238619D01*
X414659Y238648D01*
Y238650D01*
X414657Y238658D01*
X414654Y238672D01*
X414652Y238689D01*
Y238715D01*
X414650Y238746D01*
X414648Y238783D01*
Y238829D01*
Y239500D01*
X414833D01*
Y238837D01*
Y238835D01*
Y238833D01*
Y238818D01*
Y238798D01*
X414836Y238774D01*
X414838Y238746D01*
X414842Y238717D01*
X414849Y238691D01*
X414855Y238667D01*
Y238665D01*
X414859Y238658D01*
X414866Y238648D01*
X414873Y238634D01*
X414883Y238621D01*
X414896Y238606D01*
X414914Y238591D01*
X414934Y238578D01*
X414936Y238576D01*
X414942Y238571D01*
X414955Y238567D01*
X414971Y238560D01*
X414988Y238554D01*
X415010Y238547D01*
X415036Y238545D01*
X415062Y238543D01*
X415073D01*
X415082Y238545D01*
X415104Y238547D01*
X415132Y238552D01*
X415163Y238563D01*
X415197Y238576D01*
X415232Y238593D01*
X415265Y238619D01*
X415269Y238624D01*
X415278Y238634D01*
X415284Y238643D01*
X415291Y238654D01*
X415300Y238667D01*
X415306Y238683D01*
X415315Y238700D01*
X415324Y238722D01*
X415330Y238746D01*
X415337Y238772D01*
X415341Y238800D01*
X415346Y238831D01*
X415350Y238868D01*
Y238905D01*
Y239500D01*
X415535D01*
Y238406D01*
D02*
G37*
G36*
X416004D02*
X415819D01*
Y239500D01*
X416004D01*
Y238406D01*
D02*
G37*
G36*
X412422Y239522D02*
X412442Y239520D01*
X412466Y239515D01*
X412492Y239511D01*
X412520Y239507D01*
X412581Y239489D01*
X412614Y239476D01*
X412645Y239463D01*
X412677Y239445D01*
X412708Y239426D01*
X412736Y239404D01*
X412765Y239378D01*
X412767Y239376D01*
X412771Y239371D01*
X412778Y239363D01*
X412786Y239350D01*
X412797Y239334D01*
X412808Y239317D01*
X412821Y239295D01*
X412834Y239271D01*
X412847Y239243D01*
X412860Y239212D01*
X412871Y239177D01*
X412882Y239140D01*
X412891Y239101D01*
X412897Y239057D01*
X412902Y239012D01*
X412904Y238964D01*
Y238962D01*
Y238951D01*
Y238938D01*
X412902Y238918D01*
X412900Y238894D01*
X412897Y238868D01*
X412893Y238837D01*
X412886Y238807D01*
X412869Y238737D01*
X412858Y238702D01*
X412845Y238665D01*
X412828Y238630D01*
X412808Y238597D01*
X412786Y238565D01*
X412762Y238534D01*
X412760Y238532D01*
X412756Y238528D01*
X412747Y238521D01*
X412736Y238510D01*
X412723Y238499D01*
X412706Y238486D01*
X412686Y238471D01*
X412662Y238458D01*
X412638Y238443D01*
X412610Y238430D01*
X412579Y238417D01*
X412546Y238406D01*
X412512Y238395D01*
X412474Y238388D01*
X412435Y238384D01*
X412394Y238382D01*
X412372D01*
X412357Y238384D01*
X412339Y238386D01*
X412318Y238390D01*
X412294Y238395D01*
X412265Y238401D01*
X412239Y238408D01*
X412209Y238419D01*
X412180Y238430D01*
X412150Y238445D01*
X412119Y238462D01*
X412089Y238482D01*
X412060Y238506D01*
X412034Y238532D01*
X412032Y238534D01*
X412028Y238539D01*
X412021Y238547D01*
X412012Y238560D01*
X412002Y238576D01*
X411991Y238593D01*
X411977Y238615D01*
X411964Y238641D01*
X411951Y238669D01*
X411938Y238700D01*
X411927Y238735D01*
X411916Y238772D01*
X411908Y238813D01*
X411901Y238857D01*
X411897Y238903D01*
X411895Y238953D01*
Y238955D01*
Y238964D01*
Y238979D01*
X411897Y239001D01*
X412714D01*
Y239003D01*
Y239009D01*
X412712Y239018D01*
Y239031D01*
X412710Y239047D01*
X412706Y239064D01*
X412699Y239103D01*
X412686Y239147D01*
X412669Y239195D01*
X412645Y239238D01*
X412614Y239278D01*
X412612D01*
X412610Y239282D01*
X412597Y239293D01*
X412577Y239308D01*
X412551Y239323D01*
X412516Y239341D01*
X412477Y239356D01*
X412433Y239367D01*
X412409Y239369D01*
X412383Y239371D01*
X412365D01*
X412346Y239369D01*
X412322Y239365D01*
X412296Y239358D01*
X412265Y239350D01*
X412237Y239336D01*
X412209Y239319D01*
X412206Y239317D01*
X412195Y239308D01*
X412182Y239295D01*
X412167Y239278D01*
X412150Y239254D01*
X412130Y239223D01*
X412111Y239188D01*
X412093Y239147D01*
X411901Y239171D01*
Y239173D01*
X411903Y239177D01*
X411905Y239186D01*
X411910Y239199D01*
X411916Y239212D01*
X411923Y239230D01*
X411940Y239267D01*
X411962Y239308D01*
X411993Y239352D01*
X412028Y239393D01*
X412071Y239432D01*
X412073D01*
X412078Y239437D01*
X412084Y239441D01*
X412093Y239448D01*
X412106Y239454D01*
X412119Y239461D01*
X412137Y239470D01*
X412156Y239478D01*
X412178Y239487D01*
X412200Y239496D01*
X412254Y239509D01*
X412315Y239520D01*
X412383Y239524D01*
X412407D01*
X412422Y239522D01*
D02*
G37*
G36*
X416004Y237991D02*
X415819D01*
Y238203D01*
X416004D01*
Y237991D01*
D02*
G37*
G36*
X391088Y126361D02*
X391105Y126359D01*
X391125Y126355D01*
X391147Y126350D01*
X391171Y126346D01*
X391223Y126329D01*
X391251Y126315D01*
X391278Y126302D01*
X391306Y126285D01*
X391334Y126265D01*
X391363Y126243D01*
X391389Y126217D01*
X391391Y126215D01*
X391395Y126211D01*
X391402Y126202D01*
X391411Y126191D01*
X391422Y126178D01*
X391432Y126161D01*
X391445Y126141D01*
X391456Y126117D01*
X391470Y126093D01*
X391483Y126065D01*
X391494Y126036D01*
X391504Y126004D01*
X391513Y125969D01*
X391520Y125932D01*
X391524Y125895D01*
X391526Y125853D01*
Y125834D01*
X391524Y125821D01*
X391522Y125803D01*
X391520Y125784D01*
X391515Y125762D01*
X391511Y125738D01*
X391498Y125685D01*
X391476Y125631D01*
X391463Y125603D01*
X391448Y125576D01*
X391428Y125550D01*
X391408Y125524D01*
X391406Y125522D01*
X391402Y125518D01*
X391395Y125511D01*
X391387Y125505D01*
X391376Y125494D01*
X391360Y125483D01*
X391345Y125470D01*
X391326Y125457D01*
X391304Y125443D01*
X391282Y125430D01*
X391230Y125406D01*
X391169Y125387D01*
X391136Y125380D01*
X391101Y125376D01*
X391077Y125561D01*
X391079D01*
X391084Y125563D01*
X391092Y125566D01*
X391103Y125568D01*
X391116Y125570D01*
X391132Y125574D01*
X391164Y125585D01*
X391203Y125600D01*
X391241Y125620D01*
X391276Y125642D01*
X391306Y125668D01*
X391308Y125672D01*
X391317Y125681D01*
X391328Y125698D01*
X391339Y125720D01*
X391352Y125747D01*
X391363Y125779D01*
X391371Y125816D01*
X391374Y125856D01*
Y125869D01*
X391371Y125877D01*
X391369Y125901D01*
X391363Y125932D01*
X391352Y125967D01*
X391336Y126004D01*
X391315Y126041D01*
X391284Y126076D01*
X391280Y126080D01*
X391267Y126091D01*
X391247Y126104D01*
X391221Y126121D01*
X391188Y126139D01*
X391151Y126152D01*
X391108Y126163D01*
X391060Y126167D01*
X391057D01*
X391053D01*
X391047D01*
X391038Y126165D01*
X391014Y126163D01*
X390985Y126156D01*
X390951Y126148D01*
X390916Y126132D01*
X390881Y126110D01*
X390848Y126082D01*
X390844Y126078D01*
X390835Y126067D01*
X390822Y126049D01*
X390807Y126025D01*
X390792Y125995D01*
X390778Y125958D01*
X390770Y125917D01*
X390765Y125871D01*
Y125851D01*
X390768Y125836D01*
X390770Y125816D01*
X390774Y125794D01*
X390778Y125768D01*
X390785Y125740D01*
X390621Y125762D01*
Y125773D01*
X390624Y125781D01*
Y125810D01*
X390619Y125834D01*
X390615Y125862D01*
X390608Y125895D01*
X390598Y125932D01*
X390582Y125967D01*
X390563Y126004D01*
Y126006D01*
X390560Y126008D01*
X390552Y126019D01*
X390536Y126034D01*
X390517Y126052D01*
X390489Y126069D01*
X390456Y126084D01*
X390419Y126095D01*
X390397Y126100D01*
X390373D01*
X390371D01*
X390369D01*
X390355D01*
X390338Y126095D01*
X390314Y126091D01*
X390288Y126082D01*
X390260Y126071D01*
X390231Y126054D01*
X390205Y126030D01*
X390203Y126028D01*
X390194Y126017D01*
X390183Y126002D01*
X390170Y125982D01*
X390159Y125956D01*
X390148Y125925D01*
X390140Y125890D01*
X390138Y125851D01*
Y125834D01*
X390142Y125814D01*
X390146Y125788D01*
X390155Y125760D01*
X390166Y125731D01*
X390183Y125701D01*
X390205Y125672D01*
X390207Y125670D01*
X390218Y125662D01*
X390233Y125648D01*
X390255Y125633D01*
X390284Y125618D01*
X390318Y125603D01*
X390360Y125590D01*
X390408Y125581D01*
X390375Y125396D01*
X390373D01*
X390366Y125398D01*
X390358Y125400D01*
X390345Y125402D01*
X390329Y125406D01*
X390312Y125413D01*
X390270Y125426D01*
X390223Y125448D01*
X390175Y125474D01*
X390129Y125507D01*
X390087Y125548D01*
X390085Y125550D01*
X390083Y125555D01*
X390079Y125561D01*
X390072Y125570D01*
X390063Y125581D01*
X390055Y125596D01*
X390046Y125611D01*
X390035Y125631D01*
X390018Y125674D01*
X390000Y125725D01*
X389989Y125784D01*
X389985Y125814D01*
Y125869D01*
X389987Y125892D01*
X389991Y125921D01*
X389998Y125956D01*
X390009Y125995D01*
X390022Y126034D01*
X390039Y126074D01*
Y126076D01*
X390042Y126078D01*
X390048Y126091D01*
X390061Y126110D01*
X390076Y126132D01*
X390098Y126158D01*
X390122Y126185D01*
X390151Y126211D01*
X390183Y126233D01*
X390188Y126235D01*
X390198Y126241D01*
X390218Y126250D01*
X390242Y126261D01*
X390270Y126272D01*
X390303Y126281D01*
X390340Y126287D01*
X390377Y126289D01*
X390382D01*
X390395D01*
X390412Y126287D01*
X390436Y126283D01*
X390464Y126276D01*
X390495Y126265D01*
X390526Y126252D01*
X390556Y126235D01*
X390560Y126233D01*
X390569Y126226D01*
X390584Y126213D01*
X390602Y126196D01*
X390621Y126174D01*
X390643Y126148D01*
X390663Y126117D01*
X390683Y126080D01*
Y126082D01*
X390685Y126087D01*
X390687Y126093D01*
X390689Y126102D01*
X390698Y126126D01*
X390711Y126156D01*
X390728Y126191D01*
X390750Y126226D01*
X390778Y126259D01*
X390811Y126289D01*
X390815Y126292D01*
X390829Y126300D01*
X390850Y126313D01*
X390879Y126326D01*
X390914Y126339D01*
X390955Y126353D01*
X391003Y126361D01*
X391055Y126363D01*
X391057D01*
X391064D01*
X391075D01*
X391088Y126361D01*
D02*
G37*
G36*
X391500Y125049D02*
X390942Y124685D01*
X391066Y124556D01*
X391500D01*
Y124371D01*
X389991D01*
Y124556D01*
X390852D01*
X390406Y124994D01*
Y125236D01*
X390813Y124816D01*
X391500Y125278D01*
Y125049D01*
D02*
G37*
G36*
Y123898D02*
X389991D01*
Y124083D01*
X391500D01*
Y123898D01*
D02*
G37*
G36*
Y123447D02*
X391341D01*
X391343Y123444D01*
X391350Y123440D01*
X391358Y123433D01*
X391369Y123423D01*
X391382Y123409D01*
X391400Y123394D01*
X391415Y123377D01*
X391432Y123355D01*
X391450Y123331D01*
X391465Y123305D01*
X391480Y123276D01*
X391496Y123246D01*
X391507Y123211D01*
X391515Y123176D01*
X391522Y123137D01*
X391524Y123098D01*
Y123082D01*
X391522Y123063D01*
X391520Y123039D01*
X391515Y123011D01*
X391509Y122980D01*
X391500Y122950D01*
X391487Y122917D01*
X391485Y122913D01*
X391480Y122904D01*
X391472Y122889D01*
X391461Y122871D01*
X391448Y122849D01*
X391432Y122830D01*
X391415Y122810D01*
X391395Y122793D01*
X391393Y122790D01*
X391385Y122786D01*
X391374Y122780D01*
X391356Y122771D01*
X391336Y122760D01*
X391313Y122751D01*
X391286Y122742D01*
X391258Y122736D01*
X391256D01*
X391247Y122734D01*
X391234Y122731D01*
X391217D01*
X391190Y122729D01*
X391162Y122727D01*
X391125Y122725D01*
X391084D01*
X390406D01*
Y122910D01*
X391014D01*
X391016D01*
X391020D01*
X391027D01*
X391038D01*
X391062D01*
X391092Y122913D01*
X391125D01*
X391158Y122915D01*
X391186Y122917D01*
X391210Y122921D01*
X391212D01*
X391221Y122926D01*
X391234Y122930D01*
X391251Y122936D01*
X391269Y122947D01*
X391288Y122960D01*
X391306Y122976D01*
X391323Y122995D01*
X391326Y122997D01*
X391330Y123006D01*
X391336Y123017D01*
X391343Y123035D01*
X391352Y123054D01*
X391358Y123078D01*
X391363Y123104D01*
X391365Y123135D01*
Y123150D01*
X391363Y123165D01*
X391360Y123185D01*
X391354Y123209D01*
X391347Y123235D01*
X391336Y123264D01*
X391323Y123292D01*
X391321Y123296D01*
X391315Y123305D01*
X391306Y123318D01*
X391293Y123333D01*
X391276Y123351D01*
X391256Y123368D01*
X391234Y123383D01*
X391208Y123396D01*
X391203Y123399D01*
X391195Y123401D01*
X391177Y123405D01*
X391153Y123412D01*
X391123Y123418D01*
X391086Y123423D01*
X391042Y123425D01*
X390992Y123427D01*
X390406D01*
Y123612D01*
X391500D01*
Y123447D01*
D02*
G37*
G36*
X390983Y122498D02*
X391007Y122496D01*
X391034Y122494D01*
X391064Y122490D01*
X391097Y122483D01*
X391166Y122466D01*
X391203Y122455D01*
X391238Y122442D01*
X391276Y122426D01*
X391308Y122407D01*
X391341Y122385D01*
X391371Y122361D01*
X391374Y122359D01*
X391378Y122354D01*
X391385Y122348D01*
X391395Y122337D01*
X391406Y122322D01*
X391419Y122306D01*
X391432Y122289D01*
X391448Y122267D01*
X391461Y122243D01*
X391476Y122219D01*
X391500Y122160D01*
X391511Y122130D01*
X391517Y122097D01*
X391522Y122062D01*
X391524Y122027D01*
Y122019D01*
X391522Y122008D01*
Y121995D01*
X391520Y121979D01*
X391515Y121960D01*
X391504Y121916D01*
X391496Y121892D01*
X391485Y121868D01*
X391472Y121842D01*
X391456Y121818D01*
X391437Y121792D01*
X391415Y121768D01*
X391391Y121746D01*
X391363Y121724D01*
X391500D01*
Y121552D01*
X389991D01*
Y121738D01*
X390530D01*
X390528Y121740D01*
X390523Y121742D01*
X390517Y121748D01*
X390506Y121759D01*
X390495Y121770D01*
X390482Y121783D01*
X390469Y121801D01*
X390456Y121818D01*
X390427Y121862D01*
X390406Y121912D01*
X390395Y121940D01*
X390388Y121971D01*
X390384Y122003D01*
X390382Y122036D01*
Y122054D01*
X390384Y122073D01*
X390386Y122097D01*
X390393Y122125D01*
X390399Y122158D01*
X390410Y122193D01*
X390423Y122226D01*
X390425Y122230D01*
X390430Y122241D01*
X390441Y122258D01*
X390454Y122278D01*
X390469Y122302D01*
X390489Y122326D01*
X390512Y122352D01*
X390539Y122374D01*
X390541Y122376D01*
X390552Y122383D01*
X390567Y122394D01*
X390587Y122407D01*
X390613Y122422D01*
X390643Y122437D01*
X390678Y122452D01*
X390715Y122466D01*
X390717D01*
X390720Y122468D01*
X390726Y122470D01*
X390733Y122472D01*
X390754Y122476D01*
X390783Y122483D01*
X390815Y122490D01*
X390852Y122496D01*
X390894Y122498D01*
X390938Y122501D01*
X390940D01*
X390951D01*
X390964D01*
X390983Y122498D01*
D02*
G37*
G36*
X391034Y121332D02*
X391047Y121328D01*
X391064Y121321D01*
X391084Y121315D01*
X391108Y121306D01*
X391134Y121295D01*
X391162Y121282D01*
X391223Y121251D01*
X391284Y121212D01*
X391315Y121188D01*
X391345Y121164D01*
X391371Y121138D01*
X391398Y121107D01*
X391400Y121105D01*
X391404Y121101D01*
X391408Y121090D01*
X391417Y121079D01*
X391428Y121062D01*
X391439Y121044D01*
X391450Y121020D01*
X391461Y120996D01*
X391474Y120968D01*
X391485Y120937D01*
X391496Y120905D01*
X391507Y120870D01*
X391515Y120833D01*
X391520Y120793D01*
X391524Y120752D01*
X391526Y120709D01*
Y120685D01*
X391524Y120667D01*
Y120648D01*
X391522Y120624D01*
X391517Y120597D01*
X391513Y120567D01*
X391502Y120504D01*
X391485Y120438D01*
X391461Y120373D01*
X391445Y120342D01*
X391428Y120312D01*
X391426Y120310D01*
X391424Y120305D01*
X391417Y120297D01*
X391408Y120288D01*
X391400Y120275D01*
X391387Y120259D01*
X391371Y120242D01*
X391354Y120224D01*
X391334Y120207D01*
X391315Y120187D01*
X391265Y120148D01*
X391206Y120111D01*
X391140Y120079D01*
X391138D01*
X391132Y120074D01*
X391121Y120072D01*
X391108Y120065D01*
X391090Y120061D01*
X391068Y120054D01*
X391044Y120046D01*
X391018Y120039D01*
X390990Y120033D01*
X390957Y120024D01*
X390890Y120013D01*
X390813Y120004D01*
X390735Y120000D01*
X390733D01*
X390724D01*
X390711D01*
X390696Y120002D01*
X390674D01*
X390652Y120004D01*
X390624Y120007D01*
X390595Y120011D01*
X390532Y120022D01*
X390462Y120037D01*
X390393Y120059D01*
X390325Y120089D01*
X390323Y120092D01*
X390316Y120094D01*
X390307Y120098D01*
X390297Y120107D01*
X390281Y120115D01*
X390264Y120126D01*
X390225Y120155D01*
X390181Y120192D01*
X390138Y120235D01*
X390094Y120286D01*
X390057Y120344D01*
X390055Y120347D01*
X390053Y120353D01*
X390048Y120362D01*
X390042Y120373D01*
X390035Y120390D01*
X390029Y120408D01*
X390020Y120430D01*
X390011Y120453D01*
X390002Y120480D01*
X389994Y120508D01*
X389981Y120569D01*
X389970Y120639D01*
X389965Y120711D01*
Y120732D01*
X389967Y120748D01*
X389970Y120767D01*
X389972Y120791D01*
X389974Y120815D01*
X389981Y120844D01*
X389994Y120903D01*
X390013Y120968D01*
X390026Y121001D01*
X390042Y121031D01*
X390061Y121062D01*
X390081Y121092D01*
X390083Y121094D01*
X390085Y121099D01*
X390092Y121107D01*
X390103Y121118D01*
X390113Y121129D01*
X390129Y121144D01*
X390146Y121160D01*
X390164Y121177D01*
X390185Y121195D01*
X390212Y121212D01*
X390238Y121232D01*
X390266Y121249D01*
X390299Y121264D01*
X390332Y121282D01*
X390366Y121295D01*
X390406Y121308D01*
X390451Y121112D01*
X390449D01*
X390445Y121110D01*
X390436Y121105D01*
X390425Y121101D01*
X390412Y121097D01*
X390395Y121090D01*
X390360Y121073D01*
X390321Y121051D01*
X390281Y121025D01*
X390244Y120992D01*
X390212Y120957D01*
X390207Y120953D01*
X390198Y120940D01*
X390188Y120918D01*
X390172Y120889D01*
X390159Y120852D01*
X390146Y120811D01*
X390138Y120761D01*
X390135Y120706D01*
Y120689D01*
X390138Y120678D01*
Y120663D01*
X390140Y120645D01*
X390146Y120604D01*
X390155Y120558D01*
X390170Y120510D01*
X390192Y120460D01*
X390220Y120414D01*
Y120412D01*
X390225Y120410D01*
X390236Y120395D01*
X390253Y120375D01*
X390279Y120351D01*
X390312Y120323D01*
X390349Y120297D01*
X390395Y120273D01*
X390445Y120251D01*
X390447D01*
X390451Y120248D01*
X390458Y120246D01*
X390469Y120244D01*
X390482Y120240D01*
X390497Y120235D01*
X390534Y120229D01*
X390578Y120220D01*
X390626Y120212D01*
X390678Y120207D01*
X390735Y120205D01*
X390737D01*
X390743D01*
X390754D01*
X390768D01*
X390783Y120207D01*
X390802D01*
X390824Y120209D01*
X390848Y120212D01*
X390900Y120218D01*
X390957Y120229D01*
X391014Y120242D01*
X391071Y120259D01*
X391073D01*
X391077Y120262D01*
X391084Y120266D01*
X391094Y120270D01*
X391121Y120283D01*
X391151Y120303D01*
X391186Y120327D01*
X391223Y120358D01*
X391256Y120392D01*
X391286Y120434D01*
Y120436D01*
X391288Y120440D01*
X391293Y120447D01*
X391297Y120456D01*
X391302Y120466D01*
X391308Y120480D01*
X391321Y120510D01*
X391334Y120549D01*
X391345Y120593D01*
X391354Y120641D01*
X391356Y120691D01*
Y120706D01*
X391354Y120719D01*
Y120735D01*
X391352Y120750D01*
X391343Y120789D01*
X391332Y120835D01*
X391315Y120881D01*
X391291Y120929D01*
X391278Y120953D01*
X391260Y120975D01*
X391258Y120977D01*
X391256Y120979D01*
X391249Y120985D01*
X391243Y120994D01*
X391232Y121003D01*
X391219Y121014D01*
X391206Y121027D01*
X391188Y121038D01*
X391169Y121051D01*
X391147Y121066D01*
X391125Y121079D01*
X391099Y121092D01*
X391071Y121103D01*
X391040Y121114D01*
X391007Y121125D01*
X390972Y121134D01*
X391023Y121334D01*
X391025D01*
X391034Y121332D01*
D02*
G37*
G36*
X382500Y133847D02*
X382498D01*
X382489D01*
X382476D01*
X382459Y133850D01*
X382439Y133852D01*
X382417Y133856D01*
X382395Y133861D01*
X382371Y133869D01*
X382369D01*
X382367Y133871D01*
X382354Y133876D01*
X382334Y133885D01*
X382308Y133898D01*
X382278Y133915D01*
X382243Y133937D01*
X382208Y133961D01*
X382171Y133991D01*
X382169D01*
X382167Y133996D01*
X382153Y134007D01*
X382134Y134026D01*
X382105Y134055D01*
X382073Y134087D01*
X382033Y134129D01*
X381990Y134179D01*
X381944Y134233D01*
X381942Y134236D01*
X381935Y134244D01*
X381925Y134257D01*
X381911Y134273D01*
X381894Y134292D01*
X381874Y134316D01*
X381853Y134340D01*
X381829Y134369D01*
X381776Y134423D01*
X381724Y134478D01*
X381698Y134504D01*
X381672Y134528D01*
X381648Y134549D01*
X381624Y134567D01*
X381622D01*
X381619Y134571D01*
X381613Y134576D01*
X381604Y134580D01*
X381580Y134595D01*
X381552Y134613D01*
X381517Y134628D01*
X381480Y134643D01*
X381438Y134652D01*
X381399Y134656D01*
X381397D01*
X381395D01*
X381382Y134654D01*
X381360Y134652D01*
X381336Y134645D01*
X381305Y134637D01*
X381275Y134621D01*
X381244Y134602D01*
X381214Y134576D01*
X381209Y134571D01*
X381201Y134560D01*
X381190Y134545D01*
X381175Y134521D01*
X381161Y134491D01*
X381148Y134456D01*
X381140Y134414D01*
X381137Y134369D01*
Y134355D01*
X381140Y134347D01*
X381142Y134321D01*
X381148Y134290D01*
X381157Y134257D01*
X381172Y134220D01*
X381192Y134185D01*
X381218Y134153D01*
X381223Y134148D01*
X381233Y134140D01*
X381251Y134127D01*
X381277Y134114D01*
X381308Y134098D01*
X381347Y134085D01*
X381390Y134076D01*
X381440Y134072D01*
X381421Y133882D01*
X381419D01*
X381412Y133885D01*
X381401D01*
X381386Y133887D01*
X381369Y133891D01*
X381349Y133896D01*
X381325Y133902D01*
X381301Y133909D01*
X381249Y133926D01*
X381196Y133952D01*
X381170Y133967D01*
X381144Y133987D01*
X381120Y134007D01*
X381098Y134028D01*
X381096Y134031D01*
X381094Y134035D01*
X381087Y134042D01*
X381081Y134053D01*
X381072Y134065D01*
X381063Y134081D01*
X381052Y134098D01*
X381042Y134120D01*
X381031Y134144D01*
X381020Y134170D01*
X381011Y134198D01*
X381002Y134229D01*
X380996Y134262D01*
X380989Y134297D01*
X380987Y134334D01*
X380985Y134373D01*
Y134395D01*
X380987Y134410D01*
X380989Y134427D01*
X380991Y134449D01*
X380996Y134473D01*
X381000Y134497D01*
X381015Y134554D01*
X381037Y134610D01*
X381050Y134639D01*
X381066Y134667D01*
X381085Y134693D01*
X381107Y134717D01*
X381109Y134720D01*
X381111Y134724D01*
X381120Y134728D01*
X381129Y134737D01*
X381140Y134748D01*
X381155Y134759D01*
X381170Y134770D01*
X381190Y134783D01*
X381231Y134805D01*
X381284Y134826D01*
X381310Y134835D01*
X381340Y134839D01*
X381371Y134844D01*
X381403Y134846D01*
X381408D01*
X381419D01*
X381436Y134844D01*
X381460Y134842D01*
X381486Y134837D01*
X381517Y134828D01*
X381550Y134820D01*
X381582Y134807D01*
X381587Y134805D01*
X381597Y134800D01*
X381615Y134792D01*
X381639Y134778D01*
X381665Y134761D01*
X381698Y134739D01*
X381731Y134713D01*
X381768Y134683D01*
X381772Y134678D01*
X381785Y134667D01*
X381796Y134656D01*
X381807Y134645D01*
X381820Y134632D01*
X381837Y134615D01*
X381855Y134598D01*
X381874Y134576D01*
X381896Y134554D01*
X381920Y134528D01*
X381944Y134499D01*
X381972Y134469D01*
X382001Y134434D01*
X382031Y134399D01*
X382033Y134397D01*
X382038Y134392D01*
X382044Y134384D01*
X382053Y134373D01*
X382066Y134360D01*
X382079Y134345D01*
X382108Y134310D01*
X382140Y134273D01*
X382173Y134238D01*
X382201Y134207D01*
X382212Y134194D01*
X382223Y134183D01*
X382225Y134181D01*
X382232Y134175D01*
X382241Y134166D01*
X382254Y134155D01*
X382269Y134144D01*
X382284Y134131D01*
X382321Y134105D01*
Y134848D01*
X382500D01*
Y133847D01*
D02*
G37*
G36*
Y133549D02*
X381942Y133185D01*
X382066Y133056D01*
X382500D01*
Y132871D01*
X380991D01*
Y133056D01*
X381853D01*
X381406Y133494D01*
Y133736D01*
X381813Y133316D01*
X382500Y133778D01*
Y133549D01*
D02*
G37*
G36*
Y132398D02*
X380991D01*
Y132583D01*
X382500D01*
Y132398D01*
D02*
G37*
G36*
Y131947D02*
X382341D01*
X382343Y131944D01*
X382350Y131940D01*
X382358Y131933D01*
X382369Y131923D01*
X382382Y131910D01*
X382400Y131894D01*
X382415Y131877D01*
X382432Y131855D01*
X382450Y131831D01*
X382465Y131805D01*
X382480Y131776D01*
X382496Y131746D01*
X382506Y131711D01*
X382515Y131676D01*
X382522Y131637D01*
X382524Y131598D01*
Y131582D01*
X382522Y131563D01*
X382520Y131539D01*
X382515Y131511D01*
X382509Y131480D01*
X382500Y131449D01*
X382487Y131417D01*
X382485Y131412D01*
X382480Y131404D01*
X382472Y131388D01*
X382461Y131371D01*
X382448Y131349D01*
X382432Y131330D01*
X382415Y131310D01*
X382395Y131293D01*
X382393Y131290D01*
X382384Y131286D01*
X382374Y131280D01*
X382356Y131271D01*
X382336Y131260D01*
X382312Y131251D01*
X382286Y131242D01*
X382258Y131236D01*
X382256D01*
X382247Y131234D01*
X382234Y131231D01*
X382217D01*
X382190Y131229D01*
X382162Y131227D01*
X382125Y131225D01*
X382084D01*
X381406D01*
Y131410D01*
X382014D01*
X382016D01*
X382020D01*
X382027D01*
X382038D01*
X382062D01*
X382092Y131412D01*
X382125D01*
X382158Y131415D01*
X382186Y131417D01*
X382210Y131421D01*
X382212D01*
X382221Y131426D01*
X382234Y131430D01*
X382252Y131437D01*
X382269Y131447D01*
X382289Y131460D01*
X382306Y131476D01*
X382323Y131495D01*
X382326Y131498D01*
X382330Y131506D01*
X382336Y131517D01*
X382343Y131535D01*
X382352Y131554D01*
X382358Y131578D01*
X382363Y131604D01*
X382365Y131635D01*
Y131650D01*
X382363Y131665D01*
X382361Y131685D01*
X382354Y131709D01*
X382347Y131735D01*
X382336Y131764D01*
X382323Y131792D01*
X382321Y131796D01*
X382315Y131805D01*
X382306Y131818D01*
X382293Y131833D01*
X382276Y131851D01*
X382256Y131868D01*
X382234Y131883D01*
X382208Y131896D01*
X382204Y131899D01*
X382195Y131901D01*
X382177Y131905D01*
X382153Y131912D01*
X382123Y131918D01*
X382086Y131923D01*
X382042Y131925D01*
X381992Y131927D01*
X381406D01*
Y132112D01*
X382500D01*
Y131947D01*
D02*
G37*
G36*
X381983Y130998D02*
X382007Y130996D01*
X382033Y130994D01*
X382064Y130990D01*
X382097Y130983D01*
X382167Y130966D01*
X382204Y130955D01*
X382238Y130942D01*
X382276Y130926D01*
X382308Y130907D01*
X382341Y130885D01*
X382371Y130861D01*
X382374Y130859D01*
X382378Y130854D01*
X382384Y130848D01*
X382395Y130837D01*
X382406Y130822D01*
X382419Y130806D01*
X382432Y130789D01*
X382448Y130767D01*
X382461Y130743D01*
X382476Y130719D01*
X382500Y130660D01*
X382511Y130630D01*
X382517Y130597D01*
X382522Y130562D01*
X382524Y130527D01*
Y130519D01*
X382522Y130508D01*
Y130495D01*
X382520Y130479D01*
X382515Y130460D01*
X382504Y130416D01*
X382496Y130392D01*
X382485Y130368D01*
X382472Y130342D01*
X382456Y130318D01*
X382437Y130292D01*
X382415Y130268D01*
X382391Y130246D01*
X382363Y130224D01*
X382500D01*
Y130052D01*
X380991D01*
Y130237D01*
X381530D01*
X381528Y130240D01*
X381523Y130242D01*
X381517Y130248D01*
X381506Y130259D01*
X381495Y130270D01*
X381482Y130283D01*
X381469Y130301D01*
X381456Y130318D01*
X381427Y130362D01*
X381406Y130412D01*
X381395Y130440D01*
X381388Y130471D01*
X381384Y130503D01*
X381382Y130536D01*
Y130554D01*
X381384Y130573D01*
X381386Y130597D01*
X381393Y130625D01*
X381399Y130658D01*
X381410Y130693D01*
X381423Y130726D01*
X381425Y130730D01*
X381430Y130741D01*
X381440Y130759D01*
X381454Y130778D01*
X381469Y130802D01*
X381488Y130826D01*
X381512Y130852D01*
X381539Y130874D01*
X381541Y130876D01*
X381552Y130883D01*
X381567Y130894D01*
X381587Y130907D01*
X381613Y130922D01*
X381643Y130937D01*
X381678Y130953D01*
X381715Y130966D01*
X381717D01*
X381720Y130968D01*
X381726Y130970D01*
X381733Y130972D01*
X381754Y130976D01*
X381783Y130983D01*
X381816Y130990D01*
X381853Y130996D01*
X381894Y130998D01*
X381938Y131000D01*
X381940D01*
X381951D01*
X381964D01*
X381983Y130998D01*
D02*
G37*
G36*
X382033Y129832D02*
X382047Y129828D01*
X382064Y129821D01*
X382084Y129815D01*
X382108Y129806D01*
X382134Y129795D01*
X382162Y129782D01*
X382223Y129751D01*
X382284Y129712D01*
X382315Y129688D01*
X382345Y129664D01*
X382371Y129638D01*
X382398Y129607D01*
X382400Y129605D01*
X382404Y129601D01*
X382408Y129590D01*
X382417Y129579D01*
X382428Y129562D01*
X382439Y129544D01*
X382450Y129520D01*
X382461Y129496D01*
X382474Y129468D01*
X382485Y129437D01*
X382496Y129405D01*
X382506Y129370D01*
X382515Y129333D01*
X382520Y129294D01*
X382524Y129252D01*
X382526Y129209D01*
Y129184D01*
X382524Y129167D01*
Y129148D01*
X382522Y129123D01*
X382517Y129097D01*
X382513Y129067D01*
X382502Y129004D01*
X382485Y128938D01*
X382461Y128873D01*
X382446Y128842D01*
X382428Y128812D01*
X382426Y128810D01*
X382424Y128805D01*
X382417Y128797D01*
X382408Y128788D01*
X382400Y128775D01*
X382387Y128759D01*
X382371Y128742D01*
X382354Y128725D01*
X382334Y128707D01*
X382315Y128688D01*
X382265Y128648D01*
X382206Y128611D01*
X382140Y128578D01*
X382138D01*
X382132Y128574D01*
X382121Y128572D01*
X382108Y128565D01*
X382090Y128561D01*
X382068Y128554D01*
X382044Y128546D01*
X382018Y128539D01*
X381990Y128533D01*
X381957Y128524D01*
X381890Y128513D01*
X381813Y128504D01*
X381735Y128500D01*
X381733D01*
X381724D01*
X381711D01*
X381696Y128502D01*
X381674D01*
X381652Y128504D01*
X381624Y128507D01*
X381595Y128511D01*
X381532Y128522D01*
X381462Y128537D01*
X381393Y128559D01*
X381325Y128589D01*
X381323Y128592D01*
X381316Y128594D01*
X381308Y128598D01*
X381297Y128607D01*
X381281Y128615D01*
X381264Y128626D01*
X381225Y128655D01*
X381181Y128692D01*
X381137Y128735D01*
X381094Y128786D01*
X381057Y128844D01*
X381055Y128847D01*
X381052Y128853D01*
X381048Y128862D01*
X381042Y128873D01*
X381035Y128890D01*
X381029Y128908D01*
X381020Y128929D01*
X381011Y128953D01*
X381002Y128980D01*
X380994Y129008D01*
X380980Y129069D01*
X380970Y129139D01*
X380965Y129211D01*
Y129233D01*
X380967Y129248D01*
X380970Y129267D01*
X380972Y129291D01*
X380974Y129315D01*
X380980Y129344D01*
X380994Y129402D01*
X381013Y129468D01*
X381026Y129501D01*
X381042Y129531D01*
X381061Y129562D01*
X381081Y129592D01*
X381083Y129594D01*
X381085Y129599D01*
X381092Y129607D01*
X381103Y129618D01*
X381114Y129629D01*
X381129Y129645D01*
X381146Y129660D01*
X381164Y129677D01*
X381186Y129695D01*
X381212Y129712D01*
X381238Y129732D01*
X381266Y129749D01*
X381299Y129764D01*
X381331Y129782D01*
X381366Y129795D01*
X381406Y129808D01*
X381451Y129612D01*
X381449D01*
X381445Y129610D01*
X381436Y129605D01*
X381425Y129601D01*
X381412Y129596D01*
X381395Y129590D01*
X381360Y129573D01*
X381321Y129551D01*
X381281Y129525D01*
X381244Y129492D01*
X381212Y129457D01*
X381207Y129453D01*
X381199Y129440D01*
X381188Y129418D01*
X381172Y129389D01*
X381159Y129352D01*
X381146Y129311D01*
X381137Y129261D01*
X381135Y129206D01*
Y129189D01*
X381137Y129178D01*
Y129163D01*
X381140Y129145D01*
X381146Y129104D01*
X381155Y129058D01*
X381170Y129010D01*
X381192Y128960D01*
X381220Y128914D01*
Y128912D01*
X381225Y128910D01*
X381236Y128895D01*
X381253Y128875D01*
X381279Y128851D01*
X381312Y128823D01*
X381349Y128797D01*
X381395Y128772D01*
X381445Y128751D01*
X381447D01*
X381451Y128749D01*
X381458Y128746D01*
X381469Y128744D01*
X381482Y128740D01*
X381497Y128735D01*
X381534Y128729D01*
X381578Y128720D01*
X381626Y128711D01*
X381678Y128707D01*
X381735Y128705D01*
X381737D01*
X381744D01*
X381754D01*
X381768D01*
X381783Y128707D01*
X381802D01*
X381824Y128709D01*
X381848Y128711D01*
X381901Y128718D01*
X381957Y128729D01*
X382014Y128742D01*
X382070Y128759D01*
X382073D01*
X382077Y128762D01*
X382084Y128766D01*
X382095Y128770D01*
X382121Y128783D01*
X382151Y128803D01*
X382186Y128827D01*
X382223Y128858D01*
X382256Y128892D01*
X382286Y128934D01*
Y128936D01*
X382289Y128940D01*
X382293Y128947D01*
X382297Y128956D01*
X382302Y128966D01*
X382308Y128980D01*
X382321Y129010D01*
X382334Y129049D01*
X382345Y129093D01*
X382354Y129141D01*
X382356Y129191D01*
Y129206D01*
X382354Y129219D01*
Y129235D01*
X382352Y129250D01*
X382343Y129289D01*
X382332Y129335D01*
X382315Y129381D01*
X382291Y129429D01*
X382278Y129453D01*
X382260Y129474D01*
X382258Y129477D01*
X382256Y129479D01*
X382249Y129485D01*
X382243Y129494D01*
X382232Y129503D01*
X382219Y129514D01*
X382206Y129527D01*
X382188Y129538D01*
X382169Y129551D01*
X382147Y129566D01*
X382125Y129579D01*
X382099Y129592D01*
X382070Y129603D01*
X382040Y129614D01*
X382007Y129625D01*
X381972Y129634D01*
X382023Y129834D01*
X382025D01*
X382033Y129832D01*
D02*
G37*
G36*
X374500Y142386D02*
X373321D01*
X373323Y142384D01*
X373331Y142373D01*
X373345Y142360D01*
X373360Y142338D01*
X373379Y142314D01*
X373401Y142283D01*
X373425Y142249D01*
X373449Y142209D01*
Y142207D01*
X373451Y142205D01*
X373460Y142192D01*
X373471Y142170D01*
X373484Y142144D01*
X373499Y142113D01*
X373515Y142081D01*
X373530Y142048D01*
X373543Y142015D01*
X373364D01*
Y142018D01*
X373360Y142022D01*
X373358Y142031D01*
X373351Y142042D01*
X373345Y142055D01*
X373336Y142070D01*
X373314Y142107D01*
X373290Y142151D01*
X373260Y142194D01*
X373225Y142240D01*
X373188Y142286D01*
X373185Y142288D01*
X373183Y142290D01*
X373177Y142297D01*
X373170Y142305D01*
X373148Y142325D01*
X373122Y142351D01*
X373092Y142377D01*
X373057Y142406D01*
X373022Y142430D01*
X372985Y142451D01*
Y142571D01*
X374500D01*
Y142386D01*
D02*
G37*
G36*
Y141549D02*
X373942Y141185D01*
X374066Y141056D01*
X374500D01*
Y140871D01*
X372991D01*
Y141056D01*
X373852D01*
X373406Y141494D01*
Y141736D01*
X373813Y141316D01*
X374500Y141778D01*
Y141549D01*
D02*
G37*
G36*
Y140398D02*
X372991D01*
Y140583D01*
X374500D01*
Y140398D01*
D02*
G37*
G36*
Y139947D02*
X374341D01*
X374343Y139944D01*
X374350Y139940D01*
X374358Y139934D01*
X374369Y139923D01*
X374382Y139910D01*
X374400Y139894D01*
X374415Y139877D01*
X374432Y139855D01*
X374450Y139831D01*
X374465Y139805D01*
X374480Y139777D01*
X374496Y139746D01*
X374506Y139711D01*
X374515Y139676D01*
X374522Y139637D01*
X374524Y139598D01*
Y139583D01*
X374522Y139563D01*
X374520Y139539D01*
X374515Y139511D01*
X374509Y139480D01*
X374500Y139450D01*
X374487Y139417D01*
X374485Y139412D01*
X374480Y139404D01*
X374472Y139389D01*
X374461Y139371D01*
X374448Y139349D01*
X374432Y139330D01*
X374415Y139310D01*
X374395Y139293D01*
X374393Y139290D01*
X374384Y139286D01*
X374374Y139279D01*
X374356Y139271D01*
X374337Y139260D01*
X374312Y139251D01*
X374286Y139242D01*
X374258Y139236D01*
X374256D01*
X374247Y139234D01*
X374234Y139232D01*
X374217D01*
X374190Y139229D01*
X374162Y139227D01*
X374125Y139225D01*
X374084D01*
X373406D01*
Y139410D01*
X374014D01*
X374016D01*
X374020D01*
X374027D01*
X374038D01*
X374062D01*
X374092Y139412D01*
X374125D01*
X374158Y139415D01*
X374186Y139417D01*
X374210Y139421D01*
X374212D01*
X374221Y139426D01*
X374234Y139430D01*
X374252Y139436D01*
X374269Y139447D01*
X374289Y139460D01*
X374306Y139476D01*
X374323Y139495D01*
X374326Y139497D01*
X374330Y139506D01*
X374337Y139517D01*
X374343Y139535D01*
X374352Y139554D01*
X374358Y139578D01*
X374363Y139604D01*
X374365Y139635D01*
Y139650D01*
X374363Y139665D01*
X374360Y139685D01*
X374354Y139709D01*
X374347Y139735D01*
X374337Y139763D01*
X374323Y139792D01*
X374321Y139796D01*
X374315Y139805D01*
X374306Y139818D01*
X374293Y139833D01*
X374275Y139851D01*
X374256Y139868D01*
X374234Y139883D01*
X374208Y139896D01*
X374203Y139899D01*
X374195Y139901D01*
X374177Y139905D01*
X374153Y139912D01*
X374123Y139918D01*
X374086Y139923D01*
X374042Y139925D01*
X373992Y139927D01*
X373406D01*
Y140112D01*
X374500D01*
Y139947D01*
D02*
G37*
G36*
X373983Y138998D02*
X374007Y138996D01*
X374033Y138994D01*
X374064Y138990D01*
X374097Y138983D01*
X374166Y138966D01*
X374203Y138955D01*
X374238Y138942D01*
X374275Y138926D01*
X374308Y138907D01*
X374341Y138885D01*
X374371Y138861D01*
X374374Y138859D01*
X374378Y138854D01*
X374384Y138848D01*
X374395Y138837D01*
X374406Y138822D01*
X374419Y138806D01*
X374432Y138789D01*
X374448Y138767D01*
X374461Y138743D01*
X374476Y138719D01*
X374500Y138660D01*
X374511Y138630D01*
X374517Y138597D01*
X374522Y138562D01*
X374524Y138527D01*
Y138519D01*
X374522Y138508D01*
Y138495D01*
X374520Y138479D01*
X374515Y138460D01*
X374504Y138416D01*
X374496Y138392D01*
X374485Y138368D01*
X374472Y138342D01*
X374456Y138318D01*
X374437Y138292D01*
X374415Y138268D01*
X374391Y138246D01*
X374363Y138224D01*
X374500D01*
Y138052D01*
X372991D01*
Y138238D01*
X373530D01*
X373528Y138240D01*
X373523Y138242D01*
X373517Y138248D01*
X373506Y138259D01*
X373495Y138270D01*
X373482Y138283D01*
X373469Y138301D01*
X373456Y138318D01*
X373427Y138362D01*
X373406Y138412D01*
X373395Y138440D01*
X373388Y138471D01*
X373384Y138503D01*
X373382Y138536D01*
Y138554D01*
X373384Y138573D01*
X373386Y138597D01*
X373393Y138626D01*
X373399Y138658D01*
X373410Y138693D01*
X373423Y138726D01*
X373425Y138730D01*
X373430Y138741D01*
X373441Y138759D01*
X373454Y138778D01*
X373469Y138802D01*
X373488Y138826D01*
X373513Y138852D01*
X373539Y138874D01*
X373541Y138876D01*
X373552Y138883D01*
X373567Y138894D01*
X373587Y138907D01*
X373613Y138922D01*
X373643Y138937D01*
X373678Y138953D01*
X373715Y138966D01*
X373717D01*
X373720Y138968D01*
X373726Y138970D01*
X373733Y138972D01*
X373754Y138977D01*
X373783Y138983D01*
X373815Y138990D01*
X373852Y138996D01*
X373894Y138998D01*
X373938Y139000D01*
X373940D01*
X373951D01*
X373964D01*
X373983Y138998D01*
D02*
G37*
G36*
X374033Y137832D02*
X374047Y137828D01*
X374064Y137821D01*
X374084Y137814D01*
X374108Y137806D01*
X374134Y137795D01*
X374162Y137782D01*
X374223Y137751D01*
X374284Y137712D01*
X374315Y137688D01*
X374345Y137664D01*
X374371Y137638D01*
X374397Y137607D01*
X374400Y137605D01*
X374404Y137601D01*
X374408Y137590D01*
X374417Y137579D01*
X374428Y137562D01*
X374439Y137544D01*
X374450Y137520D01*
X374461Y137496D01*
X374474Y137468D01*
X374485Y137437D01*
X374496Y137405D01*
X374506Y137370D01*
X374515Y137333D01*
X374520Y137294D01*
X374524Y137252D01*
X374526Y137208D01*
Y137185D01*
X374524Y137167D01*
Y137147D01*
X374522Y137124D01*
X374517Y137097D01*
X374513Y137067D01*
X374502Y137004D01*
X374485Y136938D01*
X374461Y136873D01*
X374446Y136842D01*
X374428Y136812D01*
X374426Y136810D01*
X374424Y136805D01*
X374417Y136796D01*
X374408Y136788D01*
X374400Y136775D01*
X374387Y136759D01*
X374371Y136742D01*
X374354Y136724D01*
X374334Y136707D01*
X374315Y136688D01*
X374265Y136648D01*
X374206Y136611D01*
X374140Y136579D01*
X374138D01*
X374132Y136574D01*
X374121Y136572D01*
X374108Y136565D01*
X374090Y136561D01*
X374068Y136555D01*
X374044Y136546D01*
X374018Y136539D01*
X373990Y136533D01*
X373957Y136524D01*
X373890Y136513D01*
X373813Y136504D01*
X373735Y136500D01*
X373733D01*
X373724D01*
X373711D01*
X373696Y136502D01*
X373674D01*
X373652Y136504D01*
X373624Y136506D01*
X373595Y136511D01*
X373532Y136522D01*
X373462Y136537D01*
X373393Y136559D01*
X373325Y136589D01*
X373323Y136592D01*
X373316Y136594D01*
X373307Y136598D01*
X373297Y136607D01*
X373281Y136616D01*
X373264Y136626D01*
X373225Y136655D01*
X373181Y136692D01*
X373137Y136735D01*
X373094Y136786D01*
X373057Y136844D01*
X373055Y136847D01*
X373053Y136853D01*
X373048Y136862D01*
X373042Y136873D01*
X373035Y136890D01*
X373028Y136908D01*
X373020Y136930D01*
X373011Y136953D01*
X373002Y136980D01*
X372994Y137008D01*
X372980Y137069D01*
X372970Y137139D01*
X372965Y137211D01*
Y137232D01*
X372968Y137248D01*
X372970Y137267D01*
X372972Y137291D01*
X372974Y137315D01*
X372980Y137344D01*
X372994Y137402D01*
X373013Y137468D01*
X373026Y137501D01*
X373042Y137531D01*
X373061Y137562D01*
X373081Y137592D01*
X373083Y137594D01*
X373085Y137599D01*
X373092Y137607D01*
X373103Y137618D01*
X373113Y137629D01*
X373129Y137645D01*
X373146Y137660D01*
X373164Y137677D01*
X373185Y137695D01*
X373212Y137712D01*
X373238Y137732D01*
X373266Y137749D01*
X373299Y137764D01*
X373331Y137782D01*
X373366Y137795D01*
X373406Y137808D01*
X373451Y137612D01*
X373449D01*
X373445Y137610D01*
X373436Y137605D01*
X373425Y137601D01*
X373412Y137596D01*
X373395Y137590D01*
X373360Y137573D01*
X373321Y137551D01*
X373281Y137525D01*
X373244Y137492D01*
X373212Y137457D01*
X373207Y137453D01*
X373199Y137440D01*
X373188Y137418D01*
X373172Y137389D01*
X373159Y137352D01*
X373146Y137311D01*
X373137Y137261D01*
X373135Y137206D01*
Y137189D01*
X373137Y137178D01*
Y137163D01*
X373140Y137145D01*
X373146Y137104D01*
X373155Y137058D01*
X373170Y137010D01*
X373192Y136960D01*
X373220Y136914D01*
Y136912D01*
X373225Y136910D01*
X373236Y136895D01*
X373253Y136875D01*
X373279Y136851D01*
X373312Y136823D01*
X373349Y136796D01*
X373395Y136773D01*
X373445Y136751D01*
X373447D01*
X373451Y136749D01*
X373458Y136746D01*
X373469Y136744D01*
X373482Y136740D01*
X373497Y136735D01*
X373534Y136729D01*
X373578Y136720D01*
X373626Y136712D01*
X373678Y136707D01*
X373735Y136705D01*
X373737D01*
X373744D01*
X373754D01*
X373767D01*
X373783Y136707D01*
X373802D01*
X373824Y136709D01*
X373848Y136712D01*
X373901Y136718D01*
X373957Y136729D01*
X374014Y136742D01*
X374071Y136759D01*
X374073D01*
X374077Y136762D01*
X374084Y136766D01*
X374095Y136770D01*
X374121Y136783D01*
X374151Y136803D01*
X374186Y136827D01*
X374223Y136857D01*
X374256Y136892D01*
X374286Y136934D01*
Y136936D01*
X374289Y136940D01*
X374293Y136947D01*
X374297Y136956D01*
X374302Y136967D01*
X374308Y136980D01*
X374321Y137010D01*
X374334Y137049D01*
X374345Y137093D01*
X374354Y137141D01*
X374356Y137191D01*
Y137206D01*
X374354Y137219D01*
Y137235D01*
X374352Y137250D01*
X374343Y137289D01*
X374332Y137335D01*
X374315Y137381D01*
X374291Y137429D01*
X374278Y137453D01*
X374260Y137475D01*
X374258Y137477D01*
X374256Y137479D01*
X374249Y137485D01*
X374243Y137494D01*
X374232Y137503D01*
X374219Y137514D01*
X374206Y137527D01*
X374188Y137538D01*
X374169Y137551D01*
X374147Y137566D01*
X374125Y137579D01*
X374099Y137592D01*
X374071Y137603D01*
X374040Y137614D01*
X374007Y137625D01*
X373972Y137634D01*
X374023Y137834D01*
X374025D01*
X374033Y137832D01*
D02*
G37*
%LPC*%
G36*
X403946Y89931D02*
X403906D01*
X403863Y89928D01*
X403819Y89919D01*
X403778Y89905D01*
X403773Y89903D01*
X403764Y89897D01*
X403745Y89888D01*
X403721Y89873D01*
X403693Y89851D01*
X403658Y89825D01*
X403638Y89808D01*
X403617Y89788D01*
X403596Y89769D01*
X403349Y89523D01*
X404163Y88709D01*
X404416Y88962D01*
X404425Y88974D01*
X404447Y88999D01*
X404471Y89026D01*
X404496Y89057D01*
X404519Y89090D01*
X404536Y89119D01*
X404538Y89123D01*
X404544Y89133D01*
X404550Y89148D01*
X404558Y89168D01*
X404564Y89193D01*
X404570Y89218D01*
X404575Y89244D01*
X404578Y89271D01*
X404576Y89276D01*
Y89289D01*
X404575Y89309D01*
X404570Y89335D01*
X404562Y89367D01*
X404553Y89404D01*
X404539Y89443D01*
X404521Y89483D01*
X404519Y89484D01*
X404518Y89489D01*
X404515Y89495D01*
X404510Y89503D01*
X404504Y89512D01*
X404496Y89526D01*
X404488Y89540D01*
X404479Y89555D01*
X404453Y89591D01*
X404422Y89631D01*
X404385Y89674D01*
X404344Y89719D01*
X404342Y89720D01*
X404336Y89726D01*
X404328Y89734D01*
X404314Y89745D01*
X404300Y89759D01*
X404283Y89772D01*
X404263Y89789D01*
X404243Y89806D01*
X404194Y89840D01*
X404142Y89874D01*
X404088Y89900D01*
X404058Y89911D01*
X404032Y89919D01*
X404031Y89921D01*
X404024D01*
X404017Y89922D01*
X404007Y89925D01*
X403980Y89928D01*
X403946Y89931D01*
D02*
G37*
G36*
X396204Y239841D02*
X395729D01*
Y239341D01*
X396178D01*
X396204Y239344D01*
X396234Y239346D01*
X396269Y239348D01*
X396304Y239352D01*
X396339Y239359D01*
X396370Y239368D01*
X396374Y239370D01*
X396383Y239374D01*
X396396Y239381D01*
X396413Y239389D01*
X396433Y239403D01*
X396452Y239418D01*
X396472Y239437D01*
X396487Y239459D01*
X396489Y239461D01*
X396494Y239470D01*
X396500Y239483D01*
X396509Y239501D01*
X396516Y239520D01*
X396522Y239542D01*
X396527Y239568D01*
X396529Y239594D01*
Y239597D01*
Y239599D01*
X396527Y239612D01*
X396524Y239631D01*
X396520Y239658D01*
X396509Y239684D01*
X396496Y239714D01*
X396476Y239743D01*
X396450Y239771D01*
X396446Y239773D01*
X396435Y239782D01*
X396417Y239793D01*
X396389Y239806D01*
X396356Y239819D01*
X396313Y239830D01*
X396263Y239839D01*
X396204Y239841D01*
D02*
G37*
G36*
X397473Y239466D02*
X397460D01*
X397451Y239464D01*
X397427Y239461D01*
X397398Y239455D01*
X397364Y239444D01*
X397326Y239429D01*
X397292Y239407D01*
X397257Y239378D01*
X397252Y239374D01*
X397244Y239363D01*
X397228Y239344D01*
X397213Y239317D01*
X397196Y239287D01*
X397181Y239248D01*
X397167Y239202D01*
X397161Y239152D01*
X397773D01*
Y239154D01*
Y239158D01*
X397771Y239165D01*
Y239174D01*
X397767Y239200D01*
X397760Y239228D01*
X397749Y239263D01*
X397739Y239296D01*
X397721Y239328D01*
X397702Y239357D01*
Y239359D01*
X397697Y239361D01*
X397686Y239374D01*
X397667Y239392D01*
X397640Y239411D01*
X397608Y239431D01*
X397568Y239448D01*
X397523Y239461D01*
X397499Y239464D01*
X397473Y239466D01*
D02*
G37*
G36*
X393012D02*
X392999D01*
X392988Y239464D01*
X392964Y239461D01*
X392932Y239453D01*
X392895Y239440D01*
X392855Y239422D01*
X392818Y239396D01*
X392799Y239378D01*
X392781Y239361D01*
Y239359D01*
X392777Y239357D01*
X392773Y239350D01*
X392766Y239341D01*
X392759Y239331D01*
X392753Y239317D01*
X392744Y239300D01*
X392735Y239283D01*
X392727Y239261D01*
X392718Y239239D01*
X392711Y239213D01*
X392705Y239184D01*
X392698Y239154D01*
X392694Y239121D01*
X392692Y239084D01*
X392690Y239047D01*
Y239045D01*
Y239038D01*
Y239028D01*
X392692Y239012D01*
Y238995D01*
X392694Y238975D01*
X392701Y238930D01*
X392711Y238877D01*
X392729Y238825D01*
X392751Y238775D01*
X392766Y238753D01*
X392781Y238731D01*
X392783D01*
X392786Y238727D01*
X392799Y238716D01*
X392818Y238698D01*
X392844Y238681D01*
X392877Y238661D01*
X392916Y238644D01*
X392962Y238633D01*
X392986Y238631D01*
X393012Y238629D01*
X393025D01*
X393036Y238631D01*
X393060Y238635D01*
X393093Y238642D01*
X393128Y238655D01*
X393167Y238672D01*
X393204Y238698D01*
X393224Y238716D01*
X393241Y238733D01*
X393243Y238735D01*
X393246Y238738D01*
X393250Y238744D01*
X393256Y238753D01*
X393263Y238764D01*
X393272Y238777D01*
X393280Y238794D01*
X393289Y238812D01*
X393298Y238833D01*
X393304Y238858D01*
X393313Y238884D01*
X393320Y238912D01*
X393326Y238945D01*
X393331Y238977D01*
X393335Y239015D01*
Y239054D01*
Y239056D01*
Y239062D01*
Y239073D01*
X393333Y239086D01*
Y239104D01*
X393331Y239124D01*
X393324Y239169D01*
X393313Y239217D01*
X393296Y239269D01*
X393272Y239317D01*
X393259Y239341D01*
X393241Y239361D01*
Y239363D01*
X393237Y239366D01*
X393224Y239378D01*
X393204Y239394D01*
X393178Y239413D01*
X393145Y239433D01*
X393106Y239451D01*
X393062Y239461D01*
X393039Y239464D01*
X393012Y239466D01*
D02*
G37*
G36*
X398635D02*
X398600D01*
X398591Y239464D01*
X398567Y239461D01*
X398539Y239453D01*
X398504Y239442D01*
X398469Y239422D01*
X398434Y239398D01*
X398416Y239381D01*
X398399Y239363D01*
Y239361D01*
X398395Y239359D01*
X398390Y239352D01*
X398386Y239344D01*
X398379Y239335D01*
X398373Y239322D01*
X398364Y239307D01*
X398358Y239289D01*
X398349Y239269D01*
X398340Y239246D01*
X398334Y239222D01*
X398327Y239195D01*
X398323Y239165D01*
X398318Y239134D01*
X398314Y239102D01*
Y239065D01*
Y239062D01*
Y239056D01*
Y239045D01*
X398316Y239030D01*
Y239012D01*
X398318Y238990D01*
X398325Y238945D01*
X398336Y238892D01*
X398349Y238842D01*
X398371Y238792D01*
X398384Y238770D01*
X398399Y238751D01*
X398403Y238746D01*
X398414Y238735D01*
X398432Y238720D01*
X398458Y238703D01*
X398488Y238683D01*
X398526Y238668D01*
X398567Y238657D01*
X398589Y238655D01*
X398613Y238653D01*
X398626D01*
X398635Y238655D01*
X398658Y238657D01*
X398689Y238666D01*
X398722Y238677D01*
X398759Y238694D01*
X398794Y238718D01*
X398811Y238733D01*
X398829Y238751D01*
Y238753D01*
X398833Y238755D01*
X398837Y238762D01*
X398842Y238770D01*
X398848Y238779D01*
X398857Y238792D01*
X398863Y238807D01*
X398872Y238827D01*
X398881Y238847D01*
X398887Y238868D01*
X398896Y238895D01*
X398903Y238923D01*
X398907Y238951D01*
X398911Y238984D01*
X398916Y239021D01*
Y239058D01*
Y239060D01*
Y239067D01*
Y239078D01*
X398914Y239091D01*
Y239108D01*
X398911Y239128D01*
X398905Y239171D01*
X398894Y239222D01*
X398879Y239272D01*
X398857Y239322D01*
X398842Y239344D01*
X398826Y239363D01*
Y239366D01*
X398822Y239368D01*
X398811Y239378D01*
X398792Y239396D01*
X398765Y239416D01*
X398735Y239433D01*
X398698Y239451D01*
X398656Y239461D01*
X398635Y239466D01*
D02*
G37*
G36*
X411251Y239347D02*
X411238D01*
X411230Y239345D01*
X411206Y239343D01*
X411175Y239334D01*
X411142Y239323D01*
X411105Y239306D01*
X411071Y239282D01*
X411053Y239267D01*
X411036Y239249D01*
Y239247D01*
X411031Y239245D01*
X411027Y239238D01*
X411023Y239230D01*
X411016Y239221D01*
X411007Y239208D01*
X411001Y239193D01*
X410992Y239173D01*
X410983Y239153D01*
X410977Y239132D01*
X410968Y239105D01*
X410962Y239077D01*
X410957Y239049D01*
X410953Y239016D01*
X410949Y238979D01*
Y238942D01*
Y238940D01*
Y238933D01*
Y238922D01*
X410951Y238909D01*
Y238892D01*
X410953Y238872D01*
X410959Y238829D01*
X410970Y238778D01*
X410986Y238728D01*
X411007Y238678D01*
X411023Y238656D01*
X411038Y238637D01*
Y238634D01*
X411042Y238632D01*
X411053Y238621D01*
X411073Y238604D01*
X411099Y238584D01*
X411130Y238567D01*
X411166Y238549D01*
X411208Y238539D01*
X411230Y238534D01*
X411265D01*
X411273Y238536D01*
X411297Y238539D01*
X411326Y238547D01*
X411361Y238558D01*
X411395Y238578D01*
X411430Y238602D01*
X411448Y238619D01*
X411465Y238637D01*
Y238639D01*
X411470Y238641D01*
X411474Y238648D01*
X411478Y238656D01*
X411485Y238665D01*
X411491Y238678D01*
X411500Y238693D01*
X411507Y238711D01*
X411515Y238731D01*
X411524Y238754D01*
X411531Y238778D01*
X411537Y238805D01*
X411542Y238835D01*
X411546Y238866D01*
X411550Y238898D01*
Y238935D01*
Y238938D01*
Y238944D01*
Y238955D01*
X411548Y238970D01*
Y238988D01*
X411546Y239009D01*
X411539Y239055D01*
X411528Y239108D01*
X411515Y239158D01*
X411493Y239208D01*
X411480Y239230D01*
X411465Y239249D01*
X411461Y239254D01*
X411450Y239265D01*
X411433Y239280D01*
X411406Y239297D01*
X411376Y239317D01*
X411339Y239332D01*
X411297Y239343D01*
X411275Y239345D01*
X411251Y239347D01*
D02*
G37*
G36*
X414136Y238658D02*
X413687D01*
X413660Y238656D01*
X413630Y238654D01*
X413595Y238652D01*
X413560Y238648D01*
X413525Y238641D01*
X413495Y238632D01*
X413490Y238630D01*
X413482Y238626D01*
X413469Y238619D01*
X413451Y238611D01*
X413432Y238597D01*
X413412Y238582D01*
X413392Y238563D01*
X413377Y238541D01*
X413375Y238539D01*
X413371Y238530D01*
X413364Y238517D01*
X413355Y238499D01*
X413349Y238480D01*
X413342Y238458D01*
X413338Y238432D01*
X413336Y238406D01*
Y238404D01*
Y238401D01*
X413338Y238388D01*
X413340Y238369D01*
X413344Y238342D01*
X413355Y238316D01*
X413368Y238286D01*
X413388Y238257D01*
X413414Y238229D01*
X413418Y238227D01*
X413429Y238218D01*
X413447Y238207D01*
X413475Y238194D01*
X413508Y238181D01*
X413551Y238170D01*
X413602Y238161D01*
X413660Y238159D01*
X414136D01*
Y238658D01*
D02*
G37*
G36*
X412703Y238848D02*
X412091D01*
Y238846D01*
Y238842D01*
X412093Y238835D01*
Y238826D01*
X412097Y238800D01*
X412104Y238772D01*
X412115Y238737D01*
X412126Y238704D01*
X412143Y238672D01*
X412163Y238643D01*
Y238641D01*
X412167Y238639D01*
X412178Y238626D01*
X412198Y238608D01*
X412224Y238589D01*
X412256Y238569D01*
X412296Y238552D01*
X412341Y238539D01*
X412365Y238536D01*
X412392Y238534D01*
X412405D01*
X412414Y238536D01*
X412437Y238539D01*
X412466Y238545D01*
X412501Y238556D01*
X412538Y238571D01*
X412573Y238593D01*
X412607Y238621D01*
X412612Y238626D01*
X412621Y238637D01*
X412636Y238656D01*
X412651Y238683D01*
X412669Y238713D01*
X412684Y238752D01*
X412697Y238798D01*
X412703Y238848D01*
D02*
G37*
G36*
X390990Y122311D02*
X390953D01*
X390951D01*
X390944D01*
X390933D01*
X390918Y122309D01*
X390900D01*
X390879Y122306D01*
X390833Y122300D01*
X390783Y122291D01*
X390728Y122276D01*
X390680Y122254D01*
X390656Y122241D01*
X390637Y122226D01*
X390634D01*
X390632Y122221D01*
X390621Y122211D01*
X390604Y122193D01*
X390584Y122169D01*
X390567Y122139D01*
X390549Y122104D01*
X390539Y122062D01*
X390534Y122040D01*
Y122008D01*
X390536Y121999D01*
X390541Y121975D01*
X390547Y121947D01*
X390560Y121914D01*
X390580Y121879D01*
X390591Y121862D01*
X390606Y121844D01*
X390621Y121827D01*
X390641Y121809D01*
X390643D01*
X390645Y121805D01*
X390652Y121801D01*
X390661Y121796D01*
X390672Y121790D01*
X390685Y121781D01*
X390700Y121774D01*
X390717Y121766D01*
X390739Y121757D01*
X390761Y121750D01*
X390787Y121742D01*
X390813Y121735D01*
X390844Y121731D01*
X390877Y121727D01*
X390909Y121722D01*
X390946D01*
X390949D01*
X390955D01*
X390966D01*
X390979D01*
X390994Y121724D01*
X391014D01*
X391055Y121729D01*
X391101Y121735D01*
X391149Y121744D01*
X391193Y121757D01*
X391212Y121766D01*
X391230Y121774D01*
X391232D01*
X391236Y121779D01*
X391243Y121783D01*
X391251Y121790D01*
X391276Y121809D01*
X391299Y121838D01*
X391326Y121870D01*
X391350Y121912D01*
X391358Y121934D01*
X391365Y121960D01*
X391369Y121984D01*
X391371Y122012D01*
Y122023D01*
X391369Y122032D01*
X391365Y122056D01*
X391358Y122084D01*
X391345Y122117D01*
X391328Y122152D01*
X391302Y122187D01*
X391284Y122204D01*
X391267Y122221D01*
X391265D01*
X391262Y122226D01*
X391256Y122230D01*
X391247Y122234D01*
X391236Y122243D01*
X391223Y122250D01*
X391206Y122258D01*
X391188Y122267D01*
X391166Y122274D01*
X391145Y122283D01*
X391119Y122291D01*
X391090Y122298D01*
X391060Y122302D01*
X391027Y122306D01*
X390990Y122311D01*
D02*
G37*
G36*
X381990Y130811D02*
X381953D01*
X381951D01*
X381944D01*
X381933D01*
X381918Y130809D01*
X381901D01*
X381879Y130806D01*
X381833Y130800D01*
X381783Y130791D01*
X381728Y130776D01*
X381680Y130754D01*
X381656Y130741D01*
X381637Y130726D01*
X381634D01*
X381632Y130721D01*
X381622Y130710D01*
X381604Y130693D01*
X381584Y130669D01*
X381567Y130639D01*
X381550Y130604D01*
X381539Y130562D01*
X381534Y130541D01*
Y130508D01*
X381536Y130499D01*
X381541Y130475D01*
X381547Y130447D01*
X381560Y130414D01*
X381580Y130379D01*
X381591Y130362D01*
X381606Y130344D01*
X381622Y130327D01*
X381641Y130309D01*
X381643D01*
X381645Y130305D01*
X381652Y130301D01*
X381661Y130296D01*
X381672Y130290D01*
X381685Y130281D01*
X381700Y130274D01*
X381717Y130266D01*
X381739Y130257D01*
X381761Y130251D01*
X381787Y130242D01*
X381813Y130235D01*
X381844Y130231D01*
X381876Y130227D01*
X381909Y130222D01*
X381946D01*
X381948D01*
X381955D01*
X381966D01*
X381979D01*
X381994Y130224D01*
X382014D01*
X382055Y130229D01*
X382101Y130235D01*
X382149Y130244D01*
X382193Y130257D01*
X382212Y130266D01*
X382230Y130274D01*
X382232D01*
X382236Y130279D01*
X382243Y130283D01*
X382252Y130290D01*
X382276Y130309D01*
X382299Y130338D01*
X382326Y130370D01*
X382350Y130412D01*
X382358Y130434D01*
X382365Y130460D01*
X382369Y130484D01*
X382371Y130512D01*
Y130523D01*
X382369Y130532D01*
X382365Y130556D01*
X382358Y130584D01*
X382345Y130617D01*
X382328Y130652D01*
X382302Y130686D01*
X382284Y130704D01*
X382267Y130721D01*
X382265D01*
X382262Y130726D01*
X382256Y130730D01*
X382247Y130735D01*
X382236Y130743D01*
X382223Y130750D01*
X382206Y130759D01*
X382188Y130767D01*
X382167Y130774D01*
X382145Y130782D01*
X382119Y130791D01*
X382090Y130798D01*
X382060Y130802D01*
X382027Y130806D01*
X381990Y130811D01*
D02*
G37*
G36*
X373990Y138811D02*
X373953D01*
X373951D01*
X373944D01*
X373933D01*
X373918Y138809D01*
X373901D01*
X373879Y138806D01*
X373833Y138800D01*
X373783Y138791D01*
X373728Y138776D01*
X373680Y138754D01*
X373656Y138741D01*
X373637Y138726D01*
X373635D01*
X373632Y138721D01*
X373622Y138710D01*
X373604Y138693D01*
X373584Y138669D01*
X373567Y138639D01*
X373550Y138604D01*
X373539Y138562D01*
X373534Y138540D01*
Y138508D01*
X373536Y138499D01*
X373541Y138475D01*
X373547Y138447D01*
X373560Y138414D01*
X373580Y138379D01*
X373591Y138362D01*
X373606Y138344D01*
X373622Y138327D01*
X373641Y138309D01*
X373643D01*
X373645Y138305D01*
X373652Y138301D01*
X373661Y138296D01*
X373672Y138290D01*
X373685Y138281D01*
X373700Y138275D01*
X373717Y138266D01*
X373739Y138257D01*
X373761Y138251D01*
X373787Y138242D01*
X373813Y138235D01*
X373844Y138231D01*
X373877Y138227D01*
X373909Y138222D01*
X373946D01*
X373949D01*
X373955D01*
X373966D01*
X373979D01*
X373994Y138224D01*
X374014D01*
X374055Y138229D01*
X374101Y138235D01*
X374149Y138244D01*
X374193Y138257D01*
X374212Y138266D01*
X374230Y138275D01*
X374232D01*
X374236Y138279D01*
X374243Y138283D01*
X374252Y138290D01*
X374275Y138309D01*
X374299Y138338D01*
X374326Y138370D01*
X374350Y138412D01*
X374358Y138434D01*
X374365Y138460D01*
X374369Y138484D01*
X374371Y138512D01*
Y138523D01*
X374369Y138532D01*
X374365Y138556D01*
X374358Y138584D01*
X374345Y138617D01*
X374328Y138652D01*
X374302Y138687D01*
X374284Y138704D01*
X374267Y138721D01*
X374265D01*
X374262Y138726D01*
X374256Y138730D01*
X374247Y138734D01*
X374236Y138743D01*
X374223Y138750D01*
X374206Y138759D01*
X374188Y138767D01*
X374166Y138774D01*
X374145Y138783D01*
X374118Y138791D01*
X374090Y138798D01*
X374060Y138802D01*
X374027Y138806D01*
X373990Y138811D01*
D02*
G37*
%LPD*%
M02*
