G04*
G04 #@! TF.GenerationSoftware,Altium Limited,Altium Designer,22.1.2 (22)*
G04*
G04 Layer_Physical_Order=2*
G04 Layer_Color=16711680*
%FSLAX25Y25*%
%MOIN*%
G70*
G04*
G04 #@! TF.SameCoordinates,2374D94A-E5D5-4E5D-BBDB-F5A8C7ADDA7F*
G04*
G04*
G04 #@! TF.FilePolarity,Positive*
G04*
G01*
G75*
%ADD15C,0.01000*%
%ADD51C,0.18000*%
%ADD52O,0.08661X0.17323*%
%ADD53O,0.07087X0.14173*%
%ADD54O,0.05937X0.11874*%
%ADD55C,0.03937*%
%ADD56P,0.05568X4X90.0*%
%ADD57R,0.04921X0.04921*%
%ADD58C,0.04921*%
%ADD59C,0.05906*%
%ADD60R,0.05906X0.05906*%
%ADD61R,0.05622X0.05622*%
%ADD62C,0.05622*%
%ADD63C,0.12898*%
%ADD64R,0.05622X0.05622*%
%ADD65R,0.04795X0.04795*%
%ADD66C,0.04795*%
%ADD67R,0.07323X0.07323*%
%ADD68C,0.07323*%
%ADD69C,0.05000*%
G36*
X500000Y299000D02*
Y104500D01*
X395500Y0D01*
X0D01*
Y300000D01*
X499000D01*
X500000Y299000D01*
D02*
G37*
%LPC*%
G36*
X450985Y290000D02*
X449015D01*
X447083Y289616D01*
X445263Y288862D01*
X443625Y287768D01*
X442233Y286375D01*
X441138Y284737D01*
X440384Y282917D01*
X440000Y280985D01*
Y279015D01*
X440384Y277083D01*
X441138Y275263D01*
X442233Y273625D01*
X443625Y272233D01*
X445263Y271138D01*
X447083Y270384D01*
X449015Y270000D01*
X450985D01*
X452917Y270384D01*
X454737Y271138D01*
X456375Y272233D01*
X457767Y273625D01*
X458862Y275263D01*
X459616Y277083D01*
X460000Y279015D01*
Y280985D01*
X459616Y282917D01*
X458862Y284737D01*
X457767Y286375D01*
X456375Y287768D01*
X454737Y288862D01*
X452917Y289616D01*
X450985Y290000D01*
D02*
G37*
G36*
X380157Y272274D02*
Y264714D01*
X384240D01*
Y267757D01*
X384084Y268943D01*
X383626Y270048D01*
X382898Y270997D01*
X381949Y271726D01*
X380843Y272183D01*
X380157Y272274D01*
D02*
G37*
G36*
X379157D02*
X378471Y272183D01*
X377366Y271726D01*
X376417Y270997D01*
X375689Y270048D01*
X375231Y268943D01*
X375075Y267757D01*
Y264714D01*
X379157D01*
Y272274D01*
D02*
G37*
G36*
X260100Y266949D02*
X258633D01*
X257193Y266663D01*
X255838Y266101D01*
X254618Y265286D01*
X253580Y264248D01*
X252765Y263028D01*
X252204Y261673D01*
X251917Y260234D01*
Y258766D01*
X251981Y258446D01*
X251858Y258381D01*
X251508Y258261D01*
X251068Y258555D01*
X250483Y258671D01*
X228032D01*
X227446Y258555D01*
X226950Y258223D01*
X221126Y252400D01*
X220222Y252642D01*
X220220D01*
Y248831D01*
X219220D01*
Y252642D01*
X219219D01*
X218249Y252382D01*
X217380Y251880D01*
X216671Y251171D01*
X216203Y250360D01*
X167103D01*
X163181Y254281D01*
X162685Y254613D01*
X162100Y254729D01*
X134590D01*
X134004Y254613D01*
X133508Y254281D01*
X131626Y252400D01*
X130722Y252642D01*
X130720D01*
Y249331D01*
X134031D01*
Y249332D01*
X133789Y250237D01*
X135223Y251671D01*
X136860D01*
X137051Y251209D01*
X137013Y251171D01*
X136512Y250302D01*
X136252Y249332D01*
Y248329D01*
X136512Y247360D01*
X137013Y246491D01*
X137723Y245781D01*
X138592Y245280D01*
X139561Y245020D01*
X140565D01*
X141534Y245280D01*
X142403Y245781D01*
X143113Y246491D01*
X143614Y247360D01*
X143741Y247833D01*
X144259D01*
X144386Y247360D01*
X144887Y246491D01*
X145597Y245781D01*
X146466Y245280D01*
X147435Y245020D01*
X148439D01*
X149408Y245280D01*
X150277Y245781D01*
X150987Y246491D01*
X151488Y247360D01*
X151748Y248329D01*
Y249332D01*
X151488Y250302D01*
X150987Y251171D01*
X150949Y251209D01*
X151140Y251671D01*
X153969D01*
Y247183D01*
X140215Y233429D01*
X86081D01*
X72328Y247183D01*
Y252642D01*
X64706D01*
Y245669D01*
X64206Y245462D01*
X62243Y247425D01*
X62485Y248329D01*
Y249332D01*
X62226Y250302D01*
X61724Y251171D01*
X61014Y251880D01*
X60145Y252382D01*
X59176Y252642D01*
X58173D01*
X57203Y252382D01*
X56334Y251880D01*
X55625Y251171D01*
X55123Y250302D01*
X54996Y249828D01*
X54479D01*
X54352Y250302D01*
X53850Y251171D01*
X53140Y251880D01*
X52271Y252382D01*
X51302Y252642D01*
X50299D01*
X49329Y252382D01*
X48460Y251880D01*
X47751Y251171D01*
X47249Y250302D01*
X46989Y249332D01*
Y248329D01*
X47249Y247360D01*
X47751Y246491D01*
X48460Y245781D01*
X49329Y245280D01*
X50299Y245020D01*
X51302D01*
X52206Y245262D01*
X148673Y148796D01*
X148414Y148347D01*
X148020Y148453D01*
X146980D01*
X145974Y148183D01*
X145073Y147663D01*
X144337Y146927D01*
X143817Y146026D01*
X143547Y145020D01*
Y143980D01*
X143817Y142974D01*
X144337Y142073D01*
X145073Y141337D01*
X145974Y140817D01*
X146980Y140547D01*
X148020D01*
X149026Y140817D01*
X149927Y141337D01*
X150663Y142073D01*
X150971Y142606D01*
X151471Y142472D01*
Y140000D01*
X151587Y139415D01*
X151919Y138919D01*
X160346Y130491D01*
X160154Y130029D01*
X94134D01*
X81185Y142978D01*
X81453Y143980D01*
Y145020D01*
X81183Y146026D01*
X80663Y146927D01*
X79927Y147663D01*
X79026Y148183D01*
X78020Y148453D01*
X76980D01*
X76082Y148212D01*
X75810Y148572D01*
X75788Y148625D01*
X76534Y149371D01*
X80467D01*
X83815Y146022D01*
X83547Y145020D01*
Y143980D01*
X83817Y142974D01*
X84337Y142073D01*
X85073Y141337D01*
X85974Y140817D01*
X86980Y140547D01*
X88020D01*
X89026Y140817D01*
X89927Y141337D01*
X90663Y142073D01*
X91183Y142974D01*
X91453Y143980D01*
Y145020D01*
X91183Y146026D01*
X90663Y146927D01*
X89927Y147663D01*
X89026Y148183D01*
X88020Y148453D01*
X86980D01*
X85978Y148185D01*
X83054Y151109D01*
X83246Y151571D01*
X98267D01*
X103815Y146022D01*
X103547Y145020D01*
Y143980D01*
X103817Y142974D01*
X104337Y142073D01*
X105073Y141337D01*
X105974Y140817D01*
X106980Y140547D01*
X108020D01*
X109026Y140817D01*
X109927Y141337D01*
X110663Y142073D01*
X111183Y142974D01*
X111453Y143980D01*
Y145020D01*
X111183Y146026D01*
X110663Y146927D01*
X109927Y147663D01*
X109026Y148183D01*
X108020Y148453D01*
X106980D01*
X105978Y148185D01*
X99981Y154181D01*
X99485Y154513D01*
X98900Y154629D01*
X58100D01*
X57515Y154513D01*
X57019Y154181D01*
X51919Y149081D01*
X51587Y148585D01*
X51471Y148000D01*
Y146528D01*
X50971Y146394D01*
X50663Y146927D01*
X49927Y147663D01*
X49026Y148183D01*
X48020Y148453D01*
X46980D01*
X45974Y148183D01*
X45073Y147663D01*
X44337Y146927D01*
X43817Y146026D01*
X43547Y145020D01*
Y143980D01*
X43817Y142974D01*
X44337Y142073D01*
X45073Y141337D01*
X45971Y140819D01*
Y122100D01*
X46087Y121515D01*
X46419Y121019D01*
X63919Y103519D01*
X64415Y103187D01*
X65000Y103071D01*
X211260D01*
X211496Y102571D01*
X211242Y102129D01*
X60659D01*
X60301Y102749D01*
X59649Y103401D01*
X58851Y103861D01*
X57961Y104100D01*
X57039D01*
X56149Y103861D01*
X55351Y103401D01*
X54699Y102749D01*
X54238Y101951D01*
X54000Y101061D01*
Y100139D01*
X54238Y99249D01*
X54699Y98451D01*
X55351Y97799D01*
X56149Y97338D01*
X57039Y97100D01*
X57961D01*
X58851Y97338D01*
X59649Y97799D01*
X60301Y98451D01*
X60659Y99071D01*
X211242D01*
X211599Y98451D01*
X212251Y97799D01*
X213049Y97338D01*
X213939Y97100D01*
X214861D01*
X215751Y97338D01*
X216549Y97799D01*
X217201Y98451D01*
X217660Y99247D01*
X217667Y99249D01*
X218178Y99247D01*
X218338Y98649D01*
X218799Y97851D01*
X219451Y97199D01*
X220249Y96738D01*
X221139Y96500D01*
X222061D01*
X222951Y96738D01*
X223749Y97199D01*
X224401Y97851D01*
X224862Y98649D01*
X225100Y99539D01*
Y100461D01*
X224862Y101351D01*
X224401Y102149D01*
X223749Y102801D01*
X222951Y103261D01*
X222061Y103500D01*
X221139D01*
X220448Y103315D01*
X219154Y104609D01*
X219346Y105071D01*
X246967D01*
X252619Y99419D01*
X253115Y99087D01*
X253700Y98971D01*
X330923D01*
X331142Y98471D01*
X330775Y97836D01*
X330539Y96956D01*
Y96044D01*
X330775Y95164D01*
X331231Y94375D01*
X331875Y93731D01*
X332664Y93275D01*
X333544Y93039D01*
X334456D01*
X335336Y93275D01*
X336125Y93731D01*
X336769Y94375D01*
X337225Y95164D01*
X337461Y96044D01*
Y96956D01*
X337225Y97836D01*
X336858Y98471D01*
X337077Y98971D01*
X350366D01*
X361717Y87620D01*
X361539Y86956D01*
Y86044D01*
X361775Y85164D01*
X362231Y84375D01*
X362875Y83731D01*
X363664Y83275D01*
X364544Y83039D01*
X365456D01*
X366336Y83275D01*
X367125Y83731D01*
X367769Y84375D01*
X368225Y85164D01*
X368461Y86044D01*
Y86956D01*
X368225Y87836D01*
X367769Y88625D01*
X367125Y89269D01*
X366336Y89725D01*
X365456Y89961D01*
X364544D01*
X363880Y89783D01*
X352081Y101581D01*
X351585Y101913D01*
X351000Y102029D01*
X254333D01*
X248681Y107681D01*
X248185Y108013D01*
X247600Y108129D01*
X194834D01*
X185615Y117348D01*
X185800Y118039D01*
Y118961D01*
X185562Y119851D01*
X185101Y120649D01*
X184449Y121301D01*
X183651Y121762D01*
X182761Y122000D01*
X181839D01*
X180949Y121762D01*
X180151Y121301D01*
X179499Y120649D01*
X179039Y119851D01*
X178800Y118961D01*
Y118039D01*
X179039Y117149D01*
X179499Y116351D01*
X180151Y115699D01*
X180949Y115238D01*
X181839Y115000D01*
X182761D01*
X183452Y115185D01*
X192046Y106591D01*
X191854Y106129D01*
X65633D01*
X49029Y122733D01*
Y140819D01*
X49927Y141337D01*
X50663Y142073D01*
X50971Y142606D01*
X51471Y142472D01*
Y128000D01*
X51587Y127415D01*
X51919Y126919D01*
X55419Y123419D01*
X55915Y123087D01*
X56500Y122971D01*
X192542D01*
X203794Y111719D01*
X204291Y111387D01*
X204876Y111271D01*
X285500D01*
X286085Y111387D01*
X286581Y111719D01*
X290148Y115285D01*
X290839Y115100D01*
X291761D01*
X292651Y115339D01*
X293449Y115799D01*
X294101Y116451D01*
X294562Y117249D01*
X294800Y118139D01*
Y119061D01*
X294562Y119951D01*
X294101Y120749D01*
X293449Y121401D01*
X292651Y121862D01*
X291761Y122100D01*
X290839D01*
X289949Y121862D01*
X289151Y121401D01*
X288499Y120749D01*
X288038Y119951D01*
X287800Y119061D01*
Y118139D01*
X287985Y117448D01*
X284866Y114329D01*
X205509D01*
X202368Y117471D01*
X202575Y117971D01*
X278241D01*
X278599Y117351D01*
X279251Y116699D01*
X280049Y116238D01*
X280939Y116000D01*
X281861D01*
X282751Y116238D01*
X283549Y116699D01*
X284201Y117351D01*
X284662Y118149D01*
X284900Y119039D01*
Y119961D01*
X284662Y120851D01*
X284201Y121649D01*
X283549Y122301D01*
X282751Y122761D01*
X281861Y123000D01*
X280939D01*
X280300Y122829D01*
X279888Y123220D01*
X280000Y123639D01*
Y124561D01*
X279762Y125451D01*
X279301Y126249D01*
X278649Y126901D01*
X277851Y127362D01*
X276961Y127600D01*
X276039D01*
X275348Y127415D01*
X274254Y128509D01*
X274446Y128971D01*
X309366D01*
X330717Y107620D01*
X330539Y106956D01*
Y106044D01*
X330775Y105164D01*
X331231Y104375D01*
X331875Y103731D01*
X332664Y103275D01*
X333544Y103039D01*
X334456D01*
X335336Y103275D01*
X336125Y103731D01*
X336769Y104375D01*
X337225Y105164D01*
X337461Y106044D01*
Y106956D01*
X337225Y107836D01*
X336769Y108625D01*
X336125Y109269D01*
X335336Y109725D01*
X334456Y109961D01*
X333544D01*
X332880Y109783D01*
X311081Y131581D01*
X310585Y131913D01*
X310000Y132029D01*
X163134D01*
X154529Y140633D01*
Y141227D01*
X154991Y141419D01*
X155073Y141337D01*
X155974Y140817D01*
X156980Y140547D01*
X158020D01*
X159026Y140817D01*
X159927Y141337D01*
X160663Y142073D01*
X160971Y142606D01*
X161471Y142472D01*
Y139600D01*
X161587Y139015D01*
X161919Y138519D01*
X166919Y133519D01*
X167415Y133187D01*
X168000Y133071D01*
X311000D01*
X311585Y133187D01*
X312081Y133519D01*
X314248Y135685D01*
X314939Y135500D01*
X315861D01*
X316751Y135739D01*
X317549Y136199D01*
X318201Y136851D01*
X318661Y137649D01*
X318900Y138539D01*
Y139461D01*
X318661Y140351D01*
X318201Y141149D01*
X317549Y141801D01*
X316751Y142262D01*
X315861Y142500D01*
X314939D01*
X314049Y142262D01*
X313251Y141801D01*
X312900Y141450D01*
X312400Y141657D01*
Y141861D01*
X312161Y142751D01*
X311701Y143549D01*
X311049Y144201D01*
X310582Y144471D01*
X310716Y144971D01*
X329654D01*
X329846Y144509D01*
X328919Y143581D01*
X328587Y143085D01*
X328471Y142500D01*
Y134000D01*
X328587Y133415D01*
X328919Y132919D01*
X330919Y130919D01*
X331415Y130587D01*
X332000Y130471D01*
X358867D01*
X361717Y127620D01*
X361539Y126956D01*
Y126044D01*
X361775Y125164D01*
X362231Y124375D01*
X362875Y123731D01*
X363664Y123275D01*
X364544Y123039D01*
X365456D01*
X366336Y123275D01*
X367125Y123731D01*
X367769Y124375D01*
X368225Y125164D01*
X368461Y126044D01*
Y126956D01*
X368225Y127836D01*
X367769Y128625D01*
X367125Y129269D01*
X366336Y129725D01*
X365456Y129961D01*
X364544D01*
X363880Y129783D01*
X360581Y133081D01*
X360085Y133413D01*
X359500Y133529D01*
X336631D01*
X336423Y134029D01*
X336769Y134375D01*
X337225Y135164D01*
X337449Y136000D01*
X334000D01*
Y137000D01*
X337449D01*
X337283Y137620D01*
X344634Y144971D01*
X361887D01*
X362231Y144375D01*
X362875Y143731D01*
X363664Y143275D01*
X364500Y143051D01*
Y146500D01*
X365000D01*
Y147000D01*
X368449D01*
X368225Y147836D01*
X367769Y148625D01*
X367125Y149269D01*
X366776Y149471D01*
X366910Y149971D01*
X435260D01*
X445262Y139969D01*
X445020Y139065D01*
Y138061D01*
X445280Y137092D01*
X445781Y136223D01*
X445813Y136191D01*
X445621Y135729D01*
X377934D01*
X368283Y145380D01*
X368449Y146000D01*
X365500D01*
Y143051D01*
X366120Y143217D01*
X376219Y133119D01*
X424971Y84367D01*
Y80045D01*
X424775Y79932D01*
X426854Y77854D01*
X426147Y77147D01*
X424068Y79225D01*
X423734Y78646D01*
X423531Y77891D01*
Y77403D01*
X423403Y77061D01*
X423061Y76933D01*
X422574D01*
X421819Y76731D01*
X421240Y76396D01*
X423318Y74318D01*
X425396Y72240D01*
X425731Y72819D01*
X425933Y73574D01*
Y74061D01*
X426061Y74403D01*
X426403Y74532D01*
X426891D01*
X427646Y74734D01*
X428006Y74942D01*
X428506Y74653D01*
Y68669D01*
X423067Y63229D01*
X390259D01*
X389901Y63849D01*
X389249Y64501D01*
X388451Y64961D01*
X387561Y65200D01*
X386639D01*
X385749Y64961D01*
X384951Y64501D01*
X384299Y63849D01*
X383839Y63051D01*
X383600Y62161D01*
Y61239D01*
X383839Y60349D01*
X384299Y59551D01*
X384951Y58899D01*
X385749Y58438D01*
X386639Y58200D01*
X387561D01*
X388451Y58438D01*
X389249Y58899D01*
X389901Y59551D01*
X390259Y60171D01*
X423700D01*
X424285Y60287D01*
X424781Y60619D01*
X431117Y66954D01*
X431449Y67450D01*
X431565Y68036D01*
Y78491D01*
X431858Y78660D01*
X432411Y79213D01*
X432802Y79890D01*
X433004Y80645D01*
Y81426D01*
X432802Y82181D01*
X432411Y82858D01*
X431858Y83411D01*
X431181Y83802D01*
X430426Y84004D01*
X429645D01*
X428890Y83802D01*
X428529Y83594D01*
X428029Y83882D01*
Y85000D01*
X427913Y85585D01*
X427581Y86081D01*
X381454Y132209D01*
X381646Y132671D01*
X444577D01*
X445020Y132531D01*
X445020Y132171D01*
Y124909D01*
X452642D01*
Y132289D01*
X452642Y132531D01*
X452833Y132952D01*
X453081Y133119D01*
X454281Y134319D01*
X454613Y134815D01*
X454729Y135400D01*
Y151910D01*
X454613Y152496D01*
X454281Y152992D01*
X452400Y154874D01*
X452642Y155778D01*
Y155780D01*
X449331D01*
Y152469D01*
X449333D01*
X450237Y152711D01*
X451671Y151277D01*
Y149640D01*
X451209Y149449D01*
X451171Y149487D01*
X450302Y149988D01*
X449333Y150248D01*
X448329D01*
X447425Y150006D01*
X439849Y157581D01*
X439353Y157913D01*
X438768Y158029D01*
X368113D01*
X367769Y158625D01*
X367125Y159269D01*
X366336Y159725D01*
X365456Y159961D01*
X364544D01*
X363880Y159783D01*
X351081Y172581D01*
X350585Y172913D01*
X350000Y173029D01*
X335910D01*
X335776Y173529D01*
X336125Y173731D01*
X336769Y174375D01*
X337225Y175164D01*
X337461Y176044D01*
Y176956D01*
X337225Y177836D01*
X336769Y178625D01*
X336125Y179269D01*
X335776Y179471D01*
X335910Y179971D01*
X349366D01*
X361717Y167620D01*
X361539Y166956D01*
Y166044D01*
X361775Y165164D01*
X362231Y164375D01*
X362875Y163731D01*
X363664Y163275D01*
X364544Y163039D01*
X365456D01*
X366336Y163275D01*
X367125Y163731D01*
X367769Y164375D01*
X368225Y165164D01*
X368461Y166044D01*
Y166956D01*
X368225Y167836D01*
X367769Y168625D01*
X367125Y169269D01*
X366336Y169725D01*
X365456Y169961D01*
X364544D01*
X363880Y169783D01*
X351081Y182581D01*
X350585Y182913D01*
X350000Y183029D01*
X335910D01*
X335776Y183529D01*
X336125Y183731D01*
X336769Y184375D01*
X337225Y185164D01*
X337461Y186044D01*
Y186956D01*
X337225Y187836D01*
X336769Y188625D01*
X336125Y189269D01*
X335336Y189725D01*
X334456Y189961D01*
X333544D01*
X332664Y189725D01*
X331875Y189269D01*
X331231Y188625D01*
X330775Y187836D01*
X330539Y186956D01*
Y186044D01*
X330775Y185164D01*
X331231Y184375D01*
X331875Y183731D01*
X332224Y183529D01*
X332090Y183029D01*
X306553D01*
X245025Y244558D01*
X245216Y245020D01*
X251091D01*
Y252642D01*
X245632D01*
X245278Y252996D01*
Y254000D01*
X245161Y254585D01*
X244830Y255081D01*
X244760Y255151D01*
X244952Y255613D01*
X249849D01*
X258712Y246749D01*
X259208Y246418D01*
X259794Y246301D01*
X310203D01*
X310671Y245491D01*
X311380Y244781D01*
X312249Y244280D01*
X313219Y244020D01*
X313220D01*
Y247831D01*
Y251642D01*
X313219D01*
X312249Y251382D01*
X311380Y250880D01*
X310671Y250171D01*
X310203Y249360D01*
X260427D01*
X258123Y251665D01*
X258358Y252106D01*
X258633Y252051D01*
X260100D01*
X261539Y252337D01*
X262895Y252899D01*
X264114Y253714D01*
X265152Y254752D01*
X265967Y255972D01*
X266529Y257327D01*
X266815Y258766D01*
Y260234D01*
X266529Y261673D01*
X265967Y263028D01*
X265152Y264248D01*
X264114Y265286D01*
X262895Y266101D01*
X261539Y266663D01*
X260100Y266949D01*
D02*
G37*
G36*
X81337D02*
X79870D01*
X78431Y266663D01*
X77075Y266101D01*
X75855Y265286D01*
X74818Y264248D01*
X74002Y263028D01*
X73441Y261673D01*
X73155Y260234D01*
Y258766D01*
X73270Y258187D01*
X72842Y257774D01*
X72562Y257829D01*
X48427D01*
X47842Y257713D01*
X47346Y257381D01*
X42364Y252400D01*
X41460Y252642D01*
X41458D01*
Y249331D01*
X44769D01*
Y249332D01*
X44527Y250237D01*
X49060Y254771D01*
X71928D01*
X78950Y247749D01*
X79446Y247418D01*
X80031Y247301D01*
X126703D01*
X127171Y246491D01*
X127880Y245781D01*
X128749Y245280D01*
X129719Y245020D01*
X129720D01*
Y248831D01*
Y252642D01*
X129719D01*
X128749Y252382D01*
X127880Y251880D01*
X127171Y251171D01*
X126703Y250360D01*
X80664D01*
X79360Y251665D01*
X79596Y252106D01*
X79870Y252051D01*
X81337D01*
X82776Y252337D01*
X84132Y252899D01*
X85352Y253714D01*
X86389Y254752D01*
X87204Y255972D01*
X87766Y257327D01*
X88052Y258766D01*
Y260234D01*
X87766Y261673D01*
X87204Y263028D01*
X86389Y264248D01*
X85352Y265286D01*
X84132Y266101D01*
X82776Y266663D01*
X81337Y266949D01*
D02*
G37*
G36*
X379157Y263714D02*
X375075D01*
Y260670D01*
X375231Y259484D01*
X375689Y258379D01*
X376417Y257430D01*
X377366Y256702D01*
X378471Y256244D01*
X379157Y256154D01*
Y263714D01*
D02*
G37*
G36*
X208367Y266949D02*
X206900D01*
X205461Y266663D01*
X204105Y266101D01*
X202886Y265286D01*
X201848Y264248D01*
X201033Y263028D01*
X200471Y261673D01*
X200185Y260234D01*
Y258766D01*
X200471Y257327D01*
X201033Y255972D01*
X201848Y254752D01*
X202886Y253714D01*
X204105Y252899D01*
X205461Y252337D01*
X206900Y252051D01*
X208367D01*
X209806Y252337D01*
X211162Y252899D01*
X212382Y253714D01*
X213420Y254752D01*
X214235Y255972D01*
X214796Y257327D01*
X215083Y258766D01*
Y260234D01*
X214796Y261673D01*
X214235Y263028D01*
X213420Y264248D01*
X212382Y265286D01*
X211162Y266101D01*
X209806Y266663D01*
X208367Y266949D01*
D02*
G37*
G36*
X170600D02*
X169133D01*
X167693Y266663D01*
X166338Y266101D01*
X165118Y265286D01*
X164080Y264248D01*
X163265Y263028D01*
X162704Y261673D01*
X162417Y260234D01*
Y258766D01*
X162704Y257327D01*
X163265Y255972D01*
X164080Y254752D01*
X165118Y253714D01*
X166338Y252899D01*
X167693Y252337D01*
X169133Y252051D01*
X170600D01*
X172039Y252337D01*
X173395Y252899D01*
X174615Y253714D01*
X175652Y254752D01*
X176467Y255972D01*
X177029Y257327D01*
X177315Y258766D01*
Y260234D01*
X177029Y261673D01*
X176467Y263028D01*
X175652Y264248D01*
X174615Y265286D01*
X173395Y266101D01*
X172039Y266663D01*
X170600Y266949D01*
D02*
G37*
G36*
X118867D02*
X117400D01*
X115961Y266663D01*
X114605Y266101D01*
X113385Y265286D01*
X112348Y264248D01*
X111533Y263028D01*
X110971Y261673D01*
X110685Y260234D01*
Y258766D01*
X110971Y257327D01*
X111533Y255972D01*
X112348Y254752D01*
X113385Y253714D01*
X114605Y252899D01*
X115961Y252337D01*
X117400Y252051D01*
X118867D01*
X120307Y252337D01*
X121662Y252899D01*
X122882Y253714D01*
X123920Y254752D01*
X124735Y255972D01*
X125296Y257327D01*
X125583Y258766D01*
Y260234D01*
X125296Y261673D01*
X124735Y263028D01*
X123920Y264248D01*
X122882Y265286D01*
X121662Y266101D01*
X120307Y266663D01*
X118867Y266949D01*
D02*
G37*
G36*
X29605D02*
X28138D01*
X26698Y266663D01*
X25343Y266101D01*
X24123Y265286D01*
X23085Y264248D01*
X22270Y263028D01*
X21709Y261673D01*
X21422Y260234D01*
Y258766D01*
X21709Y257327D01*
X22270Y255972D01*
X23085Y254752D01*
X24123Y253714D01*
X25343Y252899D01*
X26698Y252337D01*
X28138Y252051D01*
X29605D01*
X31044Y252337D01*
X32399Y252899D01*
X33619Y253714D01*
X34657Y254752D01*
X35472Y255972D01*
X36034Y257327D01*
X36320Y258766D01*
Y260234D01*
X36034Y261673D01*
X35472Y263028D01*
X34657Y264248D01*
X33619Y265286D01*
X32399Y266101D01*
X31044Y266663D01*
X29605Y266949D01*
D02*
G37*
G36*
X354100Y265949D02*
X352633D01*
X351193Y265663D01*
X349838Y265101D01*
X348618Y264286D01*
X347580Y263248D01*
X346765Y262028D01*
X346204Y260673D01*
X345917Y259234D01*
Y257766D01*
X346204Y256327D01*
X346765Y254972D01*
X347580Y253752D01*
X348618Y252714D01*
X349838Y251899D01*
X351193Y251337D01*
X352633Y251051D01*
X354100D01*
X355539Y251337D01*
X356894Y251899D01*
X358115Y252714D01*
X359152Y253752D01*
X359967Y254972D01*
X360529Y256327D01*
X360815Y257766D01*
Y259234D01*
X360529Y260673D01*
X359967Y262028D01*
X359152Y263248D01*
X358115Y264286D01*
X356894Y265101D01*
X355539Y265663D01*
X354100Y265949D01*
D02*
G37*
G36*
X302367D02*
X300900D01*
X299461Y265663D01*
X298106Y265101D01*
X296885Y264286D01*
X295848Y263248D01*
X295033Y262028D01*
X294471Y260673D01*
X294185Y259234D01*
Y257766D01*
X294471Y256327D01*
X295033Y254972D01*
X295848Y253752D01*
X296885Y252714D01*
X298106Y251899D01*
X299461Y251337D01*
X300900Y251051D01*
X302367D01*
X303806Y251337D01*
X305162Y251899D01*
X306382Y252714D01*
X307420Y253752D01*
X308235Y254972D01*
X308796Y256327D01*
X309083Y257766D01*
Y259234D01*
X308796Y260673D01*
X308235Y262028D01*
X307420Y263248D01*
X306382Y264286D01*
X305162Y265101D01*
X303806Y265663D01*
X302367Y265949D01*
D02*
G37*
G36*
X384240Y263714D02*
X380157D01*
Y255979D01*
X380334Y255673D01*
X380128Y255404D01*
X379728Y254438D01*
X379592Y253402D01*
Y250934D01*
X383594D01*
X387597D01*
Y253402D01*
X387461Y254438D01*
X387061Y255404D01*
X386563Y256053D01*
Y256355D01*
X386265D01*
X385596Y256869D01*
X384630Y257269D01*
X383594Y257405D01*
X383499Y257393D01*
X383229Y257861D01*
X383626Y258379D01*
X384084Y259484D01*
X384240Y260670D01*
Y263714D01*
D02*
G37*
G36*
X460234Y265315D02*
X458766D01*
X457327Y265029D01*
X455972Y264467D01*
X454752Y263652D01*
X453714Y262614D01*
X452899Y261395D01*
X452337Y260039D01*
X452051Y258600D01*
Y257133D01*
X452337Y255694D01*
X452899Y254338D01*
X453714Y253118D01*
X454752Y252080D01*
X455972Y251265D01*
X457327Y250704D01*
X458766Y250417D01*
X460234D01*
X461673Y250704D01*
X463028Y251265D01*
X464248Y252080D01*
X465286Y253118D01*
X466101Y254338D01*
X466663Y255694D01*
X466949Y257133D01*
Y258600D01*
X466663Y260039D01*
X466101Y261395D01*
X465286Y262614D01*
X464248Y263652D01*
X463028Y264467D01*
X461673Y265029D01*
X460234Y265315D01*
D02*
G37*
G36*
X40458Y252642D02*
X40456D01*
X39487Y252382D01*
X38618Y251880D01*
X37908Y251171D01*
X37407Y250302D01*
X37147Y249332D01*
Y249331D01*
X40458D01*
Y252642D01*
D02*
G37*
G36*
X314222Y251642D02*
X314220D01*
Y248331D01*
X317531D01*
Y248333D01*
X317272Y249302D01*
X316770Y250171D01*
X316060Y250880D01*
X315191Y251382D01*
X314222Y251642D01*
D02*
G37*
G36*
X449333Y249591D02*
X449331D01*
Y246280D01*
X452642D01*
Y246281D01*
X452382Y247251D01*
X451880Y248120D01*
X451171Y248829D01*
X450302Y249331D01*
X449333Y249591D01*
D02*
G37*
G36*
X448331D02*
X448329D01*
X447360Y249331D01*
X446491Y248829D01*
X445781Y248120D01*
X445280Y247251D01*
X445020Y246281D01*
Y246280D01*
X448331D01*
Y249591D01*
D02*
G37*
G36*
X134031Y248331D02*
X130720D01*
Y245020D01*
X130722D01*
X131691Y245280D01*
X132560Y245781D01*
X133270Y246491D01*
X133772Y247360D01*
X134031Y248329D01*
Y248331D01*
D02*
G37*
G36*
X44769D02*
X41458D01*
Y245020D01*
X41460D01*
X42429Y245280D01*
X43298Y245781D01*
X44007Y246491D01*
X44509Y247360D01*
X44769Y248329D01*
Y248331D01*
D02*
G37*
G36*
X40458D02*
X37147D01*
Y248329D01*
X37407Y247360D01*
X37908Y246491D01*
X38618Y245781D01*
X39487Y245280D01*
X40456Y245020D01*
X40458D01*
Y248331D01*
D02*
G37*
G36*
X345091Y251642D02*
X337469D01*
Y244020D01*
X345091D01*
Y251642D01*
D02*
G37*
G36*
X387597Y249934D02*
X384094D01*
Y243529D01*
X384630Y243599D01*
X385596Y243999D01*
X386265Y244513D01*
X386563D01*
Y244815D01*
X387061Y245464D01*
X387461Y246429D01*
X387597Y247465D01*
Y249934D01*
D02*
G37*
G36*
X448331Y245280D02*
X445020D01*
Y245278D01*
X445280Y244309D01*
X445781Y243440D01*
X446491Y242730D01*
X447360Y242228D01*
X448329Y241969D01*
X448331D01*
Y245280D01*
D02*
G37*
G36*
X383094Y249934D02*
X379592D01*
Y249129D01*
X378100D01*
X377515Y249013D01*
X377019Y248681D01*
X360266Y231929D01*
X331785D01*
X317289Y246425D01*
X317531Y247329D01*
Y247331D01*
X314220D01*
Y244020D01*
X314222D01*
X315126Y244262D01*
X330070Y229319D01*
X330566Y228987D01*
X331151Y228871D01*
X360900D01*
X361485Y228987D01*
X361981Y229319D01*
X378733Y246071D01*
X379877D01*
X380128Y245464D01*
X380626Y244815D01*
Y244513D01*
X380924D01*
X381593Y243999D01*
X382558Y243599D01*
X383094Y243529D01*
Y249934D01*
D02*
G37*
G36*
X409468Y276829D02*
X351032D01*
X350447Y276713D01*
X349951Y276381D01*
X324969Y251400D01*
X324065Y251642D01*
X323061D01*
X322092Y251382D01*
X321223Y250880D01*
X320513Y250171D01*
X320012Y249302D01*
X319752Y248333D01*
Y247329D01*
X320012Y246360D01*
X320513Y245491D01*
X321223Y244781D01*
X322092Y244280D01*
X323061Y244020D01*
X324065D01*
X325034Y244280D01*
X325903Y244781D01*
X326613Y245491D01*
X327114Y246360D01*
X327241Y246833D01*
X327759D01*
X327886Y246360D01*
X328387Y245491D01*
X329097Y244781D01*
X329966Y244280D01*
X330935Y244020D01*
X331939D01*
X332908Y244280D01*
X333777Y244781D01*
X334487Y245491D01*
X334988Y246360D01*
X335248Y247329D01*
Y248333D01*
X334988Y249302D01*
X334487Y250171D01*
X333777Y250880D01*
X332908Y251382D01*
X331939Y251642D01*
X330935D01*
X329966Y251382D01*
X329702Y251807D01*
X351666Y273771D01*
X401448D01*
X401547Y273271D01*
X401379Y273201D01*
X400265Y272346D01*
X399411Y271233D01*
X398873Y269936D01*
X398690Y268544D01*
Y259883D01*
X398873Y258491D01*
X399411Y257194D01*
X400265Y256081D01*
X401379Y255226D01*
X402675Y254689D01*
X404067Y254506D01*
X405459Y254689D01*
X406755Y255226D01*
X407869Y256081D01*
X408723Y257194D01*
X409261Y258491D01*
X409444Y259883D01*
Y268544D01*
X409261Y269936D01*
X408723Y271233D01*
X407869Y272346D01*
X406755Y273201D01*
X406587Y273271D01*
X406686Y273771D01*
X408834D01*
X444677Y237928D01*
X444485Y237466D01*
X392437D01*
X391852Y237350D01*
X391356Y237018D01*
X375419Y221081D01*
X375087Y220585D01*
X374971Y220000D01*
Y198634D01*
X366120Y189783D01*
X365456Y189961D01*
X364544D01*
X363664Y189725D01*
X362875Y189269D01*
X362231Y188625D01*
X361775Y187836D01*
X361539Y186956D01*
Y186044D01*
X361544Y186026D01*
X361096Y185767D01*
X356554Y190309D01*
X356746Y190771D01*
X364000D01*
X364585Y190887D01*
X365081Y191219D01*
X366081Y192219D01*
X366413Y192715D01*
X366529Y193300D01*
Y193387D01*
X367125Y193731D01*
X367769Y194375D01*
X368225Y195164D01*
X368461Y196044D01*
Y196956D01*
X368225Y197836D01*
X367769Y198625D01*
X367125Y199269D01*
X366336Y199725D01*
X365456Y199961D01*
X364544D01*
X363664Y199725D01*
X362875Y199269D01*
X362231Y198625D01*
X361775Y197836D01*
X361539Y196956D01*
Y196044D01*
X361775Y195164D01*
X362231Y194375D01*
X362315Y194291D01*
X362123Y193829D01*
X336877D01*
X336685Y194291D01*
X336769Y194375D01*
X337225Y195164D01*
X337461Y196044D01*
Y196956D01*
X337225Y197836D01*
X336769Y198625D01*
X336125Y199269D01*
X335336Y199725D01*
X334456Y199961D01*
X333544D01*
X332664Y199725D01*
X331875Y199269D01*
X331231Y198625D01*
X330775Y197836D01*
X330539Y196956D01*
Y196044D01*
X330775Y195164D01*
X331231Y194375D01*
X331315Y194291D01*
X331123Y193829D01*
X322558D01*
X322201Y194449D01*
X321549Y195101D01*
X320751Y195562D01*
X319861Y195800D01*
X318939D01*
X318049Y195562D01*
X317251Y195101D01*
X316599Y194449D01*
X316139Y193651D01*
X315900Y192761D01*
Y191839D01*
X316139Y190949D01*
X316599Y190151D01*
X317251Y189499D01*
X318049Y189039D01*
X318939Y188800D01*
X319861D01*
X320751Y189039D01*
X321549Y189499D01*
X322201Y190151D01*
X322558Y190771D01*
X351766D01*
X362758Y179779D01*
X362875Y179269D01*
X362748Y179142D01*
X362231Y178625D01*
X361775Y177836D01*
X361539Y176956D01*
Y176044D01*
X361775Y175164D01*
X362231Y174375D01*
X362875Y173731D01*
X363664Y173275D01*
X364544Y173039D01*
X365456D01*
X366336Y173275D01*
X367125Y173731D01*
X367769Y174375D01*
X368225Y175164D01*
X368461Y176044D01*
Y176956D01*
X368225Y177836D01*
X367858Y178471D01*
X368077Y178971D01*
X374867D01*
X379019Y174819D01*
X379515Y174487D01*
X380100Y174371D01*
X382342D01*
X382699Y173751D01*
X383351Y173099D01*
X384149Y172638D01*
X385039Y172400D01*
X385961D01*
X386851Y172638D01*
X387649Y173099D01*
X388301Y173751D01*
X388761Y174549D01*
X389000Y175439D01*
Y176361D01*
X388761Y177251D01*
X388301Y178049D01*
X387649Y178701D01*
X386851Y179162D01*
X385961Y179400D01*
X385039D01*
X384149Y179162D01*
X383351Y178701D01*
X382699Y178049D01*
X382342Y177429D01*
X380733D01*
X376581Y181581D01*
X376085Y181913D01*
X375500Y182029D01*
X364833D01*
X364267Y182596D01*
X364526Y183044D01*
X364544Y183039D01*
X365456D01*
X366336Y183275D01*
X367125Y183731D01*
X367769Y184375D01*
X368225Y185164D01*
X368461Y186044D01*
Y186956D01*
X368283Y187620D01*
X377581Y196919D01*
X377913Y197415D01*
X378029Y198000D01*
Y219367D01*
X393071Y234408D01*
X445313D01*
X445781Y233597D01*
X446491Y232887D01*
X447360Y232386D01*
X447833Y232259D01*
Y231741D01*
X447360Y231614D01*
X446491Y231113D01*
X445781Y230403D01*
X445280Y229534D01*
X445020Y228565D01*
Y227561D01*
X445280Y226592D01*
X445781Y225723D01*
X446491Y225013D01*
X447360Y224512D01*
X448329Y224252D01*
X449333D01*
X450302Y224512D01*
X451171Y225013D01*
X451209Y225051D01*
X451671Y224860D01*
Y222031D01*
X447183D01*
X447033Y222181D01*
X446536Y222513D01*
X445951Y222629D01*
X394600D01*
X394015Y222513D01*
X393519Y222181D01*
X391041Y219704D01*
X390799Y219844D01*
X389614Y220161D01*
X388386D01*
X387201Y219844D01*
X386138Y219230D01*
X385270Y218362D01*
X384656Y217299D01*
X384339Y216114D01*
Y214886D01*
X384656Y213701D01*
X385270Y212638D01*
X386138Y211770D01*
X387201Y211156D01*
X388386Y210839D01*
X389614D01*
X390799Y211156D01*
X391862Y211770D01*
X392730Y212638D01*
X393344Y213701D01*
X393661Y214886D01*
Y216114D01*
X393344Y217299D01*
X393204Y217541D01*
X395233Y219571D01*
X395771D01*
X395978Y219071D01*
X395270Y218362D01*
X394656Y217299D01*
X394339Y216114D01*
Y216000D01*
X399000D01*
Y215500D01*
X399500D01*
Y210839D01*
X399614D01*
X400799Y211156D01*
X401041Y211296D01*
X404019Y208319D01*
X404515Y207987D01*
X405100Y207871D01*
X448700D01*
X449285Y207987D01*
X449781Y208319D01*
X454281Y212819D01*
X454613Y213315D01*
X454729Y213900D01*
Y241410D01*
X454613Y241996D01*
X454281Y242492D01*
X452400Y244374D01*
X452642Y245278D01*
Y245280D01*
X449331D01*
Y241969D01*
X449333D01*
X450237Y242211D01*
X451671Y240777D01*
Y239140D01*
X451209Y238949D01*
X451171Y238987D01*
X450302Y239488D01*
X449333Y239748D01*
X448329D01*
X447425Y239506D01*
X410549Y276381D01*
X410053Y276713D01*
X409468Y276829D01*
D02*
G37*
G36*
X45985Y240000D02*
X44015D01*
X42083Y239616D01*
X40263Y238862D01*
X38625Y237768D01*
X37233Y236375D01*
X36138Y234737D01*
X35384Y232917D01*
X35000Y230985D01*
Y229015D01*
X35384Y227083D01*
X36138Y225263D01*
X37233Y223625D01*
X38625Y222233D01*
X40263Y221138D01*
X42083Y220384D01*
X44015Y220000D01*
X45985D01*
X47917Y220384D01*
X49737Y221138D01*
X51375Y222233D01*
X52767Y223625D01*
X53862Y225263D01*
X54616Y227083D01*
X55000Y229015D01*
Y230985D01*
X54616Y232917D01*
X53862Y234737D01*
X52767Y236375D01*
X51375Y237768D01*
X49737Y238862D01*
X47917Y239616D01*
X45985Y240000D01*
D02*
G37*
G36*
X311161Y226400D02*
X310239D01*
X309349Y226162D01*
X308551Y225701D01*
X307899Y225049D01*
X307438Y224251D01*
X307200Y223361D01*
Y222439D01*
X307385Y221748D01*
X299267Y213629D01*
X287379D01*
X287021Y214249D01*
X286369Y214901D01*
X285571Y215361D01*
X284681Y215600D01*
X283760D01*
X282870Y215361D01*
X282071Y214901D01*
X281420Y214249D01*
X280959Y213451D01*
X280720Y212561D01*
Y211639D01*
X280959Y210749D01*
X281420Y209951D01*
X282071Y209299D01*
X282870Y208839D01*
X283760Y208600D01*
X284681D01*
X285571Y208839D01*
X286369Y209299D01*
X287021Y209951D01*
X287379Y210571D01*
X299900D01*
X300485Y210687D01*
X300981Y211019D01*
X309548Y219585D01*
X310239Y219400D01*
X311161D01*
X312051Y219638D01*
X312849Y220099D01*
X313501Y220751D01*
X313962Y221549D01*
X314200Y222439D01*
Y223361D01*
X313962Y224251D01*
X313501Y225049D01*
X312849Y225701D01*
X312051Y226162D01*
X311161Y226400D01*
D02*
G37*
G36*
X398500Y215000D02*
X394339D01*
Y214886D01*
X394656Y213701D01*
X395270Y212638D01*
X396138Y211770D01*
X397201Y211156D01*
X398386Y210839D01*
X398500D01*
Y215000D01*
D02*
G37*
G36*
X361000Y212029D02*
X322000D01*
X321415Y211913D01*
X320919Y211581D01*
X309852Y200515D01*
X309161Y200700D01*
X308239D01*
X307349Y200462D01*
X306551Y200001D01*
X305899Y199349D01*
X305438Y198551D01*
X305200Y197661D01*
Y196739D01*
X305438Y195849D01*
X305899Y195051D01*
X306551Y194399D01*
X307349Y193939D01*
X308239Y193700D01*
X309161D01*
X310051Y193939D01*
X310849Y194399D01*
X311501Y195051D01*
X311962Y195849D01*
X312200Y196739D01*
Y197661D01*
X312015Y198352D01*
X322634Y208971D01*
X330539D01*
Y203039D01*
X337461D01*
Y208971D01*
X360367D01*
X361717Y207620D01*
X361539Y206956D01*
Y206044D01*
X361775Y205164D01*
X362231Y204375D01*
X362875Y203731D01*
X363664Y203275D01*
X364544Y203039D01*
X365456D01*
X366336Y203275D01*
X367125Y203731D01*
X367769Y204375D01*
X368225Y205164D01*
X368461Y206044D01*
Y206956D01*
X368225Y207836D01*
X367769Y208625D01*
X367125Y209269D01*
X366336Y209725D01*
X365456Y209961D01*
X364544D01*
X363880Y209783D01*
X362081Y211581D01*
X361585Y211913D01*
X361000Y212029D01*
D02*
G37*
G36*
X460234Y213583D02*
X458766D01*
X457327Y213296D01*
X455972Y212735D01*
X454752Y211920D01*
X453714Y210882D01*
X452899Y209662D01*
X452337Y208307D01*
X452051Y206867D01*
Y205400D01*
X452337Y203961D01*
X452899Y202606D01*
X453714Y201385D01*
X454752Y200348D01*
X455972Y199533D01*
X457327Y198971D01*
X458766Y198685D01*
X460234D01*
X461673Y198971D01*
X463028Y199533D01*
X464248Y200348D01*
X465286Y201385D01*
X466101Y202606D01*
X466663Y203961D01*
X466949Y205400D01*
Y206867D01*
X466663Y208307D01*
X466101Y209662D01*
X465286Y210882D01*
X464248Y211920D01*
X463028Y212735D01*
X461673Y213296D01*
X460234Y213583D01*
D02*
G37*
G36*
Y175815D02*
X458766D01*
X457327Y175529D01*
X455972Y174967D01*
X454752Y174152D01*
X453714Y173115D01*
X452899Y171895D01*
X452337Y170539D01*
X452051Y169100D01*
Y167633D01*
X452337Y166193D01*
X452899Y164838D01*
X453714Y163618D01*
X454752Y162580D01*
X455972Y161765D01*
X457327Y161204D01*
X458766Y160917D01*
X460234D01*
X461673Y161204D01*
X463028Y161765D01*
X464248Y162580D01*
X465286Y163618D01*
X466101Y164838D01*
X466663Y166193D01*
X466949Y167633D01*
Y169100D01*
X466663Y170539D01*
X466101Y171895D01*
X465286Y173115D01*
X464248Y174152D01*
X463028Y174967D01*
X461673Y175529D01*
X460234Y175815D01*
D02*
G37*
G36*
X449333Y160091D02*
X449331D01*
Y156780D01*
X452642D01*
Y156781D01*
X452382Y157751D01*
X451880Y158620D01*
X451171Y159329D01*
X450302Y159831D01*
X449333Y160091D01*
D02*
G37*
G36*
X448331D02*
X448329D01*
X447360Y159831D01*
X446491Y159329D01*
X445781Y158620D01*
X445280Y157751D01*
X445020Y156781D01*
Y156780D01*
X448331D01*
Y160091D01*
D02*
G37*
G36*
Y155780D02*
X445020D01*
Y155778D01*
X445280Y154809D01*
X445781Y153940D01*
X446491Y153230D01*
X447360Y152728D01*
X448329Y152469D01*
X448331D01*
Y155780D01*
D02*
G37*
G36*
X138020Y148453D02*
X136980D01*
X135974Y148183D01*
X135073Y147663D01*
X134337Y146927D01*
X133817Y146026D01*
X133547Y145020D01*
Y143980D01*
X133817Y142974D01*
X134337Y142073D01*
X135073Y141337D01*
X135974Y140817D01*
X136980Y140547D01*
X138020D01*
X139026Y140817D01*
X139927Y141337D01*
X140663Y142073D01*
X141183Y142974D01*
X141453Y143980D01*
Y145020D01*
X141183Y146026D01*
X140663Y146927D01*
X139927Y147663D01*
X139026Y148183D01*
X138020Y148453D01*
D02*
G37*
G36*
X128020D02*
X126980D01*
X125974Y148183D01*
X125073Y147663D01*
X124337Y146927D01*
X123817Y146026D01*
X123547Y145020D01*
Y143980D01*
X123817Y142974D01*
X124337Y142073D01*
X125073Y141337D01*
X125974Y140817D01*
X126980Y140547D01*
X128020D01*
X129026Y140817D01*
X129927Y141337D01*
X130663Y142073D01*
X131183Y142974D01*
X131453Y143980D01*
Y145020D01*
X131183Y146026D01*
X130663Y146927D01*
X129927Y147663D01*
X129026Y148183D01*
X128020Y148453D01*
D02*
G37*
G36*
X118020D02*
X116980D01*
X115974Y148183D01*
X115073Y147663D01*
X114337Y146927D01*
X113817Y146026D01*
X113547Y145020D01*
Y143980D01*
X113817Y142974D01*
X114337Y142073D01*
X115073Y141337D01*
X115974Y140817D01*
X116980Y140547D01*
X118020D01*
X119026Y140817D01*
X119927Y141337D01*
X120663Y142073D01*
X121183Y142974D01*
X121453Y143980D01*
Y145020D01*
X121183Y146026D01*
X120663Y146927D01*
X119927Y147663D01*
X119026Y148183D01*
X118020Y148453D01*
D02*
G37*
G36*
X98020D02*
X96980D01*
X95974Y148183D01*
X95073Y147663D01*
X94337Y146927D01*
X93817Y146026D01*
X93547Y145020D01*
Y143980D01*
X93817Y142974D01*
X94337Y142073D01*
X95073Y141337D01*
X95974Y140817D01*
X96980Y140547D01*
X98020D01*
X99026Y140817D01*
X99927Y141337D01*
X100663Y142073D01*
X101183Y142974D01*
X101453Y143980D01*
Y145020D01*
X101183Y146026D01*
X100663Y146927D01*
X99927Y147663D01*
X99026Y148183D01*
X98020Y148453D01*
D02*
G37*
G36*
X365456Y139961D02*
X364544D01*
X363664Y139725D01*
X362875Y139269D01*
X362231Y138625D01*
X361775Y137836D01*
X361539Y136956D01*
Y136044D01*
X361775Y135164D01*
X362231Y134375D01*
X362875Y133731D01*
X363664Y133275D01*
X364544Y133039D01*
X365456D01*
X366336Y133275D01*
X367125Y133731D01*
X367769Y134375D01*
X368225Y135164D01*
X368461Y136044D01*
Y136956D01*
X368225Y137836D01*
X367769Y138625D01*
X367125Y139269D01*
X366336Y139725D01*
X365456Y139961D01*
D02*
G37*
G36*
X334456Y129961D02*
X333544D01*
X332664Y129725D01*
X331875Y129269D01*
X331231Y128625D01*
X330775Y127836D01*
X330539Y126956D01*
Y126044D01*
X330775Y125164D01*
X331231Y124375D01*
X331875Y123731D01*
X332664Y123275D01*
X333544Y123039D01*
X334456D01*
X335336Y123275D01*
X336125Y123731D01*
X336769Y124375D01*
X337225Y125164D01*
X337461Y126044D01*
Y126956D01*
X337225Y127836D01*
X336769Y128625D01*
X336125Y129269D01*
X335336Y129725D01*
X334456Y129961D01*
D02*
G37*
G36*
X365456Y119961D02*
X364544D01*
X363664Y119725D01*
X362875Y119269D01*
X362231Y118625D01*
X361775Y117836D01*
X361539Y116956D01*
Y116044D01*
X361775Y115164D01*
X362231Y114375D01*
X362875Y113731D01*
X363664Y113275D01*
X364544Y113039D01*
X365456D01*
X366336Y113275D01*
X367125Y113731D01*
X367769Y114375D01*
X368225Y115164D01*
X368461Y116044D01*
Y116956D01*
X368225Y117836D01*
X367769Y118625D01*
X367125Y119269D01*
X366336Y119725D01*
X365456Y119961D01*
D02*
G37*
G36*
X334456D02*
X333544D01*
X332664Y119725D01*
X331875Y119269D01*
X331231Y118625D01*
X330775Y117836D01*
X330539Y116956D01*
Y116044D01*
X330775Y115164D01*
X331231Y114375D01*
X331875Y113731D01*
X332664Y113275D01*
X333544Y113039D01*
X334456D01*
X335336Y113275D01*
X336125Y113731D01*
X336769Y114375D01*
X337225Y115164D01*
X337461Y116044D01*
Y116956D01*
X337225Y117836D01*
X336769Y118625D01*
X336125Y119269D01*
X335336Y119725D01*
X334456Y119961D01*
D02*
G37*
G36*
X460234Y124083D02*
X458766D01*
X457327Y123796D01*
X455972Y123235D01*
X454752Y122420D01*
X453714Y121382D01*
X452899Y120162D01*
X452337Y118807D01*
X452051Y117367D01*
Y115900D01*
X452337Y114461D01*
X452899Y113105D01*
X453714Y111885D01*
X454752Y110848D01*
X455972Y110033D01*
X457327Y109471D01*
X458766Y109185D01*
X460234D01*
X461673Y109471D01*
X463028Y110033D01*
X464248Y110848D01*
X465286Y111885D01*
X466101Y113105D01*
X466663Y114461D01*
X466949Y115900D01*
Y117367D01*
X466663Y118807D01*
X466101Y120162D01*
X465286Y121382D01*
X464248Y122420D01*
X463028Y123235D01*
X461673Y123796D01*
X460234Y124083D01*
D02*
G37*
G36*
X365456Y109961D02*
X364544D01*
X363664Y109725D01*
X362875Y109269D01*
X362231Y108625D01*
X361775Y107836D01*
X361539Y106956D01*
Y106044D01*
X361775Y105164D01*
X362231Y104375D01*
X362875Y103731D01*
X363664Y103275D01*
X364544Y103039D01*
X365456D01*
X366336Y103275D01*
X367125Y103731D01*
X367769Y104375D01*
X368225Y105164D01*
X368461Y106044D01*
Y106956D01*
X368225Y107836D01*
X367769Y108625D01*
X367125Y109269D01*
X366336Y109725D01*
X365456Y109961D01*
D02*
G37*
G36*
Y99961D02*
X364544D01*
X363664Y99725D01*
X362875Y99269D01*
X362231Y98625D01*
X361775Y97836D01*
X361539Y96956D01*
Y96044D01*
X361775Y95164D01*
X362231Y94375D01*
X362875Y93731D01*
X363664Y93275D01*
X364544Y93039D01*
X365456D01*
X366336Y93275D01*
X367125Y93731D01*
X367769Y94375D01*
X368225Y95164D01*
X368461Y96044D01*
Y96956D01*
X368225Y97836D01*
X367769Y98625D01*
X367125Y99269D01*
X366336Y99725D01*
X365456Y99961D01*
D02*
G37*
G36*
X351149Y94000D02*
X350227D01*
X349337Y93761D01*
X348539Y93301D01*
X347887Y92649D01*
X347530Y92029D01*
X294300D01*
X293715Y91913D01*
X293219Y91581D01*
X268852Y67215D01*
X268161Y67400D01*
X267239D01*
X266349Y67162D01*
X265551Y66701D01*
X264899Y66049D01*
X264439Y65251D01*
X264200Y64361D01*
Y63439D01*
X264439Y62549D01*
X264899Y61751D01*
X265551Y61099D01*
X266349Y60638D01*
X267239Y60400D01*
X268161D01*
X269051Y60638D01*
X269849Y61099D01*
X270501Y61751D01*
X270961Y62549D01*
X271200Y63439D01*
Y64361D01*
X271015Y65052D01*
X294934Y88971D01*
X330923D01*
X331142Y88471D01*
X330775Y87836D01*
X330539Y86956D01*
Y86044D01*
X330775Y85164D01*
X331231Y84375D01*
X331875Y83731D01*
X332664Y83275D01*
X333544Y83039D01*
X334456D01*
X335336Y83275D01*
X336125Y83731D01*
X336769Y84375D01*
X337225Y85164D01*
X337461Y86044D01*
Y86956D01*
X337225Y87836D01*
X336858Y88471D01*
X337077Y88971D01*
X347530D01*
X347887Y88351D01*
X348539Y87699D01*
X349337Y87239D01*
X350227Y87000D01*
X351149D01*
X352039Y87239D01*
X352837Y87699D01*
X353489Y88351D01*
X353949Y89149D01*
X354188Y90039D01*
Y90961D01*
X353949Y91851D01*
X353489Y92649D01*
X352837Y93301D01*
X352039Y93761D01*
X351149Y94000D01*
D02*
G37*
G36*
X38020Y148453D02*
X36980D01*
X35974Y148183D01*
X35073Y147663D01*
X34337Y146927D01*
X33817Y146026D01*
X33547Y145020D01*
Y143980D01*
X33817Y142974D01*
X34337Y142073D01*
X35073Y141337D01*
X35971Y140819D01*
Y95300D01*
X36087Y94715D01*
X36419Y94219D01*
X42919Y87719D01*
X43415Y87387D01*
X44000Y87271D01*
X218941D01*
X219299Y86651D01*
X219951Y85999D01*
X220749Y85539D01*
X221639Y85300D01*
X222561D01*
X223451Y85539D01*
X224249Y85999D01*
X224901Y86651D01*
X225361Y87449D01*
X225600Y88339D01*
Y89261D01*
X225361Y90151D01*
X224901Y90949D01*
X224249Y91601D01*
X223451Y92062D01*
X222561Y92300D01*
X221639D01*
X220749Y92062D01*
X219951Y91601D01*
X219299Y90949D01*
X218941Y90329D01*
X44633D01*
X39029Y95934D01*
Y140819D01*
X39927Y141337D01*
X40663Y142073D01*
X41183Y142974D01*
X41453Y143980D01*
Y145020D01*
X41183Y146026D01*
X40663Y146927D01*
X39927Y147663D01*
X39026Y148183D01*
X38020Y148453D01*
D02*
G37*
G36*
X420533Y75689D02*
X420198Y75110D01*
X420083Y74680D01*
X419525Y74531D01*
X419429Y74627D01*
X415231Y70429D01*
X419429Y66231D01*
X423627Y70429D01*
X423531Y70525D01*
X423680Y71083D01*
X424110Y71198D01*
X424689Y71532D01*
X422611Y73611D01*
X420533Y75689D01*
D02*
G37*
G36*
X365456Y79961D02*
X364544D01*
X363664Y79725D01*
X362875Y79269D01*
X362231Y78625D01*
X361775Y77836D01*
X361539Y76956D01*
Y76044D01*
X361775Y75164D01*
X362231Y74375D01*
X362875Y73731D01*
X363664Y73275D01*
X364544Y73039D01*
X365456D01*
X366336Y73275D01*
X367125Y73731D01*
X367769Y74375D01*
X368225Y75164D01*
X368461Y76044D01*
Y76956D01*
X368225Y77836D01*
X367769Y78625D01*
X367125Y79269D01*
X366336Y79725D01*
X365456Y79961D01*
D02*
G37*
G36*
X334456D02*
X333544D01*
X332664Y79725D01*
X331875Y79269D01*
X331231Y78625D01*
X330775Y77836D01*
X330539Y76956D01*
Y76044D01*
X330775Y75164D01*
X331231Y74375D01*
X331875Y73731D01*
X332664Y73275D01*
X333544Y73039D01*
X334456D01*
X335336Y73275D01*
X336125Y73731D01*
X336769Y74375D01*
X337225Y75164D01*
X337461Y76044D01*
Y76956D01*
X337225Y77836D01*
X336769Y78625D01*
X336125Y79269D01*
X335336Y79725D01*
X334456Y79961D01*
D02*
G37*
G36*
X413191Y58504D02*
X412409D01*
X411654Y58302D01*
X410977Y57911D01*
X410424Y57359D01*
X410034Y56682D01*
X409918Y56252D01*
X409361Y56102D01*
X409264Y56199D01*
X405066Y52000D01*
X409264Y47802D01*
X413462Y52000D01*
X413366Y52097D01*
X413515Y52654D01*
X413946Y52770D01*
X414622Y53161D01*
X415175Y53713D01*
X415566Y54390D01*
X415768Y55145D01*
Y55927D01*
X415566Y56682D01*
X415175Y57359D01*
X414622Y57911D01*
X413946Y58302D01*
X413191Y58504D01*
D02*
G37*
G36*
X324985Y40000D02*
X323015D01*
X321083Y39616D01*
X319263Y38862D01*
X317625Y37767D01*
X316232Y36375D01*
X315138Y34737D01*
X314384Y32917D01*
X314000Y30985D01*
Y29015D01*
X314384Y27083D01*
X315138Y25263D01*
X316232Y23625D01*
X317625Y22232D01*
X319263Y21138D01*
X321083Y20384D01*
X323015Y20000D01*
X324985D01*
X326917Y20384D01*
X328737Y21138D01*
X330375Y22232D01*
X331768Y23625D01*
X332862Y25263D01*
X333616Y27083D01*
X334000Y29015D01*
Y30985D01*
X333616Y32917D01*
X332862Y34737D01*
X331768Y36375D01*
X330375Y37767D01*
X328737Y38862D01*
X326917Y39616D01*
X324985Y40000D01*
D02*
G37*
G36*
X45985D02*
X44015D01*
X42083Y39616D01*
X40263Y38862D01*
X38625Y37767D01*
X37233Y36375D01*
X36138Y34737D01*
X35384Y32917D01*
X35000Y30985D01*
Y29015D01*
X35384Y27083D01*
X36138Y25263D01*
X37233Y23625D01*
X38625Y22232D01*
X40263Y21138D01*
X42083Y20384D01*
X44015Y20000D01*
X45985D01*
X47917Y20384D01*
X49737Y21138D01*
X51375Y22232D01*
X52767Y23625D01*
X53862Y25263D01*
X54616Y27083D01*
X55000Y29015D01*
Y30985D01*
X54616Y32917D01*
X53862Y34737D01*
X52767Y36375D01*
X51375Y37767D01*
X49737Y38862D01*
X47917Y39616D01*
X45985Y40000D01*
D02*
G37*
%LPD*%
G36*
X165388Y247749D02*
X165884Y247418D01*
X166469Y247301D01*
X216203D01*
X216649Y246529D01*
X216577Y246263D01*
X216480Y246029D01*
X162744D01*
X161591Y247183D01*
Y250893D01*
X162053Y251085D01*
X165388Y247749D01*
D02*
G37*
G36*
X233886Y247360D02*
X234387Y246491D01*
X235097Y245781D01*
X235966Y245280D01*
X236935Y245020D01*
X237939D01*
X238040Y245047D01*
X238437Y244742D01*
Y244554D01*
X238553Y243968D01*
X238885Y243472D01*
X278489Y203867D01*
X278303Y203347D01*
X277810Y203215D01*
X265243Y215781D01*
X264747Y216113D01*
X264161Y216229D01*
X116158D01*
X115801Y216849D01*
X115149Y217501D01*
X114351Y217962D01*
X113461Y218200D01*
X112539D01*
X111649Y217962D01*
X110851Y217501D01*
X110199Y216849D01*
X109739Y216051D01*
X109500Y215161D01*
Y214239D01*
X109739Y213349D01*
X110199Y212551D01*
X110851Y211899D01*
X111649Y211438D01*
X112539Y211200D01*
X113461D01*
X114351Y211438D01*
X115149Y211899D01*
X115801Y212551D01*
X116158Y213171D01*
X263528D01*
X275647Y201052D01*
X275461Y200361D01*
Y199439D01*
X275700Y198549D01*
X276161Y197751D01*
X276812Y197099D01*
X277610Y196639D01*
X278501Y196400D01*
X279422D01*
X280312Y196639D01*
X281110Y197099D01*
X281762Y197751D01*
X282223Y198549D01*
X282408Y199241D01*
X282929Y199428D01*
X311938Y170419D01*
X312434Y170087D01*
X313020Y169971D01*
X332090D01*
X332224Y169471D01*
X331875Y169269D01*
X331231Y168625D01*
X330887Y168029D01*
X284333D01*
X268081Y184281D01*
X267585Y184613D01*
X267000Y184729D01*
X235933D01*
X217081Y203581D01*
X216585Y203913D01*
X216000Y204029D01*
X154862D01*
X154728Y204529D01*
X154849Y204599D01*
X155501Y205251D01*
X155859Y205871D01*
X233966D01*
X252019Y187819D01*
X252515Y187487D01*
X253100Y187371D01*
X260841D01*
X261199Y186751D01*
X261851Y186099D01*
X262649Y185638D01*
X263539Y185400D01*
X264461D01*
X265351Y185638D01*
X266149Y186099D01*
X266801Y186751D01*
X267262Y187549D01*
X267500Y188439D01*
Y189361D01*
X267262Y190251D01*
X266801Y191049D01*
X266149Y191701D01*
X265351Y192162D01*
X264461Y192400D01*
X263539D01*
X262649Y192162D01*
X261851Y191701D01*
X261199Y191049D01*
X260841Y190429D01*
X253733D01*
X235681Y208481D01*
X235185Y208813D01*
X234600Y208929D01*
X155859D01*
X155501Y209549D01*
X154849Y210201D01*
X154051Y210662D01*
X153161Y210900D01*
X152239D01*
X151349Y210662D01*
X150551Y210201D01*
X149899Y209549D01*
X149439Y208751D01*
X149200Y207861D01*
Y206939D01*
X149439Y206049D01*
X149899Y205251D01*
X150551Y204599D01*
X150672Y204529D01*
X150538Y204029D01*
X105639D01*
X65148Y244520D01*
X65355Y245020D01*
X70165D01*
X84366Y230819D01*
X84862Y230487D01*
X85448Y230371D01*
X140849D01*
X141434Y230487D01*
X141930Y230819D01*
X156131Y245020D01*
X159428D01*
X161029Y243419D01*
X161525Y243087D01*
X162110Y242971D01*
X222000D01*
X222585Y243087D01*
X223081Y243419D01*
X225781Y246119D01*
X225980Y246415D01*
X226315Y246463D01*
X226542Y246453D01*
X226557Y246447D01*
X227223Y245781D01*
X228092Y245280D01*
X229061Y245020D01*
X230065D01*
X231034Y245280D01*
X231903Y245781D01*
X232613Y246491D01*
X233114Y247360D01*
X233241Y247833D01*
X233759D01*
X233886Y247360D01*
D02*
G37*
G36*
X58173Y245020D02*
X59176D01*
X60080Y245262D01*
X103924Y201419D01*
X104420Y201087D01*
X105005Y200971D01*
X215367D01*
X219414Y196923D01*
X219155Y196475D01*
X219061Y196500D01*
X218139D01*
X217249Y196262D01*
X216451Y195801D01*
X215799Y195149D01*
X215338Y194351D01*
X215100Y193461D01*
Y192539D01*
X215338Y191649D01*
X215799Y190851D01*
X216451Y190199D01*
X217071Y189841D01*
Y177358D01*
X216451Y177001D01*
X215799Y176349D01*
X215338Y175551D01*
X215100Y174661D01*
Y173739D01*
X215338Y172849D01*
X215799Y172051D01*
X216451Y171399D01*
X217249Y170939D01*
X218139Y170700D01*
X219061D01*
X219951Y170939D01*
X220749Y171399D01*
X221401Y172051D01*
X221862Y172849D01*
X222100Y173739D01*
Y174661D01*
X221862Y175551D01*
X221401Y176349D01*
X220749Y177001D01*
X220129Y177358D01*
Y189841D01*
X220749Y190199D01*
X221401Y190851D01*
X221862Y191649D01*
X222100Y192539D01*
Y193461D01*
X222075Y193555D01*
X222523Y193814D01*
X234219Y182119D01*
X234715Y181787D01*
X235300Y181671D01*
X266367D01*
X282619Y165419D01*
X283115Y165087D01*
X283700Y164971D01*
X330887D01*
X331231Y164375D01*
X331875Y163731D01*
X332664Y163275D01*
X333544Y163039D01*
X334456D01*
X335336Y163275D01*
X336125Y163731D01*
X336769Y164375D01*
X337225Y165164D01*
X337461Y166044D01*
Y166956D01*
X337225Y167836D01*
X336769Y168625D01*
X336125Y169269D01*
X335776Y169471D01*
X335910Y169971D01*
X349366D01*
X361717Y157620D01*
X361539Y156956D01*
Y156044D01*
X361775Y155164D01*
X362231Y154375D01*
X362875Y153731D01*
X363224Y153529D01*
X363090Y153029D01*
X339633D01*
X337283Y155380D01*
X337461Y156044D01*
Y156956D01*
X337225Y157836D01*
X336769Y158625D01*
X336125Y159269D01*
X335336Y159725D01*
X334456Y159961D01*
X333544D01*
X332664Y159725D01*
X331875Y159269D01*
X331231Y158625D01*
X330775Y157836D01*
X330539Y156956D01*
Y156044D01*
X330775Y155164D01*
X331231Y154375D01*
X331476Y154129D01*
X331269Y153629D01*
X305161D01*
X295609Y163181D01*
X295112Y163513D01*
X294527Y163629D01*
X275507D01*
X275500Y163639D01*
Y164561D01*
X275261Y165451D01*
X274801Y166249D01*
X274149Y166901D01*
X273351Y167361D01*
X272500Y167589D01*
Y164100D01*
X271500D01*
Y167589D01*
X270649Y167361D01*
X270074Y167029D01*
X254040D01*
X253719Y167586D01*
X253086Y168219D01*
X252311Y168666D01*
X251500Y168884D01*
Y165500D01*
Y162117D01*
X252068Y162269D01*
X252908Y161429D01*
X252701Y160929D01*
X172400D01*
X171815Y160813D01*
X171319Y160481D01*
X159022Y148185D01*
X158020Y148453D01*
X156980D01*
X155974Y148183D01*
X155073Y147663D01*
X154841Y147431D01*
X154215Y147512D01*
X154081Y147713D01*
X56940Y244854D01*
X57203Y245280D01*
X58173Y245020D01*
D02*
G37*
G36*
X332224Y179471D02*
X331875Y179269D01*
X331231Y178625D01*
X330775Y177836D01*
X330539Y176956D01*
Y176044D01*
X330775Y175164D01*
X331231Y174375D01*
X331875Y173731D01*
X332224Y173529D01*
X332090Y173029D01*
X313653D01*
X307174Y179509D01*
X307365Y179971D01*
X332090D01*
X332224Y179471D01*
D02*
G37*
G36*
X303446Y151019D02*
X303942Y150687D01*
X304527Y150571D01*
X333581D01*
X333654Y150461D01*
X333614Y150276D01*
X333411Y149925D01*
X332664Y149725D01*
X331875Y149269D01*
X331231Y148625D01*
X330887Y148029D01*
X293500D01*
X292915Y147913D01*
X292419Y147581D01*
X291866Y147029D01*
X254398D01*
Y148898D01*
X249765D01*
X248581Y150081D01*
X248085Y150413D01*
X247500Y150529D01*
X202000D01*
X201415Y150413D01*
X200919Y150081D01*
X199022Y148185D01*
X198020Y148453D01*
X196980D01*
X195974Y148183D01*
X195073Y147663D01*
X194337Y146927D01*
X193817Y146026D01*
X193547Y145020D01*
Y143980D01*
X193817Y142974D01*
X194337Y142073D01*
X195073Y141337D01*
X195432Y141129D01*
X195299Y140629D01*
X189701D01*
X189567Y141129D01*
X189927Y141337D01*
X190663Y142073D01*
X191183Y142974D01*
X191453Y143980D01*
Y145020D01*
X191184Y146022D01*
X199134Y153971D01*
X247960D01*
X248281Y153414D01*
X248914Y152781D01*
X249689Y152334D01*
X250553Y152102D01*
X251447D01*
X252311Y152334D01*
X253086Y152781D01*
X253719Y153414D01*
X254166Y154189D01*
X254398Y155053D01*
Y155947D01*
X254166Y156811D01*
X253843Y157371D01*
X254107Y157871D01*
X287767D01*
X291985Y153652D01*
X291800Y152961D01*
Y152039D01*
X292038Y151149D01*
X292499Y150351D01*
X293151Y149699D01*
X293949Y149239D01*
X294839Y149000D01*
X295761D01*
X296651Y149239D01*
X297449Y149699D01*
X298101Y150351D01*
X298562Y151149D01*
X298800Y152039D01*
Y152961D01*
X298562Y153851D01*
X298101Y154649D01*
X297449Y155301D01*
X296651Y155762D01*
X295761Y156000D01*
X294839D01*
X294148Y155815D01*
X289892Y160071D01*
X290099Y160571D01*
X293894D01*
X303446Y151019D01*
D02*
G37*
G36*
X248096Y157455D02*
X247845Y157029D01*
X198500D01*
X197915Y156913D01*
X197419Y156581D01*
X189022Y148185D01*
X188020Y148453D01*
X186980D01*
X185974Y148183D01*
X185073Y147663D01*
X184337Y146927D01*
X183817Y146026D01*
X183547Y145020D01*
Y143980D01*
X183817Y142974D01*
X184337Y142073D01*
X185073Y141337D01*
X185433Y141129D01*
X185299Y140629D01*
X179701D01*
X179568Y141129D01*
X179927Y141337D01*
X180663Y142073D01*
X181183Y142974D01*
X181453Y143980D01*
Y145020D01*
X181183Y146026D01*
X180663Y146927D01*
X179927Y147663D01*
X179026Y148183D01*
X178020Y148453D01*
X176980D01*
X175978Y148185D01*
X174129Y150034D01*
X173633Y150366D01*
X173047Y150482D01*
X166298D01*
X166107Y150944D01*
X173033Y157871D01*
X247870D01*
X248096Y157455D01*
D02*
G37*
G36*
X363224Y149471D02*
X362875Y149269D01*
X362231Y148625D01*
X361887Y148029D01*
X340833D01*
X339392Y149471D01*
X339599Y149971D01*
X363090D01*
X363224Y149471D01*
D02*
G37*
G36*
X73946Y151109D02*
X71919Y149081D01*
X71587Y148585D01*
X71471Y148000D01*
Y146528D01*
X70971Y146394D01*
X70663Y146927D01*
X69927Y147663D01*
X69026Y148183D01*
X68020Y148453D01*
X66980D01*
X65974Y148183D01*
X65073Y147663D01*
X64337Y146927D01*
X63817Y146026D01*
X63547Y145020D01*
Y143980D01*
X63817Y142974D01*
X64337Y142073D01*
X65073Y141337D01*
X65974Y140817D01*
X66980Y140547D01*
X68020D01*
X69026Y140817D01*
X69927Y141337D01*
X70663Y142073D01*
X70971Y142606D01*
X71471Y142472D01*
Y128000D01*
X71587Y127415D01*
X71919Y126919D01*
X72346Y126491D01*
X72154Y126029D01*
X57134D01*
X54529Y128633D01*
Y141227D01*
X54991Y141419D01*
X55073Y141337D01*
X55974Y140817D01*
X56980Y140547D01*
X58020D01*
X59026Y140817D01*
X59927Y141337D01*
X60663Y142073D01*
X61183Y142974D01*
X61453Y143980D01*
Y145020D01*
X61183Y146026D01*
X60663Y146927D01*
X59927Y147663D01*
X59026Y148183D01*
X58020Y148453D01*
X56980D01*
X56082Y148212D01*
X55810Y148572D01*
X55788Y148625D01*
X58733Y151571D01*
X73754D01*
X73946Y151109D01*
D02*
G37*
G36*
X445262Y147843D02*
X445020Y146939D01*
Y145935D01*
X445280Y144966D01*
X444854Y144702D01*
X436975Y152581D01*
X436479Y152913D01*
X435894Y153029D01*
X366910D01*
X366776Y153529D01*
X367125Y153731D01*
X367769Y154375D01*
X368113Y154971D01*
X438134D01*
X445262Y147843D01*
D02*
G37*
G36*
X247602Y146735D02*
Y142102D01*
X254398D01*
Y143971D01*
X292500D01*
X293085Y144087D01*
X293581Y144419D01*
X294133Y144971D01*
X307084D01*
X307218Y144471D01*
X306751Y144201D01*
X306099Y143549D01*
X305639Y142751D01*
X305400Y141861D01*
Y140939D01*
X305162Y140629D01*
X211453D01*
Y144000D01*
X207500D01*
Y145000D01*
X211453D01*
Y147471D01*
X246866D01*
X247602Y146735D01*
D02*
G37*
G36*
X165073Y141337D02*
X165974Y140817D01*
X166980Y140547D01*
X168020D01*
X169022Y140815D01*
X171819Y138019D01*
X172315Y137687D01*
X172900Y137571D01*
X306600D01*
X307185Y137687D01*
X307681Y138019D01*
X307748Y138085D01*
X308439Y137900D01*
X309361D01*
X310251Y138138D01*
X311049Y138599D01*
X311400Y138950D01*
X311900Y138743D01*
Y138539D01*
X312085Y137848D01*
X310367Y136129D01*
X168633D01*
X164529Y140234D01*
Y141227D01*
X164991Y141419D01*
X165073Y141337D01*
D02*
G37*
G36*
X75073D02*
X75974Y140817D01*
X76980Y140547D01*
X78020D01*
X79022Y140815D01*
X91346Y128491D01*
X91154Y128029D01*
X75134D01*
X74529Y128633D01*
Y141227D01*
X74991Y141419D01*
X75073Y141337D01*
D02*
G37*
G36*
X273185Y125252D02*
X273000Y124561D01*
Y123639D01*
X273238Y122749D01*
X273699Y121951D01*
X274121Y121529D01*
X273914Y121029D01*
X202761D01*
X197282Y126509D01*
X197473Y126971D01*
X271466D01*
X273185Y125252D01*
D02*
G37*
%LPC*%
G36*
X250500Y168884D02*
X249689Y168666D01*
X248914Y168219D01*
X248281Y167586D01*
X247834Y166811D01*
X247617Y166000D01*
X250500D01*
Y168884D01*
D02*
G37*
G36*
Y165000D02*
X247617D01*
X247834Y164189D01*
X248281Y163414D01*
X248914Y162781D01*
X249689Y162334D01*
X250500Y162117D01*
Y165000D01*
D02*
G37*
%LPD*%
G36*
X445020Y214409D02*
X450893D01*
X451085Y213947D01*
X448067Y210929D01*
X413661D01*
Y219571D01*
X445020D01*
Y214409D01*
D02*
G37*
D15*
X378100Y247600D02*
X383594D01*
X340200Y146500D02*
X344000D01*
X377300Y134200D02*
X426500Y85000D01*
X365000Y146500D02*
X377300Y134200D01*
X254400Y162100D02*
X294527D01*
X352400Y192300D02*
X364000D01*
X187500Y144500D02*
X198500Y155500D01*
X251000D01*
X310000Y130500D02*
X334000Y106500D01*
X162500Y130500D02*
X310000D01*
X153000Y140000D02*
X162500Y130500D01*
X153000Y140000D02*
Y146631D01*
X50800Y248831D02*
X153000Y146631D01*
X426436Y77500D02*
X426500D01*
X422964Y74029D02*
X426436Y77500D01*
X422964Y73964D02*
Y74029D01*
X344000Y146500D02*
X365000D01*
X334000Y136500D02*
X344000Y146500D01*
X448831Y245780D02*
X453200Y241410D01*
Y213900D02*
Y241410D01*
X448700Y209400D02*
X453200Y213900D01*
X405100Y209400D02*
X448700D01*
X399000Y215500D02*
X405100Y209400D01*
X334600Y152100D02*
X340200Y146500D01*
X304527Y152100D02*
X334600D01*
X294527Y162100D02*
X304527Y152100D01*
X251000Y165500D02*
X254400Y162100D01*
X218600Y174200D02*
Y193000D01*
X284220Y212100D02*
X299900D01*
X310700Y222900D01*
X253100Y188900D02*
X264000D01*
X234600Y207400D02*
X253100Y188900D01*
X152700Y207400D02*
X234600D01*
X285500Y112800D02*
X291300Y118600D01*
X204876Y112800D02*
X285500D01*
X193176Y124500D02*
X204876Y112800D01*
X56500Y124500D02*
X193176D01*
X53000Y128000D02*
X56500Y124500D01*
X53000Y128000D02*
Y148000D01*
X58100Y153100D01*
X98900D01*
X107500Y144500D01*
X288400Y159400D02*
X295300Y152500D01*
X172400Y159400D02*
X288400D01*
X157500Y144500D02*
X172400Y159400D01*
X167500Y144500D02*
X172900Y139100D01*
X306600D01*
X308900Y141400D01*
X47500Y122100D02*
Y144500D01*
Y122100D02*
X65000Y104600D01*
X217000D01*
X221600Y100000D01*
X267700Y63900D02*
X294300Y90500D01*
X350688D01*
X308700Y197200D02*
X322000Y210500D01*
X361000D01*
X365000Y206500D01*
X387100Y61700D02*
X423700D01*
X430036Y68036D01*
Y81036D01*
X351000Y100500D02*
X365000Y86500D01*
X253700Y100500D02*
X351000D01*
X247600Y106600D02*
X253700Y100500D01*
X194200Y106600D02*
X247600D01*
X182300Y118500D02*
X194200Y106600D01*
X57500Y100600D02*
X214400D01*
X37500Y95300D02*
Y144500D01*
Y95300D02*
X44000Y88800D01*
X222100D01*
X448831Y156280D02*
X453200Y151910D01*
Y135400D02*
Y151910D01*
X452000Y134200D02*
X453200Y135400D01*
X377300Y134200D02*
X452000D01*
X426500Y77500D02*
Y85000D01*
X272100Y128500D02*
X276500Y124100D01*
X93500Y128500D02*
X272100D01*
X77500Y144500D02*
X93500Y128500D01*
X202128Y119500D02*
X281400D01*
X195128Y126500D02*
X202128Y119500D01*
X74500Y126500D02*
X195128D01*
X73000Y128000D02*
X74500Y126500D01*
X73000Y128000D02*
Y148000D01*
X75900Y150900D01*
X81100D01*
X87500Y144500D01*
X251000Y165500D02*
X270600D01*
X272000Y164100D01*
X311000Y134600D02*
X315400Y139000D01*
X168000Y134600D02*
X311000D01*
X163000Y139600D02*
X168000Y134600D01*
X163000Y139600D02*
Y146900D01*
X165053Y148953D01*
X173047D01*
X177500Y144500D01*
X283700Y166500D02*
X334000D01*
X267000Y183200D02*
X283700Y166500D01*
X235300Y183200D02*
X267000D01*
X216000Y202500D02*
X235300Y183200D01*
X105005Y202500D02*
X216000D01*
X58674Y248831D02*
X105005Y202500D01*
X293500Y146500D02*
X334000D01*
X292500Y145500D02*
X293500Y146500D01*
X251000Y145500D02*
X292500D01*
X113000Y214700D02*
X264161D01*
X278961Y199900D01*
X330000Y142500D02*
X334000Y146500D01*
X330000Y134000D02*
Y142500D01*
Y134000D02*
X332000Y132000D01*
X359500D01*
X365000Y126500D01*
X380100Y175900D02*
X385500D01*
X375500Y180500D02*
X380100Y175900D01*
X364200Y180500D02*
X375500D01*
X352400Y192300D02*
X364200Y180500D01*
X319400Y192300D02*
X352400D01*
X435894Y151500D02*
X448831Y138563D01*
X339000Y151500D02*
X435894D01*
X334000Y156500D02*
X339000Y151500D01*
X323563Y247831D02*
X351032Y275300D01*
X409468D01*
X448831Y235937D01*
X237437Y248831D02*
X239966Y246302D01*
Y244554D02*
Y246302D01*
Y244554D02*
X313020Y171500D01*
X350000D01*
X365000Y156500D01*
X243748Y252362D02*
X247280Y248831D01*
X243748Y252362D02*
Y254000D01*
X242606Y255142D02*
X243748Y254000D01*
X228942Y255142D02*
X242606D01*
X224700Y250900D02*
X228942Y255142D01*
X224700Y247200D02*
Y250900D01*
X222000Y244500D02*
X224700Y247200D01*
X162110Y244500D02*
X222000D01*
X157780Y248831D02*
X162110Y244500D01*
X219720Y248831D02*
X228032Y257142D01*
X250483D01*
X259794Y247831D01*
X313720D01*
X350000Y181500D02*
X365000Y166500D01*
X305920Y181500D02*
X350000D01*
X242900Y244520D02*
X305920Y181500D01*
X242900Y244520D02*
Y248300D01*
X241748Y249452D02*
X242900Y248300D01*
X241748Y249452D02*
Y252000D01*
X240606Y253142D02*
X241748Y252000D01*
X233874Y253142D02*
X240606D01*
X229563Y248831D02*
X233874Y253142D01*
X365000Y193300D02*
Y196500D01*
X364000Y192300D02*
X365000Y193300D01*
Y186500D02*
X376500Y198000D01*
Y220000D01*
X392437Y235937D01*
X448831D01*
X197500Y144500D02*
X202000Y149000D01*
X247500D01*
X251000Y145500D01*
X365000Y156500D02*
X438768D01*
X448831Y146437D01*
X389000Y215500D02*
X394600Y221100D01*
X445951D01*
X448831Y218220D01*
X383594Y247600D02*
Y250434D01*
X360900Y230400D02*
X378100Y247600D01*
X331151Y230400D02*
X360900D01*
X313720Y247831D02*
X331151Y230400D01*
X166469Y248831D02*
X219720D01*
X162100Y253200D02*
X166469Y248831D01*
X134590Y253200D02*
X162100D01*
X130220Y248831D02*
X134590Y253200D01*
X140849Y231900D02*
X157780Y248831D01*
X85448Y231900D02*
X140849D01*
X68517Y248831D02*
X85448Y231900D01*
X80031Y248831D02*
X130220D01*
X72562Y256300D02*
X80031Y248831D01*
X48427Y256300D02*
X72562D01*
X40958Y248831D02*
X48427Y256300D01*
D51*
X45000Y230000D02*
D03*
Y30000D02*
D03*
X450000Y280000D02*
D03*
X324000Y30000D02*
D03*
D52*
X404067Y264214D02*
D03*
D53*
X379657D02*
D03*
D54*
X383594Y250434D02*
D03*
D55*
X409264Y52000D02*
D03*
X412800Y55536D02*
D03*
X422964Y73964D02*
D03*
X426500Y77500D02*
D03*
X430036Y81036D02*
D03*
D56*
X419429Y70429D02*
D03*
D57*
X334000Y206500D02*
D03*
D58*
Y196500D02*
D03*
Y186500D02*
D03*
Y176500D02*
D03*
Y166500D02*
D03*
Y156500D02*
D03*
Y146500D02*
D03*
Y136500D02*
D03*
Y126500D02*
D03*
Y116500D02*
D03*
Y106500D02*
D03*
Y96500D02*
D03*
Y86500D02*
D03*
Y76500D02*
D03*
X365000D02*
D03*
Y86500D02*
D03*
Y96500D02*
D03*
Y106500D02*
D03*
Y116500D02*
D03*
Y126500D02*
D03*
Y136500D02*
D03*
Y146500D02*
D03*
Y156500D02*
D03*
Y166500D02*
D03*
Y176500D02*
D03*
Y186500D02*
D03*
Y196500D02*
D03*
Y206500D02*
D03*
D59*
X37500Y144500D02*
D03*
X47500D02*
D03*
X57500D02*
D03*
X67500D02*
D03*
X77500D02*
D03*
X87500D02*
D03*
X97500D02*
D03*
X107500D02*
D03*
X117500D02*
D03*
X127500D02*
D03*
X137500D02*
D03*
X147500D02*
D03*
X157500D02*
D03*
X167500D02*
D03*
X177500D02*
D03*
X187500D02*
D03*
X197500D02*
D03*
D60*
X207500D02*
D03*
D61*
X157780Y248831D02*
D03*
X68517D02*
D03*
X341280Y247831D02*
D03*
X247280Y248831D02*
D03*
D62*
X147937D02*
D03*
X140063D02*
D03*
X130220D02*
D03*
X58674D02*
D03*
X50800D02*
D03*
X40958D02*
D03*
X448831Y228063D02*
D03*
Y235937D02*
D03*
Y245780D02*
D03*
Y138563D02*
D03*
Y146437D02*
D03*
Y156280D02*
D03*
X331437Y247831D02*
D03*
X323563D02*
D03*
X313720D02*
D03*
X237437Y248831D02*
D03*
X229563D02*
D03*
X219720D02*
D03*
D63*
X169866Y259500D02*
D03*
X118134D02*
D03*
X80603D02*
D03*
X28871D02*
D03*
X459500Y206134D02*
D03*
Y257866D02*
D03*
Y116634D02*
D03*
Y168366D02*
D03*
X353366Y258500D02*
D03*
X301634D02*
D03*
X259366Y259500D02*
D03*
X207634D02*
D03*
D64*
X448831Y218220D02*
D03*
Y128720D02*
D03*
D65*
X251000Y145500D02*
D03*
D66*
Y155500D02*
D03*
Y165500D02*
D03*
D67*
X409000Y215500D02*
D03*
D68*
X399000D02*
D03*
X389000D02*
D03*
D69*
X218600Y174200D02*
D03*
Y193000D02*
D03*
X284220Y212100D02*
D03*
X310700Y222900D02*
D03*
X264000Y188900D02*
D03*
X152700Y207400D02*
D03*
X291300Y118600D02*
D03*
X295300Y152500D02*
D03*
X308900Y141400D02*
D03*
X221600Y100000D02*
D03*
X267700Y63900D02*
D03*
X350688Y90500D02*
D03*
X308700Y197200D02*
D03*
X387100Y61700D02*
D03*
X182300Y118500D02*
D03*
X57500Y100600D02*
D03*
X214400D02*
D03*
X222100Y88800D02*
D03*
X276500Y124100D02*
D03*
X281400Y119500D02*
D03*
X272000Y164100D02*
D03*
X315400Y139000D02*
D03*
X113000Y214700D02*
D03*
X278961Y199900D02*
D03*
X385500Y175900D02*
D03*
X319400Y192300D02*
D03*
M02*
