M48
;Layer_Color=9474304
;FILE_FORMAT=2:5
INCH,TZ
;TYPE=PLATED
T1F00S00C0.02800
T2F00S00C0.03071
T4F00S00C0.03543
T5F00S00C0.03622
T6F00S00C0.03900
T7F00S00C0.08898
T8F00S00C0.11811
%
T01
X350500Y95800
X401500Y105000
X476900Y120600
X472900Y127000
X502000Y211000
X407900Y173500
X327700Y211000
X400000Y289700
X261200Y225000
X240000Y220400
X346500Y332300
X361457Y337595
T02
X252370Y166000
Y176000
Y186000
Y196000
Y206000
Y216000
Y226000
Y236000
X283630
Y226000
Y216000
Y206000
Y196000
Y186000
Y176000
Y166000
T04
X219000Y31000
Y41000
Y51000
Y61000
Y71000
Y81000
Y91000
Y101000
Y111000
Y121000
Y131000
Y141000
Y151000
X462358Y12358
X469429Y19429
X476500Y26500
X483571Y33571
X490642Y40642
X510858Y85142
X517929Y78071
X525000Y71000
X532071Y63929
X548328Y81500
X555399Y88571
X555500Y239000
X565500
X575500
X585500
X219000Y221000
Y211000
Y201000
Y191000
Y181000
Y171000
Y161000
T05
X163042Y311831
X224746
X234588
X242462
X252305
X153200
X145326
X135483
X73780
X63937
X56063
X46220
X351220Y347831
X361063
X368937
X378780
X440483Y347331
X450326
X458200
X468042
X529746
X539588
X547462
X557305
T06
X318000Y85500
Y95500
Y105500
Y115500
Y125500
Y135500
Y145500
Y155500
X378000
Y145500
Y135500
Y125500
Y115500
Y105500
Y95500
Y85500
Y165500
Y175500
Y185500
Y195500
Y205500
Y215500
Y225500
Y235500
Y245500
Y255500
Y265500
Y275500
X318000
Y265500
Y255500
Y245500
Y235500
Y225500
Y215500
Y205500
Y195500
Y185500
Y175500
Y165500
T07
X34134Y322500
X85866
X123397
X175129
X212659
X264391
X339134Y358500
X390866
X428397Y358000
X480129
X517659
X569391
T08
X20000Y20000
X270000Y70000
X541500Y137500
X290000Y270000
X20000Y289500
X570000Y320000
M30
