G04*
G04 #@! TF.GenerationSoftware,Altium Limited,Altium Designer,22.1.2 (22)*
G04*
G04 Layer_Color=255*
%FSLAX25Y25*%
%MOIN*%
G70*
G04*
G04 #@! TF.SameCoordinates,2374D94A-E5D5-4E5D-BBDB-F5A8C7ADDA7F*
G04*
G04*
G04 #@! TF.FilePolarity,Positive*
G04*
G01*
G75*
%ADD16R,0.04500X0.06000*%
G04:AMPARAMS|DCode=17|XSize=51.18mil|YSize=29.92mil|CornerRadius=3.74mil|HoleSize=0mil|Usage=FLASHONLY|Rotation=135.000|XOffset=0mil|YOffset=0mil|HoleType=Round|Shape=RoundedRectangle|*
%AMROUNDEDRECTD17*
21,1,0.05118,0.02244,0,0,135.0*
21,1,0.04370,0.02992,0,0,135.0*
1,1,0.00748,-0.00752,0.02339*
1,1,0.00748,0.02339,-0.00752*
1,1,0.00748,0.00752,-0.02339*
1,1,0.00748,-0.02339,0.00752*
%
%ADD17ROUNDEDRECTD17*%
%ADD18R,0.03937X0.05118*%
%ADD19R,0.07874X0.21654*%
%ADD20R,0.05512X0.08268*%
G04:AMPARAMS|DCode=21|XSize=51.18mil|YSize=29.92mil|CornerRadius=3.74mil|HoleSize=0mil|Usage=FLASHONLY|Rotation=90.000|XOffset=0mil|YOffset=0mil|HoleType=Round|Shape=RoundedRectangle|*
%AMROUNDEDRECTD21*
21,1,0.05118,0.02244,0,0,90.0*
21,1,0.04370,0.02992,0,0,90.0*
1,1,0.00748,0.01122,0.02185*
1,1,0.00748,0.01122,-0.02185*
1,1,0.00748,-0.01122,-0.02185*
1,1,0.00748,-0.01122,0.02185*
%
%ADD21ROUNDEDRECTD21*%
G04:AMPARAMS|DCode=22|XSize=74.8mil|YSize=18.9mil|CornerRadius=4.72mil|HoleSize=0mil|Usage=FLASHONLY|Rotation=90.000|XOffset=0mil|YOffset=0mil|HoleType=Round|Shape=RoundedRectangle|*
%AMROUNDEDRECTD22*
21,1,0.07480,0.00945,0,0,90.0*
21,1,0.06535,0.01890,0,0,90.0*
1,1,0.00945,0.00472,0.03268*
1,1,0.00945,0.00472,-0.03268*
1,1,0.00945,-0.00472,-0.03268*
1,1,0.00945,-0.00472,0.03268*
%
%ADD22ROUNDEDRECTD22*%
G04:AMPARAMS|DCode=23|XSize=51.18mil|YSize=29.92mil|CornerRadius=3.74mil|HoleSize=0mil|Usage=FLASHONLY|Rotation=180.000|XOffset=0mil|YOffset=0mil|HoleType=Round|Shape=RoundedRectangle|*
%AMROUNDEDRECTD23*
21,1,0.05118,0.02244,0,0,180.0*
21,1,0.04370,0.02992,0,0,180.0*
1,1,0.00748,-0.02185,0.01122*
1,1,0.00748,0.02185,0.01122*
1,1,0.00748,0.02185,-0.01122*
1,1,0.00748,-0.02185,-0.01122*
%
%ADD23ROUNDEDRECTD23*%
%ADD51C,0.18000*%
%ADD52O,0.08661X0.17323*%
%ADD53O,0.07087X0.14173*%
%ADD54O,0.05937X0.11874*%
%ADD55C,0.03937*%
%ADD56P,0.05568X4X90.0*%
%ADD57R,0.04921X0.04921*%
%ADD58C,0.04921*%
%ADD59C,0.05906*%
%ADD60R,0.05906X0.05906*%
%ADD61R,0.05622X0.05622*%
%ADD62C,0.05622*%
%ADD63C,0.12898*%
%ADD64R,0.05622X0.05622*%
%ADD65R,0.04795X0.04795*%
%ADD66C,0.04795*%
%ADD67R,0.07323X0.07323*%
%ADD68C,0.07323*%
D16*
X367000Y61000D02*
D03*
X375000D02*
D03*
X385500Y185500D02*
D03*
X377500D02*
D03*
X385500Y196000D02*
D03*
X377500D02*
D03*
X234500Y114056D02*
D03*
X226500D02*
D03*
X234500Y104000D02*
D03*
X226500D02*
D03*
X234500Y93944D02*
D03*
X226500D02*
D03*
D17*
X407978Y92978D02*
D03*
X402995Y87995D02*
D03*
D18*
X322953Y130500D02*
D03*
X317047D02*
D03*
Y109000D02*
D03*
X322953D02*
D03*
D19*
X300500Y138201D02*
D03*
Y100799D02*
D03*
D20*
X130358Y111827D02*
D03*
Y76000D02*
D03*
X112642D02*
D03*
Y111827D02*
D03*
X219500Y61461D02*
D03*
Y25634D02*
D03*
X201783D02*
D03*
Y61461D02*
D03*
X159858Y87913D02*
D03*
Y52087D02*
D03*
X142142D02*
D03*
Y87913D02*
D03*
X257500Y62461D02*
D03*
Y26634D02*
D03*
X239783D02*
D03*
Y62461D02*
D03*
X98858Y87913D02*
D03*
Y52087D02*
D03*
X81142D02*
D03*
Y87913D02*
D03*
X130358Y52413D02*
D03*
Y16587D02*
D03*
X112642D02*
D03*
Y52413D02*
D03*
D21*
X401004Y239000D02*
D03*
X393957D02*
D03*
X407500D02*
D03*
X414547D02*
D03*
D22*
X271425Y191701D02*
D03*
X273984D02*
D03*
X276543D02*
D03*
X279102D02*
D03*
X281661D02*
D03*
X284220D02*
D03*
X286780D02*
D03*
X289339D02*
D03*
X291898D02*
D03*
X294457D02*
D03*
X297016D02*
D03*
X299575D02*
D03*
Y219299D02*
D03*
X297016D02*
D03*
X294457D02*
D03*
X291898D02*
D03*
X289339D02*
D03*
X286780D02*
D03*
X284220D02*
D03*
X281661D02*
D03*
X279102D02*
D03*
X276543D02*
D03*
X273984D02*
D03*
X271425D02*
D03*
D23*
X391000Y128504D02*
D03*
Y121457D02*
D03*
X382000Y137004D02*
D03*
Y129957D02*
D03*
X374000Y145004D02*
D03*
Y137957D02*
D03*
D51*
X45000Y230000D02*
D03*
Y30000D02*
D03*
X450000Y280000D02*
D03*
X324000Y30000D02*
D03*
D52*
X404067Y264214D02*
D03*
D53*
X379657D02*
D03*
D54*
X383594Y250434D02*
D03*
D55*
X409264Y52000D02*
D03*
X412800Y55536D02*
D03*
X422964Y73964D02*
D03*
X426500Y77500D02*
D03*
X430036Y81036D02*
D03*
D56*
X419429Y70429D02*
D03*
D57*
X334000Y206500D02*
D03*
D58*
Y196500D02*
D03*
Y186500D02*
D03*
Y176500D02*
D03*
Y166500D02*
D03*
Y156500D02*
D03*
Y146500D02*
D03*
Y136500D02*
D03*
Y126500D02*
D03*
Y116500D02*
D03*
Y106500D02*
D03*
Y96500D02*
D03*
Y86500D02*
D03*
Y76500D02*
D03*
X365000D02*
D03*
Y86500D02*
D03*
Y96500D02*
D03*
Y106500D02*
D03*
Y116500D02*
D03*
Y126500D02*
D03*
Y136500D02*
D03*
Y146500D02*
D03*
Y156500D02*
D03*
Y166500D02*
D03*
Y176500D02*
D03*
Y186500D02*
D03*
Y196500D02*
D03*
Y206500D02*
D03*
D59*
X37500Y144500D02*
D03*
X47500D02*
D03*
X57500D02*
D03*
X67500D02*
D03*
X77500D02*
D03*
X87500D02*
D03*
X97500D02*
D03*
X107500D02*
D03*
X117500D02*
D03*
X127500D02*
D03*
X137500D02*
D03*
X147500D02*
D03*
X157500D02*
D03*
X167500D02*
D03*
X177500D02*
D03*
X187500D02*
D03*
X197500D02*
D03*
D60*
X207500D02*
D03*
D61*
X157780Y248831D02*
D03*
X68517D02*
D03*
X341280Y247831D02*
D03*
X247280Y248831D02*
D03*
D62*
X147937D02*
D03*
X140063D02*
D03*
X130220D02*
D03*
X58674D02*
D03*
X50800D02*
D03*
X40958D02*
D03*
X448831Y228063D02*
D03*
Y235937D02*
D03*
Y245780D02*
D03*
Y138563D02*
D03*
Y146437D02*
D03*
Y156280D02*
D03*
X331437Y247831D02*
D03*
X323563D02*
D03*
X313720D02*
D03*
X237437Y248831D02*
D03*
X229563D02*
D03*
X219720D02*
D03*
D63*
X169866Y259500D02*
D03*
X118134D02*
D03*
X80603D02*
D03*
X28871D02*
D03*
X459500Y206134D02*
D03*
Y257866D02*
D03*
Y116634D02*
D03*
Y168366D02*
D03*
X353366Y258500D02*
D03*
X301634D02*
D03*
X259366Y259500D02*
D03*
X207634D02*
D03*
D64*
X448831Y218220D02*
D03*
Y128720D02*
D03*
D65*
X251000Y145500D02*
D03*
D66*
Y155500D02*
D03*
Y165500D02*
D03*
D67*
X409000Y215500D02*
D03*
D68*
X399000D02*
D03*
X389000D02*
D03*
M02*
