G04*
G04 #@! TF.GenerationSoftware,Altium Limited,Altium Designer,22.1.2 (22)*
G04*
G04 Layer_Color=16711935*
%FSLAX25Y25*%
%MOIN*%
G70*
G04*
G04 #@! TF.SameCoordinates,6339715F-6F4B-4C81-9F29-0EB7974063C6*
G04*
G04*
G04 #@! TF.FilePolarity,Negative*
G04*
G01*
G75*
%ADD44C,0.06706*%
%ADD45R,0.06706X0.06706*%
%ADD46C,0.13698*%
%ADD47C,0.06422*%
%ADD48R,0.06422X0.06422*%
%ADD49R,0.06706X0.06706*%
%ADD50P,0.09483X4X90.0*%
%ADD51C,0.06700*%
%ADD52R,0.06700X0.06700*%
%ADD53R,0.05249X0.05249*%
%ADD54C,0.05249*%
%ADD55P,0.09483X4X180.0*%
%ADD56O,0.08674X0.16548*%
%ADD57O,0.19304X0.10052*%
%ADD58C,0.05800*%
%ADD59C,0.15800*%
D44*
X219000Y221000D02*
D03*
Y211000D02*
D03*
Y201000D02*
D03*
Y191000D02*
D03*
Y181000D02*
D03*
Y171000D02*
D03*
Y161000D02*
D03*
Y151000D02*
D03*
Y141000D02*
D03*
Y131000D02*
D03*
Y121000D02*
D03*
Y111000D02*
D03*
Y101000D02*
D03*
Y91000D02*
D03*
Y81000D02*
D03*
Y71000D02*
D03*
Y61000D02*
D03*
Y51000D02*
D03*
Y41000D02*
D03*
X555500Y239000D02*
D03*
X565500D02*
D03*
X575500D02*
D03*
X490642Y40642D02*
D03*
X483571Y33571D02*
D03*
X476500Y26500D02*
D03*
X469429Y19429D02*
D03*
X555399Y88571D02*
D03*
X510858Y85142D02*
D03*
X517929Y78071D02*
D03*
X525000Y71000D02*
D03*
D45*
X219000Y31000D02*
D03*
D46*
X123397Y322500D02*
D03*
X175129D02*
D03*
X212659D02*
D03*
X264391D02*
D03*
X85866D02*
D03*
X34134D02*
D03*
X569391Y358000D02*
D03*
X517659D02*
D03*
X480129D02*
D03*
X428397D02*
D03*
X390866Y358500D02*
D03*
X339134D02*
D03*
D47*
X135483Y311831D02*
D03*
X145326D02*
D03*
X153200D02*
D03*
X224746D02*
D03*
X234588D02*
D03*
X242462D02*
D03*
X63937D02*
D03*
X56063D02*
D03*
X46220D02*
D03*
X547462Y347331D02*
D03*
X539588D02*
D03*
X529746D02*
D03*
X458200D02*
D03*
X450326D02*
D03*
X440483D02*
D03*
X368937Y347831D02*
D03*
X361063D02*
D03*
X351220D02*
D03*
D48*
X163042Y311831D02*
D03*
X252305D02*
D03*
X73780D02*
D03*
X557305Y347331D02*
D03*
X468042D02*
D03*
X378780Y347831D02*
D03*
D49*
X585500Y239000D02*
D03*
D50*
X462358Y12358D02*
D03*
X548328Y81500D02*
D03*
D51*
X378000Y275500D02*
D03*
Y265500D02*
D03*
Y255500D02*
D03*
Y245500D02*
D03*
Y235500D02*
D03*
Y225500D02*
D03*
Y215500D02*
D03*
Y205500D02*
D03*
Y195500D02*
D03*
Y185500D02*
D03*
Y175500D02*
D03*
Y165500D02*
D03*
Y155500D02*
D03*
Y145500D02*
D03*
Y135500D02*
D03*
Y125500D02*
D03*
Y115500D02*
D03*
Y105500D02*
D03*
Y95500D02*
D03*
Y85500D02*
D03*
X318000D02*
D03*
Y95500D02*
D03*
Y105500D02*
D03*
Y115500D02*
D03*
Y125500D02*
D03*
Y135500D02*
D03*
Y145500D02*
D03*
Y155500D02*
D03*
Y165500D02*
D03*
Y175500D02*
D03*
Y185500D02*
D03*
Y195500D02*
D03*
Y205500D02*
D03*
Y215500D02*
D03*
Y225500D02*
D03*
Y235500D02*
D03*
Y245500D02*
D03*
Y255500D02*
D03*
Y265500D02*
D03*
D52*
Y275500D02*
D03*
D53*
X283630Y166000D02*
D03*
D54*
Y176000D02*
D03*
Y186000D02*
D03*
Y196000D02*
D03*
Y206000D02*
D03*
Y216000D02*
D03*
Y226000D02*
D03*
Y236000D02*
D03*
X252370D02*
D03*
Y226000D02*
D03*
Y216000D02*
D03*
Y206000D02*
D03*
Y196000D02*
D03*
Y186000D02*
D03*
Y176000D02*
D03*
Y166000D02*
D03*
D55*
X532071Y63929D02*
D03*
D56*
X546378Y190500D02*
D03*
X570000D02*
D03*
D57*
X556220Y209398D02*
D03*
D58*
X361457Y337595D02*
D03*
X400000Y289700D02*
D03*
X261200Y225000D02*
D03*
X346500Y332300D02*
D03*
X476900Y120600D02*
D03*
X407900Y173500D02*
D03*
X327700Y211000D02*
D03*
X502000D02*
D03*
X472900Y127000D02*
D03*
X240000Y220400D02*
D03*
X350500Y95800D02*
D03*
X401500Y105000D02*
D03*
D59*
X541500Y137500D02*
D03*
X270000Y70000D02*
D03*
X290000Y270000D02*
D03*
X20000Y20000D02*
D03*
Y289500D02*
D03*
X570000Y320000D02*
D03*
M02*
