M48
;Layer_Color=9474304
;FILE_FORMAT=2:5
INCH,TZ
;TYPE=PLATED
T1F00S00C0.02362
T2F00S00C0.02795
T3F00S00C0.02800
T4F00S00C0.03268
T5F00S00C0.03543
T6F00S00C0.03622
T7F00S00C0.03937
T9F00S00C0.04882
T10F00S00C0.08898
%
T01
X409264Y52000
X412800Y55536
X419429Y70429
X422964Y73964
X426500Y77500
X430036Y81036
T02
X251000Y145500
Y155500
Y165500
T03
X57500Y100600
X182300Y118500
X214400Y100600
X221600Y100000
X222100Y88800
X267700Y63900
X276500Y124100
X281400Y119500
X291300Y118600
X295300Y152500
X308900Y141400
X315400Y139000
X350688Y90500
X387100Y61700
X385500Y175900
X319400Y192300
X308700Y197200
X310700Y222900
X284220Y212100
X278961Y199900
X264000Y188900
X272000Y164100
X218600Y174200
Y193000
X152700Y207400
X113000Y214700
T04
X334000Y76500
Y86500
Y96500
Y106500
Y116500
Y126500
Y136500
Y146500
X365000
Y136500
Y126500
Y116500
Y106500
Y96500
Y86500
Y76500
Y156500
Y166500
Y176500
Y186500
Y196500
Y206500
X334000
Y196500
Y186500
Y176500
Y166500
Y156500
T05
X37500Y144500
X47500
X57500
X67500
X77500
X87500
X97500
X107500
X117500
X127500
X137500
X147500
X157500
X167500
X177500
X187500
X197500
X207500
T06
X448831Y128720
Y138563
Y146437
Y156280
Y218220
Y228063
Y235937
Y245780
X341280Y247831
X331437
X323563
X313720
X247280Y248831
X237437
X229563
X219720
X157780
X147937
X140063
X130220
X68517
X58674
X50800
X40958
T07
X404067Y264214
T09
X389000Y215500
X399000
X409000
T10
X459500Y116634
Y168366
Y206134
Y257866
X353366Y258500
X301634
X259366Y259500
X207634
X169866
X118134
X80603
X28871
M30
