G04*
G04 #@! TF.GenerationSoftware,Altium Limited,Altium Designer,22.1.2 (22)*
G04*
G04 Layer_Color=65535*
%FSLAX25Y25*%
%MOIN*%
G70*
G04*
G04 #@! TF.SameCoordinates,6339715F-6F4B-4C81-9F29-0EB7974063C6*
G04*
G04*
G04 #@! TF.FilePolarity,Positive*
G04*
G01*
G75*
%ADD10C,0.00787*%
%ADD11C,0.01575*%
%ADD12C,0.00500*%
%ADD13C,0.00394*%
%ADD14C,0.00600*%
%ADD15C,0.00400*%
%ADD16C,0.00591*%
%ADD17C,0.01000*%
D10*
X400394Y270445D02*
G03*
X400394Y270445I-394J0D01*
G01*
X422394D02*
G03*
X422394Y270445I-394J0D01*
G01*
X411394D02*
G03*
X411394Y270445I-394J0D01*
G01*
X163830Y305177D02*
G03*
X163830Y305177I-394J0D01*
G01*
X253092D02*
G03*
X253092Y305177I-394J0D01*
G01*
X465612Y269244D02*
G03*
X465612Y269244I-557J0D01*
G01*
X74567Y305177D02*
G03*
X74567Y305177I-394J0D01*
G01*
X558092Y340677D02*
G03*
X558092Y340677I-394J0D01*
G01*
X468830D02*
G03*
X468830Y340677I-394J0D01*
G01*
X379567Y341177D02*
G03*
X379567Y341177I-394J0D01*
G01*
X465739Y188394D02*
G03*
X465739Y188394I-394J0D01*
G01*
X436339Y159394D02*
G03*
X436339Y159394I-394J0D01*
G01*
X496839D02*
G03*
X496839Y159394I-394J0D01*
G01*
X288216Y166000D02*
G03*
X288216Y166000I-394J0D01*
G01*
X466239Y119394D02*
G03*
X466239Y119394I-394J0D01*
G01*
X381000Y24945D02*
G03*
X381000Y24945I-394J0D01*
G01*
X327000D02*
G03*
X327000Y24945I-394J0D01*
G01*
X214000Y33500D02*
Y226000D01*
Y26000D02*
Y33500D01*
Y26000D02*
X224000D01*
Y226000D01*
X214000D02*
X224000D01*
X122097Y331831D02*
Y362972D01*
Y307224D02*
Y313760D01*
X176428Y331831D02*
Y362972D01*
Y307224D02*
Y313760D01*
X122097Y362972D02*
X176428D01*
X122097Y307224D02*
X176428D01*
X211360Y331831D02*
Y362972D01*
Y307224D02*
Y313760D01*
X265691Y331831D02*
Y362972D01*
Y307224D02*
Y313760D01*
X211360Y362972D02*
X265691D01*
X211360Y307224D02*
X265691D01*
X590500Y234000D02*
Y244000D01*
X550500Y234000D02*
X590500D01*
X550500Y244000D02*
X590500D01*
X550500Y234000D02*
Y244000D01*
X455287Y12358D02*
X462358Y5287D01*
X455287Y12358D02*
X490642Y47713D01*
X462358Y5287D02*
X497713Y40642D01*
X490642Y47713D02*
X497713Y40642D01*
X555399Y95642D02*
X562470Y88571D01*
X548328Y74429D02*
X562470Y88571D01*
X541257Y81500D02*
X548328Y74429D01*
X541257Y81500D02*
X555399Y95642D01*
X32835Y307224D02*
X87165D01*
X32835Y362972D02*
X87165D01*
Y307224D02*
Y313760D01*
Y331831D02*
Y362972D01*
X32835Y307224D02*
Y313760D01*
Y331831D02*
Y362972D01*
X516360Y342724D02*
X570691D01*
X516360Y398472D02*
X570691D01*
Y342724D02*
Y349260D01*
Y367331D02*
Y398472D01*
X516360Y342724D02*
Y349260D01*
Y367331D02*
Y398472D01*
X427097Y342724D02*
X481428D01*
X427097Y398472D02*
X481428D01*
Y342724D02*
Y349260D01*
Y367331D02*
Y398472D01*
X427097Y342724D02*
Y349260D01*
Y367331D02*
Y398472D01*
X337835Y343224D02*
X392165D01*
X337835Y398972D02*
X392165D01*
Y343224D02*
Y349760D01*
Y367831D02*
Y398972D01*
X337835Y343224D02*
Y349760D01*
Y367831D02*
Y398972D01*
X532071Y56858D02*
X539142Y63929D01*
X503787Y85142D02*
X532071Y56858D01*
X510858Y92213D02*
X539142Y63929D01*
X503787Y85142D02*
X510858Y92213D01*
D11*
X308559Y123803D02*
G03*
X308559Y123803I-197J0D01*
G01*
D12*
X295961Y116520D02*
G03*
X297732Y118291I0J1772D01*
G01*
X253441Y131480D02*
G03*
X251669Y129709I0J-1772D01*
G01*
Y118291D02*
G03*
X253441Y116520I1772J0D01*
G01*
X297732Y129709D02*
G03*
X295961Y131480I-1772J0D01*
G01*
X397539Y278594D02*
Y280406D01*
X402461Y278594D02*
Y280406D01*
X419539Y278594D02*
Y280406D01*
X424461Y278594D02*
Y280406D01*
X408539Y278594D02*
Y280406D01*
X413461Y278594D02*
Y280406D01*
X253441Y116520D02*
X295961D01*
X251669Y118291D02*
Y119276D01*
Y128724D02*
Y129709D01*
X253441Y131480D02*
X295961D01*
X297732Y128724D02*
Y129709D01*
Y118291D02*
Y119276D01*
X467752Y278890D02*
Y303378D01*
Y278890D02*
X494248D01*
Y303378D01*
X462589Y201189D02*
Y224811D01*
Y201189D02*
X486211D01*
Y224811D01*
X462589D02*
X486211D01*
X433189Y172189D02*
Y195811D01*
Y172189D02*
X456811D01*
Y195811D01*
X433189D02*
X456811D01*
X493689Y172189D02*
Y195811D01*
Y172189D02*
X517311D01*
Y195811D01*
X493689D02*
X517311D01*
X255500Y162516D02*
X280500D01*
X255500Y239484D02*
X280500D01*
X463089Y132189D02*
Y155811D01*
Y132189D02*
X486711D01*
Y155811D01*
X463089D02*
X486711D01*
X344189Y22189D02*
X367811D01*
Y45811D01*
X344189D02*
X367811D01*
X344189Y22189D02*
Y45811D01*
X290189Y22189D02*
X313811D01*
Y45811D01*
X290189D02*
X313811D01*
X290189Y22189D02*
Y45811D01*
X543228Y172783D02*
X599528D01*
X543228D02*
Y181445D01*
Y199555D02*
Y208217D01*
X546772D01*
X565669D02*
X599528D01*
Y172783D02*
Y208217D01*
X394000Y27500D02*
Y31499D01*
X395999Y33498D01*
X397999Y31499D01*
Y27500D01*
Y30499D01*
X394000D01*
X399998Y27500D02*
Y28500D01*
X400998D01*
Y27500D01*
X399998D01*
X408995D02*
X404996D01*
X408995Y31499D01*
Y32498D01*
X407996Y33498D01*
X405996D01*
X404996Y32498D01*
X410994Y27500D02*
Y28500D01*
X411994D01*
Y27500D01*
X410994D01*
X393500Y40499D02*
Y37000D01*
Y38749D01*
X395833D01*
Y40499D01*
Y37000D01*
X397582D02*
X398748D01*
X399331Y37583D01*
Y38749D01*
X398748Y39333D01*
X397582D01*
X396999Y38749D01*
Y37583D01*
X397582Y37000D01*
X400498D02*
Y39333D01*
X401081D01*
X401664Y38749D01*
Y37000D01*
Y38749D01*
X402247Y39333D01*
X402830Y38749D01*
Y37000D01*
X405746D02*
X404580D01*
X403997Y37583D01*
Y38749D01*
X404580Y39333D01*
X405746D01*
X406329Y38749D01*
Y38166D01*
X403997D01*
X408079Y37000D02*
X409245D01*
X409828Y37583D01*
Y38749D01*
X409245Y39333D01*
X408079D01*
X407495Y38749D01*
Y37583D01*
X408079Y37000D01*
X410994D02*
X412744D01*
X413327Y37583D01*
X412744Y38166D01*
X411578D01*
X410994Y38749D01*
X411578Y39333D01*
X413327D01*
X415076Y39916D02*
Y39333D01*
X414493D01*
X415660D01*
X415076D01*
Y37583D01*
X415660Y37000D01*
X417992Y39333D02*
X419158D01*
X419741Y38749D01*
Y37000D01*
X417992D01*
X417409Y37583D01*
X417992Y38166D01*
X419741D01*
X420908Y37000D02*
X422657D01*
X423240Y37583D01*
X422657Y38166D01*
X421491D01*
X420908Y38749D01*
X421491Y39333D01*
X423240D01*
X424407Y37000D02*
X425573D01*
X424990D01*
Y39333D01*
X424407D01*
X427322Y37000D02*
X429072D01*
X429655Y37583D01*
X429072Y38166D01*
X427906D01*
X427322Y38749D01*
X427906Y39333D01*
X429655D01*
X434320Y40499D02*
Y37000D01*
X436070D01*
X436653Y37583D01*
Y39916D01*
X436070Y40499D01*
X434320D01*
X439568Y37000D02*
X438402D01*
X437819Y37583D01*
Y38749D01*
X438402Y39333D01*
X439568D01*
X440152Y38749D01*
Y38166D01*
X437819D01*
X441318Y39333D02*
X442484Y37000D01*
X443650Y39333D01*
X444817Y37000D02*
X445983D01*
X445400D01*
Y39333D01*
X444817D01*
X450065D02*
X448316D01*
X447732Y38749D01*
Y37583D01*
X448316Y37000D01*
X450065D01*
X452981D02*
X451815D01*
X451231Y37583D01*
Y38749D01*
X451815Y39333D01*
X452981D01*
X453564Y38749D01*
Y38166D01*
X451231D01*
D13*
X542555Y309768D02*
G03*
X542161Y309768I-197J0D01*
G01*
D02*
G03*
X542555Y309768I197J0D01*
G01*
X520705Y289689D02*
Y292051D01*
X546295D01*
Y289689D02*
Y292051D01*
D14*
X346800Y284000D02*
G03*
X349200Y284000I1200J0D01*
G01*
X320500Y77000D02*
Y82100D01*
Y279800D02*
Y284000D01*
X346800D01*
X349200D01*
X375500D01*
Y77000D02*
Y82100D01*
X320500Y77000D02*
X375500D01*
Y278900D02*
Y284000D01*
D15*
X421300Y233000D02*
Y247000D01*
Y233000D02*
X428700D01*
Y247000D01*
X421300D02*
X428700D01*
X408300Y233000D02*
Y247000D01*
Y233000D02*
X415700D01*
Y247000D01*
X408300D02*
X415700D01*
X408800Y251000D02*
Y265000D01*
Y251000D02*
X416200D01*
Y265000D01*
X408800D02*
X416200D01*
X397500Y204800D02*
X411500D01*
Y212200D01*
X397500D02*
X411500D01*
X397500Y204800D02*
Y212200D01*
X396800Y215500D02*
Y229500D01*
Y215500D02*
X404200D01*
Y229500D01*
X396800D02*
X404200D01*
X396300Y233000D02*
Y247000D01*
Y233000D02*
X403700D01*
Y247000D01*
X396300D02*
X403700D01*
X396300Y251000D02*
Y265000D01*
Y251000D02*
X403700D01*
Y265000D01*
X396300D02*
X403700D01*
X411700Y117000D02*
Y131000D01*
X404300D02*
X411700D01*
X404300Y117000D02*
Y131000D01*
Y117000D02*
X411700D01*
X400700D02*
Y131000D01*
X393300D02*
X400700D01*
X393300Y117000D02*
Y131000D01*
Y117000D02*
X400700D01*
X478500Y81200D02*
X492500D01*
X478500Y73800D02*
Y81200D01*
Y73800D02*
X492500D01*
Y81200D01*
D16*
X296835Y168319D02*
Y170681D01*
X301165Y168319D02*
Y170681D01*
X416665Y180319D02*
Y182681D01*
X412335Y180319D02*
Y182681D01*
X404165Y180319D02*
Y182681D01*
X399835Y180319D02*
Y182681D01*
X392165Y180319D02*
Y182681D01*
X387835Y180319D02*
Y182681D01*
X458165Y285819D02*
Y288181D01*
X453835Y285819D02*
Y288181D01*
X566165Y286319D02*
Y288681D01*
X561835Y286319D02*
Y288681D01*
X506835Y275319D02*
Y277681D01*
X511165Y275319D02*
Y277681D01*
Y290819D02*
Y293181D01*
X506835Y290819D02*
Y293181D01*
X542319Y335165D02*
X544681D01*
X542319Y330835D02*
X544681D01*
X453819Y335665D02*
X456181D01*
X453819Y331335D02*
X456181D01*
X363819Y334165D02*
X366181D01*
X363819Y329835D02*
X366181D01*
X237319Y301165D02*
X239681D01*
X237319Y296835D02*
X239681D01*
X58819Y299665D02*
X61181D01*
X58819Y295335D02*
X61181D01*
X148819Y301665D02*
X151181D01*
X148819Y297335D02*
X151181D01*
X492835Y63319D02*
Y65681D01*
X497165Y63319D02*
Y65681D01*
X239165Y35819D02*
Y38181D01*
X234835Y35819D02*
Y38181D01*
D17*
X394000Y50498D02*
Y44500D01*
X397999D01*
X400998D02*
X402997D01*
X403997Y45500D01*
Y47499D01*
X402997Y48499D01*
X400998D01*
X399998Y47499D01*
Y45500D01*
X400998Y44500D01*
X406996D02*
X408995D01*
X409995Y45500D01*
Y47499D01*
X408995Y48499D01*
X406996D01*
X405996Y47499D01*
Y45500D01*
X406996Y44500D01*
X411994D02*
X414993D01*
X415993Y45500D01*
X414993Y46499D01*
X412994D01*
X411994Y47499D01*
X412994Y48499D01*
X415993D01*
X420991Y44500D02*
X418992D01*
X417992Y45500D01*
Y47499D01*
X418992Y48499D01*
X420991D01*
X421991Y47499D01*
Y46499D01*
X417992D01*
X423990Y44500D02*
X425990D01*
X424990D01*
Y50498D01*
X423990D01*
X431988Y44500D02*
X429988D01*
X428989Y45500D01*
Y47499D01*
X429988Y48499D01*
X431988D01*
X432987Y47499D01*
Y46499D01*
X428989D01*
X434987Y44500D02*
X436986D01*
X435986D01*
Y48499D01*
X434987D01*
X440985Y44500D02*
Y49498D01*
Y47499D01*
X439985D01*
X441985D01*
X440985D01*
Y49498D01*
X441985Y50498D01*
X296786Y354999D02*
X296500Y354713D01*
X296786Y354427D01*
X297071Y354713D01*
X296786Y354999D01*
Y351571D02*
X296500Y351285D01*
X296786Y351000D01*
X297071Y351285D01*
X296786Y351571D01*
X300013Y356998D02*
X299157Y356713D01*
X298585Y355856D01*
X298300Y354427D01*
Y353570D01*
X298585Y352142D01*
X299157Y351285D01*
X300013Y351000D01*
X300585D01*
X301442Y351285D01*
X302013Y352142D01*
X302299Y353570D01*
Y354427D01*
X302013Y355856D01*
X301442Y356713D01*
X300585Y356998D01*
X300013D01*
X299442Y356713D01*
X299157Y356427D01*
X298871Y355856D01*
X298585Y354427D01*
Y353570D01*
X298871Y352142D01*
X299157Y351571D01*
X299442Y351285D01*
X300013Y351000D01*
X300585D02*
X301156Y351285D01*
X301442Y351571D01*
X301727Y352142D01*
X302013Y353570D01*
Y354427D01*
X301727Y355856D01*
X301442Y356427D01*
X301156Y356713D01*
X300585Y356998D01*
X303184Y358141D02*
X303756Y357570D01*
X304327Y356713D01*
X304898Y355570D01*
X305184Y354142D01*
Y352999D01*
X304898Y351571D01*
X304327Y350428D01*
X303756Y349571D01*
X303184Y349000D01*
X303756Y357570D02*
X304327Y356427D01*
X304613Y355570D01*
X304898Y354142D01*
Y352999D01*
X304613Y351571D01*
X304327Y350714D01*
X303756Y349571D01*
X418502Y260501D02*
Y266499D01*
X421501D01*
X422500Y265499D01*
Y263500D01*
X421501Y262500D01*
X418502D01*
X420501D02*
X422500Y260501D01*
X424500Y265499D02*
X425499Y266499D01*
X427499D01*
X428498Y265499D01*
Y264500D01*
X427499Y263500D01*
X428498Y262500D01*
Y261501D01*
X427499Y260501D01*
X425499D01*
X424500Y261501D01*
Y262500D01*
X425499Y263500D01*
X424500Y264500D01*
Y265499D01*
X425499Y263500D02*
X427499D01*
X397500Y295505D02*
Y292506D01*
X398500Y291506D01*
X400499D01*
X401499Y292506D01*
Y295505D01*
X395501Y297504D02*
X401499D01*
X398500D01*
X397500Y298504D01*
Y300503D01*
X398500Y301503D01*
X401499D01*
Y306502D02*
Y304502D01*
X400499Y303502D01*
X398500D01*
X397500Y304502D01*
Y306502D01*
X398500Y307501D01*
X399500D01*
Y303502D01*
X397500Y313499D02*
Y310500D01*
X398500Y309501D01*
X400499D01*
X401499Y310500D01*
Y313499D01*
Y315498D02*
X395501D01*
X399500D02*
X397500Y318498D01*
X399500Y315498D02*
X401499Y318498D01*
Y321497D02*
Y323496D01*
Y322496D01*
X395501D01*
X396501Y321497D01*
X401499Y330494D02*
Y326495D01*
X397500Y330494D01*
X396501D01*
X395501Y329494D01*
Y327495D01*
X396501Y326495D01*
X408000Y297004D02*
Y294005D01*
X409000Y293005D01*
X410999D01*
X411999Y294005D01*
Y297004D01*
X406001Y299004D02*
X411999D01*
X409000D01*
X408000Y300003D01*
Y302003D01*
X409000Y303002D01*
X411999D01*
Y308001D02*
Y306001D01*
X410999Y305002D01*
X409000D01*
X408000Y306001D01*
Y308001D01*
X409000Y309000D01*
X410000D01*
Y305002D01*
X408000Y314998D02*
Y311999D01*
X409000Y311000D01*
X410999D01*
X411999Y311999D01*
Y314998D01*
Y316998D02*
X406001D01*
X410000D02*
X408000Y319997D01*
X410000Y316998D02*
X411999Y319997D01*
X406001Y326994D02*
Y322996D01*
X409000D01*
X408000Y324995D01*
Y325995D01*
X409000Y326994D01*
X410999D01*
X411999Y325995D01*
Y323995D01*
X410999Y322996D01*
X419500Y297433D02*
Y294434D01*
X420500Y293435D01*
X422499D01*
X423499Y294434D01*
Y297433D01*
X417501Y299433D02*
X423499D01*
X420500D01*
X419500Y300432D01*
Y302432D01*
X420500Y303431D01*
X423499D01*
Y308430D02*
Y306430D01*
X422499Y305431D01*
X420500D01*
X419500Y306430D01*
Y308430D01*
X420500Y309430D01*
X421500D01*
Y305431D01*
X419500Y315427D02*
Y312428D01*
X420500Y311429D01*
X422499D01*
X423499Y312428D01*
Y315427D01*
Y317427D02*
X417501D01*
X421500D02*
X419500Y320426D01*
X421500Y317427D02*
X423499Y320426D01*
X418501Y323425D02*
X417501Y324425D01*
Y326424D01*
X418501Y327424D01*
X419500D01*
X420500Y326424D01*
Y325424D01*
Y326424D01*
X421500Y327424D01*
X422499D01*
X423499Y326424D01*
Y324425D01*
X422499Y323425D01*
X431002Y237501D02*
Y243499D01*
X434001D01*
X435001Y242499D01*
Y240500D01*
X434001Y239500D01*
X431002D01*
X433002D02*
X435001Y237501D01*
X437001D02*
X439000D01*
X438000D01*
Y243499D01*
X437001Y242499D01*
X441999D02*
X442999Y243499D01*
X444998D01*
X445998Y242499D01*
Y238501D01*
X444998Y237501D01*
X442999D01*
X441999Y238501D01*
Y242499D01*
X407002Y225501D02*
Y231499D01*
X410001D01*
X411000Y230499D01*
Y228500D01*
X410001Y227500D01*
X407002D01*
X409001D02*
X411000Y225501D01*
X413000Y226501D02*
X413999Y225501D01*
X415999D01*
X416998Y226501D01*
Y230499D01*
X415999Y231499D01*
X413999D01*
X413000Y230499D01*
Y229500D01*
X413999Y228500D01*
X416998D01*
X385502Y206001D02*
Y211999D01*
X388501D01*
X389500Y210999D01*
Y209000D01*
X388501Y208000D01*
X385502D01*
X387501D02*
X389500Y206001D01*
X391500Y211999D02*
X395498D01*
Y210999D01*
X391500Y207001D01*
Y206001D01*
X394499Y218002D02*
X388501D01*
Y221001D01*
X389501Y222000D01*
X391500D01*
X392500Y221001D01*
Y218002D01*
Y220001D02*
X394499Y222000D01*
X388501Y227998D02*
X389501Y225999D01*
X391500Y224000D01*
X393499D01*
X394499Y224999D01*
Y226999D01*
X393499Y227998D01*
X392500D01*
X391500Y226999D01*
Y224000D01*
X393999Y235502D02*
X388001D01*
Y238501D01*
X389001Y239500D01*
X391000D01*
X392000Y238501D01*
Y235502D01*
Y237501D02*
X393999Y239500D01*
X388001Y245498D02*
Y241500D01*
X391000D01*
X390000Y243499D01*
Y244499D01*
X391000Y245498D01*
X392999D01*
X393999Y244499D01*
Y242499D01*
X392999Y241500D01*
X393999Y253502D02*
X388001D01*
Y256501D01*
X389001Y257500D01*
X391000D01*
X392000Y256501D01*
Y253502D01*
Y255501D02*
X393999Y257500D01*
Y262499D02*
X388001D01*
X391000Y259500D01*
Y263498D01*
X300599Y183498D02*
X299599Y184498D01*
X297600D01*
X296600Y183498D01*
Y179500D01*
X297600Y178500D01*
X299599D01*
X300599Y179500D01*
X302598Y178500D02*
X304597D01*
X303598D01*
Y184498D01*
X302598Y183498D01*
X307596D02*
X308596Y184498D01*
X310595D01*
X311595Y183498D01*
Y182499D01*
X310595Y181499D01*
X311595Y180499D01*
Y179500D01*
X310595Y178500D01*
X308596D01*
X307596Y179500D01*
Y180499D01*
X308596Y181499D01*
X307596Y182499D01*
Y183498D01*
X308596Y181499D02*
X310595D01*
X539501Y326999D02*
X538502Y327999D01*
X536502D01*
X535502Y326999D01*
Y323001D01*
X536502Y322001D01*
X538502D01*
X539501Y323001D01*
X541501Y322001D02*
X543500D01*
X542500D01*
Y327999D01*
X541501Y326999D01*
X546499Y327999D02*
X550498D01*
Y326999D01*
X546499Y323001D01*
Y322001D01*
X451001Y327999D02*
X450001Y328999D01*
X448002D01*
X447002Y327999D01*
Y324001D01*
X448002Y323001D01*
X450001D01*
X451001Y324001D01*
X453000Y323001D02*
X455000D01*
X454000D01*
Y328999D01*
X453000Y327999D01*
X461998Y328999D02*
X459998Y327999D01*
X457999Y326000D01*
Y324001D01*
X458998Y323001D01*
X460998D01*
X461998Y324001D01*
Y325000D01*
X460998Y326000D01*
X457999D01*
X361501Y325499D02*
X360502Y326499D01*
X358502D01*
X357502Y325499D01*
Y321501D01*
X358502Y320501D01*
X360502D01*
X361501Y321501D01*
X363500Y320501D02*
X365500D01*
X364500D01*
Y326499D01*
X363500Y325499D01*
X372498Y326499D02*
X368499D01*
Y323500D01*
X370498Y324500D01*
X371498D01*
X372498Y323500D01*
Y321501D01*
X371498Y320501D01*
X369498D01*
X368499Y321501D01*
X235501Y292499D02*
X234502Y293499D01*
X232502D01*
X231502Y292499D01*
Y288501D01*
X232502Y287501D01*
X234502D01*
X235501Y288501D01*
X237501Y287501D02*
X239500D01*
X238500D01*
Y293499D01*
X237501Y292499D01*
X245498Y287501D02*
Y293499D01*
X242499Y290500D01*
X246498D01*
X146501Y293499D02*
X145501Y294499D01*
X143502D01*
X142502Y293499D01*
Y289501D01*
X143502Y288501D01*
X145501D01*
X146501Y289501D01*
X148501Y288501D02*
X150500D01*
X149500D01*
Y294499D01*
X148501Y293499D01*
X153499D02*
X154499Y294499D01*
X156498D01*
X157498Y293499D01*
Y292500D01*
X156498Y291500D01*
X155498D01*
X156498D01*
X157498Y290500D01*
Y289501D01*
X156498Y288501D01*
X154499D01*
X153499Y289501D01*
X56501Y289999D02*
X55502Y290999D01*
X53502D01*
X52502Y289999D01*
Y286001D01*
X53502Y285001D01*
X55502D01*
X56501Y286001D01*
X58500Y285001D02*
X60500D01*
X59500D01*
Y290999D01*
X58500Y289999D01*
X67498Y285001D02*
X63499D01*
X67498Y289000D01*
Y289999D01*
X66498Y290999D01*
X64499D01*
X63499Y289999D01*
X546507Y247001D02*
Y252999D01*
X549507D01*
X550506Y252000D01*
Y250000D01*
X549507Y249001D01*
X546507D01*
X553505D02*
X555505D01*
X556504Y250000D01*
Y252000D01*
X555505Y252999D01*
X553505D01*
X552505Y252000D01*
Y250000D01*
X553505Y249001D01*
X558504Y252999D02*
Y250000D01*
X559503Y249001D01*
X560503Y250000D01*
X561503Y249001D01*
X562502Y250000D01*
Y252999D01*
X567501Y249001D02*
X565501D01*
X564502Y250000D01*
Y252000D01*
X565501Y252999D01*
X567501D01*
X568500Y252000D01*
Y251000D01*
X564502D01*
X570500Y252999D02*
Y249001D01*
Y251000D01*
X571499Y252000D01*
X572499Y252999D01*
X573499D01*
X576498Y254999D02*
X580497D01*
X578497D01*
Y249001D01*
X583496Y252999D02*
X585495D01*
X586494Y252000D01*
Y249001D01*
X583496D01*
X582496Y250000D01*
X583496Y251000D01*
X586494D01*
X588494Y247001D02*
Y252999D01*
X591493D01*
X592493Y252000D01*
Y250000D01*
X591493Y249001D01*
X588494D01*
X458699Y51300D02*
X456700D01*
X455700Y52300D01*
Y54299D01*
X456700Y55299D01*
X458699D01*
X459699Y54299D01*
Y53299D01*
X455700D01*
X461698Y55299D02*
X465697Y51300D01*
X463697Y53299D01*
X465697Y55299D01*
X461698Y51300D01*
X468696Y56298D02*
Y55299D01*
X467696D01*
X469696D01*
X468696D01*
Y52300D01*
X469696Y51300D01*
X472694Y55299D02*
Y51300D01*
Y53299D01*
X473694Y54299D01*
X474694Y55299D01*
X475694D01*
X479692D02*
X481692D01*
X482691Y54299D01*
Y51300D01*
X479692D01*
X478693Y52300D01*
X479692Y53299D01*
X482691D01*
X315600Y291299D02*
Y288300D01*
X316600Y287300D01*
X319599D01*
Y291299D01*
X325597Y292298D02*
X324597Y293298D01*
X322598D01*
X321598Y292298D01*
Y288300D01*
X322598Y287300D01*
X324597D01*
X325597Y288300D01*
X462500Y245099D02*
Y242100D01*
X463500Y241100D01*
X466499D01*
Y245099D01*
X468498Y239101D02*
Y245099D01*
X471497D01*
X472497Y244099D01*
Y242100D01*
X471497Y241100D01*
X468498D01*
X474496D02*
X476496D01*
X475496D01*
Y247098D01*
X474496Y246098D01*
X279900Y49900D02*
X282899D01*
X283899Y50900D01*
X282899Y51899D01*
X280900D01*
X279900Y52899D01*
X280900Y53899D01*
X283899D01*
X288897Y49900D02*
X286898D01*
X285898Y50900D01*
Y52899D01*
X286898Y53899D01*
X288897D01*
X289897Y52899D01*
Y51899D01*
X285898D01*
X291896Y49900D02*
X293896D01*
X292896D01*
Y55898D01*
X291896D01*
X299893Y49900D02*
X297894D01*
X296895Y50900D01*
Y52899D01*
X297894Y53899D01*
X299893D01*
X300893Y52899D01*
Y51899D01*
X296895D01*
X306891Y53899D02*
X303892D01*
X302893Y52899D01*
Y50900D01*
X303892Y49900D01*
X306891D01*
X309890Y54898D02*
Y53899D01*
X308891D01*
X310890D01*
X309890D01*
Y50900D01*
X310890Y49900D01*
X313889D02*
X315888D01*
X314889D01*
Y55898D01*
X313889Y54898D01*
X493600Y216099D02*
Y212100D01*
Y214099D01*
X494600Y215099D01*
X495599Y216099D01*
X496599D01*
X499598Y212100D02*
X501597D01*
X500598D01*
Y216099D01*
X499598D01*
X506596Y210101D02*
X507595D01*
X508595Y211100D01*
Y216099D01*
X505596D01*
X504596Y215099D01*
Y213100D01*
X505596Y212100D01*
X508595D01*
X510595Y218098D02*
Y212100D01*
Y215099D01*
X511594Y216099D01*
X513593D01*
X514593Y215099D01*
Y212100D01*
X517592Y217098D02*
Y216099D01*
X516593D01*
X518592D01*
X517592D01*
Y213100D01*
X518592Y212100D01*
X521591D02*
X523590D01*
X522591D01*
Y218098D01*
X521591Y217098D01*
X333900Y53899D02*
Y49900D01*
Y51899D01*
X334900Y52899D01*
X335899Y53899D01*
X336899D01*
X342897Y49900D02*
X340898D01*
X339898Y50900D01*
Y52899D01*
X340898Y53899D01*
X342897D01*
X343897Y52899D01*
Y51899D01*
X339898D01*
X345896Y49900D02*
X348895D01*
X349895Y50900D01*
X348895Y51899D01*
X346896D01*
X345896Y52899D01*
X346896Y53899D01*
X349895D01*
X354893Y49900D02*
X352894D01*
X351894Y50900D01*
Y52899D01*
X352894Y53899D01*
X354893D01*
X355893Y52899D01*
Y51899D01*
X351894D01*
X358892Y54898D02*
Y53899D01*
X357892D01*
X359892D01*
X358892D01*
Y50900D01*
X359892Y49900D01*
X362891D02*
X364890D01*
X363890D01*
Y55898D01*
X362891Y54898D01*
X469501Y312004D02*
X473499D01*
X471500D01*
X470500Y313003D01*
X469501Y314003D01*
Y315003D01*
X473499Y321001D02*
Y319001D01*
X472500Y318002D01*
X470500D01*
X469501Y319001D01*
Y321001D01*
X470500Y322000D01*
X471500D01*
Y318002D01*
X475499Y325999D02*
Y326999D01*
X474499Y327998D01*
X469501D01*
Y324999D01*
X470500Y324000D01*
X472500D01*
X473499Y324999D01*
Y327998D01*
X467501Y333997D02*
Y329998D01*
X470500D01*
X469501Y331997D01*
Y332997D01*
X470500Y333997D01*
X472500D01*
X473499Y332997D01*
Y330997D01*
X472500Y329998D01*
X516501Y316504D02*
X520499D01*
X518500D01*
X517500Y317503D01*
X516501Y318503D01*
Y319503D01*
X520499Y325501D02*
Y323501D01*
X519500Y322502D01*
X517500D01*
X516501Y323501D01*
Y325501D01*
X517500Y326500D01*
X518500D01*
Y322502D01*
X522499Y330499D02*
Y331499D01*
X521499Y332498D01*
X516501D01*
Y329499D01*
X517500Y328500D01*
X519500D01*
X520499Y329499D01*
Y332498D01*
X515501Y334498D02*
X514501Y335497D01*
Y337497D01*
X515501Y338496D01*
X516501D01*
X517500Y337497D01*
Y336497D01*
Y337497D01*
X518500Y338496D01*
X519500D01*
X520499Y337497D01*
Y335497D01*
X519500Y334498D01*
X478400Y85000D02*
Y90998D01*
X481399D01*
X482399Y89998D01*
Y87999D01*
X481399Y86999D01*
X478400D01*
X480399D02*
X482399Y85000D01*
X484398Y89998D02*
X485398Y90998D01*
X487397D01*
X488397Y89998D01*
Y88999D01*
X487397Y87999D01*
X486397D01*
X487397D01*
X488397Y86999D01*
Y86000D01*
X487397Y85000D01*
X485398D01*
X484398Y86000D01*
X404500Y135100D02*
Y141098D01*
X407499D01*
X408499Y140098D01*
Y138099D01*
X407499Y137099D01*
X404500D01*
X406499D02*
X408499Y135100D01*
X414497D02*
X410498D01*
X414497Y139099D01*
Y140098D01*
X413497Y141098D01*
X411498D01*
X410498Y140098D01*
X393500Y135100D02*
Y141098D01*
X396499D01*
X397499Y140098D01*
Y138099D01*
X396499Y137099D01*
X393500D01*
X395499D02*
X397499Y135100D01*
X399498D02*
X401497D01*
X400498D01*
Y141098D01*
X399498Y140098D01*
X542400Y218101D02*
Y224099D01*
X545399D01*
X546399Y223099D01*
Y221100D01*
X545399Y220100D01*
X542400D01*
X549398D02*
X551397D01*
X552397Y221100D01*
Y223099D01*
X551397Y224099D01*
X549398D01*
X548398Y223099D01*
Y221100D01*
X549398Y220100D01*
X554396Y224099D02*
Y221100D01*
X555396Y220100D01*
X556395Y221100D01*
X557395Y220100D01*
X558395Y221100D01*
Y224099D01*
X563393Y220100D02*
X561394D01*
X560394Y221100D01*
Y223099D01*
X561394Y224099D01*
X563393D01*
X564393Y223099D01*
Y222099D01*
X560394D01*
X566392Y224099D02*
Y220100D01*
Y222099D01*
X567392Y223099D01*
X568392Y224099D01*
X569391D01*
X215600Y229400D02*
X217599D01*
X218599Y230400D01*
Y232399D01*
X217599Y233399D01*
X215600D01*
X214600Y232399D01*
Y230400D01*
X215600Y229400D01*
X220598D02*
X222597D01*
X221598D01*
Y235398D01*
X220598D01*
X228595Y229400D02*
X226596D01*
X225596Y230400D01*
Y232399D01*
X226596Y233399D01*
X228595D01*
X229595Y232399D01*
Y231399D01*
X225596D01*
X235593Y235398D02*
Y229400D01*
X232594D01*
X231594Y230400D01*
Y232399D01*
X232594Y233399D01*
X235593D01*
X250100Y245800D02*
X252099D01*
X251100D01*
Y251798D01*
X250100D01*
X256098Y245800D02*
X258097D01*
X259097Y246800D01*
Y248799D01*
X258097Y249799D01*
X256098D01*
X255098Y248799D01*
Y246800D01*
X256098Y245800D01*
X263096Y243801D02*
X264095D01*
X265095Y244800D01*
Y249799D01*
X262096D01*
X261096Y248799D01*
Y246800D01*
X262096Y245800D01*
X265095D01*
X267094D02*
X269094D01*
X268094D01*
Y249799D01*
X267094D01*
X276092D02*
X273093D01*
X272093Y248799D01*
Y246800D01*
X273093Y245800D01*
X276092D01*
X282090Y250798D02*
X281090Y251798D01*
X279091D01*
X278091Y250798D01*
Y249799D01*
X279091Y248799D01*
X281090D01*
X282090Y247799D01*
Y246800D01*
X281090Y245800D01*
X279091D01*
X278091Y246800D01*
X284089Y251798D02*
Y245800D01*
Y248799D01*
X285089Y249799D01*
X287088D01*
X288088Y248799D01*
Y245800D01*
X290087D02*
X292086D01*
X291087D01*
Y249799D01*
X290087D01*
X296085Y245800D02*
Y250798D01*
Y248799D01*
X295085D01*
X297085D01*
X296085D01*
Y250798D01*
X297085Y251798D01*
X301083Y250798D02*
Y249799D01*
X300084D01*
X302083D01*
X301083D01*
Y246800D01*
X302083Y245800D01*
X308081D02*
X306082D01*
X305082Y246800D01*
Y248799D01*
X306082Y249799D01*
X308081D01*
X309081Y248799D01*
Y247799D01*
X305082D01*
X311080Y249799D02*
Y245800D01*
Y247799D01*
X312080Y248799D01*
X313080Y249799D01*
X314079D01*
X433100Y210100D02*
X435099D01*
X434100D01*
Y216098D01*
X433100D01*
X441097Y210100D02*
X439098D01*
X438098Y211100D01*
Y213099D01*
X439098Y214099D01*
X441097D01*
X442097Y213099D01*
Y212099D01*
X438098D01*
X445096Y210100D02*
Y215098D01*
Y213099D01*
X444096D01*
X446096D01*
X445096D01*
Y215098D01*
X446096Y216098D01*
X450095Y215098D02*
Y214099D01*
X449095D01*
X451094D01*
X450095D01*
Y211100D01*
X451094Y210100D01*
X454093D02*
X456093D01*
X455093D01*
Y216098D01*
X454093Y215098D01*
X504200Y95800D02*
X506199D01*
X505200D01*
Y101798D01*
X504200D01*
X512197Y95800D02*
X510198D01*
X509198Y96800D01*
Y98799D01*
X510198Y99799D01*
X512197D01*
X513197Y98799D01*
Y97799D01*
X509198D01*
X519195Y101798D02*
Y95800D01*
X516196D01*
X515196Y96800D01*
Y98799D01*
X516196Y99799D01*
X519195D01*
X521195Y95800D02*
X524193D01*
X525193Y96800D01*
X524193Y97799D01*
X522194D01*
X521195Y98799D01*
X522194Y99799D01*
X525193D01*
X466999Y176098D02*
Y170100D01*
X464000D01*
X463000Y171100D01*
Y173099D01*
X464000Y174099D01*
X466999D01*
X469998Y170100D02*
X471997D01*
X472997Y171100D01*
Y173099D01*
X471997Y174099D01*
X469998D01*
X468998Y173099D01*
Y171100D01*
X469998Y170100D01*
X474996Y174099D02*
Y171100D01*
X475996Y170100D01*
X476996Y171100D01*
X477995Y170100D01*
X478995Y171100D01*
Y174099D01*
X480994Y170100D02*
Y174099D01*
X483993D01*
X484993Y173099D01*
Y170100D01*
X486992D02*
X488992D01*
X487992D01*
Y176098D01*
X486992Y175098D01*
X350504Y359999D02*
Y354001D01*
X353504D01*
X354503Y355001D01*
Y358999D01*
X353504Y359999D01*
X350504D01*
X360501Y358999D02*
X359502Y359999D01*
X357502D01*
X356503Y358999D01*
Y355001D01*
X357502Y354001D01*
X359502D01*
X360501Y355001D01*
X365500Y359999D02*
X363500D01*
X362501Y358999D01*
Y355001D01*
X363500Y354001D01*
X365500D01*
X366499Y355001D01*
Y358999D01*
X365500Y359999D01*
X368499Y354001D02*
Y359999D01*
X372497Y354001D01*
Y359999D01*
X378496Y354001D02*
X374497D01*
X378496Y358000D01*
Y358999D01*
X377496Y359999D01*
X375497D01*
X374497Y358999D01*
X46504Y325499D02*
Y319501D01*
X49503D01*
X50503Y320501D01*
Y324499D01*
X49503Y325499D01*
X46504D01*
X56501Y324499D02*
X55501Y325499D01*
X53502D01*
X52502Y324499D01*
Y320501D01*
X53502Y319501D01*
X55501D01*
X56501Y320501D01*
X61499Y325499D02*
X59500D01*
X58500Y324499D01*
Y320501D01*
X59500Y319501D01*
X61499D01*
X62499Y320501D01*
Y324499D01*
X61499Y325499D01*
X64498Y319501D02*
Y325499D01*
X68497Y319501D01*
Y325499D01*
X70496Y319501D02*
X72496D01*
X71496D01*
Y325499D01*
X70496Y324499D01*
X526006Y360499D02*
Y354501D01*
X529004D01*
X530004Y355501D01*
Y359499D01*
X529004Y360499D01*
X526006D01*
X532004Y354501D02*
Y358500D01*
X534003Y360499D01*
X536002Y358500D01*
Y354501D01*
Y357500D01*
X532004D01*
X542000Y359499D02*
X541001Y360499D01*
X539001D01*
X538002Y359499D01*
Y355501D01*
X539001Y354501D01*
X541001D01*
X542000Y355501D01*
X546999Y360499D02*
X544999D01*
X544000Y359499D01*
Y355501D01*
X544999Y354501D01*
X546999D01*
X547998Y355501D01*
Y359499D01*
X546999Y360499D01*
X549998Y354501D02*
Y360499D01*
X553997Y354501D01*
Y360499D01*
X559995Y354501D02*
X555996D01*
X559995Y358500D01*
Y359499D01*
X558995Y360499D01*
X556995D01*
X555996Y359499D01*
X222505Y325999D02*
Y320001D01*
X225504D01*
X226504Y321001D01*
Y324999D01*
X225504Y325999D01*
X222505D01*
X228503Y320001D02*
Y324000D01*
X230503Y325999D01*
X232502Y324000D01*
Y320001D01*
Y323000D01*
X228503D01*
X238500Y324999D02*
X237500Y325999D01*
X235501D01*
X234501Y324999D01*
Y321001D01*
X235501Y320001D01*
X237500D01*
X238500Y321001D01*
X243498Y325999D02*
X241499D01*
X240499Y324999D01*
Y321001D01*
X241499Y320001D01*
X243498D01*
X244498Y321001D01*
Y324999D01*
X243498Y325999D01*
X246497Y320001D02*
Y325999D01*
X250496Y320001D01*
Y325999D01*
X252496Y320001D02*
X254495D01*
X253495D01*
Y325999D01*
X252496Y324999D01*
X248505Y111999D02*
X245506D01*
X244506Y111000D01*
Y109000D01*
X245506Y108001D01*
X248505D01*
X250504Y111999D02*
Y108001D01*
Y110000D01*
X251504Y111000D01*
X252503Y111999D01*
X253503D01*
X256502D02*
Y109000D01*
X257502Y108001D01*
X260501D01*
Y107001D01*
X259501Y106001D01*
X258502D01*
X260501Y108001D02*
Y111999D01*
X262500Y108001D02*
X265499D01*
X266499Y109000D01*
X265499Y110000D01*
X263500D01*
X262500Y111000D01*
X263500Y111999D01*
X266499D01*
X269498Y112999D02*
Y111999D01*
X268498D01*
X270498D01*
X269498D01*
Y109000D01*
X270498Y108001D01*
X274496Y111999D02*
X276496D01*
X277495Y111000D01*
Y108001D01*
X274496D01*
X273497Y109000D01*
X274496Y110000D01*
X277495D01*
X279495Y108001D02*
X281494D01*
X280494D01*
Y113999D01*
X279495D01*
X537831Y104672D02*
X534832D01*
X533832Y103672D01*
Y101672D01*
X534832Y100673D01*
X537831D01*
X540830D02*
X542830D01*
X543829Y101672D01*
Y103672D01*
X542830Y104672D01*
X540830D01*
X539830Y103672D01*
Y101672D01*
X540830Y100673D01*
X545828D02*
Y104672D01*
X546828D01*
X547828Y103672D01*
Y100673D01*
Y103672D01*
X548828Y104672D01*
X549827Y103672D01*
Y100673D01*
X551827D02*
Y104672D01*
X552826D01*
X553826Y103672D01*
Y100673D01*
Y103672D01*
X554826Y104672D01*
X555825Y103672D01*
Y100673D01*
X557825D02*
X560824D01*
X561823Y101672D01*
X560824Y102672D01*
X558824D01*
X557825Y103672D01*
X558824Y104672D01*
X561823D01*
X238599Y50998D02*
X237599Y51998D01*
X235600D01*
X234600Y50998D01*
Y47000D01*
X235600Y46000D01*
X237599D01*
X238599Y47000D01*
X240598Y46000D02*
X242597D01*
X241598D01*
Y51998D01*
X240598Y50998D01*
X245596Y46000D02*
X247596D01*
X246596D01*
Y51998D01*
X245596Y50998D01*
X507001Y303001D02*
X506001Y302002D01*
Y300002D01*
X507001Y299002D01*
X510999D01*
X511999Y300002D01*
Y302002D01*
X510999Y303001D01*
X511999Y305000D02*
Y307000D01*
Y306000D01*
X506001D01*
X507001Y305000D01*
Y309999D02*
X506001Y310999D01*
Y312998D01*
X507001Y313998D01*
X510999D01*
X511999Y312998D01*
Y310999D01*
X510999Y309999D01*
X507001D01*
X562001Y299500D02*
X561001Y298501D01*
Y296501D01*
X562001Y295502D01*
X565999D01*
X566999Y296501D01*
Y298501D01*
X565999Y299500D01*
Y301500D02*
X566999Y302499D01*
Y304499D01*
X565999Y305498D01*
X562001D01*
X561001Y304499D01*
Y302499D01*
X562001Y301500D01*
X563000D01*
X564000Y302499D01*
Y305498D01*
X482500Y68999D02*
X481501Y69999D01*
X479501D01*
X478502Y68999D01*
Y65001D01*
X479501Y64001D01*
X481501D01*
X482500Y65001D01*
X484500Y68999D02*
X485499Y69999D01*
X487499D01*
X488498Y68999D01*
Y68000D01*
X487499Y67000D01*
X488498Y66000D01*
Y65001D01*
X487499Y64001D01*
X485499D01*
X484500Y65001D01*
Y66000D01*
X485499Y67000D01*
X484500Y68000D01*
Y68999D01*
X485499Y67000D02*
X487499D01*
X253500Y140499D02*
X252501Y141499D01*
X250501D01*
X249502Y140499D01*
Y136501D01*
X250501Y135501D01*
X252501D01*
X253500Y136501D01*
X255500Y141499D02*
X259498D01*
Y140499D01*
X255500Y136501D01*
Y135501D01*
X282500Y139999D02*
X281501Y140999D01*
X279501D01*
X278502Y139999D01*
Y136001D01*
X279501Y135001D01*
X281501D01*
X282500Y136001D01*
X288498Y140999D02*
X286499Y139999D01*
X284500Y138000D01*
Y136001D01*
X285499Y135001D01*
X287499D01*
X288498Y136001D01*
Y137000D01*
X287499Y138000D01*
X284500D01*
X454001Y299500D02*
X453001Y298501D01*
Y296501D01*
X454001Y295502D01*
X457999D01*
X458999Y296501D01*
Y298501D01*
X457999Y299500D01*
X453001Y305498D02*
Y301500D01*
X456000D01*
X455000Y303499D01*
Y304499D01*
X456000Y305498D01*
X457999D01*
X458999Y304499D01*
Y302499D01*
X457999Y301500D01*
X507001Y263000D02*
X506001Y262001D01*
Y260001D01*
X507001Y259002D01*
X510999D01*
X511999Y260001D01*
Y262001D01*
X510999Y263000D01*
X511999Y267999D02*
X506001D01*
X509000Y265000D01*
Y268998D01*
X413000Y172499D02*
X412001Y173499D01*
X410001D01*
X409002Y172499D01*
Y168501D01*
X410001Y167501D01*
X412001D01*
X413000Y168501D01*
X415000Y172499D02*
X415999Y173499D01*
X417999D01*
X418998Y172499D01*
Y171500D01*
X417999Y170500D01*
X416999D01*
X417999D01*
X418998Y169500D01*
Y168501D01*
X417999Y167501D01*
X415999D01*
X415000Y168501D01*
X400500Y194499D02*
X399501Y195499D01*
X397501D01*
X396502Y194499D01*
Y190501D01*
X397501Y189501D01*
X399501D01*
X400500Y190501D01*
X406498Y189501D02*
X402500D01*
X406498Y193500D01*
Y194499D01*
X405499Y195499D01*
X403499D01*
X402500Y194499D01*
X389500Y172499D02*
X388500Y173499D01*
X386501D01*
X385501Y172499D01*
Y168501D01*
X386501Y167501D01*
X388500D01*
X389500Y168501D01*
X391499Y167501D02*
X393499D01*
X392499D01*
Y173499D01*
X391499Y172499D01*
X441005Y354501D02*
Y358500D01*
X443004Y360499D01*
X445003Y358500D01*
Y354501D01*
Y357500D01*
X441005D01*
X451001Y359499D02*
X450002Y360499D01*
X448002D01*
X447003Y359499D01*
Y355501D01*
X448002Y354501D01*
X450002D01*
X451001Y355501D01*
X456000Y360499D02*
X454000D01*
X453001Y359499D01*
Y355501D01*
X454000Y354501D01*
X456000D01*
X456999Y355501D01*
Y359499D01*
X456000Y360499D01*
X458999Y354501D02*
Y360499D01*
X462997Y354501D01*
Y360499D01*
X468996Y354501D02*
X464997D01*
X468996Y358500D01*
Y359499D01*
X467996Y360499D01*
X465997D01*
X464997Y359499D01*
X136504Y320001D02*
Y324000D01*
X138504Y325999D01*
X140503Y324000D01*
Y320001D01*
Y323000D01*
X136504D01*
X146501Y324999D02*
X145501Y325999D01*
X143502D01*
X142502Y324999D01*
Y321001D01*
X143502Y320001D01*
X145501D01*
X146501Y321001D01*
X151499Y325999D02*
X149500D01*
X148500Y324999D01*
Y321001D01*
X149500Y320001D01*
X151499D01*
X152499Y321001D01*
Y324999D01*
X151499Y325999D01*
X154498Y320001D02*
Y325999D01*
X158497Y320001D01*
Y325999D01*
X160496Y320001D02*
X162496D01*
X161496D01*
Y325999D01*
X160496Y324999D01*
M02*
