G04*
G04 #@! TF.GenerationSoftware,Altium Limited,Altium Designer,20.0.12 (288)*
G04*
G04 Layer_Color=8388736*
%FSLAX24Y24*%
%MOIN*%
G70*
G01*
G75*
%ADD15R,0.0710X0.0867*%
G04:AMPARAMS|DCode=16|XSize=41.9mil|YSize=18.6mil|CornerRadius=5.3mil|HoleSize=0mil|Usage=FLASHONLY|Rotation=0.000|XOffset=0mil|YOffset=0mil|HoleType=Round|Shape=RoundedRectangle|*
%AMROUNDEDRECTD16*
21,1,0.0419,0.0080,0,0,0.0*
21,1,0.0312,0.0186,0,0,0.0*
1,1,0.0107,0.0156,-0.0040*
1,1,0.0107,-0.0156,-0.0040*
1,1,0.0107,-0.0156,0.0040*
1,1,0.0107,0.0156,0.0040*
%
%ADD16ROUNDEDRECTD16*%
%ADD17R,0.0671X0.0710*%
%ADD18R,0.0710X0.0671*%
%ADD19C,0.0907*%
%ADD20R,0.0907X0.0907*%
%ADD21C,0.2639*%
D15*
X15059Y5315D02*
D03*
X10951D02*
D03*
X6226D02*
D03*
D16*
X15624Y5610D02*
D03*
Y5413D02*
D03*
Y5217D02*
D03*
Y5020D02*
D03*
X14494D02*
D03*
Y5217D02*
D03*
Y5413D02*
D03*
Y5610D02*
D03*
X11516D02*
D03*
Y5413D02*
D03*
Y5217D02*
D03*
Y5020D02*
D03*
X10386D02*
D03*
Y5217D02*
D03*
Y5413D02*
D03*
Y5610D02*
D03*
X6791D02*
D03*
Y5413D02*
D03*
Y5217D02*
D03*
Y5020D02*
D03*
X5661D02*
D03*
Y5217D02*
D03*
Y5413D02*
D03*
Y5610D02*
D03*
D17*
X8701Y4035D02*
D03*
X9547D02*
D03*
X15846Y7480D02*
D03*
X16693D02*
D03*
X11752D02*
D03*
X12598D02*
D03*
X7087Y7382D02*
D03*
X7933D02*
D03*
X8701Y3150D02*
D03*
X9547D02*
D03*
X10502D02*
D03*
X11348D02*
D03*
X10502Y4035D02*
D03*
X11348D02*
D03*
X15846Y6594D02*
D03*
X16693D02*
D03*
X11752D02*
D03*
X12598D02*
D03*
X7087Y6496D02*
D03*
X7933D02*
D03*
D18*
X4331Y4783D02*
D03*
Y3937D02*
D03*
Y6555D02*
D03*
Y5709D02*
D03*
D19*
X18898Y6299D02*
D03*
X1575Y4331D02*
D03*
D20*
X18898D02*
D03*
X1575Y6299D02*
D03*
D21*
X18898Y1575D02*
D03*
Y9055D02*
D03*
X1575Y1575D02*
D03*
Y9055D02*
D03*
M02*
