M48
;Layer_Color=9474304
;FILE_FORMAT=2:4
INCH,TZ
;TYPE=PLATED
T1F00S00C0.0079
T2F00S00C0.0197
T3F00S00C0.0551
T4F00S00C0.1378
%
T01
X4331Y3150
X5020Y5217
X7283Y5413
X8701Y4626
X9646Y5217
X9547Y2461
X11348
X13189Y5020
X13976Y5217
X16240Y5413
X15846Y8169
X11752
X7087
T02
X925Y925
X675Y1575
X875Y2225
X1575Y2525
X2225Y2275
X2525Y1575
X2225Y875
X1575Y625
X18248Y925
X17998Y1575
X18198Y2225
X18898Y2525
X19548Y2275
X19848Y1575
X19548Y875
X18898Y625
Y8105
X19548Y8355
X19848Y9055
X19548Y9755
X18898Y10005
X18198Y9705
X17998Y9055
X18248Y8405
X2225Y8355
X1575Y8105
X925Y8405
X675Y9055
X875Y9705
X1575Y10005
X2225Y9755
X2525Y9055
T03
X1575Y4331
X18898
Y6299
X1575
T04
X1575Y1575
X18898
Y9055
X1575
M30
