G04*
G04 #@! TF.GenerationSoftware,Altium Limited,Altium Designer,20.0.12 (288)*
G04*
G04 Layer_Physical_Order=2*
G04 Layer_Color=16711680*
%FSLAX24Y24*%
%MOIN*%
G70*
G01*
G75*
%ADD11C,0.0050*%
%ADD26C,0.0827*%
%ADD27R,0.0827X0.0827*%
%ADD28C,0.2559*%
%ADD29C,0.0177*%
%ADD30C,0.0197*%
G36*
X19135Y10556D02*
X19367Y10500D01*
X19587Y10409D01*
X19791Y10284D01*
X19972Y10130D01*
X20127Y9948D01*
X20252Y9745D01*
X20343Y9525D01*
X20398Y9293D01*
X20416Y9064D01*
X20413Y9055D01*
Y1575D01*
X20416Y1566D01*
X20398Y1337D01*
X20343Y1105D01*
X20252Y885D01*
X20127Y682D01*
X19972Y500D01*
X19791Y346D01*
X19587Y221D01*
X19367Y130D01*
X19135Y74D01*
X18906Y56D01*
X18898Y60D01*
X1575D01*
X1566Y56D01*
X1337Y74D01*
X1105Y130D01*
X885Y221D01*
X682Y346D01*
X500Y500D01*
X346Y682D01*
X221Y885D01*
X130Y1105D01*
X74Y1337D01*
X56Y1566D01*
X60Y1575D01*
Y9055D01*
X56Y9064D01*
X74Y9293D01*
X130Y9525D01*
X221Y9745D01*
X346Y9948D01*
X500Y10130D01*
X682Y10284D01*
X885Y10409D01*
X1105Y10500D01*
X1337Y10556D01*
X1566Y10574D01*
X1575Y10570D01*
X18898D01*
X18906Y10574D01*
X19135Y10556D01*
D02*
G37*
%LPC*%
G36*
X15896Y8352D02*
Y8219D01*
X16029D01*
X16024Y8243D01*
X15982Y8305D01*
X15920Y8347D01*
X15896Y8352D01*
D02*
G37*
G36*
X15796D02*
X15773Y8347D01*
X15711Y8305D01*
X15669Y8243D01*
X15664Y8219D01*
X15796D01*
Y8352D01*
D02*
G37*
G36*
X11802D02*
Y8219D01*
X11934D01*
X11930Y8243D01*
X11888Y8305D01*
X11826Y8347D01*
X11802Y8352D01*
D02*
G37*
G36*
X11702D02*
X11678Y8347D01*
X11616Y8305D01*
X11574Y8243D01*
X11570Y8219D01*
X11702D01*
Y8352D01*
D02*
G37*
G36*
X7137D02*
Y8219D01*
X7269D01*
X7264Y8243D01*
X7223Y8305D01*
X7160Y8347D01*
X7137Y8352D01*
D02*
G37*
G36*
X7037D02*
X7013Y8347D01*
X6951Y8305D01*
X6909Y8243D01*
X6904Y8219D01*
X7037D01*
Y8352D01*
D02*
G37*
G36*
X16029Y8119D02*
X15896D01*
Y7987D01*
X15920Y7992D01*
X15982Y8033D01*
X16024Y8096D01*
X16029Y8119D01*
D02*
G37*
G36*
X15796D02*
X15664D01*
X15669Y8096D01*
X15711Y8033D01*
X15773Y7992D01*
X15796Y7987D01*
Y8119D01*
D02*
G37*
G36*
X11934D02*
X11802D01*
Y7987D01*
X11826Y7992D01*
X11888Y8033D01*
X11930Y8096D01*
X11934Y8119D01*
D02*
G37*
G36*
X11702D02*
X11570D01*
X11574Y8096D01*
X11616Y8033D01*
X11678Y7992D01*
X11702Y7987D01*
Y8119D01*
D02*
G37*
G36*
X7269D02*
X7137D01*
Y7987D01*
X7160Y7992D01*
X7223Y8033D01*
X7264Y8096D01*
X7269Y8119D01*
D02*
G37*
G36*
X7037D02*
X6904D01*
X6909Y8096D01*
X6951Y8033D01*
X7013Y7992D01*
X7037Y7987D01*
Y8119D01*
D02*
G37*
G36*
X18898Y10389D02*
X18689Y10372D01*
X18486Y10323D01*
X18292Y10243D01*
X18114Y10134D01*
X17955Y9998D01*
X17819Y9839D01*
X17709Y9661D01*
X17629Y9467D01*
X17580Y9264D01*
X17564Y9055D01*
X17580Y8846D01*
X17629Y8643D01*
X17709Y8450D01*
X17819Y8271D01*
X17955Y8112D01*
X18114Y7976D01*
X18292Y7867D01*
X18486Y7787D01*
X18689Y7738D01*
X18898Y7721D01*
X19106Y7738D01*
X19310Y7787D01*
X19503Y7867D01*
X19682Y7976D01*
X19841Y8112D01*
X19977Y8271D01*
X20086Y8450D01*
X20166Y8643D01*
X20215Y8846D01*
X20231Y9055D01*
X20215Y9264D01*
X20166Y9467D01*
X20086Y9661D01*
X19977Y9839D01*
X19841Y9998D01*
X19682Y10134D01*
X19503Y10243D01*
X19310Y10323D01*
X19106Y10372D01*
X18898Y10389D01*
D02*
G37*
G36*
X1575D02*
X1366Y10372D01*
X1163Y10323D01*
X969Y10243D01*
X791Y10134D01*
X632Y9998D01*
X496Y9839D01*
X387Y9661D01*
X306Y9467D01*
X258Y9264D01*
X241Y9055D01*
X258Y8846D01*
X306Y8643D01*
X387Y8450D01*
X496Y8271D01*
X632Y8112D01*
X791Y7976D01*
X969Y7867D01*
X1163Y7787D01*
X1366Y7738D01*
X1575Y7721D01*
X1783Y7738D01*
X1987Y7787D01*
X2180Y7867D01*
X2359Y7976D01*
X2518Y8112D01*
X2654Y8271D01*
X2763Y8450D01*
X2843Y8643D01*
X2892Y8846D01*
X2908Y9055D01*
X2892Y9264D01*
X2843Y9467D01*
X2763Y9661D01*
X2654Y9839D01*
X2518Y9998D01*
X2359Y10134D01*
X2180Y10243D01*
X1987Y10323D01*
X1783Y10372D01*
X1575Y10389D01*
D02*
G37*
G36*
X2038Y6763D02*
X1111D01*
Y5836D01*
X2038D01*
Y6763D01*
D02*
G37*
G36*
X18898Y6767D02*
X18777Y6751D01*
X18664Y6704D01*
X18567Y6630D01*
X18493Y6533D01*
X18446Y6420D01*
X18430Y6299D01*
X18446Y6178D01*
X18493Y6066D01*
X18567Y5969D01*
X18664Y5894D01*
X18777Y5848D01*
X18898Y5832D01*
X19019Y5848D01*
X19131Y5894D01*
X19228Y5969D01*
X19302Y6066D01*
X19349Y6178D01*
X19365Y6299D01*
X19349Y6420D01*
X19302Y6533D01*
X19228Y6630D01*
X19131Y6704D01*
X19019Y6751D01*
X18898Y6767D01*
D02*
G37*
G36*
X16240Y5555D02*
X16186Y5544D01*
X16140Y5513D01*
X16110Y5467D01*
X16099Y5413D01*
X16104Y5386D01*
X16012Y5293D01*
X14092D01*
X14076Y5316D01*
X14030Y5347D01*
X13976Y5358D01*
X13922Y5347D01*
X13876Y5316D01*
X13846Y5271D01*
X13835Y5217D01*
X13846Y5162D01*
X13876Y5117D01*
X13922Y5086D01*
X13976Y5075D01*
X14030Y5086D01*
X14076Y5117D01*
X14092Y5140D01*
X16043D01*
X16073Y5146D01*
X16097Y5162D01*
X16213Y5278D01*
X16240Y5272D01*
X16294Y5283D01*
X16340Y5313D01*
X16371Y5359D01*
X16381Y5413D01*
X16371Y5467D01*
X16340Y5513D01*
X16294Y5544D01*
X16240Y5555D01*
D02*
G37*
G36*
X7283D02*
X7229Y5544D01*
X7184Y5513D01*
X7153Y5467D01*
X7142Y5413D01*
X7148Y5386D01*
X7055Y5293D01*
X5135D01*
X5120Y5316D01*
X5074Y5347D01*
X5020Y5358D01*
X4966Y5347D01*
X4920Y5316D01*
X4889Y5271D01*
X4878Y5217D01*
X4889Y5162D01*
X4920Y5117D01*
X4966Y5086D01*
X5020Y5075D01*
X5074Y5086D01*
X5120Y5117D01*
X5135Y5140D01*
X7087D01*
X7116Y5146D01*
X7141Y5162D01*
X7256Y5278D01*
X7283Y5272D01*
X7311Y5278D01*
X8017Y4572D01*
X8017Y4572D01*
X8042Y4555D01*
X8071Y4550D01*
X8071Y4550D01*
X8585D01*
X8601Y4526D01*
X8647Y4495D01*
X8701Y4485D01*
X8755Y4495D01*
X8801Y4526D01*
X8831Y4572D01*
X8842Y4626D01*
X8831Y4680D01*
X8801Y4726D01*
X8755Y4757D01*
X8701Y4767D01*
X8647Y4757D01*
X8601Y4726D01*
X8585Y4702D01*
X8103D01*
X7419Y5386D01*
X7425Y5413D01*
X7414Y5467D01*
X7383Y5513D01*
X7338Y5544D01*
X7283Y5555D01*
D02*
G37*
G36*
X13189Y5161D02*
X13135Y5150D01*
X13089Y5120D01*
X13058Y5074D01*
X13048Y5020D01*
X13053Y4992D01*
X11294Y3233D01*
X11278Y3208D01*
X11272Y3179D01*
Y2576D01*
X11249Y2561D01*
X11218Y2515D01*
X11207Y2461D01*
X11218Y2407D01*
X11249Y2361D01*
X11294Y2330D01*
X11348Y2319D01*
X11402Y2330D01*
X11448Y2361D01*
X11479Y2407D01*
X11490Y2461D01*
X11479Y2515D01*
X11448Y2561D01*
X11425Y2576D01*
Y3147D01*
X13161Y4884D01*
X13189Y4878D01*
X13243Y4889D01*
X13289Y4920D01*
X13320Y4966D01*
X13330Y5020D01*
X13320Y5074D01*
X13289Y5120D01*
X13243Y5150D01*
X13189Y5161D01*
D02*
G37*
G36*
X1625Y4842D02*
Y4381D01*
X2086D01*
X2075Y4465D01*
X2023Y4590D01*
X1941Y4697D01*
X1834Y4779D01*
X1709Y4831D01*
X1625Y4842D01*
D02*
G37*
G36*
X1525D02*
X1441Y4831D01*
X1316Y4779D01*
X1209Y4697D01*
X1126Y4590D01*
X1075Y4465D01*
X1064Y4381D01*
X1525D01*
Y4842D01*
D02*
G37*
G36*
X19361Y4794D02*
X18434D01*
Y3867D01*
X19361D01*
Y4794D01*
D02*
G37*
G36*
X2086Y4281D02*
X1625D01*
Y3819D01*
X1709Y3831D01*
X1834Y3882D01*
X1941Y3965D01*
X2023Y4072D01*
X2075Y4197D01*
X2086Y4281D01*
D02*
G37*
G36*
X1525D02*
X1064D01*
X1075Y4197D01*
X1126Y4072D01*
X1209Y3965D01*
X1316Y3882D01*
X1441Y3831D01*
X1525Y3819D01*
Y4281D01*
D02*
G37*
G36*
X4381Y3332D02*
Y3200D01*
X4513D01*
X4508Y3223D01*
X4467Y3286D01*
X4404Y3327D01*
X4381Y3332D01*
D02*
G37*
G36*
X4281D02*
X4257Y3327D01*
X4195Y3286D01*
X4153Y3223D01*
X4148Y3200D01*
X4281D01*
Y3332D01*
D02*
G37*
G36*
X4513Y3100D02*
X4381D01*
Y2967D01*
X4404Y2972D01*
X4467Y3014D01*
X4508Y3076D01*
X4513Y3100D01*
D02*
G37*
G36*
X4281D02*
X4148D01*
X4153Y3076D01*
X4195Y3014D01*
X4257Y2972D01*
X4281Y2967D01*
Y3100D01*
D02*
G37*
G36*
X9646Y5358D02*
X9592Y5347D01*
X9546Y5316D01*
X9515Y5271D01*
X9504Y5217D01*
X9515Y5162D01*
X9516Y5161D01*
X9493Y5138D01*
X9477Y5113D01*
X9471Y5084D01*
Y2576D01*
X9447Y2561D01*
X9417Y2515D01*
X9406Y2461D01*
X9417Y2407D01*
X9447Y2361D01*
X9493Y2330D01*
X9547Y2319D01*
X9601Y2330D01*
X9647Y2361D01*
X9678Y2407D01*
X9689Y2461D01*
X9678Y2515D01*
X9647Y2561D01*
X9624Y2576D01*
Y5052D01*
X9647Y5076D01*
X9700Y5086D01*
X9746Y5117D01*
X9776Y5162D01*
X9787Y5217D01*
X9776Y5271D01*
X9746Y5316D01*
X9700Y5347D01*
X9646Y5358D01*
D02*
G37*
G36*
X18898Y2908D02*
X18689Y2892D01*
X18486Y2843D01*
X18292Y2763D01*
X18114Y2654D01*
X17955Y2518D01*
X17819Y2359D01*
X17709Y2180D01*
X17629Y1987D01*
X17580Y1783D01*
X17564Y1575D01*
X17580Y1366D01*
X17629Y1163D01*
X17709Y969D01*
X17819Y791D01*
X17955Y632D01*
X18114Y496D01*
X18292Y387D01*
X18486Y306D01*
X18689Y258D01*
X18898Y241D01*
X19106Y258D01*
X19310Y306D01*
X19503Y387D01*
X19682Y496D01*
X19841Y632D01*
X19977Y791D01*
X20086Y969D01*
X20166Y1163D01*
X20215Y1366D01*
X20231Y1575D01*
X20215Y1783D01*
X20166Y1987D01*
X20086Y2180D01*
X19977Y2359D01*
X19841Y2518D01*
X19682Y2654D01*
X19503Y2763D01*
X19310Y2843D01*
X19106Y2892D01*
X18898Y2908D01*
D02*
G37*
G36*
X1575D02*
X1366Y2892D01*
X1163Y2843D01*
X969Y2763D01*
X791Y2654D01*
X632Y2518D01*
X496Y2359D01*
X387Y2180D01*
X306Y1987D01*
X258Y1783D01*
X241Y1575D01*
X258Y1366D01*
X306Y1163D01*
X387Y969D01*
X496Y791D01*
X632Y632D01*
X791Y496D01*
X969Y387D01*
X1163Y306D01*
X1366Y258D01*
X1575Y241D01*
X1783Y258D01*
X1987Y306D01*
X2180Y387D01*
X2359Y496D01*
X2518Y632D01*
X2654Y791D01*
X2763Y969D01*
X2843Y1163D01*
X2892Y1366D01*
X2908Y1575D01*
X2892Y1783D01*
X2843Y1987D01*
X2763Y2180D01*
X2654Y2359D01*
X2518Y2518D01*
X2359Y2654D01*
X2180Y2763D01*
X1987Y2843D01*
X1783Y2892D01*
X1575Y2908D01*
D02*
G37*
%LPD*%
D11*
X11348Y3179D02*
X13189Y5020D01*
X11348Y2461D02*
Y3179D01*
X5020Y5217D02*
X7087D01*
X7283Y5413D01*
X13976Y5217D02*
X16043D01*
X16240Y5413D01*
X8071Y4626D02*
X8701D01*
X7283Y5413D02*
X8071Y4626D01*
X9547Y2461D02*
Y5084D01*
X9646Y5182D01*
Y5217D01*
D26*
X18898Y6299D02*
D03*
X1575Y4331D02*
D03*
D27*
X18898D02*
D03*
X1575Y6299D02*
D03*
D28*
X18898Y1575D02*
D03*
Y9055D02*
D03*
X1575Y1575D02*
D03*
Y9055D02*
D03*
D29*
X4331Y3150D02*
D03*
X13189Y5020D02*
D03*
X11348Y2461D02*
D03*
X5020Y5217D02*
D03*
X15846Y8169D02*
D03*
X11752D02*
D03*
X7087D02*
D03*
X16240Y5413D02*
D03*
X13976Y5217D02*
D03*
X8701Y4626D02*
D03*
X7283Y5413D02*
D03*
X9547Y2461D02*
D03*
X9646Y5217D02*
D03*
D30*
X18898Y2525D02*
D03*
X19848Y1575D02*
D03*
X17998D02*
D03*
X18898Y625D02*
D03*
X18248Y925D02*
D03*
X18198Y2225D02*
D03*
X19548Y2275D02*
D03*
Y875D02*
D03*
X18898Y10005D02*
D03*
X19848Y9055D02*
D03*
X17998D02*
D03*
X18898Y8105D02*
D03*
X18248Y8405D02*
D03*
X18198Y9705D02*
D03*
X19548Y9755D02*
D03*
Y8355D02*
D03*
X1575Y2525D02*
D03*
X2525Y1575D02*
D03*
X675D02*
D03*
X1575Y625D02*
D03*
X925Y925D02*
D03*
X875Y2225D02*
D03*
X2225Y2275D02*
D03*
Y875D02*
D03*
X1575Y10005D02*
D03*
X2525Y9055D02*
D03*
X675D02*
D03*
X1575Y8105D02*
D03*
X925Y8405D02*
D03*
X875Y9705D02*
D03*
X2225Y9755D02*
D03*
Y8355D02*
D03*
M02*
