G04*
G04 #@! TF.GenerationSoftware,Altium Limited,Altium Designer,22.1.2 (22)*
G04*
G04 Layer_Color=8388736*
%FSLAX24Y24*%
%MOIN*%
G70*
G04*
G04 #@! TF.SameCoordinates,7A650634-9A44-4CAA-BA79-F25DBBA71C61*
G04*
G04*
G04 #@! TF.FilePolarity,Negative*
G04*
G01*
G75*
%ADD14C,0.1580*%
%ADD15R,0.0780X0.0780*%
%ADD16R,0.0474X0.0474*%
%ADD17C,0.0474*%
%ADD18C,0.0671*%
%ADD19R,0.0671X0.0671*%
%ADD20C,0.0631*%
%ADD21R,0.1080X0.0580*%
%ADD22O,0.1080X0.0580*%
%ADD23C,0.0552*%
D14*
X27200Y2700D02*
D03*
X1850Y18100D02*
D03*
D15*
X21050Y14550D02*
D03*
Y13550D02*
D03*
Y12550D02*
D03*
X22050Y14550D02*
D03*
Y13550D02*
D03*
Y12550D02*
D03*
D16*
X13000Y2328D02*
D03*
X12983Y5944D02*
D03*
D17*
X13000Y2828D02*
D03*
X12983Y5444D02*
D03*
D18*
X25100Y17100D02*
D03*
X16450Y17200D02*
D03*
D19*
X26100Y17100D02*
D03*
X17450Y17200D02*
D03*
D20*
X27700Y10450D02*
D03*
X24700D02*
D03*
X18600D02*
D03*
X15600D02*
D03*
D21*
X20350Y8600D02*
D03*
D22*
Y7600D02*
D03*
Y6600D02*
D03*
Y5600D02*
D03*
X23350Y8600D02*
D03*
Y7600D02*
D03*
Y6600D02*
D03*
Y5600D02*
D03*
D23*
X13000Y9000D02*
D03*
Y12000D02*
D03*
M02*
