M48
;Layer_Color=9474304
;FILE_FORMAT=2:4
INCH,TZ
;TYPE=PLATED
T1F00S00C0.0236
T2F00S00C0.0250
T3F00S00C0.0276
T4F00S00C0.0335
T5F00S00C0.0354
T6F00S00C0.0500
T7F00S00C0.1000
%
T01
X13000Y2328
Y2828
X12983Y5444
Y5944
T02
X20350Y5600
X23350
Y6600
Y7600
Y8600
X20350
Y7600
Y6600
T03
X13000Y9000
Y12000
T04
X24700Y10450
X27700
X18600
X15600
T05
X25100Y17100
X26100
X17450Y17200
X16450
T06
X22050Y12550
Y13550
Y14550
X21050
Y13550
Y12550
T07
X27200Y2700
X1850Y18100
M30
