M48
;Layer_Color=9474304
;FILE_FORMAT=2:4
INCH,LZ
;TYPE=PLATED
T1F00S00C0.0276
T2F00S00C0.0335
T3F00S00C0.0354
%
T01
X00805Y0045
X01105
X02505Y0075
Y0103
X02805
Y0075
X01645Y00665
X0164Y00945
X0134
X01345Y00665
X011Y00715
X008
X0099Y01515
X0129
X0052Y0118
Y00915
X0022
Y0118
T02
X01045Y01755
X01345
X01275Y0203
X0209Y0199
X0048Y02045
Y01745
Y0217
Y0247
X01275Y02425
Y0233
Y02725
X02085Y02715
Y02415
X0209Y0229
T03
X021386Y013136
X022093Y012843
X0228Y013136
X023093Y013843
X0228Y01455
X022093Y014843
X021386Y01455
X021093Y013843
X009807Y011707
X0101Y011
X009807Y010293
X0091Y01
X008393Y010293
X0081Y011
X008393Y011707
X0091Y012
X0023Y02095
Y02195
X007793Y023943
X0075Y02465
X007793Y025357
X0085Y02565
X009207Y025357
X0095Y02465
X009207Y023943
X0085Y02365
X015793Y023943
X0155Y02465
X015793Y025357
X0165Y02565
X017207Y025357
X0175Y02465
X017207Y023943
X0165Y02365
X023993Y023943
X0237Y02465
X023993Y025357
X0247Y02565
X025407Y025357
X0257Y02465
X025407Y023943
X0247Y02365
M30
